<?xml version="1.0" encoding="UTF-8" standalone="no"?>
<!-- Created with Inkscape (http://www.inkscape.org/) -->

<svg
   xmlns:dc="http://purl.org/dc/elements/1.1/"
   xmlns:cc="http://creativecommons.org/ns#"
   xmlns:rdf="http://www.w3.org/1999/02/22-rdf-syntax-ns#"
   xmlns:svg="http://www.w3.org/2000/svg"
   xmlns="http://www.w3.org/2000/svg"
   xmlns:sodipodi="http://sodipodi.sourceforge.net/DTD/sodipodi-0.dtd"
   xmlns:inkscape="http://www.inkscape.org/namespaces/inkscape"
   width="1000"
   height="1000"
   viewBox="0 0 1000 1000"
   version="1.1"
   id="svg756"
   inkscape:version="0.92.3 (2405546, 2018-03-11)"
   sodipodi:docname="u0042.svg">
  <defs
     id="defs750" />
  <sodipodi:namedview
     id="base"
     pagecolor="#ffffff"
     bordercolor="#666666"
     borderopacity="1.0"
     inkscape:pageopacity="0.0"
     inkscape:pageshadow="2"
     inkscape:zoom="0.7"
     inkscape:cx="416.49654"
     inkscape:cy="698.64949"
     inkscape:document-units="px"
     inkscape:current-layer="layer1"
     showgrid="true"
     units="px"
     inkscape:window-width="1118"
     inkscape:window-height="864"
     inkscape:window-x="615"
     inkscape:window-y="128"
     inkscape:window-maximized="0"
     showguides="true"
     inkscape:guide-bbox="true">
    <inkscape:grid
       type="xygrid"
       id="grid758" />
    <sodipodi:guide
       position="240,200"
       orientation="0,1"
       id="guide8"
       inkscape:locked="false" />
  </sodipodi:namedview>
  <metadata
     id="metadata753">
    <rdf:RDF>
      <cc:Work
         rdf:about="">
        <dc:format>image/svg+xml</dc:format>
        <dc:type
           rdf:resource="http://purl.org/dc/dcmitype/StillImage" />
        <dc:title />
      </cc:Work>
    </rdf:RDF>
  </metadata>
  <g
     inkscape:label="Layer 1"
     inkscape:groupmode="layer"
     id="layer1"
     transform="translate(0,-32.41664)"
     style="display:inline">
    <path
       style="display:inline;fill:#000000;stroke-width:19.74505424"
       d="m 239.18672,112.41667 c -55.05238,0.80166 -112.01871,11.88013 -157.918906,41.93038 -13.845239,9.66725 -27.939038,20.41217 -36.260012,34.83203 -3.160777,7.51936 3.595333,13.79077 10.1628,16.93655 16.49289,9.12054 38.456763,10.95012 50.495028,26.29553 11.26488,16.34603 7.76715,36.98907 6.09446,55.25241 -7.78275,58.37424 -23.389885,115.50973 -31.529916,173.80749 -8.603771,56.04878 -15.925952,113.00242 -10.403748,169.53705 2.581357,22.4094 7.426083,46.67193 24.14863,63.94745 9.626704,9.39568 23.666694,12.26854 37.106904,13.15561 20.18355,2.13758 43.21436,-0.30023 57.55004,-15.29544 17.55988,-18.58081 19.70587,-44.82071 20.52806,-68.49506 0.1451,-19.31761 0.40672,-38.82699 -3.99484,-57.75093 -0.78627,-4.28554 -5.73256,-7.87987 -9.90538,-4.40211 -9.37843,6.02901 -15.16413,15.71305 -22.90735,23.35956 -6.79268,7.20644 -14.35561,15.40329 -24.77091,17.57523 -7.82717,0.0245 -13.97384,-9.01076 -14.50603,-14.82129 -2.1391,-31.79959 -0.33983,-69.1948 5.74477,-100.25949 16.84699,-76.03647 32.54531,-145.90056 47.741,-222.23826 6.5,-29.27717 10.51471,-60.33575 27.85848,-86.1469 7.49206,-11.15619 25.15914,-20.73247 39.66522,-22.02983 19.79717,-2.43717 48.73251,-0.0639 65.79305,8.3083 12.06696,5.92168 36.39,19.47271 42.03489,31.68517 11.19072,22.29852 1.7095,48.08159 -6.3523,70.4514 -13.38259,35.83812 -54.80894,67.59911 -80.61495,96.52478 -22.29948,25.09515 -45.02368,45.76224 -61.01676,75.34855 -6.16879,10.73824 -7.60062,23.43593 -3.70845,35.09097 10.15911,33.05295 29.42757,63.63505 55.95746,87.50622 18.59544,19.42601 39.23705,38.39861 50.29867,62.80445 4.53456,11.61665 1.25332,24.95448 -7.46506,34.08734 -18.53437,22.46734 -47.18746,34.46142 -74.17739,45.64137 -33.39333,12.96111 -70.7899,15.26681 -102.61619,31.8272 -3.46057,1.43043 -9.40574,5.23183 -5.4694,9.08418 13.12654,8.1163 29.56942,7.88433 44.71596,8.39659 28.16037,-1.1025 54.58194,-11.28104 80.68311,-20.34495 48.78641,-18.36582 96.69166,-40.08686 139.47423,-69.01012 8.16234,-6.02916 17.49942,-12.49823 20.83243,-22.08188 -0.14042,-9.43177 -7.45448,-17.07596 -12.10662,-24.98019 -23.21336,-34.03773 -53.98514,-62.64629 -81.37888,-93.64082 -16.2282,-19.1191 -32.28961,-41.57341 -31.41486,-67.06323 1.54466,-25.06342 19.93407,-45.37133 37.68882,-62.61865 23.17401,-21.84969 51.25125,-39.35492 69.91825,-65.19148 26.11328,-33.72789 43.69477,-75.77678 40.16599,-117.95563 -1.99116,-20.75656 -12.1438,-41.49948 -30.70001,-53.81887 -43.56991,-32.3169 -100.26925,-43.64513 -154.70458,-45.17608 -3.57784,-0.0777 -7.1571,-0.0912 -10.73571,-0.0646 z"
       id="path493"
       inkscape:connector-curvature="0"
       sodipodi:nodetypes="cccccccccccccccccccccscccccccccccccccccccccccc" />
  </g>
</svg>
