<?xml version="1.0" encoding="UTF-8" standalone="no"?>
<!-- Created with Inkscape (http://www.inkscape.org/) -->

<svg
   xmlns:dc="http://purl.org/dc/elements/1.1/"
   xmlns:cc="http://creativecommons.org/ns#"
   xmlns:rdf="http://www.w3.org/1999/02/22-rdf-syntax-ns#"
   xmlns:svg="http://www.w3.org/2000/svg"
   xmlns="http://www.w3.org/2000/svg"
   xmlns:sodipodi="http://sodipodi.sourceforge.net/DTD/sodipodi-0.dtd"
   xmlns:inkscape="http://www.inkscape.org/namespaces/inkscape"
   width="1000"
   height="1000"
   viewBox="0 0 1000 1000"
   version="1.1"
   id="svg756"
   inkscape:version="0.92.3 (2405546, 2018-03-11)"
   sodipodi:docname="u0045.svg">
  <defs
     id="defs750" />
  <sodipodi:namedview
     id="base"
     pagecolor="#ffffff"
     bordercolor="#666666"
     borderopacity="1.0"
     inkscape:pageopacity="0.0"
     inkscape:pageshadow="2"
     inkscape:zoom="0.35"
     inkscape:cx="551.42857"
     inkscape:cy="576.33663"
     inkscape:document-units="px"
     inkscape:current-layer="layer1"
     showgrid="true"
     units="px"
     inkscape:window-width="1118"
     inkscape:window-height="864"
     inkscape:window-x="375"
     inkscape:window-y="92"
     inkscape:window-maximized="0"
     showguides="true"
     inkscape:guide-bbox="true">
    <inkscape:grid
       type="xygrid"
       id="grid758" />
    <sodipodi:guide
       position="240,200"
       orientation="0,1"
       id="guide8"
       inkscape:locked="false" />
  </sodipodi:namedview>
  <metadata
     id="metadata753">
    <rdf:RDF>
      <cc:Work
         rdf:about="">
        <dc:format>image/svg+xml</dc:format>
        <dc:type
           rdf:resource="http://purl.org/dc/dcmitype/StillImage" />
        <dc:title />
      </cc:Work>
    </rdf:RDF>
  </metadata>
  <g
     inkscape:label="Layer 1"
     inkscape:groupmode="layer"
     id="layer1"
     transform="translate(0,-32.41664)"
     style="display:inline">
    <path
       style="display:inline;fill:#000000;stroke-width:14.59525681"
       d="m 66.596455,117.93902 c -8.819775,-0.29888 -12.585529,8.90181 -13.430094,16.22149 -8.807185,37.34422 -7.421838,75.96998 -10.515481,114.10098 -4.855371,99.18899 -9.874652,198.79802 -2.689458,297.93568 0.60185,10.0716 3.768043,21.66438 13.8826,26.06848 12.823196,6.66938 29.162385,6.96605 42.105695,0.57022 8.611963,-6.69182 7.590313,-18.80996 9.162953,-28.45709 2.9132,-37.53486 -1.55859,-75.41153 2.78807,-112.88663 1.40353,-14.03451 11.88456,-27.0483 26.12254,-29.40714 26.76212,-4.08512 53.57684,2.8454 79.93989,6.76172 46.85957,6.87308 93.36487,19.23267 140.83705,19.36513 12.64618,-1.56197 21.59157,-11.61224 28.35974,-21.52324 7.03007,-9.25084 14.21159,-22.30139 8.27551,-33.7958 -9.64642,-14.90447 -28.87251,-17.89962 -44.77306,-21.93436 -55.63061,-10.99473 -113.0114,-2.7537 -168.96944,-11.93815 -18.81467,-2.57849 -39.35203,-6.68109 -53.10385,-20.81794 -7.07929,-9.46911 -2.51343,-22.57116 5.08866,-30.23737 15.26789,-20.54231 37.25677,-34.73421 60.23399,-45.28706 34.0497,-17.04726 71.00988,-26.78047 107.23354,-37.90988 14.3847,-5.05592 30.24581,-9.33077 41.26903,-20.46757 9.38692,-11.00295 9.50406,-26.29583 10.45376,-39.88385 0.61961,-4.2357 -3.09848,-6.15661 -6.91549,-6.0552 -36.90966,1.41541 -74.45361,3.60393 -109.65387,15.21821 -24.54711,7.94785 -46.34418,22.35818 -65.73792,39.17518 -11.96221,9.32459 -25.63953,20.74601 -41.89301,18.58889 -12.68433,-2.42103 -19.15915,-15.82202 -22.12478,-27.16585 -4.770613,-16.32198 -4.663725,-33.52575 -9.533023,-49.75372 -1.824857,-7.42459 -7.266712,-14.13184 -14.967685,-15.36126 -3.735692,-0.93293 -7.607954,-1.16529 -11.445867,-1.12387 z M 372.88194,573.92863 c -32.59347,3.8597 -60.37181,23.0848 -89.16744,37.82676 -43.14859,24.51704 -85.77688,53.57474 -135.52163,62.54109 -10.49751,1.26659 -24.16295,-3.57946 -25.96503,-15.30634 -2.35708,-15.63136 9.79053,-28.2013 18.02865,-39.96842 7.75062,-10.1147 16.88188,-19.96162 20.00099,-32.61479 -20.77868,5.01119 -38.8085,17.83141 -56.20979,29.77056 -25.57765,17.75353 -46.503143,45.15914 -49.480391,76.94368 -1.45071,15.5274 2.021269,32.86467 14.851726,43.03022 14.333038,11.72898 33.249945,17.65032 51.767255,17.62183 21.04797,-0.35753 40.75474,-9.81191 60.17574,-16.9399 58.17276,-24.31841 112.84201,-57.55431 159.99295,-99.50808 12.76221,-12.30903 27.03088,-24.34031 36.04454,-39.54751 3.83756,-6.73229 6.42176,-17.55957 -0.76518,-22.97413 -1.13563,-0.63358 -2.45086,-0.9624 -3.75239,-0.87497 z"
       id="path632"
       inkscape:connector-curvature="0" />
  </g>
</svg>
