<?xml version="1.0" encoding="UTF-8" standalone="no"?>
<!-- Created with Inkscape (http://www.inkscape.org/) -->

<svg
   xmlns:dc="http://purl.org/dc/elements/1.1/"
   xmlns:cc="http://creativecommons.org/ns#"
   xmlns:rdf="http://www.w3.org/1999/02/22-rdf-syntax-ns#"
   xmlns:svg="http://www.w3.org/2000/svg"
   xmlns="http://www.w3.org/2000/svg"
   xmlns:sodipodi="http://sodipodi.sourceforge.net/DTD/sodipodi-0.dtd"
   xmlns:inkscape="http://www.inkscape.org/namespaces/inkscape"
   width="1000"
   height="1000"
   viewBox="0 0 1000 1000"
   version="1.1"
   id="svg756"
   inkscape:version="0.92.3 (2405546, 2018-03-11)"
   sodipodi:docname="u0044.svg">
  <defs
     id="defs750" />
  <sodipodi:namedview
     id="base"
     pagecolor="#ffffff"
     bordercolor="#666666"
     borderopacity="1.0"
     inkscape:pageopacity="0.0"
     inkscape:pageshadow="2"
     inkscape:zoom="0.7"
     inkscape:cx="339.40455"
     inkscape:cy="638.09559"
     inkscape:document-units="px"
     inkscape:current-layer="layer1"
     showgrid="true"
     units="px"
     inkscape:window-width="1118"
     inkscape:window-height="864"
     inkscape:window-x="666"
     inkscape:window-y="128"
     inkscape:window-maximized="0"
     showguides="true"
     inkscape:guide-bbox="true">
    <inkscape:grid
       type="xygrid"
       id="grid758" />
    <sodipodi:guide
       position="240,200"
       orientation="0,1"
       id="guide8"
       inkscape:locked="false" />
  </sodipodi:namedview>
  <metadata
     id="metadata753">
    <rdf:RDF>
      <cc:Work
         rdf:about="">
        <dc:format>image/svg+xml</dc:format>
        <dc:type
           rdf:resource="http://purl.org/dc/dcmitype/StillImage" />
        <dc:title />
      </cc:Work>
    </rdf:RDF>
  </metadata>
  <g
     inkscape:label="Layer 1"
     inkscape:groupmode="layer"
     id="layer1"
     transform="translate(0,-32.41664)"
     style="display:inline">
    <path
       style="display:inline;fill:#000000;stroke-width:28.52077484"
       d="m 99.672906,722.41664 c 0,-15.26241 25.412354,-30.52856 56.471914,-41.25806 53.83349,-18.59673 136.35649,-67.32943 186.37665,-125.84454 43.04417,-50.35438 87.86761,-93.50972 87.86761,-128.84882 0,-37.98457 -58.41855,-120.21398 -102.5379,-157.53489 C 281.85265,230.01982 240,206.41664 171.17863,208.68932 c -19.05121,0.62913 -40.93454,5.03986 -47.47313,21.49303 -9.54276,24.01265 -7.72322,80.50807 -0.30529,193.34982 7.58252,115.34556 12.28984,216.65368 -1.81441,226.14129 C 82.820359,675.75012 79.907961,664.31431 59.225115,404.80952 L 40,163.59483 l 84.8684,-18.4744 c 73.37633,-15.97277 156.36848,9.17498 227.30007,63.90306 37.50641,28.9385 71.64073,66.14755 99.19828,109.92102 29.17462,46.34209 44.49739,81.00676 43.33095,114.91487 -1.65774,48.1903 -36.62065,94.85247 -112.45942,171.33556 C 257.17522,731.32054 99.672906,796.66005 99.672906,722.41664 Z"
       id="path600"
       inkscape:connector-curvature="0"
       sodipodi:nodetypes="sssssssssscssssss" />
  </g>
</svg>
