<?xml version="1.0" encoding="UTF-8" standalone="no"?>
<!-- Created with Inkscape (http://www.inkscape.org/) -->

<svg
   xmlns:dc="http://purl.org/dc/elements/1.1/"
   xmlns:cc="http://creativecommons.org/ns#"
   xmlns:rdf="http://www.w3.org/1999/02/22-rdf-syntax-ns#"
   xmlns:svg="http://www.w3.org/2000/svg"
   xmlns="http://www.w3.org/2000/svg"
   xmlns:sodipodi="http://sodipodi.sourceforge.net/DTD/sodipodi-0.dtd"
   xmlns:inkscape="http://www.inkscape.org/namespaces/inkscape"
   width="1000"
   height="1000"
   viewBox="0 0 1000 1000"
   version="1.1"
   id="svg756"
   inkscape:version="0.92.3 (2405546, 2018-03-11)"
   sodipodi:docname="u0041.svg">
  <defs
     id="defs750" />
  <sodipodi:namedview
     id="base"
     pagecolor="#ffffff"
     bordercolor="#666666"
     borderopacity="1.0"
     inkscape:pageopacity="0.0"
     inkscape:pageshadow="2"
     inkscape:zoom="0.35"
     inkscape:cx="551.42857"
     inkscape:cy="576.33663"
     inkscape:document-units="px"
     inkscape:current-layer="layer1"
     showgrid="true"
     units="px"
     inkscape:window-width="1118"
     inkscape:window-height="864"
     inkscape:window-x="706"
     inkscape:window-y="127"
     inkscape:window-maximized="0"
     showguides="true"
     inkscape:guide-bbox="true">
    <inkscape:grid
       type="xygrid"
       id="grid758" />
    <sodipodi:guide
       position="240,200"
       orientation="0,1"
       id="guide8"
       inkscape:locked="false" />
  </sodipodi:namedview>
  <metadata
     id="metadata753">
    <rdf:RDF>
      <cc:Work
         rdf:about="">
        <dc:format>image/svg+xml</dc:format>
        <dc:type
           rdf:resource="http://purl.org/dc/dcmitype/StillImage" />
        <dc:title />
      </cc:Work>
    </rdf:RDF>
  </metadata>
  <g
     inkscape:label="Layer 1"
     inkscape:groupmode="layer"
     id="layer1"
     transform="translate(0,-32.41664)"
     style="display:inline">
    <path
       style="display:inline;fill:#000000;stroke-width:18.80382729"
       d="m 261.38055,118.41664 c -16.06624,2.14917 -34.5732,0.9542 -47.49887,11.8784 -12.75813,12.55199 -20.87393,28.65645 -29.64712,43.81559 -23.94454,43.74784 -38.92272,91.42994 -53.07932,138.80909 -22.85268,73.4235 -47.62915,146.31211 -69.844231,219.89528 -10.756835,38.84199 -21.41204,78.66252 -19.419948,119.15363 0.867365,8.82029 3.309194,20.10694 12.600636,24.18394 12.718146,3.58626 23.625803,-5.98435 32.661503,-13.19346 20.5586,-18.32816 30.4812,-44.42969 39.72038,-69.1533 13.86573,-39.7266 18.32919,-81.66343 26.58769,-122.66211 25.7199,33.37688 50.33083,68.35141 83.75006,95.19601 1.83176,0.68037 7.5395,6.92088 5.84202,2.13498 -4.42121,-21.88682 -12.1187,-42.97324 -19.47523,-64.08782 35.10273,20.4649 72.33185,37.46733 111.56498,49.2568 7.52289,2.60195 15.0596,5.17184 22.67947,7.49981 3.37602,35.22892 8.80583,70.50972 6.58219,105.99217 -0.18579,15.49111 -0.35083,30.98245 -0.61046,46.47258 -26.44027,-34.88325 -49.53289,-72.86664 -83.4591,-101.74799 -8.42311,-7.52215 -17.20887,-14.65973 -26.20418,-21.53557 29.29808,69.48577 57.51597,139.61573 93.58468,206.17977 7.41167,12.39621 17.6513,25.55106 32.89664,28.79455 11.0773,1.35412 20.29567,-6.63745 25.11396,-15.49738 12.65978,-20.6092 15.9676,-44.90555 20.01233,-68.25096 6.233,-43.75751 7.24023,-88.20919 6.71422,-132.37814 -0.57888,-14.30333 -1.89536,-28.57161 -3.87539,-42.75843 34.99262,-2.20508 70.79874,-8.64232 101.28991,-26.14977 10.64494,-6.64832 22.08178,-16.79928 21.78223,-30.00163 -1.60401,-10.67386 -13.34394,-15.58691 -23.39969,-15.71721 -23.87189,-1.62489 -45.55226,11.38094 -68.29322,16.71083 -13.03389,3.45161 -26.60252,5.82641 -40.16246,4.70975 -6.36157,-19.76204 -8.86198,-40.45506 -14.70268,-60.36579 C 388.62323,395.72509 361.46144,338.485 326.60532,286.51477 313.66955,267.20966 298.43545,249.28889 280.0528,234.56026 c -11.01655,-9.31761 -22.22093,-18.62821 -35.16953,-25.39667 12.57511,-24.94904 27.22571,-50.27134 29.15591,-78.44766 -0.0948,-6.59082 -5.24059,-13.22763 -12.65863,-12.29929 z m -38.5947,154.84149 c 18.13794,6.38826 29.40461,22.68482 41.03709,36.54483 27.86749,36.4068 49.44401,77.24554 64.62497,120.01953 7.3773,22.93131 13.49551,46.33854 18.45655,69.811 -1.25168,4.22579 -6.80705,1.17663 -9.44758,0.21975 -36.26269,-11.32266 -70.36255,-28.2929 -104.5484,-44.40467 -21.05887,-10.62525 -42.61799,-21.07669 -61.02188,-35.72654 -4.42951,-5.7883 -0.022,-13.05623 0.31724,-19.36176 8.16947,-37.45314 24.18867,-72.72195 39.31786,-107.92155 3.05458,-6.64626 6.30821,-13.20717 9.80933,-19.64547 l 0.85187,0.2722 z"
       id="path472"
       inkscape:connector-curvature="0" />
  </g>
</svg>
