<?xml version="1.0" encoding="UTF-8" standalone="no"?>
<!-- Created with Inkscape (http://www.inkscape.org/) -->

<svg
   xmlns:dc="http://purl.org/dc/elements/1.1/"
   xmlns:cc="http://creativecommons.org/ns#"
   xmlns:rdf="http://www.w3.org/1999/02/22-rdf-syntax-ns#"
   xmlns:svg="http://www.w3.org/2000/svg"
   xmlns="http://www.w3.org/2000/svg"
   xmlns:sodipodi="http://sodipodi.sourceforge.net/DTD/sodipodi-0.dtd"
   xmlns:inkscape="http://www.inkscape.org/namespaces/inkscape"
   width="1000"
   height="1000"
   viewBox="0 0 1000 1000"
   version="1.1"
   id="svg756"
   inkscape:version="0.92.3 (2405546, 2018-03-11)"
   sodipodi:docname="u004c.svg">
  <defs
     id="defs750" />
  <sodipodi:namedview
     id="base"
     pagecolor="#ffffff"
     bordercolor="#666666"
     borderopacity="1.0"
     inkscape:pageopacity="0.0"
     inkscape:pageshadow="2"
     inkscape:zoom="0.35"
     inkscape:cx="551.42857"
     inkscape:cy="919.19377"
     inkscape:document-units="px"
     inkscape:current-layer="layer1"
     showgrid="true"
     units="px"
     inkscape:window-width="1118"
     inkscape:window-height="864"
     inkscape:window-x="684"
     inkscape:window-y="7"
     inkscape:window-maximized="0"
     showguides="true"
     inkscape:guide-bbox="true">
    <inkscape:grid
       type="xygrid"
       id="grid758" />
    <sodipodi:guide
       position="240,200"
       orientation="0,1"
       id="guide8"
       inkscape:locked="false" />
  </sodipodi:namedview>
  <metadata
     id="metadata753">
    <rdf:RDF>
      <cc:Work
         rdf:about="">
        <dc:format>image/svg+xml</dc:format>
        <dc:type
           rdf:resource="http://purl.org/dc/dcmitype/StillImage" />
        <dc:title />
      </cc:Work>
    </rdf:RDF>
  </metadata>
  <g
     inkscape:label="Layer 1"
     inkscape:groupmode="layer"
     id="layer1"
     transform="translate(0,-32.41664)"
     style="display:inline">
    <path
       style="display:inline;fill:#000000;stroke-width:13.27987862"
       d="m 86.662632,121.06099 c -16.116593,0.12606 -27.329996,16.41728 -27.977089,31.35565 -5.304732,49.42827 -0.01371,99.23604 -3.407229,148.71771 -2.607969,99.187 -13.320123,198.28502 -9.951851,297.61456 1.917411,31.71996 6.349867,65.4968 25.952953,91.64567 20.099757,25.41307 50.973054,38.76191 80.298424,50.44893 23.84741,9.10125 49.00155,14.42508 72.72441,23.55567 17.9839,9.7361 34.99146,22.64617 55.61604,26.58382 36.57823,9.62056 75.27501,10.62974 112.5367,4.66045 18.93948,-3.68546 38.89007,-10.45911 51.79246,-25.51811 6.73157,-9.68698 3.1103,-24.34787 -7.35596,-29.80186 -13.58807,-8.27354 -30.25907,-6.42232 -45.16334,-10.45672 -65.16546,-11.33789 -129.54363,-28.34792 -190.70199,-53.46347 -26.56052,-9.9485 -53.2953,-19.42389 -79.88107,-29.30583 -7.08717,-103.71368 -19.26407,-208.73473 -0.9478,-311.87018 8.22678,-53.17164 9.2187,-107.59833 2.04535,-160.88153 -0.61813,-15.47731 0.0264,-34.14263 -12.87336,-45.20406 -6.24643,-5.32407 -14.464382,-8.42627 -22.706648,-8.0807 z"
       id="path833"
       inkscape:connector-curvature="0" />
  </g>
</svg>
