<?xml version="1.0" encoding="UTF-8" standalone="no"?>
<!-- Created with Inkscape (http://www.inkscape.org/) -->

<svg
   xmlns:dc="http://purl.org/dc/elements/1.1/"
   xmlns:cc="http://creativecommons.org/ns#"
   xmlns:rdf="http://www.w3.org/1999/02/22-rdf-syntax-ns#"
   xmlns:svg="http://www.w3.org/2000/svg"
   xmlns="http://www.w3.org/2000/svg"
   xmlns:sodipodi="http://sodipodi.sourceforge.net/DTD/sodipodi-0.dtd"
   xmlns:inkscape="http://www.inkscape.org/namespaces/inkscape"
   width="1000"
   height="1000"
   viewBox="0 0 1000 1000"
   version="1.1"
   id="svg756"
   inkscape:version="0.92.3 (2405546, 2018-03-11)"
   sodipodi:docname="u0054.svg">
  <defs
     id="defs750" />
  <sodipodi:namedview
     id="base"
     pagecolor="#ffffff"
     bordercolor="#666666"
     borderopacity="1.0"
     inkscape:pageopacity="0.0"
     inkscape:pageshadow="2"
     inkscape:zoom="0.35"
     inkscape:cx="551.42857"
     inkscape:cy="576.33663"
     inkscape:document-units="px"
     inkscape:current-layer="layer1"
     showgrid="true"
     units="px"
     inkscape:window-width="1118"
     inkscape:window-height="864"
     inkscape:window-x="614"
     inkscape:window-y="132"
     inkscape:window-maximized="0"
     showguides="true"
     inkscape:guide-bbox="true">
    <inkscape:grid
       type="xygrid"
       id="grid758" />
    <sodipodi:guide
       position="240,200"
       orientation="0,1"
       id="guide8"
       inkscape:locked="false" />
  </sodipodi:namedview>
  <metadata
     id="metadata753">
    <rdf:RDF>
      <cc:Work
         rdf:about="">
        <dc:format>image/svg+xml</dc:format>
        <dc:type
           rdf:resource="http://purl.org/dc/dcmitype/StillImage" />
        <dc:title />
      </cc:Work>
    </rdf:RDF>
  </metadata>
  <g
     inkscape:label="Layer 1"
     inkscape:groupmode="layer"
     id="layer1"
     transform="translate(0,-32.41664)"
     style="display:inline">
    <path
       style="display:inline;fill:#000000;stroke-width:11.39690399"
       d="M 418.55205,82.203503 C 369.10032,88.378225 324.61328,112.54726 278.60706,129.97188 202.93592,162.37729 127.24194,196.09053 58,240.97606 c -12.938762,9.95877 -22.552163,28.15352 -15.642272,44.30342 6.280823,14.62457 24.801126,20.95057 39.335485,15.60829 22.180867,-5.73197 39.984177,-21.23872 61.103237,-29.52587 27.53403,-13.34866 55.83925,-25.02133 83.86545,-37.35482 3.68344,157.65418 1.07667,315.76274 16.63299,472.87704 4.67102,25.71805 29.3758,46.79534 55.88623,44.92037 14.97992,-0.59607 30.71081,-10.85256 32.6526,-26.59918 2.12938,-13.4739 -5.02859,-26.53995 -14.68195,-35.43162 -7.72736,-11.13302 -6.03346,-25.42728 -8.71291,-38.12511 -10.74673,-82.51205 -11.23708,-165.91047 -13.19162,-249.0367 -0.33412,-52.16894 -0.441,-104.58922 7.07414,-156.25477 4.12151,-14.18563 15.25771,-27.72221 11.25913,-43.27512 -0.0686,-2.51492 -3.9058,-5.99042 0.59509,-6.3189 40.0766,-17.18271 81.58454,-32.35848 118.02834,-56.73842 14.73155,-9.90413 19.8605,-32.42945 8.50697,-46.730113 -5.27814,-6.656277 -13.50098,-11.414485 -22.15886,-11.091054 z"
       id="path529"
       inkscape:connector-curvature="0" />
  </g>
</svg>
