<?xml version="1.0" encoding="UTF-8" standalone="no"?>
<!-- Created with Inkscape (http://www.inkscape.org/) -->

<svg
   xmlns:dc="http://purl.org/dc/elements/1.1/"
   xmlns:cc="http://creativecommons.org/ns#"
   xmlns:rdf="http://www.w3.org/1999/02/22-rdf-syntax-ns#"
   xmlns:svg="http://www.w3.org/2000/svg"
   xmlns="http://www.w3.org/2000/svg"
   xmlns:sodipodi="http://sodipodi.sourceforge.net/DTD/sodipodi-0.dtd"
   xmlns:inkscape="http://www.inkscape.org/namespaces/inkscape"
   width="1000"
   height="1000"
   viewBox="0 0 1000 1000"
   version="1.1"
   id="svg756"
   inkscape:version="0.92.3 (2405546, 2018-03-11)"
   sodipodi:docname="u0051.svg">
  <defs
     id="defs750" />
  <sodipodi:namedview
     id="base"
     pagecolor="#ffffff"
     bordercolor="#666666"
     borderopacity="1.0"
     inkscape:pageopacity="0.0"
     inkscape:pageshadow="2"
     inkscape:zoom="0.35"
     inkscape:cx="551.42857"
     inkscape:cy="576.33663"
     inkscape:document-units="px"
     inkscape:current-layer="layer1"
     showgrid="true"
     units="px"
     inkscape:window-width="1118"
     inkscape:window-height="864"
     inkscape:window-x="375"
     inkscape:window-y="92"
     inkscape:window-maximized="0"
     showguides="true"
     inkscape:guide-bbox="true">
    <inkscape:grid
       type="xygrid"
       id="grid758" />
    <sodipodi:guide
       position="240,200"
       orientation="0,1"
       id="guide8"
       inkscape:locked="false" />
  </sodipodi:namedview>
  <metadata
     id="metadata753">
    <rdf:RDF>
      <cc:Work
         rdf:about="">
        <dc:format>image/svg+xml</dc:format>
        <dc:type
           rdf:resource="http://purl.org/dc/dcmitype/StillImage" />
        <dc:title />
      </cc:Work>
    </rdf:RDF>
  </metadata>
  <g
     inkscape:label="Layer 1"
     inkscape:groupmode="layer"
     id="layer1"
     transform="translate(0,-32.41664)"
     style="display:inline">
    <path
       style="display:inline;fill:#000000;stroke-width:14.92362881"
       d="m 320.37181,108.29205 c -22.29817,1.97219 -40.97511,16.4627 -58.2294,29.81294 -43.8444,36.00095 -79.94455,81.15626 -110.00611,129.59565 -39.67205,65.26768 -71.804343,135.69747 -92.615954,209.67196 -13.340784,49.40814 -21.895589,101.19755 -16.487728,152.52461 3.661136,33.35106 15.422261,67.56618 40.725133,90.1393 14.686448,13.27653 32.101769,24.13907 51.216139,28.99326 16.87064,2.77809 34.02293,-0.83194 50.54302,-4.26157 58.94495,-14.34804 110.32312,-50.87411 153.51718,-93.32998 10.33554,-10.22508 20.21839,-20.94803 29.32231,-32.3412 11.57198,13.54107 27.30824,22.25762 41.80633,31.91714 16.61016,9.12083 36.61521,15.96882 55.33682,10.09523 11.53224,-4.59886 20.60895,-16.08414 22.19121,-28.69275 -0.10854,-12.7706 -12.13323,-20.31602 -21.61564,-26.04286 -20.88469,-12.59118 -44.52401,-23.22316 -58.45104,-44.63263 -2.75482,-2.62878 -2.65894,-5.39043 0.39813,-7.85499 24.74694,-31.29923 45.70628,-66.15314 58.14947,-104.55207 10.09926,-30.3937 16.49319,-63.37713 10.73827,-95.38321 -3.10156,-16.45675 -12.40133,-32.3679 -27.48637,-39.84189 -28.21191,-15.92392 -60.67973,-21.46627 -92.35199,-24.66087 -20.13732,-1.58837 -41.14003,-2.01297 -60.41384,5.01997 -7.40199,2.7653 -14.12433,10.12354 -12.52831,18.69349 1.5177,13.01713 14.68236,20.36909 26.30719,21.66487 19.14121,2.93567 38.53696,0.12607 57.44085,4.05833 15.98807,2.3325 34.62967,9.04883 40.75731,26.08957 7.54793,20.67653 3.95367,43.5684 -0.60574,64.43795 -2.49212,11.16027 -7.44953,21.50501 -13.69919,30.99648 -2.39461,4.83884 -4.53139,9.81033 -7.06789,14.57524 0.24548,-24.19216 4.40124,-50.66034 -7.85084,-72.79716 -4.37909,-8.30793 -15.0336,-15.3183 -23.93693,-9.91556 -12.32208,7.17861 -15.57363,22.73789 -19.43412,35.54498 -9.05297,34.55161 -10.39804,70.83595 -7.6785,106.35503 0.84972,7.87211 2.25946,15.68266 4.25269,23.33524 -30.10548,34.58355 -63.61317,66.12199 -99.71587,94.05024 -22.8957,16.9186 -48.35064,33.49466 -77.30494,35.62715 -14.91129,0.66319 -29.7952,-7.20787 -36.98274,-20.7076 -13.17752,-22.4958 -13.15358,-49.98456 -11.56808,-75.33488 4.63571,-58.95009 23.2364,-115.93584 45.11184,-170.41462 27.9369,-67.7693 63.50969,-132.95257 110.69488,-188.63165 15.25096,-17.88271 32.90519,-33.28578 50.64445,-48.35237 15.34119,-14.13587 31.61314,-29.02926 39.45874,-49.09769 2.9602,-8.3894 -0.22633,-19.02477 -8.78325,-22.32441 -7.36093,-3.68172 -15.76707,-3.96579 -23.79749,-4.02867 z"
       id="path555"
       inkscape:connector-curvature="0" />
  </g>
</svg>
