<?xml version="1.0" encoding="UTF-8" standalone="no"?>
<!-- Created with Inkscape (http://www.inkscape.org/) -->

<svg
   xmlns:dc="http://purl.org/dc/elements/1.1/"
   xmlns:cc="http://creativecommons.org/ns#"
   xmlns:rdf="http://www.w3.org/1999/02/22-rdf-syntax-ns#"
   xmlns:svg="http://www.w3.org/2000/svg"
   xmlns="http://www.w3.org/2000/svg"
   xmlns:sodipodi="http://sodipodi.sourceforge.net/DTD/sodipodi-0.dtd"
   xmlns:inkscape="http://www.inkscape.org/namespaces/inkscape"
   width="1000"
   height="1000"
   viewBox="0 0 1000 1000"
   version="1.1"
   id="svg756"
   inkscape:version="0.92.3 (2405546, 2018-03-11)"
   sodipodi:docname="u0052.svg">
  <defs
     id="defs750" />
  <sodipodi:namedview
     id="base"
     pagecolor="#ffffff"
     bordercolor="#666666"
     borderopacity="1.0"
     inkscape:pageopacity="0.0"
     inkscape:pageshadow="2"
     inkscape:zoom="0.35"
     inkscape:cx="551.42857"
     inkscape:cy="576.33663"
     inkscape:document-units="px"
     inkscape:current-layer="layer1"
     showgrid="true"
     units="px"
     inkscape:window-width="1118"
     inkscape:window-height="864"
     inkscape:window-x="695"
     inkscape:window-y="108"
     inkscape:window-maximized="0"
     showguides="true"
     inkscape:guide-bbox="true">
    <inkscape:grid
       type="xygrid"
       id="grid758" />
    <sodipodi:guide
       position="240,200"
       orientation="0,1"
       id="guide8"
       inkscape:locked="false" />
  </sodipodi:namedview>
  <metadata
     id="metadata753">
    <rdf:RDF>
      <cc:Work
         rdf:about="">
        <dc:format>image/svg+xml</dc:format>
        <dc:type
           rdf:resource="http://purl.org/dc/dcmitype/StillImage" />
        <dc:title />
      </cc:Work>
    </rdf:RDF>
  </metadata>
  <g
     inkscape:label="Layer 1"
     inkscape:groupmode="layer"
     id="layer1"
     transform="translate(0,-32.41664)"
     style="display:inline">
    <path
       style="display:inline;fill:#000000;stroke-width:11.65369892"
       d="m 292.3702,112.41664 c -36.34299,0.912 -68.52611,21.24865 -95.92359,43.37967 -8.29891,6.73545 -16.36228,13.74981 -24.48775,20.69117 1.9315,-14.42207 5.20284,-30.809 -2.71589,-44.04885 -9.19205,-12.08387 -26.02972,-13.01844 -39.96205,-13.40048 -9.36438,0.0729 -20.87211,1.84211 -25.81255,10.7662 -3.904946,9.58645 -1.04949,20.19108 -2.75552,30.16262 -4.260532,112.95412 -6.674524,226.08768 -18.843269,338.51479 -7.229672,73.08558 -15.521927,146.35542 -32.745063,217.80679 -6.677134,25.26927 -15.619681,51.94323 -9.501818,78.2288 3.628701,13.05348 11.928256,26.80271 25.586672,30.90778 13.079,1.82598 23.356225,-8.99559 30.946741,-18.11769 19.045207,-24.34811 21.791137,-56.38987 26.200697,-85.84815 7.50918,-58.23257 8.00571,-118.04562 17.69981,-175.46001 35.96218,25.79782 68.21997,56.26699 100.98428,85.89295 39.29296,35.86426 79.212,72.33362 126.61754,97.31775 13.67836,6.55155 30.85596,11.70194 45.14463,4.09988 11.17771,-6.22584 18.50287,-22.06599 10.75597,-33.56004 -6.77072,-9.1702 -20.3718,-6.77238 -28.2763,-14.35069 -24.84838,-17.08457 -46.24329,-38.69162 -68.85398,-58.58674 -38.20411,-35.29291 -75.39168,-71.92371 -108.3214,-112.19522 30.3383,-3.02925 60.57069,-11.025 87.1763,-26.25276 36.97104,-19.17032 72.39868,-43.69504 97.63288,-77.25696 16.7743,-26.23348 22.72512,-57.75716 25.30431,-88.31994 2.99038,-50.37969 -12.68591,-100.59628 -39.43894,-143.01056 -16.53015,-26.82094 -38.85106,-52.83242 -69.62573,-63.21198 -8.61522,-2.84665 -17.70045,-4.37056 -26.78598,-4.14833 z m 0.25994,56.925 c 17.7213,3.90233 28.09123,20.64014 38.00087,34.27956 23.00991,35.28785 38.79067,76.22419 39.53536,118.43293 -0.91484,23.1713 -15.61228,42.66957 -30.70649,59.1655 -25.33588,27.43921 -57.30588,48.88117 -92.27658,62.00685 -26.43276,9.08729 -53.98802,15.14498 -81.8842,15.94751 -4.46824,-0.0694 -12.22772,-0.83334 -11.29199,-7.05812 1.16131,-55.59428 7.59422,-110.90153 15.89375,-165.87133 3.81794,-20.18871 14.61526,-38.99334 30.9619,-51.64009 23.9906,-21.33766 48.90704,-41.82517 76.38275,-58.53758 4.91326,-2.63969 10.0104,-5.32477 15.38463,-6.72523 z"
       id="path954"
       inkscape:connector-curvature="0" />
  </g>
</svg>
