<?xml version="1.0" encoding="UTF-8" standalone="no"?>
<!-- Created with Inkscape (http://www.inkscape.org/) -->

<svg
   xmlns:dc="http://purl.org/dc/elements/1.1/"
   xmlns:cc="http://creativecommons.org/ns#"
   xmlns:rdf="http://www.w3.org/1999/02/22-rdf-syntax-ns#"
   xmlns:svg="http://www.w3.org/2000/svg"
   xmlns="http://www.w3.org/2000/svg"
   xmlns:sodipodi="http://sodipodi.sourceforge.net/DTD/sodipodi-0.dtd"
   xmlns:inkscape="http://www.inkscape.org/namespaces/inkscape"
   width="1000"
   height="1000"
   viewBox="0 0 1000 1000"
   version="1.1"
   id="svg756"
   inkscape:version="0.92.3 (2405546, 2018-03-11)"
   sodipodi:docname="u006b.svg">
  <defs
     id="defs750" />
  <sodipodi:namedview
     id="base"
     pagecolor="#ffffff"
     bordercolor="#666666"
     borderopacity="1.0"
     inkscape:pageopacity="0.0"
     inkscape:pageshadow="2"
     inkscape:zoom="0.35"
     inkscape:cx="551.42857"
     inkscape:cy="576.33663"
     inkscape:document-units="px"
     inkscape:current-layer="layer1"
     showgrid="true"
     units="px"
     inkscape:window-width="1118"
     inkscape:window-height="864"
     inkscape:window-x="686"
     inkscape:window-y="127"
     inkscape:window-maximized="0"
     showguides="true"
     inkscape:guide-bbox="true">
    <inkscape:grid
       type="xygrid"
       id="grid758" />
    <sodipodi:guide
       position="240,200"
       orientation="0,1"
       id="guide8"
       inkscape:locked="false" />
  </sodipodi:namedview>
  <metadata
     id="metadata753">
    <rdf:RDF>
      <cc:Work
         rdf:about="">
        <dc:format>image/svg+xml</dc:format>
        <dc:type
           rdf:resource="http://purl.org/dc/dcmitype/StillImage" />
        <dc:title />
      </cc:Work>
    </rdf:RDF>
  </metadata>
  <g
     inkscape:label="Layer 1"
     inkscape:groupmode="layer"
     id="layer1"
     transform="translate(0,-32.41664)"
     style="display:inline">
    <path
       style="display:inline;fill:#000000;stroke-width:22.04149246"
       d="m 230.20037,752.41664 c -36.18004,-22.87876 -74.42455,-56.41207 -84.98781,-74.51855 -5.7201,-9.80487 -29.46378,-35.47239 -34.82126,-50.35246 -4.67386,17.05382 -2.23938,83.76388 -30.984879,64.42683 C 10.222957,645.43291 50.158735,616.63515 49.676131,594.92856 47.100851,479.0964 60.881032,433.76148 53.042635,371.18208 36.295611,237.4788 43.659332,237.3918 66.975713,237.39515 c 24.891981,0 47.146547,17.51165 49.447357,135.04254 1.45454,74.30118 -0.75971,135.77519 -0.0937,160.55629 15.803,-29.73184 43.5883,-47.25901 76.69651,-73.47682 57.14315,-45.25057 82.36802,-91.84471 103.32019,-60.15924 21.98936,33.25405 -19.49277,69.37926 -56.62554,103.50535 -37.13277,34.12594 -72.95838,51.98785 -71.96852,81.23195 1.06158,31.36265 130.65106,164.63683 160.7187,167.02792 20.49934,1.63013 51.12514,7.4992 23.77331,21.58787 -31.29254,16.11851 -49.93944,25.30133 -122.04364,-20.29437 z"
       id="path770"
       inkscape:connector-curvature="0"
       sodipodi:nodetypes="cscssssscsssssssc" />
  </g>
</svg>
