<?xml version="1.0" encoding="UTF-8" standalone="no"?>
<!-- Created with Inkscape (http://www.inkscape.org/) -->

<svg
   xmlns:dc="http://purl.org/dc/elements/1.1/"
   xmlns:cc="http://creativecommons.org/ns#"
   xmlns:rdf="http://www.w3.org/1999/02/22-rdf-syntax-ns#"
   xmlns:svg="http://www.w3.org/2000/svg"
   xmlns="http://www.w3.org/2000/svg"
   xmlns:sodipodi="http://sodipodi.sourceforge.net/DTD/sodipodi-0.dtd"
   xmlns:inkscape="http://www.inkscape.org/namespaces/inkscape"
   width="1000"
   height="1000"
   viewBox="0 0 1000 1000"
   version="1.1"
   id="svg756"
   inkscape:version="0.92.3 (2405546, 2018-03-11)"
   sodipodi:docname="u0065.svg">
  <defs
     id="defs750" />
  <sodipodi:namedview
     id="base"
     pagecolor="#ffffff"
     bordercolor="#666666"
     borderopacity="1.0"
     inkscape:pageopacity="0.0"
     inkscape:pageshadow="2"
     inkscape:zoom="0.35"
     inkscape:cx="551.42857"
     inkscape:cy="576.33663"
     inkscape:document-units="px"
     inkscape:current-layer="layer1"
     showgrid="true"
     units="px"
     inkscape:window-width="1118"
     inkscape:window-height="864"
     inkscape:window-x="682"
     inkscape:window-y="129"
     inkscape:window-maximized="0"
     showguides="true"
     inkscape:guide-bbox="true">
    <inkscape:grid
       type="xygrid"
       id="grid758" />
    <sodipodi:guide
       position="240,200"
       orientation="0,1"
       id="guide8"
       inkscape:locked="false" />
  </sodipodi:namedview>
  <metadata
     id="metadata753">
    <rdf:RDF>
      <cc:Work
         rdf:about="">
        <dc:format>image/svg+xml</dc:format>
        <dc:type
           rdf:resource="http://purl.org/dc/dcmitype/StillImage" />
        <dc:title />
      </cc:Work>
    </rdf:RDF>
  </metadata>
  <g
     inkscape:label="Layer 1"
     inkscape:groupmode="layer"
     id="layer1"
     transform="translate(0,-32.41664)"
     style="display:inline">
    <path
       style="display:inline;fill:#000000;stroke-width:16.71975899"
       d="m 179.55944,731.22523 c -32.41307,-14.27017 -66.78266,-38.86215 -74.307,-52.04068 -7.52434,-13.17852 -8.2344,-13.88798 -13.7671,-26.35294 -13.471134,0 -47.087026,-6.24986 -64.921581,-25.53376 0,0 47.083437,-18.19271 61.016107,-18.19271 -0.103591,-18.26915 1.772034,-39.78386 3.389734,-55.08507 8.55089,-80.87822 119.26826,-214.37266 195.73183,-214.37266 17.86624,0 38.05182,18.48587 47.8951,43.86223 14.15046,36.48026 13.76495,58.62966 -22.01622,109.23778 -23.6619,33.46692 -60.4767,83.84986 -91.89548,107.67529 0,0 -45.51223,37.19631 -61.81144,41.88076 19.65491,21.5481 50.63803,36.79005 50.63803,36.79005 36.4859,24.57474 65.73495,27.75399 171.57011,19.1386 116.4004,-9.47544 126.8419,-8.88684 97.09612,13.74651 -18.03007,13.71896 -43.87136,24.18909 -60.17487,27.96131 -15.06038,3.48455 -33.10806,10.57639 -102.64361,12.45393 -48.28488,1.30381 -97.66275,-4.37843 -135.79973,-21.16864 z M 268,438.65598 c -6.45662,-14.47219 -36.86179,7.41714 -64.34963,38.93796 -27.48784,31.52086 -41.49525,77.0696 -43.27635,98.16838 10.24875,-2.74543 28.24271,-21.88453 55.73053,-53.40537 C 243.59242,490.83611 273.0835,450.0504 268,438.65598 Z"
       id="path619"
       inkscape:connector-curvature="0"
       sodipodi:nodetypes="cccccssssscssssscsscss" />
  </g>
</svg>
