<?xml version="1.0" encoding="UTF-8" standalone="no"?>
<!-- Created with Inkscape (http://www.inkscape.org/) -->

<svg
   xmlns:dc="http://purl.org/dc/elements/1.1/"
   xmlns:cc="http://creativecommons.org/ns#"
   xmlns:rdf="http://www.w3.org/1999/02/22-rdf-syntax-ns#"
   xmlns:svg="http://www.w3.org/2000/svg"
   xmlns="http://www.w3.org/2000/svg"
   xmlns:sodipodi="http://sodipodi.sourceforge.net/DTD/sodipodi-0.dtd"
   xmlns:inkscape="http://www.inkscape.org/namespaces/inkscape"
   width="1000"
   height="1000"
   viewBox="0 0 1000 1000"
   version="1.1"
   id="svg756"
   inkscape:version="0.92.3 (2405546, 2018-03-11)"
   sodipodi:docname="u006e.svg">
  <defs
     id="defs750" />
  <sodipodi:namedview
     id="base"
     pagecolor="#ffffff"
     bordercolor="#666666"
     borderopacity="1.0"
     inkscape:pageopacity="0.0"
     inkscape:pageshadow="2"
     inkscape:zoom="0.35"
     inkscape:cx="551.42857"
     inkscape:cy="576.33663"
     inkscape:document-units="px"
     inkscape:current-layer="layer1"
     showgrid="true"
     units="px"
     inkscape:window-width="1118"
     inkscape:window-height="864"
     inkscape:window-x="663"
     inkscape:window-y="128"
     inkscape:window-maximized="0"
     showguides="true"
     inkscape:guide-bbox="true">
    <inkscape:grid
       type="xygrid"
       id="grid758" />
    <sodipodi:guide
       position="240,200"
       orientation="0,1"
       id="guide8"
       inkscape:locked="false" />
  </sodipodi:namedview>
  <metadata
     id="metadata753">
    <rdf:RDF>
      <cc:Work
         rdf:about="">
        <dc:format>image/svg+xml</dc:format>
        <dc:type
           rdf:resource="http://purl.org/dc/dcmitype/StillImage" />
        <dc:title />
      </cc:Work>
    </rdf:RDF>
  </metadata>
  <g
     inkscape:label="Layer 1"
     inkscape:groupmode="layer"
     id="layer1"
     transform="translate(0,-32.41664)"
     style="display:inline">
    <path
       style="display:inline;fill:#000000;stroke-width:17.51462364"
       d="m 40.85339,735.39226 c 0,-7.36801 16.17104,-57.11418 35.935677,-110.54698 20.344283,-54.99995 35.935673,-140.91606 35.935673,-198.02295 0,-86.51401 5.11514,-102.14336 35.93567,-109.80164 33.32146,-8.27971 35.93568,-0.52382 35.93568,106.61472 0,71.4367 -16.93546,128.78123 -16.93546,128.78123 20.64994,-16.00514 43.80954,-18.11865 57.78917,-20.65788 30.98736,-5.62852 54.85364,9.13252 98.82311,61.12134 61.56376,72.79199 74.56298,121.76277 32.32173,121.76277 -24.59734,0 -90.6733,-66.95162 -104.23838,-105.61981 -10.07084,-28.70753 -82.15139,20.22422 -124.14962,84.2788 -32.708124,49.88555 -87.35325,76.21581 -87.35325,42.0904 z"
       id="path907"
       inkscape:connector-curvature="0"
       sodipodi:nodetypes="ssssscssssss" />
  </g>
</svg>
