<?xml version="1.0" encoding="UTF-8" standalone="no"?>
<!-- Created with Inkscape (http://www.inkscape.org/) -->

<svg
   xmlns:dc="http://purl.org/dc/elements/1.1/"
   xmlns:cc="http://creativecommons.org/ns#"
   xmlns:rdf="http://www.w3.org/1999/02/22-rdf-syntax-ns#"
   xmlns:svg="http://www.w3.org/2000/svg"
   xmlns="http://www.w3.org/2000/svg"
   xmlns:sodipodi="http://sodipodi.sourceforge.net/DTD/sodipodi-0.dtd"
   xmlns:inkscape="http://www.inkscape.org/namespaces/inkscape"
   width="1000"
   height="1000"
   viewBox="0 0 1000 1000"
   version="1.1"
   id="svg756"
   inkscape:version="0.92.3 (2405546, 2018-03-11)"
   sodipodi:docname="u0046.svg">
  <defs
     id="defs750" />
  <sodipodi:namedview
     id="base"
     pagecolor="#ffffff"
     bordercolor="#666666"
     borderopacity="1.0"
     inkscape:pageopacity="0.0"
     inkscape:pageshadow="2"
     inkscape:zoom="0.35"
     inkscape:cx="551.42857"
     inkscape:cy="576.33663"
     inkscape:document-units="px"
     inkscape:current-layer="layer1"
     showgrid="true"
     units="px"
     inkscape:window-width="1118"
     inkscape:window-height="864"
     inkscape:window-x="562"
     inkscape:window-y="129"
     inkscape:window-maximized="0"
     showguides="true"
     inkscape:guide-bbox="true">
    <inkscape:grid
       type="xygrid"
       id="grid758" />
    <sodipodi:guide
       position="240,200"
       orientation="0,1"
       id="guide8"
       inkscape:locked="false" />
  </sodipodi:namedview>
  <metadata
     id="metadata753">
    <rdf:RDF>
      <cc:Work
         rdf:about="">
        <dc:format>image/svg+xml</dc:format>
        <dc:type
           rdf:resource="http://purl.org/dc/dcmitype/StillImage" />
        <dc:title />
      </cc:Work>
    </rdf:RDF>
  </metadata>
  <g
     inkscape:label="Layer 1"
     inkscape:groupmode="layer"
     id="layer1"
     transform="translate(0,-32.41664)"
     style="display:inline">
    <path
       style="display:inline;fill:#000000;stroke-width:19.83773422"
       d="m 143.06779,113.08223 c -31.3635,0.67048 -64.218333,10.25656 -86.760304,33.00054 -14.398922,15.64833 -17.777067,38.66231 -13.109988,58.89099 7.246618,37.62066 28.609437,70.30516 46.926018,103.19117 17.725034,32.84253 30.219124,71.14408 22.193944,108.2585 -5.68583,25.6477 -5.03659,52.12554 -5.46676,78.24936 0.4603,61.39309 5.75552,122.78539 15.74984,183.35615 4.47586,21.96072 8.44213,44.77132 19.61585,64.50048 4.89108,8.66601 15.52695,15.76589 25.56479,11.26836 10.87895,-3.94649 13.82891,-16.23909 15.71142,-26.37434 3.89539,-24.82888 1.55579,-50.11634 0.40351,-75.07735 -3.0536,-48.21311 -7.81793,-96.27681 -11.31146,-144.45402 58.49452,2.42861 116.94013,7.80072 175.53261,7.26477 18.42071,-0.49652 37.46947,-1.02149 54.86844,-7.67712 6.08214,-2.35004 11.19771,-9.63467 7.39727,-15.93994 -5.96663,-11.00328 -19.52914,-13.93036 -30.72136,-16.51013 -21.31418,-3.65584 -43.0307,-1.29672 -64.30846,-4.24429 -39.36766,-3.64201 -78.96238,-7.69107 -117.16703,-18.15437 -8.99979,-2.65742 -19.19946,-9.0638 -18.94778,-19.65265 -1.07181,-21.52268 9.69276,-41.82776 7.45541,-63.46011 -2.02487,-38.06171 -22.51781,-71.79465 -43.20122,-102.62107 -16.40601,-24.8928 -33.35048,-50.33958 -41.05692,-79.52146 -1.30581,-3.88281 -0.39074,-8.55189 3.8308,-10.06864 20.00393,-12.38855 44.91329,-10.16679 66.85842,-5.8015 37.499,7.94386 71.66571,27.55654 100.16594,52.91108 16.36709,12.50109 33.62512,26.0363 54.44992,29.63323 6.96686,0.96691 15.3339,-3.56929 15.00247,-11.39372 0.40229,-14.14193 -8.69725,-26.14441 -15.63706,-37.69347 -30.95255,-46.1673 -82.56554,-75.26945 -136.05998,-87.07346 -15.74931,-3.36275 -31.86874,-5.07746 -47.97833,-4.80699 z"
       id="path669"
       inkscape:connector-curvature="0" />
  </g>
</svg>
