<?xml version="1.0" encoding="UTF-8" standalone="no"?>
<!-- Created with Inkscape (http://www.inkscape.org/) -->

<svg
   xmlns:dc="http://purl.org/dc/elements/1.1/"
   xmlns:cc="http://creativecommons.org/ns#"
   xmlns:rdf="http://www.w3.org/1999/02/22-rdf-syntax-ns#"
   xmlns:svg="http://www.w3.org/2000/svg"
   xmlns="http://www.w3.org/2000/svg"
   xmlns:sodipodi="http://sodipodi.sourceforge.net/DTD/sodipodi-0.dtd"
   xmlns:inkscape="http://www.inkscape.org/namespaces/inkscape"
   width="1000"
   height="1000"
   viewBox="0 0 1000 1000"
   version="1.1"
   id="svg756"
   inkscape:version="0.92.3 (2405546, 2018-03-11)"
   sodipodi:docname="u004d.svg">
  <defs
     id="defs750" />
  <sodipodi:namedview
     id="base"
     pagecolor="#ffffff"
     bordercolor="#666666"
     borderopacity="1.0"
     inkscape:pageopacity="0.0"
     inkscape:pageshadow="2"
     inkscape:zoom="0.35"
     inkscape:cx="551.42857"
     inkscape:cy="576.33663"
     inkscape:document-units="px"
     inkscape:current-layer="layer1"
     showgrid="true"
     units="px"
     inkscape:window-width="1118"
     inkscape:window-height="864"
     inkscape:window-x="770"
     inkscape:window-y="129"
     inkscape:window-maximized="0"
     showguides="true"
     inkscape:guide-bbox="true">
    <inkscape:grid
       type="xygrid"
       id="grid758" />
    <sodipodi:guide
       position="240,200"
       orientation="0,1"
       id="guide8"
       inkscape:locked="false" />
  </sodipodi:namedview>
  <metadata
     id="metadata753">
    <rdf:RDF>
      <cc:Work
         rdf:about="">
        <dc:format>image/svg+xml</dc:format>
        <dc:type
           rdf:resource="http://purl.org/dc/dcmitype/StillImage" />
        <dc:title />
      </cc:Work>
    </rdf:RDF>
  </metadata>
  <g
     inkscape:label="Layer 1"
     inkscape:groupmode="layer"
     id="layer1"
     transform="translate(0,-32.41664)"
     style="display:inline">
    <path
       style="display:inline;fill:#000000;stroke-width:12.11881733"
       d="m 366.07526,112.41664 c -20.55454,-3.15977 -39.30335,10.20611 -50.92204,25.63822 -15.8795,20.85757 -23.89919,46.14352 -34.68186,69.67346 -24.12684,55.51206 -44.36932,112.65725 -69.76389,167.57712 -7.00599,13.73723 -12.77404,28.60516 -23.40207,40.17077 -2.65782,2.96364 -2.74764,-2.72792 -2.9084,-4.16919 -0.21188,-17.64744 4.70132,-34.80939 4.56294,-52.50935 2.10334,-66.81081 -0.254,-133.73231 -4.36077,-200.46605 -1.85039,-20.53332 -2.28084,-41.44094 -7.4559,-61.520031 -4.54827,-10.038122 -16.06159,-15.234645 -26.52296,-17.073233 -9.45347,-1.928562 -17.37495,5.655693 -19.90554,13.990794 -7.21262,21.95855 -6.37494,45.50277 -6.95245,68.34244 0.85174,77.40827 3.11794,154.81088 5.17363,232.20407 1.6419,42.6053 1.95128,85.34139 6.53794,127.78675 0.53972,5.95641 2.02804,13.31472 8.74304,15.28783 12.50402,3.65131 24.95603,-3.52497 35.36181,-9.52729 26.05467,-16.69414 47.33851,-40.37178 61.32945,-67.6863 31.01518,-56.88953 55.14704,-117.0749 79.02616,-177.1141 9.19931,-21.00094 16.98063,-43.1548 29.78683,-62.10989 0.96851,-1.31402 4.03461,-5.12538 4.61532,-1.24749 3.32126,14.92209 1.46834,30.37767 1.7659,45.50971 -2.66213,101.51726 -9.46932,202.92297 -17.48017,304.14925 -3.51355,42.10362 -7.25923,84.17578 -14.11739,125.84379 -1.55599,15.77294 -4.18486,31.99292 -0.9746,47.73364 3.05921,7.10195 11.68329,9.54333 18.30879,12.40492 9.18553,2.7542 19.46356,6.63619 28.93025,3.23929 9.47924,-5.20446 18.08463,-14.47544 20.14959,-23.87351 5.88752,-41.23224 5.97297,-79.07724 10.18184,-120.50265 13.95281,-107.54206 22.2673,-249.50594 25.11831,-373.38841 1.01532,-33.73595 -4.72055,-73.40673 -23.78307,-102.6575 -8.32964,-12.50952 -20.89435,-23.44242 -36.36072,-25.70706 z M 71.20918,101.01518 c -11.115954,-0.76439 -18.959173,9.3141 -24.420173,17.4828 -7.354913,12.30308 -13.475745,27.17151 -9.988591,41.66304 2.336344,5.26001 4.99329,10.40088 5.388763,16.28961 7.039395,46.74481 4.955153,94.25406 7.940568,141.33346 2.285468,56.60715 7.989209,113.07297 8.905783,169.70709 2.30617,73.87395 1.471152,147.75689 1.482525,221.66454 0.582552,34.00964 0.01209,68.13738 3.361019,102.03832 5.217156,19.40208 31.216017,22.94239 47.502456,15.79608 11.56766,-4.20724 19.77109,-14.22433 23.5426,-25.54761 14.16985,-36.61518 19.53385,-76.05782 21.16719,-115.0894 0.0174,-17.7626 0.78989,-36.41599 -6.07394,-53.23196 -1.99918,-5.85831 -9.18444,-10.39959 -14.9445,-6.42079 -5.84758,3.58168 -9.17853,10.00471 -11.04273,16.34511 -4.03496,-43.7889 -4.31416,-87.93417 -6.0649,-131.94468 C 114.50881,391.31231 111.09206,271.42827 100.63849,151.95505 99.019222,140.26646 99.151543,128.05196 95.240171,116.80721 90.341958,108.39483 80.734535,102.73034 71.20918,101.01518 Z"
       id="path888"
       inkscape:connector-curvature="0"
       sodipodi:nodetypes="cccccccccccccccccccccccccccccccccccccccccccccccccc" />
  </g>
</svg>
