<?xml version="1.0" encoding="UTF-8" standalone="no"?>
<!-- Created with Inkscape (http://www.inkscape.org/) -->

<svg
   xmlns:dc="http://purl.org/dc/elements/1.1/"
   xmlns:cc="http://creativecommons.org/ns#"
   xmlns:rdf="http://www.w3.org/1999/02/22-rdf-syntax-ns#"
   xmlns:svg="http://www.w3.org/2000/svg"
   xmlns="http://www.w3.org/2000/svg"
   xmlns:sodipodi="http://sodipodi.sourceforge.net/DTD/sodipodi-0.dtd"
   xmlns:inkscape="http://www.inkscape.org/namespaces/inkscape"
   width="1000"
   height="1000"
   viewBox="0 0 1000 1000"
   version="1.1"
   id="svg756"
   inkscape:version="0.92.3 (2405546, 2018-03-11)"
   sodipodi:docname="u0056.svg">
  <defs
     id="defs750" />
  <sodipodi:namedview
     id="base"
     pagecolor="#ffffff"
     bordercolor="#666666"
     borderopacity="1.0"
     inkscape:pageopacity="0.0"
     inkscape:pageshadow="2"
     inkscape:zoom="0.35"
     inkscape:cx="551.42857"
     inkscape:cy="576.33663"
     inkscape:document-units="px"
     inkscape:current-layer="layer1"
     showgrid="true"
     units="px"
     inkscape:window-width="1118"
     inkscape:window-height="864"
     inkscape:window-x="646"
     inkscape:window-y="129"
     inkscape:window-maximized="0"
     showguides="true"
     inkscape:guide-bbox="true">
    <inkscape:grid
       type="xygrid"
       id="grid758" />
    <sodipodi:guide
       position="240,200"
       orientation="0,1"
       id="guide8"
       inkscape:locked="false" />
  </sodipodi:namedview>
  <metadata
     id="metadata753">
    <rdf:RDF>
      <cc:Work
         rdf:about="">
        <dc:format>image/svg+xml</dc:format>
        <dc:type
           rdf:resource="http://purl.org/dc/dcmitype/StillImage" />
        <dc:title />
      </cc:Work>
    </rdf:RDF>
  </metadata>
  <g
     inkscape:label="Layer 1"
     inkscape:groupmode="layer"
     id="layer1"
     transform="translate(0,-32.41664)"
     style="display:inline">
    <path
       style="display:inline;fill:#000000;stroke-width:13.45300674"
       d="M 186,712.76992 C 158.36032,687.60039 144.43841,647.5367 125.71902,539.29686 81.238358,282.09934 64.2089,192.8253 49.137887,137.83377 33.432073,80.525896 41.191632,63.802278 79.862864,71.614405 c 30.895366,6.241308 39.915596,33.396245 66.500896,200.197345 35.92633,225.40856 69.67205,382.84679 85.52482,399.01001 19.26732,19.64447 31.11512,-2.35028 83.71855,-155.41926 64.95446,-189.009 95.80685,-254.49867 125.87527,-267.19271 15.24675,-6.43676 31.51865,-7.83155 36.15979,-3.09958 4.64107,4.73195 -15.71987,71.6252 -45.24644,148.65159 -29.52663,77.02636 -66.27041,180.49146 -81.65277,229.92233 C 322.79134,713.50609 284.69547,758.1754 243.19353,749.79159 231.50411,747.4301 205.76702,730.77034 186,712.76992 Z"
       id="path626"
       inkscape:connector-curvature="0" />
  </g>
</svg>
