<?xml version="1.0" encoding="UTF-8" standalone="no"?>
<!-- Created with Inkscape (http://www.inkscape.org/) -->

<svg
   xmlns:dc="http://purl.org/dc/elements/1.1/"
   xmlns:cc="http://creativecommons.org/ns#"
   xmlns:rdf="http://www.w3.org/1999/02/22-rdf-syntax-ns#"
   xmlns:svg="http://www.w3.org/2000/svg"
   xmlns="http://www.w3.org/2000/svg"
   xmlns:sodipodi="http://sodipodi.sourceforge.net/DTD/sodipodi-0.dtd"
   xmlns:inkscape="http://www.inkscape.org/namespaces/inkscape"
   width="1000"
   height="1000"
   viewBox="0 0 1000 1000"
   version="1.1"
   id="svg756"
   inkscape:version="0.92.3 (2405546, 2018-03-11)"
   sodipodi:docname="u0064.svg">
  <defs
     id="defs750" />
  <sodipodi:namedview
     id="base"
     pagecolor="#ffffff"
     bordercolor="#666666"
     borderopacity="1.0"
     inkscape:pageopacity="0.0"
     inkscape:pageshadow="2"
     inkscape:zoom="0.35"
     inkscape:cx="551.42857"
     inkscape:cy="576.33663"
     inkscape:document-units="px"
     inkscape:current-layer="layer1"
     showgrid="true"
     units="px"
     inkscape:window-width="1118"
     inkscape:window-height="864"
     inkscape:window-x="705"
     inkscape:window-y="130"
     inkscape:window-maximized="0"
     showguides="true"
     inkscape:guide-bbox="true">
    <inkscape:grid
       type="xygrid"
       id="grid758" />
    <sodipodi:guide
       position="240,200"
       orientation="0,1"
       id="guide8"
       inkscape:locked="false" />
  </sodipodi:namedview>
  <metadata
     id="metadata753">
    <rdf:RDF>
      <cc:Work
         rdf:about="">
        <dc:format>image/svg+xml</dc:format>
        <dc:type
           rdf:resource="http://purl.org/dc/dcmitype/StillImage" />
        <dc:title />
      </cc:Work>
    </rdf:RDF>
  </metadata>
  <g
     inkscape:label="Layer 1"
     inkscape:groupmode="layer"
     id="layer1"
     transform="translate(0,-32.41664)"
     style="display:inline">
    <path
       style="display:inline;fill:#000000;stroke-width:20.74565697"
       d="m 70.416036,723.07301 c -40.779684,-42.01363 -40.412518,-73.90436 1.90346,-165.32693 22.589357,-48.80366 52.481054,-77.6795 88.956334,-85.93327 21.66624,-4.90268 58.76831,0.60383 58.76831,0.60383 -5.60221,-78.62337 -8.7548,-158.43729 -14.39937,-228.26928 -8.62604,-106.71687 -16.9119,-119.69979 15.86296,-119.69979 47.63529,0 65.38977,72.14995 61.76335,250.99122 -3.03513,149.68105 -11.32435,212.40712 1.68173,226.68208 8.06443,8.8512 28.26878,-6.01806 51.03754,-14.93665 102.73036,-40.23982 96.07686,-19.22115 -23.31739,73.66029 -128.59334,100.0377 -190.19839,115.86217 -242.256924,62.2285 z M 197.72022,667.72268 c 13.48958,-13.89772 24.52647,-50.9135 24.52647,-82.25729 0,-46.9178 -7.3382,-55.01168 -41.52471,-45.8012 -22.83862,6.15311 -51.13913,29.69581 -62.89008,52.31699 -40.231095,77.44701 21.46094,135.93682 79.88832,75.7415 z"
       id="path576"
       inkscape:connector-curvature="0"
       sodipodi:nodetypes="ssscssssssssssss" />
  </g>
</svg>
