<?xml version="1.0" encoding="UTF-8" standalone="no"?>
<!-- Created with Inkscape (http://www.inkscape.org/) -->

<svg
   xmlns:dc="http://purl.org/dc/elements/1.1/"
   xmlns:cc="http://creativecommons.org/ns#"
   xmlns:rdf="http://www.w3.org/1999/02/22-rdf-syntax-ns#"
   xmlns:svg="http://www.w3.org/2000/svg"
   xmlns="http://www.w3.org/2000/svg"
   xmlns:sodipodi="http://sodipodi.sourceforge.net/DTD/sodipodi-0.dtd"
   xmlns:inkscape="http://www.inkscape.org/namespaces/inkscape"
   width="1000"
   height="1000"
   viewBox="0 0 1000 1000"
   version="1.1"
   id="svg756"
   inkscape:version="0.92.3 (2405546, 2018-03-11)"
   sodipodi:docname="u0062.svg">
  <defs
     id="defs750" />
  <sodipodi:namedview
     id="base"
     pagecolor="#ffffff"
     bordercolor="#666666"
     borderopacity="1.0"
     inkscape:pageopacity="0.0"
     inkscape:pageshadow="2"
     inkscape:zoom="0.35"
     inkscape:cx="551.42857"
     inkscape:cy="576.33663"
     inkscape:document-units="px"
     inkscape:current-layer="layer1"
     showgrid="true"
     units="px"
     inkscape:window-width="1118"
     inkscape:window-height="864"
     inkscape:window-x="647"
     inkscape:window-y="129"
     inkscape:window-maximized="0"
     showguides="true"
     inkscape:guide-bbox="true">
    <inkscape:grid
       type="xygrid"
       id="grid758" />
    <sodipodi:guide
       position="240,200"
       orientation="0,1"
       id="guide8"
       inkscape:locked="false" />
  </sodipodi:namedview>
  <metadata
     id="metadata753">
    <rdf:RDF>
      <cc:Work
         rdf:about="">
        <dc:format>image/svg+xml</dc:format>
        <dc:type
           rdf:resource="http://purl.org/dc/dcmitype/StillImage" />
        <dc:title />
      </cc:Work>
    </rdf:RDF>
  </metadata>
  <g
     inkscape:label="Layer 1"
     inkscape:groupmode="layer"
     id="layer1"
     transform="translate(0,-32.41664)"
     style="display:inline">
    <path
       style="display:inline;fill:#000000;stroke-width:11.46835327"
       d="m 43.524194,152.41664 c -8.6963,0.62548 -9.201095,11.05154 -10.282288,17.63406 -5.891125,35.34062 -4.251928,71.23583 -6.537697,106.93178 -0.639511,15.63996 -1.575106,31.27664 -3.288409,46.83904 9.669054,-13.11424 18.451262,-26.84654 27.611632,-40.3135 17.333339,91.66126 27.209616,185.39757 20.835456,278.69689 -3.12709,36.51298 -9.463717,72.62385 -11.706392,109.21256 22.151463,21.30846 33.78384,52.93754 61.787584,68.03353 32.19275,17.26636 70.20234,14.63417 104.71975,7.6795 41.15769,-7.77415 80.93907,-23.82313 114.30664,-49.2076 15.92753,-10.72777 31.19413,-24.54199 37.24348,-43.17604 10.49939,-28.59614 5.0888,-59.97506 -2.8307,-88.49653 -11.01266,-35.95993 -33.37256,-69.83257 -66.32612,-89.09596 -27.72597,-15.19908 -61.44689,-19.0479 -91.95458,-11.48081 -19.37119,6.54481 -36.45675,18.50435 -51.79304,31.84466 -9.96118,8.92081 -17.54273,20.12735 -23.5133,31.96906 -3.23257,2.63908 -4.77608,-2.60507 -4.01804,-5.08548 -0.10119,-66.35918 -0.0288,-133.00191 -6.95218,-198.98366 -5.529,-46.07817 -15.05462,-92.40044 -35.998443,-134.1987 -8.944251,-15.93313 -21.312762,-32.77635 -39.94449,-37.6678 -3.720337,-0.84764 -7.545978,-1.2017 -11.358863,-1.135 z M 256.99246,531.32659 c 21.98833,-0.47772 39.82896,17.80069 46.38433,37.55818 6.91559,17.80896 10.13833,40.10061 -1.82371,56.53286 -20.11261,25.17243 -49.66503,40.22638 -78.48578,53.16551 -21.24359,7.45909 -43.83521,12.25242 -66.41059,11.35522 -12.69509,-2.44944 -21.28675,-16.59922 -17.52095,-28.9911 3.89875,-23.46377 17.16307,-43.89834 29.08054,-63.97828 18.18766,-27.30547 42.68672,-52.46592 74.27331,-63.49654 4.71703,-1.32299 9.60038,-2.08913 14.50285,-2.14585 z"
       id="path905"
       inkscape:connector-curvature="0" />
  </g>
</svg>
