<?xml version="1.0" encoding="UTF-8" standalone="no"?>
<!-- Created with Inkscape (http://www.inkscape.org/) -->

<svg
   xmlns:dc="http://purl.org/dc/elements/1.1/"
   xmlns:cc="http://creativecommons.org/ns#"
   xmlns:rdf="http://www.w3.org/1999/02/22-rdf-syntax-ns#"
   xmlns:svg="http://www.w3.org/2000/svg"
   xmlns="http://www.w3.org/2000/svg"
   xmlns:sodipodi="http://sodipodi.sourceforge.net/DTD/sodipodi-0.dtd"
   xmlns:inkscape="http://www.inkscape.org/namespaces/inkscape"
   width="1000"
   height="1000"
   viewBox="0 0 1000 1000"
   version="1.1"
   id="svg756"
   inkscape:version="0.92.3 (2405546, 2018-03-11)"
   sodipodi:docname="u004c.svg">
  <defs
     id="defs750" />
  <sodipodi:namedview
     id="base"
     pagecolor="#ffffff"
     bordercolor="#666666"
     borderopacity="1.0"
     inkscape:pageopacity="0.0"
     inkscape:pageshadow="2"
     inkscape:zoom="0.35"
     inkscape:cx="551.42857"
     inkscape:cy="576.33663"
     inkscape:document-units="px"
     inkscape:current-layer="layer1"
     showgrid="true"
     units="px"
     inkscape:window-width="1118"
     inkscape:window-height="864"
     inkscape:window-x="639"
     inkscape:window-y="123"
     inkscape:window-maximized="0"
     showguides="true"
     inkscape:guide-bbox="true">
    <inkscape:grid
       type="xygrid"
       id="grid758" />
    <sodipodi:guide
       position="240,200"
       orientation="0,1"
       id="guide8"
       inkscape:locked="false" />
  </sodipodi:namedview>
  <metadata
     id="metadata753">
    <rdf:RDF>
      <cc:Work
         rdf:about="">
        <dc:format>image/svg+xml</dc:format>
        <dc:type
           rdf:resource="http://purl.org/dc/dcmitype/StillImage" />
        <dc:title />
      </cc:Work>
    </rdf:RDF>
  </metadata>
  <g
     inkscape:label="Layer 1"
     inkscape:groupmode="layer"
     id="layer1"
     transform="translate(0,-32.41664)"
     style="display:inline">
    <path
       style="display:inline;fill:#000000;stroke-width:18.2567482"
       d="m 149.94089,152.4165 c -14.0812,0.0999 -26.36105,11.74712 -28.83953,25.63009 -8.0473,27.67739 -6.71169,56.91254 -8.17014,85.40992 -1.38919,71.36283 -1.01605,142.79118 -5.50387,214.02265 -3.9701,78.73728 -11.37064,157.46326 -25.736674,234.93748 -1.394855,12.51656 -1.341376,27.76259 8.94596,36.59273 13.433084,10.85246 34.957224,5.96247 43.940404,-8.51017 11.2578,-16.15261 14.76216,-36.22819 18.82626,-55.18488 9.29503,-50.12087 12.58546,-101.12561 16.69561,-151.88567 6.28434,-88.6633 11.26218,-177.43117 14.81568,-266.25153 0.71011,-27.74379 1.64133,-55.71909 -2.07201,-83.28522 -1.64354,-11.77514 -6.51054,-25.491 -18.65461,-29.57305 -4.55355,-1.70898 -9.44347,-1.96403 -14.24708,-1.90235 z"
       id="path810"
       inkscape:connector-curvature="0" />
  </g>
</svg>
