<?xml version="1.0" encoding="UTF-8" standalone="no"?>
<!-- Created with Inkscape (http://www.inkscape.org/) -->

<svg
   xmlns:dc="http://purl.org/dc/elements/1.1/"
   xmlns:cc="http://creativecommons.org/ns#"
   xmlns:rdf="http://www.w3.org/1999/02/22-rdf-syntax-ns#"
   xmlns:svg="http://www.w3.org/2000/svg"
   xmlns="http://www.w3.org/2000/svg"
   xmlns:sodipodi="http://sodipodi.sourceforge.net/DTD/sodipodi-0.dtd"
   xmlns:inkscape="http://www.inkscape.org/namespaces/inkscape"
   width="1000"
   height="1000"
   viewBox="0 0 1000 1000"
   version="1.1"
   id="svg756"
   inkscape:version="0.92.3 (2405546, 2018-03-11)"
   sodipodi:docname="u0000.svg">
  <defs
     id="defs750" />
  <sodipodi:namedview
     id="base"
     pagecolor="#ffffff"
     bordercolor="#666666"
     borderopacity="1.0"
     inkscape:pageopacity="0.0"
     inkscape:pageshadow="2"
     inkscape:zoom="0.35"
     inkscape:cx="551.42857"
     inkscape:cy="576.33663"
     inkscape:document-units="px"
     inkscape:current-layer="layer1"
     showgrid="true"
     units="px"
     inkscape:window-width="1118"
     inkscape:window-height="864"
     inkscape:window-x="746"
     inkscape:window-y="129"
     inkscape:window-maximized="0"
     showguides="true"
     inkscape:guide-bbox="true">
    <inkscape:grid
       type="xygrid"
       id="grid758" />
    <sodipodi:guide
       position="240,200"
       orientation="0,1"
       id="guide8"
       inkscape:locked="false" />
  </sodipodi:namedview>
  <metadata
     id="metadata753">
    <rdf:RDF>
      <cc:Work
         rdf:about="">
        <dc:format>image/svg+xml</dc:format>
        <dc:type
           rdf:resource="http://purl.org/dc/dcmitype/StillImage" />
        <dc:title />
      </cc:Work>
    </rdf:RDF>
  </metadata>
  <g
     inkscape:label="Layer 1"
     inkscape:groupmode="layer"
     id="layer1"
     transform="translate(0,-32.41664)"
     style="display:inline">
    <path
       style="display:inline;fill:#000000;stroke-width:9.67187023"
       d="M 362.57299,42.334035 C 342.01821,44.930254 327.9296,62.043979 314.07013,75.677883 269.88174,140.88836 220.80249,186.2222 174.97069,245.01389 127.09383,309.82488 80.515881,375.85709 40.479467,445.85754 c -4.23423,8.35263 -10.694123,18.73267 -5.928103,28.16209 6.459398,11.06487 23.613793,13.28071 32.519511,3.90685 17.966014,-13.45116 25.239801,-36.9271 41.299455,-51.42031 3.75303,13.84346 -9.110565,25.39307 -7.55306,39.21122 -16.647477,4.90675 -27.399378,19.76194 -38.695526,31.87349 -13.666771,16.55731 -27.080367,36.64175 -25.384442,59.09104 0.574764,11.81315 7.441853,25.47595 20.292358,27.18132 16.224948,2.05538 30.240325,-9.22993 41.599519,-19.33952 4.231731,-3.83652 8.303431,-7.67674 12.893401,-10.97778 -8.42635,17.47637 -23.584889,33.47093 -22.869144,54.07851 -0.266376,10.75019 5.407575,24.01573 17.239624,25.5636 12.50755,0.0405 20.39378,-11.24552 29.42156,-18.14802 4.83472,-4.29597 10.94481,-11.11387 17.95983,-8.80344 7.1178,5.84159 16.29085,12.04967 25.91283,8.50671 8.84814,-2.09893 14.0496,-11.85239 23.47173,-12.24703 14.31724,5.08273 24.7952,16.75404 37.08322,25.05502 -20.88665,32.77713 -42.40244,65.13514 -65.82772,96.18691 -12.2272,17.13916 -26.00888,33.22794 -37.80188,50.70737 -5.74135,9.11932 -9.44916,22.45137 -1.66116,31.51157 9.0333,9.32922 24.75791,6.799 33.87276,-1.12767 25.76645,-17.02162 43.41899,-43.07256 62.5014,-66.73855 41.93098,-55.4715 76.84466,-115.75403 112.1662,-175.52078 -2.36955,8.49943 -4.6582,18.41973 -0.73289,26.78326 5.32934,9.46267 18.7276,11.61272 27.39489,5.53182 4.63842,-2.76429 10.52096,-2.69976 14.37686,1.41333 10.10797,6.96495 18.97048,16.813 31.41388,19.57207 -10.89164,34.14366 -29.6477,65.10742 -45.4255,97.12641 -26.85222,51.02091 -57.76521,99.74534 -90.64942,147.02233 -4.4052,7.21534 -3.01727,18.83634 5.76887,21.89375 10.68597,4.69512 21.56493,-2.81118 29.5401,-9.3733 33.51706,-24.54176 63.36961,-53.77143 91.31365,-84.39239 5.26137,-6.54647 11.95786,-13.60114 12.33673,-22.40405 -1.39706,-8.07282 -12.32011,-11.07021 -18.329,-5.97515 -7.64777,3.68336 -14.35085,9.00486 -20.66871,14.61031 25.99234,-42.03687 48.67233,-86.07132 70.0987,-130.58402 4.64432,-10.81237 10.27583,-21.6261 12.30476,-33.25294 -1.29317,-2.90506 -0.66884,-6.08623 2.14844,-7.68333 14.61726,-16.60312 26.0688,-35.57724 36.43627,-55.02807 17.30809,-31.85259 32.91081,-65.43038 39.24065,-101.361 1.43253,-10.83429 -0.0191,-24.56559 -10.32168,-30.67558 -12.07202,-6.03193 -25.78779,0.84392 -35.47449,8.38005 -15.21475,10.80442 -28.01861,24.59255 -39.64916,39.08997 4.75428,-16.69339 5.76365,-35.67699 -1.74806,-51.73153 -6.22952,-9.67814 -20.47462,-11.53536 -29.63505,-5.02692 -20.79671,10.78312 -34.68111,30.47377 -50.02779,47.45145 -5.57848,7.55998 0.33064,-3.00039 1.64025,-6.25694 24.92347,-53.23342 52.12472,-106.09711 66.91197,-163.28875 2.11031,-8.78439 -0.17498,-20.72881 -9.93268,-23.67623 -11.43431,-3.01403 -25.04056,-2.26372 -34.64574,5.20426 -3.0163,2.72033 -5.16167,6.37548 -6.12172,10.31805 0.77653,-9.62443 5.66993,-21.37771 -1.70639,-29.72194 -10.29494,-10.37053 -28.012,-6.71145 -37.88123,2.40132 -31.25783,32.15113 -53.54642,71.47346 -78.9889,108.0503 -23.68791,36.28427 -46.40877,73.30778 -71.59323,108.52623 31.73999,-72.39627 73.35695,-140.58221 98.49226,-215.84186 2.05713,-22.09407 8.43443,-43.26635 17.41697,-63.53353 5.85209,-14.84264 11.19258,-31.17487 7.43725,-47.1606 1.70598,-9.02266 7.82761,-16.52708 12.48415,-24.24398 13.74005,-19.657299 33.11428,-37.049756 39.97664,-60.904591 0.22684,-7.013479 -7.19358,-11.818191 -13.62049,-11.494314 z m -0.2805,336.155575 c -21.07498,54.33587 -45.52783,107.40186 -71.19871,159.74567 -6.68426,12.59587 -12.40635,26.22752 -22.74611,36.27257 -6.59001,5.64415 -17.03064,7.54832 -23.97298,1.54895 -7.51855,-4.39549 -12.30324,-15.31848 -6.14864,-22.65494 11.59969,-19.70959 27.2071,-36.64328 39.74027,-55.73629 29.1296,-40.79659 56.74006,-82.68169 85.93489,-123.40488 -0.53619,1.40964 -1.07245,2.81931 -1.60872,4.22892 z m -187.31605,25.2234 c -5.83215,10.69352 -12.17911,21.14552 -18.68908,31.42833 5.74749,-11.17072 12.08711,-21.90994 19.17585,-32.32405 l -0.44238,0.81403 z m 111.61696,1.25403 c -5.37588,9.07961 -11.1646,18.03507 -17.14009,26.75965 5.96824,-9.59541 11.96293,-19.17731 18.21317,-28.59275 -0.35771,0.61102 -0.71539,1.22203 -1.07308,1.8331 z m 158.56589,69.7601 c -6.09483,7.52719 -11.06921,15.92888 -17.64137,23.07011 3.48997,-8.88955 8.40788,-18.31246 16.79448,-23.30715 0.78303,-0.17699 2.611,-1.61469 0.84689,0.23704 z"
       id="path664"
       inkscape:connector-curvature="0"
       sodipodi:nodetypes="ccccccccccccccccccccccccccccccccccccccccccccccccccccccccccccccccccccccccccccccccccccc" />
  </g>
</svg>
