<?xml version="1.0" encoding="UTF-8" standalone="no"?>
<!-- Created with Inkscape (http://www.inkscape.org/) -->

<svg
   xmlns:dc="http://purl.org/dc/elements/1.1/"
   xmlns:cc="http://creativecommons.org/ns#"
   xmlns:rdf="http://www.w3.org/1999/02/22-rdf-syntax-ns#"
   xmlns:svg="http://www.w3.org/2000/svg"
   xmlns="http://www.w3.org/2000/svg"
   xmlns:sodipodi="http://sodipodi.sourceforge.net/DTD/sodipodi-0.dtd"
   xmlns:inkscape="http://www.inkscape.org/namespaces/inkscape"
   width="1000"
   height="1000"
   viewBox="0 0 1000 1000"
   version="1.1"
   id="svg756"
   inkscape:version="0.92.3 (2405546, 2018-03-11)"
   sodipodi:docname="u30aa.svg">
  <defs
     id="defs750" />
  <sodipodi:namedview
     id="base"
     pagecolor="#ffffff"
     bordercolor="#666666"
     borderopacity="1.0"
     inkscape:pageopacity="0.0"
     inkscape:pageshadow="2"
     inkscape:zoom="0.35"
     inkscape:cx="551.42857"
     inkscape:cy="576.33663"
     inkscape:document-units="px"
     inkscape:current-layer="layer1"
     showgrid="true"
     units="px"
     inkscape:window-width="1118"
     inkscape:window-height="864"
     inkscape:window-x="546"
     inkscape:window-y="96"
     inkscape:window-maximized="0"
     showguides="true"
     inkscape:guide-bbox="true">
    <inkscape:grid
       type="xygrid"
       id="grid758" />
    <sodipodi:guide
       position="240,200"
       orientation="0,1"
       id="guide8"
       inkscape:locked="false" />
  </sodipodi:namedview>
  <metadata
     id="metadata753">
    <rdf:RDF>
      <cc:Work
         rdf:about="">
        <dc:format>image/svg+xml</dc:format>
        <dc:type
           rdf:resource="http://purl.org/dc/dcmitype/StillImage" />
        <dc:title />
      </cc:Work>
    </rdf:RDF>
  </metadata>
  <g
     inkscape:label="Layer 1"
     inkscape:groupmode="layer"
     id="layer1"
     transform="translate(0,-32.41664)"
     style="display:inline">
    <path
       style="display:inline;fill:#000000;stroke-width:14.18181324"
       d="m 409.376,32.41664 c -16.84118,0.414359 -31.86367,14.365246 -33.37811,30.925803 -5.56312,26.942746 -2.24606,54.621047 -1.49713,81.791217 1.01791,15.23956 2.44977,30.44804 3.77084,45.66392 -71.56853,14.44987 -141.30342,38.2258 -206.38292,70.96028 -11.26741,6.31062 -23.43713,12.13226 -32.26876,21.68657 -6.96073,11.00953 0.74655,25.3059 11.04614,31.31928 16.03029,9.536 35.86224,5.46255 52.63233,0.21747 20.66704,-7.09424 40.12599,-17.31789 61.20713,-23.01956 38.99336,-12.59231 79.13139,-21.86685 118.94882,-31.76577 4.76037,42.49665 8.29511,86.96071 -7.14433,127.74236 -11.28304,27.75337 -28.83822,52.40177 -45.95103,76.91075 -38.32828,52.29592 -82.1203,100.675 -127.91717,146.72463 -45.17006,45.17384 -94.17041,86.34017 -142.612358,128.00518 -20.851385,18.38974 -41.998504,37.11085 -57.9210065,59.96519 -5.0853688,8.17364 -4.5671188,20.88314 4.8174375,25.79009 13.551827,8.23677 30.57016,7.09229 45.65117,4.76273 15.166102,-2.95204 30.743669,-8.84732 41.295593,-20.3752 3.952828,-5.2564 3.171535,-12.67772 8.706374,-16.93251 15.81055,-16.56388 37.518,-25.9661 55.5034,-40.13082 58.87096,-43.09012 105.16739,-99.78371 155.23464,-151.97087 28.28002,-30.47118 54.69154,-62.84418 76.06499,-98.44928 -1.98443,46.49555 -1.50694,93.90538 -16.11862,138.55221 -7.14345,29.13307 -6.10751,59.40248 -6.25545,89.13016 0.59737,19.32252 1.42357,39.2653 8.60391,57.46564 4.77582,9.73672 18.40829,16.25727 28.13497,9.38805 11.55259,-7.9751 14.60447,-22.6327 19.62749,-34.74314 14.54996,-43.29301 20.82625,-88.69361 28.17494,-133.55905 10.48007,-69.94617 16.16396,-140.56311 18.28623,-211.19858 3.86008,-16.88569 10.28788,-33.40382 10.22485,-50.96131 0.65529,-17.01799 -3.66471,-34.60622 -14.36593,-48.20052 -2.57267,-6.99137 -0.66319,-14.68665 -2.31093,-21.90197 -1.47104,-16.15457 -3.47196,-32.25673 -5.50175,-48.35098 34.91679,-3.72746 72.23553,-3.38247 103.72242,-20.92625 11.17203,-6.60173 18.2169,-21.51354 11.78217,-33.56467 -6.57507,-13.44761 -22.79317,-17.89117 -36.72497,-19.14091 -29.38267,-3.48875 -58.84189,3.2178 -87.93399,4.65551 0.34886,-9.60091 -1.83272,-19.57324 -2.25948,-29.34208 C 443.14643,116.20078 441.45463,82.420976 433.17479,49.836265 429.87211,39.851838 420.65441,30.665289 409.376,32.41664 Z"
       id="path725"
       inkscape:connector-curvature="0" />
  </g>
</svg>
