<?xml version="1.0" encoding="UTF-8" standalone="no"?>
<!-- Created with Inkscape (http://www.inkscape.org/) -->

<svg
   xmlns:dc="http://purl.org/dc/elements/1.1/"
   xmlns:cc="http://creativecommons.org/ns#"
   xmlns:rdf="http://www.w3.org/1999/02/22-rdf-syntax-ns#"
   xmlns:svg="http://www.w3.org/2000/svg"
   xmlns="http://www.w3.org/2000/svg"
   xmlns:sodipodi="http://sodipodi.sourceforge.net/DTD/sodipodi-0.dtd"
   xmlns:inkscape="http://www.inkscape.org/namespaces/inkscape"
   width="1000"
   height="1000"
   viewBox="0 0 1000 1000"
   version="1.1"
   id="svg756"
   inkscape:version="0.92.3 (2405546, 2018-03-11)"
   sodipodi:docname="u30a6.svg">
  <defs
     id="defs750" />
  <sodipodi:namedview
     id="base"
     pagecolor="#ffffff"
     bordercolor="#666666"
     borderopacity="1.0"
     inkscape:pageopacity="0.0"
     inkscape:pageshadow="2"
     inkscape:zoom="0.35"
     inkscape:cx="551.42857"
     inkscape:cy="576.33663"
     inkscape:document-units="px"
     inkscape:current-layer="layer1"
     showgrid="true"
     units="px"
     inkscape:window-width="1118"
     inkscape:window-height="864"
     inkscape:window-x="627"
     inkscape:window-y="96"
     inkscape:window-maximized="0"
     showguides="true"
     inkscape:guide-bbox="true">
    <inkscape:grid
       type="xygrid"
       id="grid758" />
    <sodipodi:guide
       position="240,200"
       orientation="0,1"
       id="guide8"
       inkscape:locked="false" />
  </sodipodi:namedview>
  <metadata
     id="metadata753">
    <rdf:RDF>
      <cc:Work
         rdf:about="">
        <dc:format>image/svg+xml</dc:format>
        <dc:type
           rdf:resource="http://purl.org/dc/dcmitype/StillImage" />
        <dc:title />
      </cc:Work>
    </rdf:RDF>
  </metadata>
  <g
     inkscape:label="Layer 1"
     inkscape:groupmode="layer"
     id="layer1"
     transform="translate(0,-32.41664)"
     style="display:inline">
    <path
       style="display:inline;fill:#000000;stroke-width:7.94016123"
       d="m 406,39.622904 c -12.85105,0.533813 -28.87875,3.626832 -34.47628,16.858649 -8.88599,24.231869 -4.97116,50.516387 -6.75135,75.672887 -0.58286,45.41335 -0.15573,90.83082 0.008,136.2454 -57.88984,-8.08837 -118.09514,-5.38107 -173.75173,13.36232 -25.53334,10.02514 -49.43699,23.67583 -74.2816,35.21927 -4.13838,1.38156 -4.22708,-8.49877 -6.80858,-11.44179 -16.126036,-38.64815 -33.678773,-79.05328 -66.1574,-106.92105 -9.07581,-7.42765 -24.392468,-8.59278 -32.063624,1.42491 -9.4094221,12.47472 -6.3785202,29.59362 -2.6475235,43.57422 10.8655475,37.25539 38.8093585,66.78895 48.6453925,104.48404 18.410184,61.11216 14.05843,125.56237 18.306044,188.651 1.482534,24.75035 3.259698,49.93815 11.123038,73.60577 4.56151,11.43183 18.261063,19.71318 30.222243,14.44717 19.1874,-6.77206 30.04093,-28.00991 28.53981,-47.68109 2.32686,-62.29501 -9.0761,-124.63681 -3.23718,-186.67741 3.97155,-12.28122 18.11254,-15.78855 27.97641,-21.93315 59.00672,-30.23718 127.85358,-35.17415 192.49754,-24.79467 2.53549,22.06138 23.06958,41.92249 45.89179,39.89045 14.37205,-0.40483 24.98806,-14.46763 24.33485,-28.17312 34.84761,13.52707 61.93194,42.26603 79.57501,74.48824 17.4861,29.94482 25.75182,64.35837 27.52145,98.74937 2.15603,33.50463 2.71991,67.56822 -1.64953,100.94247 -3.8051,24.07679 -10.89758,47.60154 -19.21061,70.52326 -3.22782,7.406 -7.79528,15.00963 -14.4392,19.46745 -5.52873,-1.69244 -8.40775,-7.59743 -13.65885,-9.98568 -14.40017,-10.2843 -26.93251,-22.94662 -40.41525,-34.25401 -12.57951,-7.2218 -32.39135,0.87891 -33.00393,16.30642 1.96613,24.70771 16.94139,45.68585 29.71043,66.00243 13.50442,20.08917 31.04177,40.30768 55.71072,45.82156 17.06347,4.51107 37.9871,0.73294 48.45565,-14.66162 11.74326,-15.91559 18.23151,-34.91433 25.97499,-52.92642 30.35416,-80.27432 37.389,-168.87741 22.74375,-253.28475 -8.68555,-46.27835 -24.71563,-92.78289 -55.34034,-129.28182 -26.8794,-31.5033 -63.63493,-53.0336 -102.37387,-66.60903 -4.1857,-1.85961 -10.3249,-2.49887 -8.19681,-8.5867 0.27576,-68.22798 5.18515,-136.49449 1.78449,-204.699554 -1.39513,-13.471141 -7.86577,-29.140292 -22.21074,-32.840745 -2.71357,-0.738863 -5.53645,-1.071018 -8.34717,-0.984677 z"
       id="path956"
       inkscape:connector-curvature="0" />
  </g>
</svg>
