<?xml version="1.0" encoding="UTF-8" standalone="no"?>
<!-- Created with Inkscape (http://www.inkscape.org/) -->

<svg
   xmlns:dc="http://purl.org/dc/elements/1.1/"
   xmlns:cc="http://creativecommons.org/ns#"
   xmlns:rdf="http://www.w3.org/1999/02/22-rdf-syntax-ns#"
   xmlns:svg="http://www.w3.org/2000/svg"
   xmlns="http://www.w3.org/2000/svg"
   xmlns:sodipodi="http://sodipodi.sourceforge.net/DTD/sodipodi-0.dtd"
   xmlns:inkscape="http://www.inkscape.org/namespaces/inkscape"
   width="1000"
   height="1000"
   viewBox="0 0 1000 1000"
   version="1.1"
   id="svg756"
   inkscape:version="0.92.3 (2405546, 2018-03-11)"
   sodipodi:docname="u30ac.svg">
  <defs
     id="defs750" />
  <sodipodi:namedview
     id="base"
     pagecolor="#ffffff"
     bordercolor="#666666"
     borderopacity="1.0"
     inkscape:pageopacity="0.0"
     inkscape:pageshadow="2"
     inkscape:zoom="0.35"
     inkscape:cx="551.42857"
     inkscape:cy="576.33663"
     inkscape:document-units="px"
     inkscape:current-layer="layer1"
     showgrid="true"
     units="px"
     inkscape:window-width="1118"
     inkscape:window-height="864"
     inkscape:window-x="665"
     inkscape:window-y="95"
     inkscape:window-maximized="0"
     showguides="true"
     inkscape:guide-bbox="true">
    <inkscape:grid
       type="xygrid"
       id="grid758" />
    <sodipodi:guide
       position="240,200"
       orientation="0,1"
       id="guide8"
       inkscape:locked="false" />
  </sodipodi:namedview>
  <metadata
     id="metadata753">
    <rdf:RDF>
      <cc:Work
         rdf:about="">
        <dc:format>image/svg+xml</dc:format>
        <dc:type
           rdf:resource="http://purl.org/dc/dcmitype/StillImage" />
        <dc:title />
      </cc:Work>
    </rdf:RDF>
  </metadata>
  <g
     inkscape:label="Layer 1"
     inkscape:groupmode="layer"
     id="layer1"
     transform="translate(0,-32.41664)"
     style="display:inline">
    <path
       style="display:inline;fill:#000000;stroke-width:20.09562302"
       d="m 481.23479,59.339838 c -14.13056,-0.243552 -23.48732,12.265337 -31.03802,22.502822 -28.24649,40.91129 -40.21182,89.95019 -54.44343,136.84953 -4.6481,15.36897 -9.03821,31.02153 -14.48187,46.0336 -21.50872,-6.72867 -42.17464,-16.25335 -64.42415,-20.54864 -64.29225,-14.56003 -130.40026,-22.61637 -196.37782,-20.32332 -23.030577,1.48996 -47.076576,2.82453 -68.148336,13.14451 -7.81472,3.69998 -14.927093,12.08284 -12.308919,21.21064 1.990594,14.71827 11.31584,28.05781 24.788363,34.46987 24.983557,12.29149 53.436512,14.16496 80.746712,16.44435 54.97901,3.66887 110.98629,-0.45473 164.51798,13.90264 18.10455,5.0442 35.42779,12.57846 52.49136,20.27884 -48.99629,114.03943 -93.75188,229.86989 -136.58504,346.35243 -14.41425,40.62299 -29.84213,81.00208 -41.03651,122.66768 -2.53841,10.76049 -1.30884,22.26632 1.65646,32.81714 1.53863,6.76154 8.87524,12.23955 15.64036,8.74817 13.34211,-6.60521 21.63301,-19.8661 30.18071,-31.50809 30.98018,-46.87807 54.23496,-98.29976 77.03443,-149.49818 40.97479,-96.04993 81.91869,-192.13213 120.70089,-289.09014 1.11725,-4.12591 2.51109,-7.66576 6.6004,-3.98606 20.63045,10.14643 35.57711,28.86117 45.13159,49.28603 13.12075,23.23233 11.34105,51.18327 9.63197,76.7413 -5.1713,52.89276 -18.22236,104.86399 -37.95416,154.21111 -8.82477,20.07119 -17.69383,41.47187 -34.29464,56.52505 -5.17384,4.80447 -13.45736,6.77443 -19.26312,1.81921 -6.32385,-4.05796 -16.42536,-5.43151 -21.11155,1.78588 -7.29358,11.95257 -5.93759,26.79985 -6.51117,40.22671 0.31938,20.68698 -1.41362,43.13981 9.11604,61.84601 4.79967,8.97335 16.16368,12.87984 25.54797,9.12653 18.87379,-7.05872 32.2419,-23.33524 44.70603,-38.43102 32.58231,-42.36663 56.49377,-90.64961 77.7133,-139.48692 27.05377,-64.97444 42.44186,-136.80657 32.26879,-207.16502 -5.58428,-37.47836 -19.46763,-75.25296 -47.16185,-102.1152 -17.83307,-18.16421 -37.61474,-34.6552 -59.60892,-47.55702 10.07283,-34.74225 23.41254,-68.34855 34.89811,-102.62762 9.92478,-32.24352 19.38233,-65.64974 17.82425,-99.71345 -0.91517,-12.407726 -4.15994,-27.534004 -16.6812,-33.181212 -3.06731,-1.321836 -6.43838,-1.837677 -9.76501,-1.75816 z m 95.86462,59.106132 c -9.30247,-0.33741 -15.37142,8.85842 -15.64035,17.35598 -1.40596,34.73958 11.04315,68.57255 27.45957,98.6716 16.85574,29.53921 38.22316,57.76847 67.05734,76.50406 12.0983,7.55453 28.71603,14.11649 42.13283,5.98989 9.95244,-5.95682 13.01274,-17.82402 16.74772,-27.95294 3.88356,-9.77299 16.00634,-19.02304 26.12276,-11.82825 9.57706,6.95901 8.66111,19.60023 9.63259,30.03571 3.43912,18.50336 11.56815,36.94041 25.38439,50.0259 13.0621,11.21552 33.52438,16.55144 48.9362,6.91608 24.50605,-12.83956 37.01204,-44.18039 27.72089,-70.31039 -3.37814,-11.3617 -11.43669,-20.24393 -19.56608,-28.46229 -14.85505,-19.82419 -21.65727,-45.38895 -22.62131,-69.72139 -0.18472,-19.33274 -1.73808,-40.74533 -14.64748,-56.23705 -8.86716,-10.88183 -24.77228,-12.58234 -37.17448,-7.37461 -25.20284,10.22549 -42.92923,32.30568 -58.83093,53.45224 -12.79196,16.84771 -25.58392,33.69543 -38.37592,50.54315 -9.70798,-22.85542 -17.64212,-46.50732 -28.52714,-68.83869 -10.62767,-19.2398 -25.2447,-38.12118 -46.01226,-46.90732 -3.13092,-1.15044 -6.44585,-1.92781 -9.79834,-1.86168 z"
       id="path1008"
       inkscape:connector-curvature="0" />
  </g>
</svg>
