<?xml version="1.0" encoding="UTF-8" standalone="no"?>
<!-- Created with Inkscape (http://www.inkscape.org/) -->

<svg
   xmlns:dc="http://purl.org/dc/elements/1.1/"
   xmlns:cc="http://creativecommons.org/ns#"
   xmlns:rdf="http://www.w3.org/1999/02/22-rdf-syntax-ns#"
   xmlns:svg="http://www.w3.org/2000/svg"
   xmlns="http://www.w3.org/2000/svg"
   xmlns:sodipodi="http://sodipodi.sourceforge.net/DTD/sodipodi-0.dtd"
   xmlns:inkscape="http://www.inkscape.org/namespaces/inkscape"
   width="1000"
   height="1000"
   viewBox="0 0 1000 1000"
   version="1.1"
   id="svg756"
   inkscape:version="0.92.3 (2405546, 2018-03-11)"
   sodipodi:docname="u30a9.svg">
  <defs
     id="defs750" />
  <sodipodi:namedview
     id="base"
     pagecolor="#ffffff"
     bordercolor="#666666"
     borderopacity="1.0"
     inkscape:pageopacity="0.0"
     inkscape:pageshadow="2"
     inkscape:zoom="0.35"
     inkscape:cx="551.42857"
     inkscape:cy="576.33663"
     inkscape:document-units="px"
     inkscape:current-layer="layer1"
     showgrid="true"
     units="px"
     inkscape:window-width="1118"
     inkscape:window-height="864"
     inkscape:window-x="622"
     inkscape:window-y="96"
     inkscape:window-maximized="0"
     showguides="true"
     inkscape:guide-bbox="true">
    <inkscape:grid
       type="xygrid"
       id="grid758" />
    <sodipodi:guide
       position="240,200"
       orientation="0,1"
       id="guide8"
       inkscape:locked="false" />
  </sodipodi:namedview>
  <metadata
     id="metadata753">
    <rdf:RDF>
      <cc:Work
         rdf:about="">
        <dc:format>image/svg+xml</dc:format>
        <dc:type
           rdf:resource="http://purl.org/dc/dcmitype/StillImage" />
        <dc:title />
      </cc:Work>
    </rdf:RDF>
  </metadata>
  <g
     inkscape:label="Layer 1"
     inkscape:groupmode="layer"
     id="layer1"
     transform="translate(0,-32.41664)"
     style="display:inline">
    <path
       style="display:inline;fill:#000000;stroke-width:18.62738991"
       d="m 208.20053,752.41664 c -14.40178,-16.22498 6.39555,-35.93061 12.46938,-82.85519 6.94059,-53.62071 8.82805,-68.50757 10.5017,-98.22208 -25.91417,24.63258 -38.78853,33.67746 -55.25372,51.78562 -16.86639,18.54932 -35.58009,41.11928 -54.29141,59.28733 -24.879785,24.15727 -33.920869,20.00536 -53.328716,1.9852 -26.14555,-24.27605 3.529827,-55.90984 87.942476,-134.2744 35.49726,-32.95397 47.7335,-41.57456 67.86144,-65.42088 0.61639,-18.80684 -3.5327,-48.49723 -6.10747,-73.94547 -35.52657,24.59465 -62.89013,36.7812 -90.60164,55.88868 -41.557748,28.65457 -87.744598,54.57432 -101.96305,48.58537 -41.651022,-17.5437 0.635849,-66.75914 86.52687,-122.69439 42.15825,-27.45491 71.35131,-52.18337 98.09837,-42.64014 -4.05517,-38.7053 -20.16963,-93.75742 23.81843,-85.58888 41.8463,7.77075 48.02141,35.09293 59.04921,127.64346 7.38316,61.96362 10.81916,127.57569 6.3155,192.25281 -4.60826,66.18032 -17.50564,133.49154 -19.22533,153.98449 -3.59842,42.88262 -36.98847,53.46045 -71.81204,14.22847 z"
       id="path899"
       inkscape:connector-curvature="0"
       sodipodi:nodetypes="cscssssccssscssssc" />
  </g>
</svg>
