<?xml version="1.0" encoding="UTF-8" standalone="no"?>
<!-- Created with Inkscape (http://www.inkscape.org/) -->

<svg
   xmlns:dc="http://purl.org/dc/elements/1.1/"
   xmlns:cc="http://creativecommons.org/ns#"
   xmlns:rdf="http://www.w3.org/1999/02/22-rdf-syntax-ns#"
   xmlns:svg="http://www.w3.org/2000/svg"
   xmlns="http://www.w3.org/2000/svg"
   xmlns:sodipodi="http://sodipodi.sourceforge.net/DTD/sodipodi-0.dtd"
   xmlns:inkscape="http://www.inkscape.org/namespaces/inkscape"
   width="1000"
   height="1000"
   viewBox="0 0 1000 1000"
   version="1.1"
   id="svg756"
   inkscape:version="0.92.3 (2405546, 2018-03-11)"
   sodipodi:docname="u30ab.svg">
  <defs
     id="defs750" />
  <sodipodi:namedview
     id="base"
     pagecolor="#ffffff"
     bordercolor="#666666"
     borderopacity="1.0"
     inkscape:pageopacity="0.0"
     inkscape:pageshadow="2"
     inkscape:zoom="0.35"
     inkscape:cx="551.42857"
     inkscape:cy="576.33663"
     inkscape:document-units="px"
     inkscape:current-layer="layer1"
     showgrid="true"
     units="px"
     inkscape:window-width="1118"
     inkscape:window-height="864"
     inkscape:window-x="618"
     inkscape:window-y="98"
     inkscape:window-maximized="0"
     showguides="true"
     inkscape:guide-bbox="true">
    <inkscape:grid
       type="xygrid"
       id="grid758" />
    <sodipodi:guide
       position="240,200"
       orientation="0,1"
       id="guide8"
       inkscape:locked="false" />
  </sodipodi:namedview>
  <metadata
     id="metadata753">
    <rdf:RDF>
      <cc:Work
         rdf:about="">
        <dc:format>image/svg+xml</dc:format>
        <dc:type
           rdf:resource="http://purl.org/dc/dcmitype/StillImage" />
        <dc:title />
      </cc:Work>
    </rdf:RDF>
  </metadata>
  <g
     inkscape:label="Layer 1"
     inkscape:groupmode="layer"
     id="layer1"
     transform="translate(0,-32.41664)"
     style="display:inline">
    <path
       style="display:inline;fill:#000000;stroke-width:18.16230583"
       d="m 385.37074,25.818441 c -19.85822,1.217202 -34.5615,17.974375 -42.23211,35.020043 -17.40859,40.159386 -33.27859,80.982616 -48.89294,121.861326 -12.07681,35.02664 -20.66729,71.5626 -37.57818,104.69417 -6.59397,4.2802 -14.81904,0.1429 -22.01448,2.56254 -38.06136,3.82073 -76.56863,12.13625 -109.72779,31.98759 -29.28413,16.95025 -55.828224,39.31951 -75.837649,66.70831 -6.827671,9.8367 -10.724232,23.78024 -3.579599,34.50952 9.991934,17.47945 26.419748,30.24347 42.9714,41.13227 10.897546,6.41161 23.577728,12.42154 36.477088,10.65073 12.61405,-4.48205 16.565,-21.02293 10.99674,-32.30127 -4.42351,-21.16191 7.37925,-41.70131 19.60121,-58.11456 17.55569,-22.18057 47.33697,-36.82993 75.85457,-30.57593 4.30655,0.27487 7.65015,1.03487 3.68394,5.44786 -18.01524,36.13624 -30.09744,74.79932 -44.71491,112.34408 -36.01074,102.64131 -60.30715,211.47926 -53.36309,320.80734 1.11778,16.80394 1.34621,34.65693 9.18353,49.94458 7.48477,10.19413 24.22633,7.26776 30.56856,-2.75613 7.95332,-11.21633 10.7308,-25.07202 14.12144,-38.09862 13.9132,-64.70543 13.2943,-131.98338 32.5225,-195.49173 23.20853,-83.99534 55.79194,-165.1796 93.17363,-243.84465 43.59975,13.47143 77.65176,46.66513 106.04096,81.12237 31.27043,38.51202 52.70572,84.63571 63.31918,133.03192 3.95878,15.64272 8.9629,31.72727 6.10454,47.77764 -2.85962,5.92064 -11.74175,6.37551 -15.29256,0.99589 -14.0574,-12.51942 -19.22817,-34.19251 -37.08761,-42.77981 -7.57003,-1.87857 -11.7131,6.92378 -13.44965,12.8084 -6.94468,23.58419 -7.02931,48.54249 -7.17671,72.92941 0.51836,18.38427 0.83313,37.01167 4.5015,55.07379 3.12896,11.67856 12.18048,21.98362 24.32142,24.48129 14.77058,4.66912 30.40562,7.86332 45.93465,6.89198 11.86148,-1.66388 21.66902,-10.40894 26.19968,-21.27849 12.73786,-23.56204 18.67059,-49.97527 25.58357,-75.63036 19.24179,-90.03287 -6.39225,-187.44608 -64.59495,-258.34065 -32.72742,-41.05914 -75.89716,-73.58945 -123.87739,-94.5889 -6.02201,-3.29333 -11.78933,-7.09559 -16.97687,-11.60214 20.28424,-46.09846 38.51232,-93.4457 66.71991,-135.29673 13.2313,-21.10844 28.91113,-41.59458 35.66831,-65.929882 C 445.48783,77.845707 439.95683,63.334869 430.59112,52.781684 419.90813,38.514336 404.11548,25.539652 385.37074,25.818441 Z"
       id="path826"
       inkscape:connector-curvature="0" />
  </g>
</svg>
