<?xml version="1.0" encoding="UTF-8" standalone="no"?>
<!-- Created with Inkscape (http://www.inkscape.org/) -->

<svg
   xmlns:dc="http://purl.org/dc/elements/1.1/"
   xmlns:cc="http://creativecommons.org/ns#"
   xmlns:rdf="http://www.w3.org/1999/02/22-rdf-syntax-ns#"
   xmlns:svg="http://www.w3.org/2000/svg"
   xmlns="http://www.w3.org/2000/svg"
   xmlns:sodipodi="http://sodipodi.sourceforge.net/DTD/sodipodi-0.dtd"
   xmlns:inkscape="http://www.inkscape.org/namespaces/inkscape"
   width="1000"
   height="1000"
   viewBox="0 0 1000 1000"
   version="1.1"
   id="svg756"
   inkscape:version="0.92.3 (2405546, 2018-03-11)"
   sodipodi:docname="u30ae.svg">
  <defs
     id="defs750" />
  <sodipodi:namedview
     id="base"
     pagecolor="#ffffff"
     bordercolor="#666666"
     borderopacity="1.0"
     inkscape:pageopacity="0.0"
     inkscape:pageshadow="2"
     inkscape:zoom="0.35"
     inkscape:cx="551.42857"
     inkscape:cy="576.33663"
     inkscape:document-units="px"
     inkscape:current-layer="layer1"
     showgrid="true"
     units="px"
     inkscape:window-width="1118"
     inkscape:window-height="864"
     inkscape:window-x="628"
     inkscape:window-y="95"
     inkscape:window-maximized="0"
     showguides="true"
     inkscape:guide-bbox="true">
    <inkscape:grid
       type="xygrid"
       id="grid758" />
    <sodipodi:guide
       position="240,200"
       orientation="0,1"
       id="guide8"
       inkscape:locked="false" />
  </sodipodi:namedview>
  <metadata
     id="metadata753">
    <rdf:RDF>
      <cc:Work
         rdf:about="">
        <dc:format>image/svg+xml</dc:format>
        <dc:type
           rdf:resource="http://purl.org/dc/dcmitype/StillImage" />
        <dc:title />
      </cc:Work>
    </rdf:RDF>
  </metadata>
  <g
     inkscape:label="Layer 1"
     inkscape:groupmode="layer"
     id="layer1"
     transform="translate(0,-32.41664)"
     style="display:inline">
    <path
       style="display:inline;fill:#000000;stroke-width:18.67227364"
       d="m 460.54448,35.172818 c -18.66422,0.217023 -32.64546,15.372215 -41.70831,30.180833 -19.41741,32.518047 -28.97622,69.697149 -38.3332,106.062059 -10.43691,41.31743 -17.88625,83.42381 -20.90576,125.95917 -28.79773,8.79703 -57.00012,19.62536 -83.57938,33.85556 -59.00571,31.07726 -117.87149,62.88573 -172.85516,100.76945 -20.752451,15.10225 -42.463143,30.36973 -57.133814,51.84738 -5.762622,8.3143 -9.045351,20.75982 -1.719469,29.19428 9.306658,10.18813 23.778511,13.76953 37.05408,15.09542 24.102683,1.78902 45.381013,-12.57062 63.405193,-26.85368 23.14012,-18.82279 46.3222,-37.7776 72.19806,-52.79897 29.11557,-17.71934 57.5082,-37.03779 88.25512,-51.77004 9.29838,-3.64059 19.59605,-8.54629 27.87732,-12.37464 -10.78184,33.40441 -26.18126,65.05785 -45.25919,94.48009 -3.18193,5.13413 -6.39295,10.25022 -9.58632,15.37724 22.55686,-11.35385 43.9157,-25.03539 63.1611,-41.41351 5.17393,-4.01937 10.64473,-7.66613 16.43187,-10.74485 -0.32633,53.75074 1.2336,107.63782 7.38927,161.06709 2.33453,5.38005 -2.91848,7.32812 -6.78675,9.89014 -32.03426,21.56676 -67.78111,38.5735 -106.35879,43.80956 -27.97128,4.51887 -56.35106,3.04908 -84.61051,2.14751 -7.84849,0 -18.88265,0.79077 -21.64698,9.70219 -2.54327,11.45427 2.78091,22.86937 6.74799,33.38869 6.52112,16.11425 19.52867,30.54205 36.98131,34.51187 24.49609,5.70114 49.68306,-0.82798 73.74573,-5.71694 36.93997,-8.27326 74.16323,-16.60075 108.92548,-32.00409 3.49312,-2.64841 4.94357,-1.07333 5.40359,2.7336 8.88109,28.38837 26.98491,52.93763 48.62019,72.99196 12.5949,11.78005 24.05925,26.48415 40.87433,32.34182 15.51939,4.54384 30.12922,-5.60062 42.71104,-13.30566 8.14407,-5.61006 19.57793,-11.30326 20.43909,-22.45748 -0.60253,-12.05307 -10.58284,-20.72064 -18.00499,-29.20344 -21.51314,-22.31461 -47.53178,-42.9439 -58.37586,-73.01693 -1.028,-2.97932 -1.85321,-5.91003 -2.53346,-9.01811 23.5907,-18.40127 42.79606,-41.71506 66.17813,-60.39666 48.08099,-38.65205 77.92608,-95.29684 96.75467,-153.07042 7.39735,-24.26446 14.63048,-48.91761 16.80077,-74.28728 0.0212,-5.23773 0.62994,-13.7705 -5.84619,-15.50264 -7.66018,-0.10484 -12.66872,7.35711 -17.53672,12.23205 -31.81162,38.66402 -51.69912,85.51742 -82.57087,124.72928 -20.93139,28.24016 -47.34381,51.74807 -76.2984,71.5591 -4.21007,2.96119 -9.79555,8.89787 -8.64466,0.1166 -5.99828,-63.79956 -5.23159,-128.10815 -5.09853,-192.19963 1.67637,-16.79088 15.59869,-31.14795 12.79414,-48.89618 -1.09523,-8.88615 -5.18459,-17.09511 -10.06675,-24.48478 4.32302,-50.81182 11.10851,-101.96073 29.00895,-150.00173 6.53945,-15.60684 13.56216,-32.80528 28.17974,-42.53455 9.86393,-6.62581 21.77312,-0.005 28.01199,8.36493 7.90927,10.24459 14.5197,23.83644 27.92735,27.72377 5.40188,1.81 11.9808,-2.81957 10.28388,-8.81136 -3.51957,-15.46539 -13.90081,-28.27131 -22.93395,-40.923835 -16.3246,-20.411582 -33.67173,-41.649825 -57.49862,-53.568123 -6.3251,-2.956951 -13.2415,-4.898577 -20.26775,-4.776114 z M 640,92.076172 c -13.85601,0.213349 -22.59211,13.424008 -26.06639,25.438958 -8.10106,28.31331 -4.04218,58.43633 1.97376,86.74156 8.99976,35.9979 20.40979,71.35442 30.19802,107.14493 4.01481,11.28651 4.32274,26.53188 15.96414,33.23477 8.75243,5.26171 20.36955,-0.53792 23.56949,-9.71494 6.33485,-15.10834 1.95963,-31.94139 -3.75907,-46.49691 -0.73939,-3.30526 -3.06425,-7.92494 -1.85113,-10.75214 13.41806,6.43234 22.64634,19.39598 36.56968,25.2591 10.88741,4.93901 24.99222,9.30194 36.01552,2.38587 26.15347,-17.38015 24.08545,-60.91867 -1.4835,-77.89731 -7.98366,-4.89289 -17.50526,-7.51907 -23.64632,-15.11115 -6.90301,-7.0016 -11.10136,-16.50863 -10.86187,-26.38101 -4.28719,-21.02386 -16.00067,-39.69922 -27.94135,-57.19599 C 677.78557,114.14149 665.33594,98.304904 647.15042,92.910296 644.81715,92.324108 642.40754,92.014974 640,92.076172 Z"
       id="path1046"
       inkscape:connector-curvature="0" />
  </g>
</svg>
