<?xml version="1.0" encoding="UTF-8" standalone="no"?>
<!-- Created with Inkscape (http://www.inkscape.org/) -->

<svg
   xmlns:dc="http://purl.org/dc/elements/1.1/"
   xmlns:cc="http://creativecommons.org/ns#"
   xmlns:rdf="http://www.w3.org/1999/02/22-rdf-syntax-ns#"
   xmlns:svg="http://www.w3.org/2000/svg"
   xmlns="http://www.w3.org/2000/svg"
   xmlns:sodipodi="http://sodipodi.sourceforge.net/DTD/sodipodi-0.dtd"
   xmlns:inkscape="http://www.inkscape.org/namespaces/inkscape"
   width="1000"
   height="1000"
   viewBox="0 0 1000 1000"
   version="1.1"
   id="svg756"
   inkscape:version="0.92.3 (2405546, 2018-03-11)"
   sodipodi:docname="u30ad.svg">
  <defs
     id="defs750" />
  <sodipodi:namedview
     id="base"
     pagecolor="#ffffff"
     bordercolor="#666666"
     borderopacity="1.0"
     inkscape:pageopacity="0.0"
     inkscape:pageshadow="2"
     inkscape:zoom="0.35"
     inkscape:cx="551.42857"
     inkscape:cy="576.33663"
     inkscape:document-units="px"
     inkscape:current-layer="layer1"
     showgrid="true"
     units="px"
     inkscape:window-width="1118"
     inkscape:window-height="864"
     inkscape:window-x="594"
     inkscape:window-y="97"
     inkscape:window-maximized="0"
     showguides="true"
     inkscape:guide-bbox="true">
    <inkscape:grid
       type="xygrid"
       id="grid758" />
    <sodipodi:guide
       position="240,200"
       orientation="0,1"
       id="guide8"
       inkscape:locked="false" />
  </sodipodi:namedview>
  <metadata
     id="metadata753">
    <rdf:RDF>
      <cc:Work
         rdf:about="">
        <dc:format>image/svg+xml</dc:format>
        <dc:type
           rdf:resource="http://purl.org/dc/dcmitype/StillImage" />
        <dc:title />
      </cc:Work>
    </rdf:RDF>
  </metadata>
  <g
     inkscape:label="Layer 1"
     inkscape:groupmode="layer"
     id="layer1"
     transform="translate(0,-32.41664)"
     style="display:inline">
    <path
       style="display:inline;fill:#000000;stroke-width:16.65236473"
       d="m 348.88625,32.717013 c -17.40503,0.33137 -29.69268,18.950655 -27.22103,35.34345 0.60485,37.723157 13.21694,73.864037 17.00124,111.113897 2.96564,19.90718 5.61148,39.92252 8.48614,59.86779 -54.1296,17.04055 -111.46535,14.14049 -167.49572,14.81887 -12.57498,0.7339 -26.916,7.44441 -29.63771,20.89864 -3.22926,13.05864 6.13888,26.03636 18.10278,30.61759 21.4344,10.42905 45.87105,11.04004 69.15127,13.23565 40.42043,2.44338 81.1279,-0.0644 120.96173,-7.32416 14.56853,102.21167 24.94166,204.96755 36.35707,307.59411 -64.84725,31.18545 -127.74781,70.26559 -199.35325,83.45616 -19.8189,3.24797 -41.61556,6.27735 -60.64623,-2.19932 -7.22108,-4.16856 -9.69986,-13.38114 -6.59254,-20.92552 3.029,-12.28898 6.56813,-27.52636 -2.72257,-38.09739 -11.32697,-12.83833 -31.020348,-12.31265 -46.012812,-7.22164 -29.096073,10.17089 -47.029928,45.95724 -35.040201,74.95189 9.772707,26.37116 33.505709,45.36003 58.806043,55.95218 34.28288,12.41801 71.62173,6.63742 106.50806,0.1866 71.3888,-14.55133 137.62972,-46.20415 202.83277,-77.64146 7.34441,26.16259 22.18946,52.95345 47.8901,64.75672 26.37916,11.11926 60.27635,2.59346 77.15385,-20.77508 8.38684,-15.06956 1.71989,-34.41008 -10.78897,-45.04382 -12.36498,-12.37026 -29.94401,-18.52765 -40.25418,-32.96474 38.09345,-22.62004 78.60135,-40.63405 119.45038,-57.62597 17.03625,-7.82648 35.21299,-17.10271 45.11669,-33.75197 4.66361,-10.76057 -3.64873,-24.69143 -15.52761,-25.1008 -23.33307,-4.75774 -46.49084,4.28373 -68.69056,10.27559 -33.21009,10.8575 -64.60351,26.38953 -97.09961,39.09572 -12.58535,-96.26545 -23.59904,-192.76367 -36.32341,-289.02384 39.19464,-8.71545 77.98744,-21.3427 112.30721,-42.58656 12.30858,-6.78917 26.24514,-16.18221 28.57856,-31.13184 1.07159,-15.46865 -11.44229,-27.26723 -22.66841,-35.9589 -34.93954,-28.71752 -73.71081,-52.3612 -109.80179,-79.45951 -9.23613,-6.24285 -18.38843,-13.792751 -29.16647,-16.898448 -9.15449,0.17203 -13.52163,13.757948 -6.38831,19.381978 23.2934,31.88214 51.87196,59.97169 72.3046,93.84281 -3.65948,3.50829 -9.61979,4.29482 -14.28473,6.25531 -14.34757,4.48148 -29.43688,7.68967 -43.72841,12.11302 -2.86378,-5.80175 -2.64214,-12.92798 -4.50287,-19.12484 C 405.58959,152.162 399.80317,98.571509 377.03353,50.598975 371.17264,40.715044 361.0288,32.041926 348.88625,32.717013 Z"
       id="path1021"
       inkscape:connector-curvature="0" />
  </g>
</svg>
