<?xml version="1.0" encoding="UTF-8" standalone="no"?>
<!-- Created with Inkscape (http://www.inkscape.org/) -->

<svg
   xmlns:dc="http://purl.org/dc/elements/1.1/"
   xmlns:cc="http://creativecommons.org/ns#"
   xmlns:rdf="http://www.w3.org/1999/02/22-rdf-syntax-ns#"
   xmlns:svg="http://www.w3.org/2000/svg"
   xmlns="http://www.w3.org/2000/svg"
   xmlns:sodipodi="http://sodipodi.sourceforge.net/DTD/sodipodi-0.dtd"
   xmlns:inkscape="http://www.inkscape.org/namespaces/inkscape"
   width="1000"
   height="1000"
   viewBox="0 0 1000 1000"
   version="1.1"
   id="svg756"
   inkscape:version="0.92.3 (2405546, 2018-03-11)"
   sodipodi:docname="u30bb.svg">
  <defs
     id="defs750" />
  <sodipodi:namedview
     id="base"
     pagecolor="#ffffff"
     bordercolor="#666666"
     borderopacity="1.0"
     inkscape:pageopacity="0.0"
     inkscape:pageshadow="2"
     inkscape:zoom="0.35"
     inkscape:cx="551.42857"
     inkscape:cy="576.33663"
     inkscape:document-units="px"
     inkscape:current-layer="layer1"
     showgrid="true"
     units="px"
     inkscape:window-width="1118"
     inkscape:window-height="864"
     inkscape:window-x="556"
     inkscape:window-y="94"
     inkscape:window-maximized="0"
     showguides="true"
     inkscape:guide-bbox="true">
    <inkscape:grid
       type="xygrid"
       id="grid758" />
    <sodipodi:guide
       position="240,200"
       orientation="0,1"
       id="guide8"
       inkscape:locked="false" />
  </sodipodi:namedview>
  <metadata
     id="metadata753">
    <rdf:RDF>
      <cc:Work
         rdf:about="">
        <dc:format>image/svg+xml</dc:format>
        <dc:type
           rdf:resource="http://purl.org/dc/dcmitype/StillImage" />
        <dc:title />
      </cc:Work>
    </rdf:RDF>
  </metadata>
  <g
     inkscape:label="Layer 1"
     inkscape:groupmode="layer"
     id="layer1"
     transform="translate(0,-32.41664)"
     style="display:inline">
    <path
       style="display:inline;fill:#000000;stroke-width:22.00962257"
       d="m 353.40677,71.604014 c -25.788,1.437464 -46.27562,20.544838 -61.23816,39.990216 -29.71919,39.7024 -48.33205,86.11213 -65.8326,132.15528 -2.37538,4.95905 -3.20209,11.51023 -6.49675,15.54785 -35.22904,12.33528 -67.14435,32.18173 -101.83814,45.85039 -26.873523,12.6362 -54.637768,26.01423 -74.204923,49.00122 -4.875693,6.13638 -6.06365,16.00492 0.534963,21.36499 12.261839,12.08514 30.360361,12.37215 46.36701,12.19265 24.03148,-1.32279 46.39391,-11.4293 68.91177,-19.03033 14.10171,-5.31007 28.06575,-11.61057 40.94658,-19.31785 -13.9046,50.17855 -26.33578,101.11597 -27.64096,153.42512 -3.21546,60.6367 -4.98493,123.36929 15.9127,181.21166 14.56369,39.35102 38.10194,75.68347 69.35555,103.78152 38.75204,32.82889 92.03077,43.62213 141.40879,37.12261 67.14627,-7.95131 128.92273,-39.56027 183.81222,-77.65241 64.55764,-45.52004 121.22537,-101.52957 171.3213,-162.4183 10.5986,-13.68561 22.53703,-27.66129 26.74246,-44.79554 -1.06075,-5.50803 -7.73034,-2.10657 -11.27689,-1.6216 -21.12728,6.05027 -39.42953,18.87581 -58.09713,30.03728 -58.43781,37.34418 -110.10231,84.36184 -169.7666,119.92824 -41.73173,25.18563 -86.59452,47.14173 -134.97737,55.58586 -33.21343,5.60814 -69.96988,1.83079 -97.36162,-19.28822 -30.23161,-23.22131 -45.34927,-60.54129 -52.59762,-96.91615 -13.78848,-68.83184 -7.90202,-140.10417 5.81708,-208.45184 7.56815,-35.71295 17.63955,-71.11473 32.43742,-104.53494 3.78559,-6.91997 12.50514,-8.09277 18.37085,-12.64206 39.85936,-22.89266 80.43025,-47.37947 126.19426,-56.06083 22.51848,-3.97805 47.98769,-0.29674 64.94092,16.20798 17.73362,16.76399 20.02747,44.24246 12.95499,66.50581 -7.18447,24.47183 -25.99348,46.94065 -51.59478,52.78867 -14.57887,4.67889 -30.70714,15.44398 -31.26738,32.32243 0.1461,17.22217 16.93461,28.9518 32.39488,32.03634 25.625,6.26554 55.48449,0.67507 73.19492,-19.99417 21.02299,-23.93243 29.69118,-55.9614 38.2944,-86.03953 7.70527,-29.48838 15.07625,-60.79638 7.3054,-90.88021 -6.36891,-29.12934 -26.90425,-54.80494 -54.51954,-66.37984 -26.81521,-11.81292 -56.88936,-11.57384 -85.49346,-8.75623 -12.54272,1.60107 -25.06219,4.63606 -37.34696,8.12657 -0.23888,-31.72234 -1.73864,-65.79881 -20.53469,-92.667134 -8.09227,-10.944129 -21.27353,-18.523021 -35.13289,-17.735502 z m 9.90981,77.749556 c 7.99389,2.63488 8.68752,12.51245 11.11717,19.27345 2.14391,8.42155 3.51836,17.08132 3.44753,25.78962 -18.63466,8.05831 -37.26433,16.12409 -56.01861,23.89862 6.84394,-24.08579 15.13205,-49.79736 34.635,-66.74938 1.95981,-1.37621 4.3652,-2.58463 6.81891,-2.21231 z"
       id="path1276"
       inkscape:connector-curvature="0" />
  </g>
</svg>
