<?xml version="1.0" encoding="UTF-8" standalone="no"?>
<!-- Created with Inkscape (http://www.inkscape.org/) -->

<svg
   xmlns:dc="http://purl.org/dc/elements/1.1/"
   xmlns:cc="http://creativecommons.org/ns#"
   xmlns:rdf="http://www.w3.org/1999/02/22-rdf-syntax-ns#"
   xmlns:svg="http://www.w3.org/2000/svg"
   xmlns="http://www.w3.org/2000/svg"
   xmlns:sodipodi="http://sodipodi.sourceforge.net/DTD/sodipodi-0.dtd"
   xmlns:inkscape="http://www.inkscape.org/namespaces/inkscape"
   width="1000"
   height="1000"
   viewBox="0 0 1000 1000"
   version="1.1"
   id="svg756"
   inkscape:version="0.92.3 (2405546, 2018-03-11)"
   sodipodi:docname="u30b7.svg">
  <defs
     id="defs750" />
  <sodipodi:namedview
     id="base"
     pagecolor="#ffffff"
     bordercolor="#666666"
     borderopacity="1.0"
     inkscape:pageopacity="0.0"
     inkscape:pageshadow="2"
     inkscape:zoom="0.35"
     inkscape:cx="551.42857"
     inkscape:cy="576.33663"
     inkscape:document-units="px"
     inkscape:current-layer="layer1"
     showgrid="true"
     units="px"
     inkscape:window-width="1118"
     inkscape:window-height="864"
     inkscape:window-x="568"
     inkscape:window-y="96"
     inkscape:window-maximized="0"
     showguides="true"
     inkscape:guide-bbox="true">
    <inkscape:grid
       type="xygrid"
       id="grid758" />
    <sodipodi:guide
       position="240,200"
       orientation="0,1"
       id="guide8"
       inkscape:locked="false" />
  </sodipodi:namedview>
  <metadata
     id="metadata753">
    <rdf:RDF>
      <cc:Work
         rdf:about="">
        <dc:format>image/svg+xml</dc:format>
        <dc:type
           rdf:resource="http://purl.org/dc/dcmitype/StillImage" />
        <dc:title />
      </cc:Work>
    </rdf:RDF>
  </metadata>
  <g
     inkscape:label="Layer 1"
     inkscape:groupmode="layer"
     id="layer1"
     transform="translate(0,-32.41664)"
     style="display:inline">
    <path
       style="display:inline;fill:#000000;stroke-width:10.30490875"
       d="m 555.5433,33.28089 c -14.94898,0.557787 -24.89076,14.522578 -29.42679,27.443895 -17.03477,37.711329 -10.6428,86.887775 20.62868,115.363845 20.78655,14.46882 48.96212,11.34338 70.71339,0.80946 5.96907,-2.86689 11.43332,-6.6426 16.88311,-10.3726 1.73918,10.47029 11.14024,21.17166 22.58935,18.96734 14.72428,-2.20509 22.99646,-16.82498 27.56036,-29.62631 8.10894,-21.73872 9.21681,-48.14933 -4.0193,-68.14868 -11.49672,-13.663456 -33.08026,-13.616909 -47.1597,-4.080314 -17.66952,9.447096 -28.59486,28.894594 -47.84155,35.473254 1.85461,-17.39096 14.90835,-32.284917 13.79124,-50.323382 -0.57003,-15.927894 -15.27359,-26.584554 -28.91538,-31.768801 -4.7849,-1.681668 -9.6108,-4.043299 -14.80341,-3.737707 z M 265.20445,65.472165 c -16.85821,0.999808 -28.11493,15.902691 -35.99806,29.278937 -34.76398,59.889518 -54.95267,126.882548 -70.97057,193.855638 -0.42202,4.68266 -1.14028,8.87208 -6.9973,6.8453 -25.02457,-0.26992 -51.64032,-1.37014 -73.625058,-14.53471 -15.400317,-6.20463 -35.723092,4.43966 -37.106821,21.57479 -2.602865,17.13546 10.216224,32.43891 24.562314,40.00874 25.172745,15.9561 55.400515,19.9922 84.204355,24.82841 2.38119,41.96941 9.88551,83.92368 24.41509,123.46341 9.30701,24.24253 20.6602,48.18393 37.03477,68.49611 10.3653,11.96234 25.03034,23.15806 41.64913,22.02752 12.06475,-2.96191 16.51921,-18.29599 12.05122,-28.89967 -9.1548,-38.97555 -26.23123,-75.73349 -32.25283,-115.47065 -4.21547,-22.7859 -6.64509,-45.83101 -6.20008,-68.9736 29.35569,-2.69555 58.65802,-6.11242 87.75366,-10.88075 -10.41345,67.58852 -14.69043,136.23262 -10.29282,204.53789 2.93334,56.79656 8.71304,114.06602 25.5321,168.61778 9.42444,27.81312 22.18366,56.30376 45.36975,75.34919 11.75227,8.83028 28.5465,15.39334 42.62849,8.29539 10.95327,-7.54264 10.70064,-24.54163 2.15179,-33.82614 -16.83107,-27.96409 -32.84431,-57.31627 -38.15541,-89.90509 -8.95569,-45.65398 -8.92277,-92.3946 -10.44331,-138.7939 -0.43377,-69.08193 2.68857,-138.39183 15.93361,-206.33298 43.7071,-5.85818 87.53138,-11.49804 131.47793,-14.57295 54.2968,-2.98348 108.63046,0.99083 162.52353,7.5378 14.04165,0.70047 30.8453,-1.1737 39.70873,-13.46231 6.89845,-12.67356 -1.51803,-28.37894 -13.18546,-34.83939 -33.91683,-26.30511 -77.62947,-37.04953 -119.99241,-36.46981 -35.14239,-0.12346 -70.26383,1.80403 -105.33729,3.29645 -26.30211,1.59794 -52.56792,3.84299 -78.73905,6.91951 8.77112,-36.56588 29.50752,-68.7873 40.17626,-104.66419 2.88063,-13.78254 -1.40039,-31.36988 -15.57266,-37.15304 -14.65733,-6.13169 -31.13161,2.15834 -40.67705,13.53995 -29.32888,29.3246 -41.19684,70.59896 -50.60395,109.81408 -2.65166,10.7815 -5.18241,21.51301 -8.11653,32.18241 -31.35248,4.08486 -61.19176,15.70624 -92.44556,19.6677 14.68744,-58.14196 33.89145,-115.11963 57.15157,-170.3348 5.41145,-18.86007 3.83112,-42.654247 -12.20578,-56.044526 -4.42925,-3.233327 -9.89793,-5.13105 -15.4063,-4.978499 z"
       id="path995"
       inkscape:connector-curvature="0" />
  </g>
</svg>
