<?xml version="1.0" encoding="UTF-8" standalone="no"?>
<!-- Created with Inkscape (http://www.inkscape.org/) -->

<svg
   xmlns:dc="http://purl.org/dc/elements/1.1/"
   xmlns:cc="http://creativecommons.org/ns#"
   xmlns:rdf="http://www.w3.org/1999/02/22-rdf-syntax-ns#"
   xmlns:svg="http://www.w3.org/2000/svg"
   xmlns="http://www.w3.org/2000/svg"
   xmlns:sodipodi="http://sodipodi.sourceforge.net/DTD/sodipodi-0.dtd"
   xmlns:inkscape="http://www.inkscape.org/namespaces/inkscape"
   width="1000"
   height="1000"
   viewBox="0 0 1000 1000"
   version="1.1"
   id="svg756"
   inkscape:version="0.92.3 (2405546, 2018-03-11)"
   sodipodi:docname="u30ba.svg">
  <defs
     id="defs750" />
  <sodipodi:namedview
     id="base"
     pagecolor="#ffffff"
     bordercolor="#666666"
     borderopacity="1.0"
     inkscape:pageopacity="0.0"
     inkscape:pageshadow="2"
     inkscape:zoom="0.35"
     inkscape:cx="551.42857"
     inkscape:cy="576.33663"
     inkscape:document-units="px"
     inkscape:current-layer="layer1"
     showgrid="true"
     units="px"
     inkscape:window-width="1118"
     inkscape:window-height="864"
     inkscape:window-x="591"
     inkscape:window-y="95"
     inkscape:window-maximized="0"
     showguides="true"
     inkscape:guide-bbox="true">
    <inkscape:grid
       type="xygrid"
       id="grid758" />
    <sodipodi:guide
       position="240,200"
       orientation="0,1"
       id="guide8"
       inkscape:locked="false" />
  </sodipodi:namedview>
  <metadata
     id="metadata753">
    <rdf:RDF>
      <cc:Work
         rdf:about="">
        <dc:format>image/svg+xml</dc:format>
        <dc:type
           rdf:resource="http://purl.org/dc/dcmitype/StillImage" />
        <dc:title />
      </cc:Work>
    </rdf:RDF>
  </metadata>
  <g
     inkscape:label="Layer 1"
     inkscape:groupmode="layer"
     id="layer1"
     transform="translate(0,-32.41664)"
     style="display:inline">
    <path
       style="display:inline;fill:#000000;stroke-width:10.33773994"
       d="m 619.03779,70.32971 c -16.3262,0.725603 -27.32944,16.304804 -30.88519,30.94203 -9.71654,35.05858 -6.31971,74.26887 11.53383,106.18674 3.52024,5.92814 7.76918,11.86444 8.63381,18.89285 -9.83529,4.153 -18.98868,15.75344 -14.38604,26.68472 5.4457,9.81406 18.54774,9.53888 28.24934,8.75486 23.57812,-1.54968 47.71643,-5.06476 69.08346,-15.59297 13.31128,-10.48995 12.6752,-31.38352 3.1329,-44.17803 -7.84103,-12.2342 -24.59464,-16.82511 -28.87845,-31.66101 -5.178,-13.47416 -6.39627,-29.2084 -0.0624,-42.40429 4.72368,-4.79391 12.99868,-7.58303 13.12776,-15.53797 C 680.03613,99.447165 668.45855,90.196602 659.05151,83.474263 647.37844,75.340205 633.32667,70.393519 619.03782,70.32971 Z m -293.17606,45.13545 c -50.57611,1.60495 -101.25219,8.26135 -149.89699,22.40175 -20.13759,7.23281 -39.56608,23.22823 -43.12884,45.37025 -1.94459,13.39671 6.53457,27.4228 19.71456,31.13463 19.0189,6.74953 39.52215,-1.55563 55.11932,-12.61964 13.97891,-9.06599 31.10616,-10.16383 47.19314,-10.47642 27.46482,-0.34657 54.92503,0.83817 82.39114,0.78183 10.2182,0.48644 21.37782,0.32725 30.86704,4.25417 4.42419,7.2496 1.39027,16.24807 2.18648,24.20554 -2.04718,50.52414 -18.02917,99.27157 -32.02645,147.62502 -25.40292,80.90633 -56.61681,160.494 -98.40004,234.32079 -24.67962,38.82527 -57.74898,71.2256 -88.90884,104.7387 -32.84266,34.21782 -67.882114,66.65398 -96.774433,104.41021 -6.626343,9.62192 -14.475439,20.52519 -13.296505,32.8203 1.793471,12.2083 13.422045,19.09695 23.999356,22.99533 13.925105,5.33063 30.487276,7.15485 44.275222,0.60787 7.34061,-4.72385 8.13087,-14.39658 14.15677,-20.2887 17.74443,-23.09345 37.76921,-44.31681 57.00319,-66.15239 49.37068,-53.8464 102.74591,-106.12933 136.28976,-171.95009 24.26855,-46.47699 43.24431,-95.44511 64.09559,-143.45733 33.11587,-80.90953 61.477,-164.92229 70.73368,-252.2664 1.64494,-21.80718 -0.53783,-46.45686 -16.65688,-62.88187 -14.73766,-15.15079 -34.33505,-25.08539 -54.50515,-30.81593 -17.74894,-4.54131 -36.22439,-4.77447 -54.43112,-4.75762 z m 163.54203,302.72517 c -25.40916,-0.11335 -48.60487,14.64065 -64.29057,33.81503 -15.58639,16.74557 -30.95124,34.2709 -41.57516,54.66204 -3.68792,9.24999 0.7456,21.89239 11.13939,24.06353 16.9843,6.16699 37.59652,-2.39779 44.99975,-18.94784 3.1198,-6.64892 3.49076,-16.27644 11.78321,-18.82308 10.43204,-3.79413 21.79039,-2.06234 32.65338,-3.01364 16.48343,-0.122 34.03622,5.16912 44.42563,18.67451 19.11511,20.53218 35.34044,44.16085 46.82854,69.69032 8.28982,22.41404 15.08788,45.8753 28.64405,65.92615 12.66177,19.61981 33.1256,36.99159 57.51447,37.41778 11.92382,0.35606 24.53324,-6.32069 28.15942,-18.22322 6.54321,-18.48508 -3.03448,-38.47278 -15.60914,-51.9861 -17.67306,-21.01887 -28.25081,-46.76471 -40.829,-70.90711 -13.35009,-27.47756 -29.12335,-54.08826 -50.39507,-76.23544 -24.0195,-25.87514 -56.79082,-47.53482 -93.4489,-46.11293 z"
       id="path824"
       inkscape:connector-curvature="0" />
  </g>
</svg>
