<?xml version="1.0" encoding="UTF-8" standalone="no"?>
<!-- Created with Inkscape (http://www.inkscape.org/) -->

<svg
   xmlns:dc="http://purl.org/dc/elements/1.1/"
   xmlns:cc="http://creativecommons.org/ns#"
   xmlns:rdf="http://www.w3.org/1999/02/22-rdf-syntax-ns#"
   xmlns:svg="http://www.w3.org/2000/svg"
   xmlns="http://www.w3.org/2000/svg"
   xmlns:sodipodi="http://sodipodi.sourceforge.net/DTD/sodipodi-0.dtd"
   xmlns:inkscape="http://www.inkscape.org/namespaces/inkscape"
   width="1000"
   height="1000"
   viewBox="0 0 1000 1000"
   version="1.1"
   id="svg756"
   inkscape:version="0.92.3 (2405546, 2018-03-11)"
   sodipodi:docname="u30b1.svg">
  <defs
     id="defs750" />
  <sodipodi:namedview
     id="base"
     pagecolor="#ffffff"
     bordercolor="#666666"
     borderopacity="1.0"
     inkscape:pageopacity="0.0"
     inkscape:pageshadow="2"
     inkscape:zoom="0.35"
     inkscape:cx="551.42857"
     inkscape:cy="576.33663"
     inkscape:document-units="px"
     inkscape:current-layer="layer1"
     showgrid="true"
     units="px"
     inkscape:window-width="1118"
     inkscape:window-height="864"
     inkscape:window-x="669"
     inkscape:window-y="96"
     inkscape:window-maximized="0"
     showguides="true"
     inkscape:guide-bbox="true">
    <inkscape:grid
       type="xygrid"
       id="grid758" />
    <sodipodi:guide
       position="240,200"
       orientation="0,1"
       id="guide8"
       inkscape:locked="false" />
  </sodipodi:namedview>
  <metadata
     id="metadata753">
    <rdf:RDF>
      <cc:Work
         rdf:about="">
        <dc:format>image/svg+xml</dc:format>
        <dc:type
           rdf:resource="http://purl.org/dc/dcmitype/StillImage" />
        <dc:title />
      </cc:Work>
    </rdf:RDF>
  </metadata>
  <g
     inkscape:label="Layer 1"
     inkscape:groupmode="layer"
     id="layer1"
     transform="translate(0,-32.41664)"
     style="display:inline">
    <path
       style="display:inline;fill:#000000;stroke-width:19.49393654"
       d="m 343.57243,60.083282 c -19.07605,0.873286 -31.93211,17.215988 -42.94727,30.754424 -36.1101,48.527334 -59.82299,104.485454 -89.7202,156.754564 -23.98,44.03781 -49.96215,87.32573 -82.60747,125.63065 -27.14622,34.31 -57.950371,66.17624 -79.522886,104.29872 -7.888065,14.34691 -12.663126,33.28978 -2.428159,47.67687 6.095321,9.02815 13.640978,17.21779 21.89351,24.2772 6.735037,4.8299 14.965524,0.65405 19.768869,-4.85007 17.162446,-16.20736 29.303686,-36.75172 43.231506,-55.59586 47.68433,-68.04757 93.63069,-137.33764 143.19141,-204.05486 14.43537,-18.61332 28.9985,-38.58789 49.9464,-50.39317 11.38776,-5.74274 25.80942,-3.8449 35.20127,4.83022 17.05687,12.68821 26.99689,32.56894 31.15206,52.99307 10.58529,44.76376 9.96713,91.20801 8.4244,136.8821 -3.50537,74.87271 -13.74259,149.7549 -34.44409,221.92233 -7.68874,25.27832 -16.5543,51.11147 -33.10072,72.14157 -6.01027,7.21462 -14.5841,12.95474 -24.18616,13.32125 -9.29871,7.26271 -10.05159,20.37563 -11.84107,31.13553 -1.75458,18.24337 -1.36368,37.84267 6.80534,54.66802 4.35564,8.0122 14.76733,11.77946 22.90713,7.16399 20.19268,-8.5765 33.57213,-27.14883 46.15997,-44.20498 32.59931,-47.11629 53.46698,-100.96837 71.1991,-155.12546 28.26905,-90.0634 42.83858,-185.23822 36.67903,-279.4083 -3.58461,-47.55626 -12.2183,-96.63064 -37.43304,-138.06421 -13.09246,-20.35591 -32.57794,-35.47743 -50.60175,-51.41315 -10.52467,-8.55171 -23.46991,-15.52004 -37.47816,-14.45978 11.09733,-22.51838 21.97805,-47.803852 17.64424,-73.426436 -1.60506,-7.602642 -8.79085,-12.534883 -16.441,-12.268685 -3.80552,-0.651463 -7.51109,-1.246711 -11.45226,-1.185547 z M 537.66087,72.41664 c -20.52151,0.544895 -44.20127,4.116307 -57.47023,21.48271 -7.87683,11.95213 -2.77787,27.96443 6.54953,37.61372 19.37721,22.52057 47.73265,33.28327 74.43714,44.65243 15.19833,6.17943 34.15529,9.92531 48.43681,-0.55479 16.88002,-10.33269 33.99607,-26.43347 34.51727,-47.46023 -0.16716,-18.53758 -14.96203,-33.016771 -30.84068,-40.57167 -22.18534,-10.794858 -47.273,-14.051424 -71.78717,-15.169778 -1.28098,-0.01169 -2.56177,-0.0084 -3.84267,0.0074 z"
       id="path1093"
       inkscape:connector-curvature="0" />
  </g>
</svg>
