<?xml version="1.0" encoding="UTF-8" standalone="no"?>
<!-- Created with Inkscape (http://www.inkscape.org/) -->

<svg
   xmlns:dc="http://purl.org/dc/elements/1.1/"
   xmlns:cc="http://creativecommons.org/ns#"
   xmlns:rdf="http://www.w3.org/1999/02/22-rdf-syntax-ns#"
   xmlns:svg="http://www.w3.org/2000/svg"
   xmlns="http://www.w3.org/2000/svg"
   xmlns:sodipodi="http://sodipodi.sourceforge.net/DTD/sodipodi-0.dtd"
   xmlns:inkscape="http://www.inkscape.org/namespaces/inkscape"
   width="1000"
   height="1000"
   viewBox="0 0 1000 1000"
   version="1.1"
   id="svg756"
   inkscape:version="0.92.3 (2405546, 2018-03-11)"
   sodipodi:docname="u30b6.svg">
  <defs
     id="defs750" />
  <sodipodi:namedview
     id="base"
     pagecolor="#ffffff"
     bordercolor="#666666"
     borderopacity="1.0"
     inkscape:pageopacity="0.0"
     inkscape:pageshadow="2"
     inkscape:zoom="0.35"
     inkscape:cx="551.42857"
     inkscape:cy="576.33663"
     inkscape:document-units="px"
     inkscape:current-layer="layer1"
     showgrid="true"
     units="px"
     inkscape:window-width="1118"
     inkscape:window-height="864"
     inkscape:window-x="640"
     inkscape:window-y="94"
     inkscape:window-maximized="0"
     showguides="true"
     inkscape:guide-bbox="true">
    <inkscape:grid
       type="xygrid"
       id="grid758" />
    <sodipodi:guide
       position="240,200"
       orientation="0,1"
       id="guide8"
       inkscape:locked="false" />
  </sodipodi:namedview>
  <metadata
     id="metadata753">
    <rdf:RDF>
      <cc:Work
         rdf:about="">
        <dc:format>image/svg+xml</dc:format>
        <dc:type
           rdf:resource="http://purl.org/dc/dcmitype/StillImage" />
        <dc:title />
      </cc:Work>
    </rdf:RDF>
  </metadata>
  <g
     inkscape:label="Layer 1"
     inkscape:groupmode="layer"
     id="layer1"
     transform="translate(0,-32.41664)"
     style="display:inline">
    <path
       style="display:inline;fill:#000000;stroke-width:19.35281944"
       d="M 378.06978,832.52483 C 329.38021,826.2597 360.84072,727.00272 389.48288,593.67867 475.8667,191.57705 422.8271,266.89727 300.28904,437.72013 214.61866,557.14804 178.06401,587.0114 110.28258,560.64415 58.681082,540.57097 70.948056,462.56407 102.02237,361.22406 82.680817,361.63275 37.81643,360.24569 39.7324,354.53053 41.772433,348.44527 107.30477,331.03402 109.48075,324.89746 159.53734,183.72897 223.77903,63.464212 304.58281,41.568283 376.60348,22.052422 418.73826,49.738151 320.94051,84.341329 257.72084,106.71001 192.39612,263.30581 181.66548,305.94002 c 45.54919,-6.96787 95.76787,-27.73159 166.32783,-33.52338 31.59365,-46.15231 55.34915,-74.77381 72.95584,-107.60822 52.23449,-97.411063 61.84072,-105.053551 102.97034,-81.920144 48.62209,27.347424 46.56497,95.197374 4.78325,222.797894 -23.42945,71.55328 -57.05012,218.73169 -76.31137,326.79826 -31.83089,178.58939 -30.45235,205.68523 -74.32159,200.0404 z m -122.49104,-416.04929 54.89566,-76.527 c -47.01571,3.46663 -110.87299,13.19004 -142.09752,15.66179 -8.3164,31.04842 -13.33324,39.59138 -15.03749,72.16014 -4.11376,78.61498 42.66156,71.75921 102.23935,-11.29493 z"
       id="path1164"
       inkscape:connector-curvature="0"
       sodipodi:nodetypes="ssssccsssccssssssccss" />
  </g>
</svg>
