<?xml version="1.0" encoding="UTF-8" standalone="no"?>
<!-- Created with Inkscape (http://www.inkscape.org/) -->

<svg
   xmlns:dc="http://purl.org/dc/elements/1.1/"
   xmlns:cc="http://creativecommons.org/ns#"
   xmlns:rdf="http://www.w3.org/1999/02/22-rdf-syntax-ns#"
   xmlns:svg="http://www.w3.org/2000/svg"
   xmlns="http://www.w3.org/2000/svg"
   xmlns:sodipodi="http://sodipodi.sourceforge.net/DTD/sodipodi-0.dtd"
   xmlns:inkscape="http://www.inkscape.org/namespaces/inkscape"
   width="1000"
   height="1000"
   viewBox="0 0 1000 1000"
   version="1.1"
   id="svg756"
   inkscape:version="0.92.3 (2405546, 2018-03-11)"
   sodipodi:docname="u30b8.svg">
  <defs
     id="defs750" />
  <sodipodi:namedview
     id="base"
     pagecolor="#ffffff"
     bordercolor="#666666"
     borderopacity="1.0"
     inkscape:pageopacity="0.0"
     inkscape:pageshadow="2"
     inkscape:zoom="0.35"
     inkscape:cx="551.42857"
     inkscape:cy="576.33663"
     inkscape:document-units="px"
     inkscape:current-layer="layer1"
     showgrid="true"
     units="px"
     inkscape:window-width="1118"
     inkscape:window-height="864"
     inkscape:window-x="728"
     inkscape:window-y="95"
     inkscape:window-maximized="0"
     showguides="true"
     inkscape:guide-bbox="true">
    <inkscape:grid
       type="xygrid"
       id="grid758" />
    <sodipodi:guide
       position="240,200"
       orientation="0,1"
       id="guide8"
       inkscape:locked="false" />
  </sodipodi:namedview>
  <metadata
     id="metadata753">
    <rdf:RDF>
      <cc:Work
         rdf:about="">
        <dc:format>image/svg+xml</dc:format>
        <dc:type
           rdf:resource="http://purl.org/dc/dcmitype/StillImage" />
        <dc:title />
      </cc:Work>
    </rdf:RDF>
  </metadata>
  <g
     inkscape:label="Layer 1"
     inkscape:groupmode="layer"
     id="layer1"
     transform="translate(0,-32.41664)"
     style="display:inline">
    <path
       style="display:inline;fill:#000000;stroke-width:13.72013855"
       d="m 749.91387,112.41664 c -29.34323,2.01768 -52.53027,22.2607 -75.1859,38.7012 -13.55941,9.47785 -27.83232,20.25057 -45.03166,21.36726 -19.87183,-7.35972 -44.82791,-8.80404 -62.23799,5.01567 -8.39772,6.73131 -12.06416,19.25306 -6.30275,28.77021 7.92523,14.65549 24.85076,21.22494 39.88838,26.19768 35.77791,9.75707 75.12062,2.0106 106.50099,-16.90292 26.23038,-16.28778 48.03946,-39.91418 61.65853,-67.48552 4.55801,-10.39012 4.32462,-24.90588 -6.16272,-31.69582 -3.80473,-2.65033 -8.46908,-4.11601 -13.12688,-3.96776 z M 70.03164,169.06346 c -10.417798,-0.0586 -24.292273,1.31114 -28.73207,12.35492 -3.676403,18.68961 10.801833,35.8416 26.8971,43.48797 39.6143,20.1846 85.56197,17.74779 128.37308,23.84438 6.08014,1.2759 12.73542,1.98757 18.15719,4.97332 0.463,6.97326 -4.53057,12.74437 -6.86454,19.06452 -6.83075,12.8473 -18.10582,25.39713 -18.13454,40.79359 2.33931,10.81127 16.59041,14.77546 25.62007,9.53733 31.66283,-9.94682 63.10323,-23.75901 87.86874,-46.18132 12.86882,-11.6394 23.22718,-29.52578 17.9493,-47.20796 -5.48742,-18.06917 -23.75324,-28.06262 -40.59453,-33.84377 -27.24412,-8.3331 -56.06155,-9.24859 -84.09449,-13.30411 -36.82102,-4.16442 -73.43169,-10.37093 -110.398507,-13.14834 -5.343849,-0.25172 -10.696095,-0.46546 -16.046803,-0.37053 z m 89.2737,172.77945 c -18.80063,0.90676 -31.72782,19.5229 -33.00782,36.90636 -5.02229,42.08463 14.65951,83.47903 43.12534,113.70287 16.17583,19.28113 20.9351,44.82672 22.07718,69.10593 3.45782,47.09155 -3.7134,94.83548 4.02679,141.69916 0.88227,8.52321 5.97573,18.26979 15.70049,18.61145 9.53354,1.22346 15.15823,-7.8201 19.16025,-14.90846 7.48609,-14.504 10.99657,-30.61134 16.46253,-45.89708 10.32402,-34.37721 20.61048,-69.06165 25.2496,-104.70791 1.43098,-25.91652 -9.70368,-50.44257 -23.31621,-71.89876 -22.93947,-40.2445 -51.28203,-77.86078 -68.71595,-120.91634 -1.76923,-9.44975 -7.05999,-20.52282 -17.95123,-21.55056 -0.93079,-0.12585 -1.8718,-0.17787 -2.81097,-0.14666 z m 446.19922,116.06878 c -24.73283,4.13975 -43.7339,22.00933 -63.9634,35.221 -74.39744,55.69356 -137.85798,124.40868 -195.42103,196.7732 -25.10147,32.73577 -49.25575,66.99956 -64.41655,105.52482 -3.59307,10.50327 -5.99038,24.28768 2.8012,32.94439 8.44219,7.42964 21.29517,4.70522 29.4143,-1.78047 22.80754,-14.05491 38.70266,-36.22655 55.64854,-56.33011 28.30923,-36.3478 57.09876,-72.27227 88.20772,-106.30562 48.95856,-54.96762 101.95449,-106.47006 147.8385,-164.07804 6.19669,-8.58121 13.85917,-17.83256 14.10112,-28.85583 -0.77077,-6.9601 -6.7687,-13.61777 -14.2104,-13.11334 z"
       id="path1210"
       inkscape:connector-curvature="0" />
  </g>
</svg>
