<?xml version="1.0" encoding="UTF-8" standalone="no"?>
<!-- Created with Inkscape (http://www.inkscape.org/) -->

<svg
   xmlns:dc="http://purl.org/dc/elements/1.1/"
   xmlns:cc="http://creativecommons.org/ns#"
   xmlns:rdf="http://www.w3.org/1999/02/22-rdf-syntax-ns#"
   xmlns:svg="http://www.w3.org/2000/svg"
   xmlns="http://www.w3.org/2000/svg"
   xmlns:sodipodi="http://sodipodi.sourceforge.net/DTD/sodipodi-0.dtd"
   xmlns:inkscape="http://www.inkscape.org/namespaces/inkscape"
   width="1000"
   height="1000"
   viewBox="0 0 1000 1000"
   version="1.1"
   id="svg756"
   inkscape:version="0.92.3 (2405546, 2018-03-11)"
   sodipodi:docname="u30b9.svg">
  <defs
     id="defs750" />
  <sodipodi:namedview
     id="base"
     pagecolor="#ffffff"
     bordercolor="#666666"
     borderopacity="1.0"
     inkscape:pageopacity="0.0"
     inkscape:pageshadow="2"
     inkscape:zoom="0.35"
     inkscape:cx="551.42857"
     inkscape:cy="576.33663"
     inkscape:document-units="px"
     inkscape:current-layer="layer1"
     showgrid="true"
     units="px"
     inkscape:window-width="1118"
     inkscape:window-height="864"
     inkscape:window-x="644"
     inkscape:window-y="94"
     inkscape:window-maximized="0"
     showguides="true"
     inkscape:guide-bbox="true">
    <inkscape:grid
       type="xygrid"
       id="grid758" />
    <sodipodi:guide
       position="240,200"
       orientation="0,1"
       id="guide8"
       inkscape:locked="false" />
  </sodipodi:namedview>
  <metadata
     id="metadata753">
    <rdf:RDF>
      <cc:Work
         rdf:about="">
        <dc:format>image/svg+xml</dc:format>
        <dc:type
           rdf:resource="http://purl.org/dc/dcmitype/StillImage" />
        <dc:title />
      </cc:Work>
    </rdf:RDF>
  </metadata>
  <g
     inkscape:label="Layer 1"
     inkscape:groupmode="layer"
     id="layer1"
     transform="translate(0,-32.41664)"
     style="display:inline">
    <path
       style="display:inline;fill:#000000;stroke-width:24.72653008"
       d="M 260.75119,96.072047 C 207.95516,105.9687 155.46474,126.95611 116.88413,164.75513 103.83075,177.80714 91.087158,195.19239 94,214.49562 c 1.519704,6.79447 9.21945,10.61527 15.81324,8.41396 21.1601,-3.76621 40.07419,-14.6138 60.11184,-21.78525 44.12871,-17.69805 88.81618,-36.32211 136.34099,-42.22239 20.85511,-2.41874 45.14446,1.2928 58.41025,19.02567 16.41928,21.31917 22.40788,48.86913 22.1661,75.04202 -1.09681,48.28369 -18.31468,94.44329 -37.12024,138.52308 -34.8224,78.9943 -81.36281,152.44566 -130.66575,223.42735 -7.53843,10.61097 -15.0944,21.44872 -22.92444,31.70828 -38.38294,-12.16328 -81.34179,-1.41329 -113.540189,21.13826 -23.336301,16.54819 -42.459528,42.54459 -42.40008,71.79584 0.429686,19.1748 12.690987,36.96151 30.022362,45.43756 20.700182,12.30203 46.446717,16.74041 69.756697,9.56314 42.42412,-11.30765 78.74837,-37.99784 109.04111,-68.58713 52.42875,19.47717 103.57145,42.12143 153.89953,66.32759 50.44957,22.34342 104.55704,41.57388 160.66615,40.069 33.79912,-1.28789 68.50756,-14.53407 89.58802,-41.4919 7.62703,-9.53318 15.47096,-19.7661 18.77816,-31.60298 0.67656,-6.4279 -6.18516,-11.11493 -12.26603,-9.45154 -25.93625,2.40306 -49.22599,15.42637 -74.36858,20.83333 -22.89337,5.77224 -47.25695,4.55134 -69.50332,-2.8579 -41.12004,-12.58728 -78.63879,-33.96765 -117.71013,-51.58827 -36.18454,-16.93331 -72.83849,-32.85087 -109.39126,-48.9913 32.3574,-54.70377 63.59744,-110.04915 94.53096,-165.53968 38.89551,-73.47744 70.97978,-152.28044 79.26834,-235.36 3.97949,-43.20543 0.56923,-89.57177 -23.29579,-127.24542 C 422.18037,112.86857 392.6968,95.071387 361.16313,92.340267 327.82845,88.575802 293.74675,90.381072 260.75119,96.072047 Z M 137.55239,692.92083 c 10.72572,-2.01394 21.7968,-0.67378 32.00089,3.16462 -13.38763,19.01238 -35.16134,32.35935 -58.27847,36.12308 -5.15692,1.20422 -12.784556,-1.55025 -11.13423,-7.6092 2.17189,-13.07124 14.38065,-21.5318 25.27554,-27.67401 3.83546,-1.87153 7.92512,-3.23833 12.13627,-4.00449 z"
       id="path1248"
       inkscape:connector-curvature="0" />
  </g>
</svg>
