<?xml version="1.0" encoding="UTF-8" standalone="no"?>
<!-- Created with Inkscape (http://www.inkscape.org/) -->

<svg
   xmlns:dc="http://purl.org/dc/elements/1.1/"
   xmlns:cc="http://creativecommons.org/ns#"
   xmlns:rdf="http://www.w3.org/1999/02/22-rdf-syntax-ns#"
   xmlns:svg="http://www.w3.org/2000/svg"
   xmlns="http://www.w3.org/2000/svg"
   xmlns:sodipodi="http://sodipodi.sourceforge.net/DTD/sodipodi-0.dtd"
   xmlns:inkscape="http://www.inkscape.org/namespaces/inkscape"
   width="1000"
   height="1000"
   viewBox="0 0 1000 1000"
   version="1.1"
   id="svg756"
   inkscape:version="0.92.3 (2405546, 2018-03-11)"
   sodipodi:docname="u30bd.svg">
  <defs
     id="defs750" />
  <sodipodi:namedview
     id="base"
     pagecolor="#ffffff"
     bordercolor="#666666"
     borderopacity="1.0"
     inkscape:pageopacity="0.0"
     inkscape:pageshadow="2"
     inkscape:zoom="0.35"
     inkscape:cx="551.42857"
     inkscape:cy="576.33663"
     inkscape:document-units="px"
     inkscape:current-layer="layer1"
     showgrid="true"
     units="px"
     inkscape:window-width="1118"
     inkscape:window-height="864"
     inkscape:window-x="679"
     inkscape:window-y="96"
     inkscape:window-maximized="0"
     showguides="true"
     inkscape:guide-bbox="true">
    <inkscape:grid
       type="xygrid"
       id="grid758" />
    <sodipodi:guide
       position="240,200"
       orientation="0,1"
       id="guide8"
       inkscape:locked="false" />
  </sodipodi:namedview>
  <metadata
     id="metadata753">
    <rdf:RDF>
      <cc:Work
         rdf:about="">
        <dc:format>image/svg+xml</dc:format>
        <dc:type
           rdf:resource="http://purl.org/dc/dcmitype/StillImage" />
        <dc:title />
      </cc:Work>
    </rdf:RDF>
  </metadata>
  <g
     inkscape:label="Layer 1"
     inkscape:groupmode="layer"
     id="layer1"
     transform="translate(0,-32.41664)"
     style="display:inline">
    <path
       style="display:inline;fill:#000000;stroke-width:21.14674377"
       d="m 251.98694,778.41664 c -7.19887,-15.3463 4.68726,-32.34037 26.41379,-37.76476 33.60319,-8.38962 162.42372,-530.63087 138.08273,-559.79023 -2.86547,-3.43268 -26.45827,13.11362 -52.4284,36.7695 -74.60407,67.9561 -127.96186,81.22072 -204.25421,50.7773 C 98.900258,244.10688 79.279935,219.58346 45.114359,125.06182 21.716435,60.329722 111.65826,87.24534 154.2251,157.71389 c 53.48425,88.54209 277.40157,39.4548 291.39044,-63.87873 2.70023,-19.946039 19.7371,-26.387098 50.637,-19.144132 33.75217,7.911547 42.93117,24.038612 33.35383,58.601142 -7.26761,26.22713 -40.93694,175.01102 -74.82088,330.63091 C 387.89402,771.13846 307.24305,896.2093 251.98694,778.41664 Z"
       id="path1289"
       inkscape:connector-curvature="0" />
  </g>
</svg>
