<?xml version="1.0" encoding="UTF-8" standalone="no"?>
<!-- Created with Inkscape (http://www.inkscape.org/) -->

<svg
   xmlns:dc="http://purl.org/dc/elements/1.1/"
   xmlns:cc="http://creativecommons.org/ns#"
   xmlns:rdf="http://www.w3.org/1999/02/22-rdf-syntax-ns#"
   xmlns:svg="http://www.w3.org/2000/svg"
   xmlns="http://www.w3.org/2000/svg"
   xmlns:sodipodi="http://sodipodi.sourceforge.net/DTD/sodipodi-0.dtd"
   xmlns:inkscape="http://www.inkscape.org/namespaces/inkscape"
   width="1000"
   height="1000"
   viewBox="0 0 1000 1000"
   version="1.1"
   id="svg756"
   inkscape:version="0.92.3 (2405546, 2018-03-11)"
   sodipodi:docname="u30bf.svg">
  <defs
     id="defs750" />
  <sodipodi:namedview
     id="base"
     pagecolor="#ffffff"
     bordercolor="#666666"
     borderopacity="1.0"
     inkscape:pageopacity="0.0"
     inkscape:pageshadow="2"
     inkscape:zoom="0.35"
     inkscape:cx="551.42857"
     inkscape:cy="576.33663"
     inkscape:document-units="px"
     inkscape:current-layer="layer1"
     showgrid="true"
     units="px"
     inkscape:window-width="1118"
     inkscape:window-height="864"
     inkscape:window-x="622"
     inkscape:window-y="88"
     inkscape:window-maximized="0"
     showguides="true"
     inkscape:guide-bbox="true">
    <inkscape:grid
       type="xygrid"
       id="grid758" />
    <sodipodi:guide
       position="240,200"
       orientation="0,1"
       id="guide8"
       inkscape:locked="false" />
  </sodipodi:namedview>
  <metadata
     id="metadata753">
    <rdf:RDF>
      <cc:Work
         rdf:about="">
        <dc:format>image/svg+xml</dc:format>
        <dc:type
           rdf:resource="http://purl.org/dc/dcmitype/StillImage" />
        <dc:title />
      </cc:Work>
    </rdf:RDF>
  </metadata>
  <g
     inkscape:label="Layer 1"
     inkscape:groupmode="layer"
     id="layer1"
     transform="translate(0,-32.41664)"
     style="display:inline">
    <path
       style="display:inline;fill:#000000;stroke-width:21.88444138"
       d="m 215.70494,100.12207 c -10.81274,0.17405 -21.62042,1.64665 -32.08152,4.33491 -29.30862,80.32141 -51.67171,164.39301 -98.334027,237.40218 -12.060747,17.51001 -30.448872,30.89757 -38.237127,51.04918 -7.676664,18.0719 -9.892261,39.04577 -2.891711,57.71387 4.041018,9.32308 15.493168,16.77048 25.778867,12.05455 26.828877,-9.21033 37.388698,-34.56819 55.781758,-54.52645 31.82768,-36.42626 53.91172,-79.87364 69.59858,-124.96243 11.93096,-30.16344 36.9133,-59.5878 66.82771,-75.40512 20.13506,-9.70904 46.94939,-4.55439 64.32183,9.16071 28.66,20.73614 50.24055,52.77553 62.09284,84.62383 25.1504,69.64734 19.92889,145.47817 19.06949,218.46971 -0.16779,21.04008 -0.37061,42.08637 -1.37814,63.10692 -25.37587,-40.01037 -57.71308,-75.13457 -88.05047,-111.54561 -23.69961,-26.76051 -55.28688,-49.8352 -92.16313,-53.88886 -27.41544,-2.58232 -55.05573,12.07077 -68.90402,35.12433 -24.26237,37.17907 -24.39191,82.89126 -21.1981,125.50208 4.78898,59.25023 20.53946,118.22726 51.52375,169.85866 25.56772,39.94608 70.26454,69.99022 119.40566,70.856 30.9889,0.0496 61.30152,-15.82347 78.42899,-41.03249 11.52103,-14.28476 23.18081,-28.54264 30.51536,-45.31981 15.63874,12.25647 27.52374,29.81432 46.57675,37.29134 14.1113,5.70505 31.06245,-2.78602 36.09736,-16.38947 5.3367,-13.19632 -1.43296,-27.20476 -9.61892,-37.55412 -15.14591,-17.13536 -22.25807,-39.1929 -34.6116,-57.96118 22.26094,-105.47279 34.55934,-214.58623 17.32229,-321.56809 -9.0076,-55.94239 -27.90702,-112.55038 -67.16086,-155.46352 -28.21138,-30.22611 -68.76114,-49.27527 -110.86185,-50.19795 -10.65558,-0.51804 -21.46508,-0.19549 -32.15237,0.82433 -2.16425,-20.05059 -23.68672,-32.891226 -43.19031,-31.55922 -0.83572,-0.0102 -1.67136,-0.007 -2.50708,0 z m -2.47384,384.89634 c 18.5132,0.99684 33.83689,13.21426 47.03145,24.79098 22.4589,21.85967 42.26644,46.16191 62.20983,70.1894 22.35487,27.68092 44.07675,55.98372 62.57586,86.29702 -9.40025,29.49706 -25.96226,58.53688 -52.80081,76.05156 -14.41464,9.90414 -33.48178,12.75768 -50.15033,7.04061 -18.63751,-5.53718 -31.26213,-21.25978 -41.08883,-36.78468 -15.96252,-26.32404 -25.3663,-55.80018 -34.56238,-84.86302 -11.05928,-38.04171 -18.17357,-77.74551 -15.80339,-117.3928 1.10927,-9.08829 4.55046,-19.52923 13.3575,-23.99833 2.96708,-0.96649 6.10748,-1.38405 9.2311,-1.33074 z"
       id="path1302"
       inkscape:connector-curvature="0"
       sodipodi:nodetypes="ccccccccccccccccccccccccccccccccccccccccccc" />
  </g>
</svg>
