<?xml version="1.0" encoding="UTF-8" standalone="no"?>
<!-- Created with Inkscape (http://www.inkscape.org/) -->

<svg
   xmlns:dc="http://purl.org/dc/elements/1.1/"
   xmlns:cc="http://creativecommons.org/ns#"
   xmlns:rdf="http://www.w3.org/1999/02/22-rdf-syntax-ns#"
   xmlns:svg="http://www.w3.org/2000/svg"
   xmlns="http://www.w3.org/2000/svg"
   xmlns:sodipodi="http://sodipodi.sourceforge.net/DTD/sodipodi-0.dtd"
   xmlns:inkscape="http://www.inkscape.org/namespaces/inkscape"
   width="1000"
   height="1000"
   viewBox="0 0 1000 1000"
   version="1.1"
   id="svg756"
   inkscape:version="0.92.3 (2405546, 2018-03-11)"
   sodipodi:docname="u30c1.svg">
  <defs
     id="defs750" />
  <sodipodi:namedview
     id="base"
     pagecolor="#ffffff"
     bordercolor="#666666"
     borderopacity="1.0"
     inkscape:pageopacity="0.0"
     inkscape:pageshadow="2"
     inkscape:zoom="0.35"
     inkscape:cx="551.42857"
     inkscape:cy="576.33663"
     inkscape:document-units="px"
     inkscape:current-layer="layer1"
     showgrid="true"
     units="px"
     inkscape:window-width="1118"
     inkscape:window-height="864"
     inkscape:window-x="671"
     inkscape:window-y="95"
     inkscape:window-maximized="0"
     showguides="true"
     inkscape:guide-bbox="true">
    <inkscape:grid
       type="xygrid"
       id="grid758" />
    <sodipodi:guide
       position="240,200"
       orientation="0,1"
       id="guide8"
       inkscape:locked="false" />
  </sodipodi:namedview>
  <metadata
     id="metadata753">
    <rdf:RDF>
      <cc:Work
         rdf:about="">
        <dc:format>image/svg+xml</dc:format>
        <dc:type
           rdf:resource="http://purl.org/dc/dcmitype/StillImage" />
        <dc:title />
      </cc:Work>
    </rdf:RDF>
  </metadata>
  <g
     inkscape:label="Layer 1"
     inkscape:groupmode="layer"
     id="layer1"
     transform="translate(0,-32.41664)"
     style="display:inline">
    <path
       style="display:inline;fill:#000000;stroke-width:18.85824776"
       d="m 340.0385,791.27868 c -17.66316,-25.36687 -23.19071,-67.5446 -18.99262,-144.92167 3.04663,-56.15346 3.78039,-119.70641 4.95842,-141.29385 -49.24129,12.29375 -72.06416,16.79835 -115.08958,24.23689 -41.54355,7.18243 -109.89723,9.91854 -131.200658,5.78339 C 58.410646,530.94823 46.371976,525.9106 39.616056,497.40385 31.19764,461.88208 124.84976,353.10188 222.37253,240.96871 314.58346,134.94319 411.6836,36.301853 434.71367,33.586997 c 59.89731,-7.060861 60.3804,52.088608 -6.39832,92.282733 -53.52862,32.21891 -155.26873,163.82526 -209.3069,228.27777 0,0 -100.04753,113.00779 -98.2512,117.18654 1.58441,3.68577 61.44791,-3.51035 88.7923,-7.25803 69.30279,-9.4982 82.40774,-19.72199 120.63291,-27.65937 1.60979,-25.9403 5.23683,-51.52769 7.02301,-83.984 4.32618,-78.61232 14.53485,-98.38828 49.84548,-102.55076 19.23437,-2.26739 36.14476,5.15301 37.57863,16.48977 1.43382,11.33675 22.04965,40.23377 45.81288,64.21565 59.42767,59.97445 73.58008,82.07957 7.5194,124.48126 -12.42419,7.97453 -39.21761,19.55917 -72.57431,29.84005 -4.622,88.23962 -28.10432,207.76735 2.52481,287.39806 23.59221,61.33626 -28.71492,75.20954 -67.87386,18.97201 z M 460.70328,388.86309 c -0.57889,-4.57701 -13.16144,-12.99561 -23.1666,-20.44204 -9.69361,-7.21465 -22.87478,-6.86004 -23.85226,4.17964 -1.07204,12.1076 -2.45003,25.06475 -4.0521,43.65817 17.00175,-2.41711 51.64985,-22.81874 51.07096,-27.39577 z"
       id="path1323"
       inkscape:connector-curvature="0"
       sodipodi:nodetypes="sscssssssssscssssscssssscs" />
  </g>
</svg>
