<?xml version="1.0" encoding="UTF-8" standalone="no"?>
<!-- Created with Inkscape (http://www.inkscape.org/) -->

<svg
   xmlns:dc="http://purl.org/dc/elements/1.1/"
   xmlns:cc="http://creativecommons.org/ns#"
   xmlns:rdf="http://www.w3.org/1999/02/22-rdf-syntax-ns#"
   xmlns:svg="http://www.w3.org/2000/svg"
   xmlns="http://www.w3.org/2000/svg"
   xmlns:sodipodi="http://sodipodi.sourceforge.net/DTD/sodipodi-0.dtd"
   xmlns:inkscape="http://www.inkscape.org/namespaces/inkscape"
   width="1000"
   height="1000"
   viewBox="0 0 1000 1000"
   version="1.1"
   id="svg756"
   inkscape:version="0.92.3 (2405546, 2018-03-11)"
   sodipodi:docname="u30c8.svg">
  <defs
     id="defs750" />
  <sodipodi:namedview
     id="base"
     pagecolor="#ffffff"
     bordercolor="#666666"
     borderopacity="1.0"
     inkscape:pageopacity="0.0"
     inkscape:pageshadow="2"
     inkscape:zoom="0.35"
     inkscape:cx="551.42857"
     inkscape:cy="576.33663"
     inkscape:document-units="px"
     inkscape:current-layer="layer1"
     showgrid="true"
     units="px"
     inkscape:window-width="1118"
     inkscape:window-height="864"
     inkscape:window-x="559"
     inkscape:window-y="94"
     inkscape:window-maximized="0"
     showguides="true"
     inkscape:guide-bbox="true">
    <inkscape:grid
       type="xygrid"
       id="grid758" />
    <sodipodi:guide
       position="240,200"
       orientation="0,1"
       id="guide8"
       inkscape:locked="false" />
  </sodipodi:namedview>
  <metadata
     id="metadata753">
    <rdf:RDF>
      <cc:Work
         rdf:about="">
        <dc:format>image/svg+xml</dc:format>
        <dc:type
           rdf:resource="http://purl.org/dc/dcmitype/StillImage" />
        <dc:title />
      </cc:Work>
    </rdf:RDF>
  </metadata>
  <g
     inkscape:label="Layer 1"
     inkscape:groupmode="layer"
     id="layer1"
     transform="translate(0,-32.41664)"
     style="display:inline">
    <path
       style="display:inline;fill:#000000;stroke-width:19.94234276"
       d="M 86.306488,32.41664 C 64.256311,35.735647 46.39473,53.823819 42.542084,74.658321 c -4.509285,21.926078 -0.471118,44.672949 7.626619,65.378719 5.595043,14.68812 8.92788,29.89706 8.471231,45.52308 3.903731,96.68443 8.559316,193.5399 2.801052,290.2422 -3.817229,65.22797 -8.596256,130.44064 -10.553946,195.76908 -1.355233,39.32527 -2.612408,78.76597 -0.16073,118.06656 1.962818,13.18571 8.411087,25.55689 16.626234,36.17734 5.14656,6.48375 15.200465,10.65331 22.826468,5.42994 12.350638,-8.6516 16.465778,-23.86673 21.548678,-36.95699 10.22769,-31.54137 14.92742,-64.45114 19.07492,-97.14648 4.65238,-39.12645 7.68116,-80.42099 29.14281,-115.00431 9.62523,-14.97924 27.20847,-26.65888 46.24106,-24.40341 28.31544,2.06472 52.3863,18.64632 74.63555,34.05666 30.728,21.97212 55.47775,52.09437 90.28061,68.80411 11.52523,5.07719 27.10786,9.53446 37.948,0.6655 7.49265,-6.43657 2.9269,-16.97261 -1.23739,-23.92083 -15.99809,-23.36477 -37.26871,-42.93903 -57.89137,-62.58035 -34.34768,-31.23184 -69.82928,-63.22909 -113.59823,-81.95039 -21.67268,-9.39975 -46.49981,-14.39976 -69.91831,-8.30146 -16.27301,3.79321 -30.54739,13.10416 -42.17568,24.41808 4.05478,-119.87413 14.55551,-239.94056 6.32519,-359.86431 C 127.97812,117.16909 124.76883,84.621736 112.49181,54.602403 107.99529,44.229657 99.491069,32.084794 86.306488,32.41664 Z"
       id="path1480"
       inkscape:connector-curvature="0" />
  </g>
</svg>
