<?xml version="1.0" encoding="UTF-8" standalone="no"?>
<!-- Created with Inkscape (http://www.inkscape.org/) -->

<svg
   xmlns:dc="http://purl.org/dc/elements/1.1/"
   xmlns:cc="http://creativecommons.org/ns#"
   xmlns:rdf="http://www.w3.org/1999/02/22-rdf-syntax-ns#"
   xmlns:svg="http://www.w3.org/2000/svg"
   xmlns="http://www.w3.org/2000/svg"
   xmlns:sodipodi="http://sodipodi.sourceforge.net/DTD/sodipodi-0.dtd"
   xmlns:inkscape="http://www.inkscape.org/namespaces/inkscape"
   width="1000"
   height="1000"
   viewBox="0 0 1000 1000"
   version="1.1"
   id="svg756"
   inkscape:version="0.92.3 (2405546, 2018-03-11)"
   sodipodi:docname="u30cb.svg">
  <defs
     id="defs750" />
  <sodipodi:namedview
     id="base"
     pagecolor="#ffffff"
     bordercolor="#666666"
     borderopacity="1.0"
     inkscape:pageopacity="0.0"
     inkscape:pageshadow="2"
     inkscape:zoom="0.35"
     inkscape:cx="551.42857"
     inkscape:cy="576.33663"
     inkscape:document-units="px"
     inkscape:current-layer="layer1"
     showgrid="true"
     units="px"
     inkscape:window-width="1118"
     inkscape:window-height="864"
     inkscape:window-x="631"
     inkscape:window-y="94"
     inkscape:window-maximized="0"
     showguides="true"
     inkscape:guide-bbox="true">
    <inkscape:grid
       type="xygrid"
       id="grid758" />
    <sodipodi:guide
       position="240,200"
       orientation="0,1"
       id="guide8"
       inkscape:locked="false" />
  </sodipodi:namedview>
  <metadata
     id="metadata753">
    <rdf:RDF>
      <cc:Work
         rdf:about="">
        <dc:format>image/svg+xml</dc:format>
        <dc:type
           rdf:resource="http://purl.org/dc/dcmitype/StillImage" />
        <dc:title />
      </cc:Work>
    </rdf:RDF>
  </metadata>
  <g
     inkscape:label="Layer 1"
     inkscape:groupmode="layer"
     id="layer1"
     transform="translate(0,-32.41664)"
     style="display:inline">
    <path
       style="display:inline;fill:#000000;stroke-width:23.39610481"
       d="m 51.101321,163.86303 c -10.784654,-0.68424 -23.841758,6.11363 -23.692953,18.20561 -5.568208,40.41713 -10.753637,81.97035 -2.997058,122.44849 1.690111,6.93654 3.756592,16.21008 11.114884,19.04211 9.217137,-0.0847 13.973966,-9.69726 19.13453,-15.96706 8.419345,-12.49964 12.52802,-29.49418 26.584526,-37.21814 13.1162,-5.67106 27.15764,2.15434 38.09526,9.10294 41.30432,26.48211 75.96521,50.12117 115.41882,79.03801 29.94507,21.94779 62.49846,26.43047 98.35858,36.04345 22.99904,5.94561 50.48402,15.54393 68.91189,-0.93038 18.95625,-16.52147 27.39879,-24.25164 35.20786,-47.5035 2.96931,-9.93566 2.98392,-23.37798 -7.16637,-29.20124 -16.74448,-10.67847 -37.35348,-8.20191 -56.4593,-10.87623 -31.2178,-2.7288 -63.14591,-3.30608 -93.06478,-13.70745 C 238.69773,279.2298 201.5017,251.09077 170.13093,220.81886 139.35999,194.84654 103.68297,172.20713 63.649912,164.72509 59.714779,164.11738 55.259341,163.75433 51.101321,163.86303 Z M 113.3569,541.13328 c -15.41786,2.59127 -25.4697,16.33793 -34.660112,27.68397 -15.823585,21.04407 -30.260886,47.03971 -26.478531,74.30682 3.831956,24.00267 23.551262,42.11569 44.354623,52.77499 46.28698,24.13578 99.60721,29.30871 150.8443,33.63585 98.95841,7.6015 198.5721,7.64328 297.65337,1.30804 30.34195,-2.24079 61.01093,-4.87635 90.49658,-12.87729 12.09416,-4.75689 22.6137,-13.52812 30.16079,-24.00453 3.73602,-5.90607 0.73799,-13.58157 -5.72792,-15.95681 -18.12243,-10.32415 -39.4643,-11.62885 -59.83094,-14.50966 -85.44732,-9.15357 -171.66579,-3.65085 -257.48148,-7.24203 -54.71062,-1.80355 -109.92539,-3.65054 -163.52395,-15.69901 -19.75872,-4.77926 -40.94383,-11.75759 -54.13334,-28.15628 -9.07986,-12.37312 -8.70029,-28.83986 -4.69422,-42.99365 1.55426,-8.83917 3.96057,-20.42373 -3.336,-27.43833 -1.10668,-0.60592 -2.38479,-0.8854 -3.64317,-0.83208 z"
       id="path803"
       inkscape:connector-curvature="0"
       sodipodi:nodetypes="cccccccsccccccccccccccccccccccccc" />
  </g>
</svg>
