<?xml version="1.0" encoding="UTF-8" standalone="no"?>
<!-- Created with Inkscape (http://www.inkscape.org/) -->

<svg
   xmlns:dc="http://purl.org/dc/elements/1.1/"
   xmlns:cc="http://creativecommons.org/ns#"
   xmlns:rdf="http://www.w3.org/1999/02/22-rdf-syntax-ns#"
   xmlns:svg="http://www.w3.org/2000/svg"
   xmlns="http://www.w3.org/2000/svg"
   xmlns:sodipodi="http://sodipodi.sourceforge.net/DTD/sodipodi-0.dtd"
   xmlns:inkscape="http://www.inkscape.org/namespaces/inkscape"
   width="1000"
   height="1000"
   viewBox="0 0 1000 1000"
   version="1.1"
   id="svg756"
   inkscape:version="0.92.3 (2405546, 2018-03-11)"
   sodipodi:docname="u30c6.svg">
  <defs
     id="defs750" />
  <sodipodi:namedview
     id="base"
     pagecolor="#ffffff"
     bordercolor="#666666"
     borderopacity="1.0"
     inkscape:pageopacity="0.0"
     inkscape:pageshadow="2"
     inkscape:zoom="0.35"
     inkscape:cx="551.42857"
     inkscape:cy="576.33663"
     inkscape:document-units="px"
     inkscape:current-layer="layer1"
     showgrid="true"
     units="px"
     inkscape:window-width="1118"
     inkscape:window-height="864"
     inkscape:window-x="648"
     inkscape:window-y="96"
     inkscape:window-maximized="0"
     showguides="true"
     inkscape:guide-bbox="true">
    <inkscape:grid
       type="xygrid"
       id="grid758" />
    <sodipodi:guide
       position="240,200"
       orientation="0,1"
       id="guide8"
       inkscape:locked="false" />
  </sodipodi:namedview>
  <metadata
     id="metadata753">
    <rdf:RDF>
      <cc:Work
         rdf:about="">
        <dc:format>image/svg+xml</dc:format>
        <dc:type
           rdf:resource="http://purl.org/dc/dcmitype/StillImage" />
        <dc:title />
      </cc:Work>
    </rdf:RDF>
  </metadata>
  <g
     inkscape:label="Layer 1"
     inkscape:groupmode="layer"
     id="layer1"
     transform="translate(0,-32.41664)"
     style="display:inline">
    <path
       style="display:inline;fill:#000000;stroke-width:23.17543793"
       d="M 515.10821,34.423262 C 463.06826,36.005843 411.54498,45.354643 359.71916,50.293722 316.51615,53.645085 273.90628,61.261187 231.21385,68.640218 190.69466,75.562283 148.96107,78.95225 108.20199,72.41664 91.977823,70.940154 71.39393,71.49825 60.653136,85.774578 50.520682,100.7122 56.720531,121.66588 70.045149,132.71842 c 13.46184,12.97968 30.303131,26.42675 50.366881,24.90029 9.64193,-0.66063 16.8797,-7.25564 23.63028,-13.24046 17.09922,-7.98544 36.34702,-10.05873 54.72487,-13.74591 75.63499,-13.0406 152.47451,-16.83057 228.71144,-24.38654 39.49732,-4.56238 79.49064,-7.802973 117.39125,-20.252223 10.18697,-4.01924 23.78124,-9.126838 25.26057,-21.494093 C 569.43513,54.30197 562.52847,44.289042 553.17972,39.712707 541.27575,34.596689 527.91256,34.500021 515.10821,34.423262 Z M 476.30972,311.48361 c -66.39381,0.94533 -132.74854,3.33441 -198.53229,12.48534 -60.62873,8.40369 -121.73245,18.91798 -178.44151,42.46718 -19.093654,8.17844 -40.039234,14.97829 -54.998012,29.83341 -8.396176,7.79812 -3.566372,20.7561 5.238088,26.02904 15.001028,8.78946 33.331418,5.52065 49.538534,3.16332 41.31953,-7.49461 80.66732,-23.33003 121.7685,-32.27927 48.15429,-11.7907 97.05524,-20.4541 146.34818,-26.13652 17.48801,-2.06259 34.86975,-5.1592 52.43613,-6.45869 -35.78552,24.16057 -73.32925,45.7901 -109.21058,69.79594 -17.1439,11.53816 -34.17127,27.94903 -35.0927,49.47972 -2.0224,26.70187 12.9664,50.85474 19.02359,76.47061 16.85541,63.90008 24.1861,129.67185 32.2315,195.05221 3.91076,22.77762 6.22953,47.38902 20.19002,66.7869 11.147,14.4107 31.84768,15.28748 48.61678,13.10111 14.16276,-1.74496 25.32161,-13.08036 28.68564,-26.38738 7.19707,-26.36477 -3.90249,-54.21207 -5.89435,-81.13758 -5.60768,-51.92609 -14.89087,-102.21652 -38.39388,-149.10039 -13.07648,-29.55344 -23.81733,-62.9527 -15.17626,-95.16769 7.87634,-29.50792 33.46976,-50.424 60.08372,-63.87716 38.75747,-20.46726 83.75571,-26.86414 120.88508,-50.13639 11.58446,-7.13471 22.02441,-20.87381 16.72442,-34.76306 -6.02019,-12.15635 -21.57553,-14.57275 -33.76424,-16.72877 -17.26054,-2.44464 -34.7524,-2.55106 -52.26636,-2.49188 z"
       id="path1435"
       inkscape:connector-curvature="0"
       sodipodi:nodetypes="cccccccccccccccccccccccccccccccccccccc" />
  </g>
</svg>
