<?xml version="1.0" encoding="UTF-8" standalone="no"?>
<!-- Created with Inkscape (http://www.inkscape.org/) -->

<svg
   xmlns:dc="http://purl.org/dc/elements/1.1/"
   xmlns:cc="http://creativecommons.org/ns#"
   xmlns:rdf="http://www.w3.org/1999/02/22-rdf-syntax-ns#"
   xmlns:svg="http://www.w3.org/2000/svg"
   xmlns="http://www.w3.org/2000/svg"
   xmlns:sodipodi="http://sodipodi.sourceforge.net/DTD/sodipodi-0.dtd"
   xmlns:inkscape="http://www.inkscape.org/namespaces/inkscape"
   width="1000"
   height="1000"
   viewBox="0 0 1000 1000"
   version="1.1"
   id="svg756"
   inkscape:version="0.92.3 (2405546, 2018-03-11)"
   sodipodi:docname="u30c2.svg">
  <defs
     id="defs750" />
  <sodipodi:namedview
     id="base"
     pagecolor="#ffffff"
     bordercolor="#666666"
     borderopacity="1.0"
     inkscape:pageopacity="0.0"
     inkscape:pageshadow="2"
     inkscape:zoom="0.35"
     inkscape:cx="551.42857"
     inkscape:cy="576.33663"
     inkscape:document-units="px"
     inkscape:current-layer="layer1"
     showgrid="true"
     units="px"
     inkscape:window-width="1118"
     inkscape:window-height="864"
     inkscape:window-x="666"
     inkscape:window-y="97"
     inkscape:window-maximized="0"
     showguides="true"
     inkscape:guide-bbox="true">
    <inkscape:grid
       type="xygrid"
       id="grid758" />
    <sodipodi:guide
       position="240,200"
       orientation="0,1"
       id="guide8"
       inkscape:locked="false" />
  </sodipodi:namedview>
  <metadata
     id="metadata753">
    <rdf:RDF>
      <cc:Work
         rdf:about="">
        <dc:format>image/svg+xml</dc:format>
        <dc:type
           rdf:resource="http://purl.org/dc/dcmitype/StillImage" />
        <dc:title />
      </cc:Work>
    </rdf:RDF>
  </metadata>
  <g
     inkscape:label="Layer 1"
     inkscape:groupmode="layer"
     id="layer1"
     transform="translate(0,-32.41664)"
     style="display:inline">
    <path
       style="display:inline;fill:#000000;stroke-width:15.85725975"
       d="m 716.04113,32.980808 c -27.06841,0.535564 -50.17465,16.783749 -72.20827,30.428967 -26.72672,17.307021 -52.85733,36.438067 -82.92889,47.885325 -12.44876,3.2771 -25.9483,-2.3781 -37.59447,3.25861 -11.98689,10.32788 -12.01831,27.63701 -13.01731,41.9899 -0.51845,30.40189 7.06483,64.76668 32.96568,84.41546 6.06492,4.40311 13.73352,11.11639 21.75743,6.6479 12.30898,-6.846 20.89887,-18.37881 30.63711,-28.13079 24.98366,-27.19854 47.00624,-57.54211 76.42109,-80.47848 7.16389,-5.18932 19.14301,-6.0708 24.23591,2.29878 9.14967,12.91376 8.49088,29.49917 12.25525,44.21463 2.46251,12.13671 5.50066,26.18824 16.15159,33.94037 7.88555,1.31093 11.76526,-7.77575 14.75933,-13.38472 12.33261,-27.09787 10.50844,-57.21595 11.75541,-86.21391 -0.22918,-23.991736 -1.02586,-48.897128 -11.5479,-71.161913 -4.7108,-8.487513 -13.30847,-15.787311 -23.64196,-15.710129 z M 468.96447,83.105037 c -16.5429,2.984155 -27.8702,16.269054 -40.25916,26.207133 -34.3397,32.18417 -70.14928,62.80797 -106.96779,92.24143 -68.08183,55.4707 -140.74844,105.91691 -203.07615,167.82361 -24.93898,25.52451 -49.093462,53.13874 -65.125377,84.76559 -12.686875,25.66316 -17.923603,55.93721 -8.945923,83.63836 3.573167,14.2157 13.43319,29.51314 29.685515,31.41506 24.041595,3.92134 47.376055,-5.66995 69.468625,-13.40394 34.20924,-13.68984 67.61925,-30.18714 103.65113,-39.26493 32.91758,-9.59347 66.43347,-17.16416 100.23227,-23.11058 -3.87769,41.97258 -5.06571,84.43002 -14.39069,125.76357 -11.73205,62.20022 -30.15117,123.02005 -42.85981,184.94578 -0.71391,5.0841 1.44585,14.35365 8.65354,11.9066 15.01224,-4.06058 23.6079,-18.24412 31.8212,-29.95315 25.55014,-40.59933 38.44026,-87.49702 51.97932,-132.88713 15.99042,-57.17299 27.26977,-115.87694 31.76199,-174.95875 31.21997,-9.5701 64.73439,-10.15915 94.51006,-23.8915 16.75703,-8.98723 31.77709,-21.45715 42.53929,-36.92156 3.6544,-10.50469 -4.57015,-21.9284 -15.19626,-24.31689 -18.80147,-5.26735 -38.63833,-2.81344 -57.72746,-0.54716 -19.40312,2.96998 -38.92267,5.85084 -58.24992,8.8 -5.41759,0.53154 -8.64822,-4.89878 -7.71104,-9.70146 -2.67392,-39.57349 -10.4238,-78.94183 -25.93807,-115.77829 -2.50252,-6.37044 -5.19404,-12.66742 -7.91915,-18.94908 22.86587,-23.65494 49.45506,-43.51005 73.33434,-66.02237 18.42966,-20.28371 24.8383,-48.12516 24.75886,-74.53937 0.29501,-10.87293 0.96937,-22.901712 -5.26055,-32.403018 -0.75806,-0.597764 -1.76857,-1.115647 -2.76879,-0.857955 z M 308.03025,312.41664 c 14.27636,2.09213 20.96662,16.68922 25.60216,28.39222 9.34226,24.44608 13.46011,50.72639 12.53712,76.79076 -55.75579,11.91516 -109.20224,32.28328 -164.2424,47.0989 -18.91092,5.18391 -38.19116,10.76313 -57.94157,11.12803 -6.54227,-0.55983 -11.96913,-7.74829 -8.18105,-13.7568 6.55713,-16.11483 21.33934,-26.94812 33.26502,-39.08997 41.36515,-37.73494 86.51646,-71.54886 134.36879,-101.00096 7.59988,-4.32471 15.62926,-8.95774 24.59193,-9.56218 z"
       id="path1349"
       inkscape:connector-curvature="0" />
  </g>
</svg>
