<?xml version="1.0" encoding="UTF-8" standalone="no"?>
<!-- Created with Inkscape (http://www.inkscape.org/) -->

<svg
   xmlns:dc="http://purl.org/dc/elements/1.1/"
   xmlns:cc="http://creativecommons.org/ns#"
   xmlns:rdf="http://www.w3.org/1999/02/22-rdf-syntax-ns#"
   xmlns:svg="http://www.w3.org/2000/svg"
   xmlns="http://www.w3.org/2000/svg"
   xmlns:sodipodi="http://sodipodi.sourceforge.net/DTD/sodipodi-0.dtd"
   xmlns:inkscape="http://www.inkscape.org/namespaces/inkscape"
   width="1000"
   height="1000"
   viewBox="0 0 1000 1000"
   version="1.1"
   id="svg756"
   inkscape:version="0.92.3 (2405546, 2018-03-11)"
   sodipodi:docname="u30c7.svg">
  <defs
     id="defs750" />
  <sodipodi:namedview
     id="base"
     pagecolor="#ffffff"
     bordercolor="#666666"
     borderopacity="1.0"
     inkscape:pageopacity="0.0"
     inkscape:pageshadow="2"
     inkscape:zoom="0.35"
     inkscape:cx="551.42857"
     inkscape:cy="576.33663"
     inkscape:document-units="px"
     inkscape:current-layer="layer1"
     showgrid="true"
     units="px"
     inkscape:window-width="1118"
     inkscape:window-height="864"
     inkscape:window-x="375"
     inkscape:window-y="92"
     inkscape:window-maximized="0"
     showguides="true"
     inkscape:guide-bbox="true">
    <inkscape:grid
       type="xygrid"
       id="grid758" />
    <sodipodi:guide
       position="240,200"
       orientation="0,1"
       id="guide8"
       inkscape:locked="false" />
  </sodipodi:namedview>
  <metadata
     id="metadata753">
    <rdf:RDF>
      <cc:Work
         rdf:about="">
        <dc:format>image/svg+xml</dc:format>
        <dc:type
           rdf:resource="http://purl.org/dc/dcmitype/StillImage" />
        <dc:title />
      </cc:Work>
    </rdf:RDF>
  </metadata>
  <g
     inkscape:label="Layer 1"
     inkscape:groupmode="layer"
     id="layer1"
     transform="translate(0,-32.41664)"
     style="display:inline">
    <path
       style="display:inline;fill:#000000;stroke-width:20.67944527"
       d="m 72.042941,33.121222 c -12.53258,0.730121 -28.022262,0.464331 -36.950888,11.062483 -5.918607,10.959949 0.883534,23.460552 6.165244,33.199005 9.462143,10.085318 23.978583,11.464595 36.491054,15.809873 64.705889,16.766637 131.652459,22.948167 198.192219,28.972797 53.10887,4.10813 106.68702,7.02276 159.78412,1.26895 6.50152,-1.09347 13.57544,-2.29035 18.73334,-6.48571 1.08257,-8.50135 -2.53618,-16.88536 -4.55962,-25.026698 -2.22422,-5.382169 -4.44965,-12.461835 -9.79991,-15.31507 C 342.70048,61.629189 244.07476,55.447879 146.50115,41.322285 121.83538,37.38559 97.08644,32.746815 72.042941,33.121222 Z M 533.97445,83.784129 c -13.48263,1.682895 -19.74645,15.933866 -23.41288,27.249911 -5.45617,14.04972 -2.57877,30.14685 6.06671,42.30855 18.62684,29.94332 49.42897,49.80298 78.61602,68.83585 18.34527,11.03777 38.25442,21.5163 60.11448,22.41062 7.0701,-0.12632 13.78559,-5.98178 12.43485,-13.32408 -0.49894,-19.88532 -13.44486,-37.37041 -24.05142,-53.68117 C 621.32541,146.22996 594.79992,117.27569 563.55636,94.290808 554.9163,88.466041 544.76921,83.468619 533.97445,83.784129 Z M 397.5875,282.38973 c -56.7929,3.97291 -107.81136,33.25885 -163.87452,41.37131 -30.03789,5.01273 -60.82325,8.38699 -91.21894,4.87773 -8.64096,-1.14545 -16.25466,-6.39804 -24.82327,-7.22937 -6.66795,0.19169 -4.92045,8.1388 -5.33829,12.57853 0.49314,16.63219 5.35705,33.3151 13.50902,47.71902 10.44784,17.03647 29.79507,28.1287 50.08125,29.08026 38.14316,3.38282 73.82077,-13.17879 109.69891,-23.47736 23.3453,-7.35425 46.69082,-14.70783 70.03602,-22.06248 -20.70703,93.46632 -20.00329,191.72918 4.16747,284.36685 16.56007,59.66737 47.71195,114.77128 87.20022,162.66004 6.48354,7.88234 12.8332,16.76364 21.56578,22.14238 6.67003,-0.7559 8.19,-8.7254 12.18333,-13.04689 10.01259,-15.70292 21.00644,-34.52426 14.43038,-53.58429 -5.59393,-17.17776 -21.41144,-28.08002 -29.91755,-43.80793 -22.11717,-36.14487 -31.36331,-78.30233 -37.62902,-119.64254 -9.02707,-66.22065 -5.7104,-133.80216 7.4475,-199.25397 5.15033,-31.13451 11.37008,-62.74979 5.79562,-94.23956 -2.01151,-13.37474 -12.26296,-25.70203 -26.10685,-27.5317 -5.73423,-0.99939 -11.39303,-1.23461 -17.20706,-0.92003 z"
       id="path1461"
       inkscape:connector-curvature="0" />
  </g>
</svg>
