<?xml version="1.0" encoding="UTF-8" standalone="no"?>
<!-- Created with Inkscape (http://www.inkscape.org/) -->

<svg
   xmlns:dc="http://purl.org/dc/elements/1.1/"
   xmlns:cc="http://creativecommons.org/ns#"
   xmlns:rdf="http://www.w3.org/1999/02/22-rdf-syntax-ns#"
   xmlns:svg="http://www.w3.org/2000/svg"
   xmlns="http://www.w3.org/2000/svg"
   xmlns:sodipodi="http://sodipodi.sourceforge.net/DTD/sodipodi-0.dtd"
   xmlns:inkscape="http://www.inkscape.org/namespaces/inkscape"
   width="1000"
   height="1000"
   viewBox="0 0 1000 1000"
   version="1.1"
   id="svg756"
   inkscape:version="0.92.3 (2405546, 2018-03-11)"
   sodipodi:docname="u30d8.svg">
  <defs
     id="defs750" />
  <sodipodi:namedview
     id="base"
     pagecolor="#ffffff"
     bordercolor="#666666"
     borderopacity="1.0"
     inkscape:pageopacity="0.0"
     inkscape:pageshadow="2"
     inkscape:zoom="0.35"
     inkscape:cx="551.42857"
     inkscape:cy="576.33663"
     inkscape:document-units="px"
     inkscape:current-layer="layer1"
     showgrid="true"
     units="px"
     inkscape:window-width="1118"
     inkscape:window-height="864"
     inkscape:window-x="583"
     inkscape:window-y="96"
     inkscape:window-maximized="0"
     showguides="true"
     inkscape:guide-bbox="true">
    <inkscape:grid
       type="xygrid"
       id="grid758" />
    <sodipodi:guide
       position="240,200"
       orientation="0,1"
       id="guide8"
       inkscape:locked="false" />
  </sodipodi:namedview>
  <metadata
     id="metadata753">
    <rdf:RDF>
      <cc:Work
         rdf:about="">
        <dc:format>image/svg+xml</dc:format>
        <dc:type
           rdf:resource="http://purl.org/dc/dcmitype/StillImage" />
        <dc:title />
      </cc:Work>
    </rdf:RDF>
  </metadata>
  <g
     inkscape:label="Layer 1"
     inkscape:groupmode="layer"
     id="layer1"
     transform="translate(0,-32.41664)"
     style="display:inline">
    <path
       style="display:inline;fill:#000000;stroke-width:25.24741173"
       d="m 417.7382,112.41664 c -25.35684,1.48628 -46.53556,18.19179 -65.26941,33.82842 -51.10487,45.11726 -93.93968,99.06943 -134.93072,153.46846 -55.71175,75.25629 -107.07822,154.18102 -148.77966,238.15124 -12.327587,25.79105 -24.552627,52.18775 -29.088163,80.60518 -1.783329,20.33085 1.457285,41.29365 11.195276,59.25326 3.568647,6.86779 10.810139,11.97269 18.767933,10.52396 12.414,-0.0273 22.845044,-9.02517 27.790647,-19.9214 15.181177,-27.29607 23.409067,-57.65597 33.894747,-86.8662 9.59524,-30.39808 19.01512,-61.18202 35.13708,-88.90503 36.64173,-67.55205 82.08328,-129.93104 130.29685,-189.61523 25.7899,-31.15139 52.36404,-62.27212 84.43552,-87.17956 7.29605,-5.0809 16.15201,-11.1439 25.44575,-8.99025 9.28259,3.99796 13.02115,14.54534 17.98127,22.5859 29.70443,56.65927 43.8393,119.5623 64.5925,179.68148 22.42243,68.04981 44.92445,136.4937 76.86989,200.83764 11.58172,22.29855 24.35321,45.71944 45.47115,60.35973 14.39387,8.04845 31.14506,10.16818 47.3066,12.05631 10.30394,0.6478 23.8126,0.24043 30.10269,-9.45087 5.11355,-10.62674 -1.01486,-22.95278 -6.06811,-32.56496 C 670.8817,619.29494 651.92209,603.31487 640.32883,581.97303 614.8906,539.91973 596.4042,494.10913 579.41351,448.12855 559.78061,392.39061 546.36809,334.727 527.75607,278.65593 513.25087,235.12881 498.05601,191.11133 473.84404,151.84049 461.58936,132.74707 442.84344,111.47717 417.7382,112.41664 Z"
       id="path934"
       inkscape:connector-curvature="0" />
  </g>
</svg>
