<?xml version="1.0" encoding="UTF-8" standalone="no"?>
<!-- Created with Inkscape (http://www.inkscape.org/) -->

<svg
   xmlns:dc="http://purl.org/dc/elements/1.1/"
   xmlns:cc="http://creativecommons.org/ns#"
   xmlns:rdf="http://www.w3.org/1999/02/22-rdf-syntax-ns#"
   xmlns:svg="http://www.w3.org/2000/svg"
   xmlns="http://www.w3.org/2000/svg"
   xmlns:sodipodi="http://sodipodi.sourceforge.net/DTD/sodipodi-0.dtd"
   xmlns:inkscape="http://www.inkscape.org/namespaces/inkscape"
   width="1000"
   height="1000"
   viewBox="0 0 1000 1000"
   version="1.1"
   id="svg756"
   inkscape:version="0.92.3 (2405546, 2018-03-11)"
   sodipodi:docname="u30db.svg">
  <defs
     id="defs750" />
  <sodipodi:namedview
     id="base"
     pagecolor="#ffffff"
     bordercolor="#666666"
     borderopacity="1.0"
     inkscape:pageopacity="0.0"
     inkscape:pageshadow="2"
     inkscape:zoom="0.35"
     inkscape:cx="551.42857"
     inkscape:cy="576.33663"
     inkscape:document-units="px"
     inkscape:current-layer="layer1"
     showgrid="true"
     units="px"
     inkscape:window-width="1118"
     inkscape:window-height="864"
     inkscape:window-x="653"
     inkscape:window-y="89"
     inkscape:window-maximized="0"
     showguides="true"
     inkscape:guide-bbox="true">
    <inkscape:grid
       type="xygrid"
       id="grid758" />
    <sodipodi:guide
       position="240,200"
       orientation="0,1"
       id="guide8"
       inkscape:locked="false" />
  </sodipodi:namedview>
  <metadata
     id="metadata753">
    <rdf:RDF>
      <cc:Work
         rdf:about="">
        <dc:format>image/svg+xml</dc:format>
        <dc:type
           rdf:resource="http://purl.org/dc/dcmitype/StillImage" />
        <dc:title />
      </cc:Work>
    </rdf:RDF>
  </metadata>
  <g
     inkscape:label="Layer 1"
     inkscape:groupmode="layer"
     id="layer1"
     transform="translate(0,-32.41664)"
     style="display:inline">
    <path
       style="display:inline;fill:#000000;stroke-width:19.54430199"
       d="m 368.04879,33.496394 c -12.2282,-0.01405 -25.81311,6.935538 -28.43169,19.771469 -7.47815,25.609056 -2.74038,52.505847 -3.24534,78.680807 0.17297,8.7128 0.25038,14.91877 0.0176,23.63122 -67.60676,3.28137 -135.0605,9.5729 -202.24105,17.72348 -29.00895,4.20754 -59.192223,8.75203 -84.723318,24.07394 -8.260055,5.40814 -13.854969,19.371 -8.359858,28.57566 4.340024,8.93261 15.034218,12.83111 24.438078,11.03713 53.667948,-1.09327 106.283108,-13.7096 159.763058,-16.09939 36.53072,-2.69586 73.20363,-4.1744 109.7437,-7.09278 2.3642,62.06898 1.15491,124.25514 1.6501,186.37531 -19.37308,-1.24696 -42.21105,7.15899 -49.61953,24.94828 -13.12702,25.99386 -17.10181,55.51695 -31.00455,81.19936 -18.60722,40.91375 -43.57498,78.35809 -68.29329,115.72812 -10.82026,17.89525 -22.3468,37.45636 -21.8182,59.05658 1.76139,15.68129 25.36383,28.27409 38.72616,20.96636 9.83989,-5.75276 16.72078,-15.31153 24.555,-23.38103 35.35358,-41.55789 60.7441,-90.24903 88.85134,-136.71172 5.45043,-9.23645 10.92578,-18.45805 16.41529,-27.67132 -0.71716,52.83468 -1.29225,105.71651 -9.52735,157.99389 -5.60429,42.34349 -9.77732,85.14323 -7.43856,127.88054 1.12065,11.70261 6.12891,25.53305 18.69389,28.94691 14.62784,4.56799 35.83206,-3.38185 42.55459,-16.94226 12.38733,-21.25602 13.18595,-46.67528 15.88212,-70.47577 4.86994,-62.5094 5.09387,-125.25733 8.08936,-187.86518 3.43078,-90.08395 6.3936,-180.2467 4.31872,-270.40111 0.0948,-23.66813 0.78365,-47.33 0.82941,-70.99857 51.37829,-2.30392 98.09222,-6.94522 149.45706,-9.08906 17.60912,-1.22769 36.75747,-2.38987 51.61819,-12.94062 10.8532,-9.57671 9.04054,-33.17264 -5.22657,-38.53186 -19.99544,-8.44172 -42.22134,-4.85222 -63.27992,-5.35047 -45.44326,1.05118 -86.3512,2.63001 -131.7901,3.84499 0.62908,-29.39454 5.00861,-56.464201 2.64388,-85.926056 -1.65803,-12.940972 -13.9996,-26.742782 -27.66498,-29.581165 -5.07728,-1.367812 -10.36671,-1.372802 -15.58319,-1.375685 z M 479.58627,505.3132 c -9.30527,0.97762 -27.63493,2.90452 -33.95895,11.6664 -3.40219,8.25499 4.85125,14.89338 10.52907,19.42284 23.80097,17.66238 48.07209,35.26138 67.16321,58.20369 12.78413,14.19746 22.32771,30.83963 33.47468,46.2328 10.6525,13.43793 25.54485,26.76903 43.73049,26.46793 13.26609,-1.49884 26.94867,-20.35381 26.12005,-32.7283 -0.20222,-21.10174 -15.01654,-38.21393 -27.889,-53.47816 -27.26755,-30.32073 -59.99402,-56.95149 -98.1967,-72.04015 -6.73763,-2.3142 -13.82034,-3.84563 -20.97285,-3.74705 z"
       id="path1032"
       inkscape:connector-curvature="0"
       sodipodi:nodetypes="ccccccccccccccccccccccccccccccccccccccccccccc" />
  </g>
</svg>
