<?xml version="1.0" encoding="UTF-8" standalone="no"?>
<!-- Created with Inkscape (http://www.inkscape.org/) -->

<svg
   xmlns:dc="http://purl.org/dc/elements/1.1/"
   xmlns:cc="http://creativecommons.org/ns#"
   xmlns:rdf="http://www.w3.org/1999/02/22-rdf-syntax-ns#"
   xmlns:svg="http://www.w3.org/2000/svg"
   xmlns="http://www.w3.org/2000/svg"
   xmlns:sodipodi="http://sodipodi.sourceforge.net/DTD/sodipodi-0.dtd"
   xmlns:inkscape="http://www.inkscape.org/namespaces/inkscape"
   width="1000"
   height="1000"
   viewBox="0 0 1000 1000"
   version="1.1"
   id="svg756"
   inkscape:version="0.92.3 (2405546, 2018-03-11)"
   sodipodi:docname="u30d1.svg">
  <defs
     id="defs750" />
  <sodipodi:namedview
     id="base"
     pagecolor="#ffffff"
     bordercolor="#666666"
     borderopacity="1.0"
     inkscape:pageopacity="0.0"
     inkscape:pageshadow="2"
     inkscape:zoom="0.35"
     inkscape:cx="551.42857"
     inkscape:cy="576.33663"
     inkscape:document-units="px"
     inkscape:current-layer="layer1"
     showgrid="true"
     units="px"
     inkscape:window-width="1118"
     inkscape:window-height="864"
     inkscape:window-x="614"
     inkscape:window-y="93"
     inkscape:window-maximized="0"
     showguides="true"
     inkscape:guide-bbox="true">
    <inkscape:grid
       type="xygrid"
       id="grid758" />
    <sodipodi:guide
       position="240,200"
       orientation="0,1"
       id="guide8"
       inkscape:locked="false" />
  </sodipodi:namedview>
  <metadata
     id="metadata753">
    <rdf:RDF>
      <cc:Work
         rdf:about="">
        <dc:format>image/svg+xml</dc:format>
        <dc:type
           rdf:resource="http://purl.org/dc/dcmitype/StillImage" />
        <dc:title />
      </cc:Work>
    </rdf:RDF>
  </metadata>
  <g
     inkscape:label="Layer 1"
     inkscape:groupmode="layer"
     id="layer1"
     transform="translate(0,-32.41664)"
     style="display:inline">
    <path
       style="display:inline;fill:#000000;stroke-width:16.04654312"
       d="m 660.95134,55.729426 c -12.68938,-0.138021 -26.16601,1.241948 -36.48844,9.258488 -21.67237,16.201291 -32.51905,42.241946 -40.34299,67.079516 -12.79682,44.41165 -15.92258,91.96841 -6.63943,137.34319 5.61335,26.01773 17.04831,53.0893 40.38638,68.29385 22.03179,15.8574 52.12858,20.12782 77.58297,10.15092 33.38957,-12.63464 56.77257,-42.94189 69.36099,-74.9331 14.67288,-37.60331 8.81365,-79.55099 -4.69904,-116.57878 -9.68182,-25.4679 -20.46584,-51.03874 -36.80476,-73.149202 -11.08577,-15.3288 -28.84648,-25.675602 -48.01898,-26.910289 -4.76146,-0.479327 -9.55259,-0.616815 -14.3367,-0.554593 z M 282.04744,72.41664 c -13.23224,-0.449801 -24.97845,8.017347 -31.15218,19.125865 -13.79686,23.838955 -19.89121,51.009215 -27.16563,77.245765 -13.9191,56.03102 -26.3619,112.39428 -43.30531,167.6375 -32.77167,109.48316 -76.32893,215.37491 -118.226079,321.6748 -10.048923,28.58175 -19.729282,57.86152 -21.899865,88.21249 -0.934155,8.46433 1.781438,16.96219 7.739,23.17635 8.210791,10.32314 26.113579,12.96141 37.810654,7.13311 21.46625,-10.19602 38.0338,-32.6078 41.04806,-54.98655 6.01254,-32.8618 16.94517,-65.06478 26.47666,-97.18232 36.12272,-114.72736 75.16451,-228.93451 117.63484,-341.5103 10.99254,-29.55562 23.40059,-58.57505 36.02241,-87.45598 10.79429,-27.99071 20.20255,-59.05064 16.71665,-89.32861 -1.58862,-13.888858 -16.55752,-28.723032 -31.37927,-32.517999 -3.35004,-0.929835 -6.84537,-1.288114 -10.31994,-1.224121 z m 384.81975,63.8847 c 9.96278,2.27467 14.86468,12.58057 19.85003,20.52671 13.17297,25.25251 21.74758,53.35773 22.83527,81.72206 1.02035,14.95026 -6.97701,28.74311 -16.60574,39.65569 -6.12836,7.31795 -17.54833,11.02641 -25.88634,4.95744 -11.23196,-7.79126 -18.44233,-20.30938 -22.85994,-32.87533 -6.16656,-25.56228 -3.13145,-52.17952 2.30025,-77.62664 3.45958,-12.17967 6.17678,-26.18819 16.14959,-35.00262 1.22265,-0.85415 2.69336,-1.45581 4.21688,-1.35731 z M 356.75104,393.60986 c -10.62359,1.1719 -22.99958,1.28653 -31.21176,8.97572 -5.77889,6.72407 -0.13477,15.89315 4.51891,21.58196 10.37911,13.49787 25.91442,22.50803 34.42881,37.42645 23.23476,37.14983 38.52848,78.58794 52.56276,119.84918 13.94693,42.56864 25.24196,86.15409 29.51835,130.73438 3.16275,17.4646 7.45434,36.00607 19.41838,49.8412 6.44733,6.89603 16.88545,6.78463 25.49367,9.06092 10.85513,1.83844 27.74321,2.88761 34.88181,-7.25659 7.27522,-12.02049 6.27594,-26.90687 4.07734,-39.84176 -8.39957,-37.05706 -17.53724,-74.40107 -29.57077,-110.40173 -19.96004,-55.70486 -38.7074,-112.26114 -67.87875,-164.05692 -11.29632,-20.05745 -32.51388,-38.85958 -53.15391,-50.76636 -6.26377,-3.40515 -15.89873,-5.39023 -23.08484,-5.14645 z"
       id="path778"
       inkscape:connector-curvature="0"
       sodipodi:nodetypes="ccccccccccccccccccccccccccccccccccccccccccccccscc" />
  </g>
</svg>
