<?xml version="1.0" encoding="UTF-8" standalone="no"?>
<!-- Created with Inkscape (http://www.inkscape.org/) -->

<svg
   xmlns:dc="http://purl.org/dc/elements/1.1/"
   xmlns:cc="http://creativecommons.org/ns#"
   xmlns:rdf="http://www.w3.org/1999/02/22-rdf-syntax-ns#"
   xmlns:svg="http://www.w3.org/2000/svg"
   xmlns="http://www.w3.org/2000/svg"
   xmlns:sodipodi="http://sodipodi.sourceforge.net/DTD/sodipodi-0.dtd"
   xmlns:inkscape="http://www.inkscape.org/namespaces/inkscape"
   width="1000"
   height="1000"
   viewBox="0 0 1000 1000"
   version="1.1"
   id="svg756"
   inkscape:version="0.92.3 (2405546, 2018-03-11)"
   sodipodi:docname="u30dc.svg">
  <defs
     id="defs750" />
  <sodipodi:namedview
     id="base"
     pagecolor="#ffffff"
     bordercolor="#666666"
     borderopacity="1.0"
     inkscape:pageopacity="0.0"
     inkscape:pageshadow="2"
     inkscape:zoom="0.35"
     inkscape:cx="551.42857"
     inkscape:cy="576.33663"
     inkscape:document-units="px"
     inkscape:current-layer="layer1"
     showgrid="true"
     units="px"
     inkscape:window-width="1118"
     inkscape:window-height="864"
     inkscape:window-x="631"
     inkscape:window-y="94"
     inkscape:window-maximized="0"
     showguides="true"
     inkscape:guide-bbox="true">
    <inkscape:grid
       type="xygrid"
       id="grid758" />
    <sodipodi:guide
       position="240,200"
       orientation="0,1"
       id="guide8"
       inkscape:locked="false" />
  </sodipodi:namedview>
  <metadata
     id="metadata753">
    <rdf:RDF>
      <cc:Work
         rdf:about="">
        <dc:format>image/svg+xml</dc:format>
        <dc:type
           rdf:resource="http://purl.org/dc/dcmitype/StillImage" />
        <dc:title />
      </cc:Work>
    </rdf:RDF>
  </metadata>
  <g
     inkscape:label="Layer 1"
     inkscape:groupmode="layer"
     id="layer1"
     transform="translate(0,-32.41664)"
     style="display:inline">
    <path
       style="display:inline;fill:#000000;stroke-width:20.00271416"
       d="m 320.9446,32.340569 c -14.0038,0.914432 -21.33857,15.717603 -23.21033,27.900351 -5.98981,35.659461 3.91619,37.8436 8.56562,73.00225 3.2139,24.30263 5.62782,41.39798 6.94221,58.85133 -63.93256,5.41469 -132.48097,6.74954 -195.91543,16.43575 -16.1768,3.08287 -33.941308,6.89036 -45.856268,18.96214 -5.681447,7.14574 -9.388195,18.51805 -3.561631,26.43381 9.885762,8.10284 23.234985,6.96654 35.197259,8.78069 55.39522,3.97164 111.10114,1.22233 166.64783,2.11138 h 46.86591 c 1.93031,83.92911 1.34613,165.70414 -1.2089,248.50826 -0.91481,14.7229 -2.48475,29.39825 -4.3224,44.03428 -35.02252,-1.44584 -69.52041,-12.48697 -104.54781,-7.52941 -3.98309,-36.78191 -9.83489,-76.23763 -35.41394,-104.85894 -11.77811,-12.45576 -27.47477,-17.83412 -42.74088,-7.7396 -8.18494,7.41887 -10.7009,18.7657 -15.24293,28.42361 -12.2463,33.90709 -4.8336,71.34681 -18.67138,104.83391 -10.404052,28.46388 -30.027507,54.73058 -48.091976,79.04983 -5.774964,8.82254 -12.062906,21.37207 -4.395787,30.97249 7.886216,10.98516 6.881433,17.84301 17.510456,26.04087 8.018696,5.47399 18.80639,5.1771 26.494462,-0.76189 27.404625,-16.39049 46.602385,-42.80273 72.541895,-61.12944 25.19091,-18.9664 56.53971,-31.7158 88.63352,-29.03744 19.18555,1.11341 37.90779,5.72111 56.70666,9.35678 -8.5435,62.55098 -33.68094,121.12872 -50.30424,181.64926 -2.19492,8.2334 1.85993,17.08547 9.90052,20.35395 13.90821,6.75327 31.99932,4.84388 44.29297,-4.40154 15.83012,-13.56998 21.45828,-34.49477 28.7857,-53.10317 13.67743,-38.35946 23.2575,-78.25936 26.93423,-118.73302 2.07151,-4.84349 8.45713,-4.07172 12.14575,-1.69945 30.49954,11.21892 58.69226,27.95017 83.85872,48.30683 29.81971,23.58349 62.78787,44.60009 99.87346,54.77135 12.04153,2.31203 26.20529,7.04755 37.64411,0.0436 6.24735,-3.64768 5.30466,-12.25999 0.44325,-16.67412 -30.78228,-35.50524 -67.67658,-65.00119 -104.17196,-94.47865 -36.30258,-27.9125 -76.4843,-50.8289 -118.55338,-69.13314 10.03399,-98.86623 14.04305,-198.37455 13.67986,-297.75554 -2.03923,-4.83249 2.47082,-9.41448 7.36805,-8.81448 15.97437,-0.75663 34.38251,-0.25118 47.01625,-11.75137 11.6147,-13.52539 6.30523,-35.25984 -8.13896,-44.66043 -19.49877,-15.0502 -42.50414,-28.58781 -52.79423,-52.03517 -8.04562,-16.36553 -7.57738,-34.97591 -10.31104,-52.40942 C 367.30473,79.688047 358.25721,53.258117 337.26104,37.561855 332.47096,34.359453 326.80713,32.09791 320.9446,32.34112 Z M 571.96645,190.41664 c -10.27224,1.30123 -13.09618,13.33774 -16.71734,21.17492 -5.99943,17.29091 6.22467,35.03735 20.24622,44.40272 20.23412,14.3816 45.02843,24.53727 70.14757,23.59626 12.01798,-1.45079 25.56858,-5.37975 32.40934,-16.00202 4.46632,-11.25128 -4.99825,-21.95195 -12.71435,-29.20649 -20.46163,-18.67198 -47.36102,-27.77756 -72.37937,-38.9395 -6.75257,-2.47059 -13.75196,-4.70472 -20.99207,-5.02589 z"
       id="path1063"
       inkscape:connector-curvature="0"
       sodipodi:nodetypes="ccsccccccccccccccccccccccccccccccccccccccccccccccccc" />
  </g>
</svg>
