<?xml version="1.0" encoding="UTF-8" standalone="no"?>
<!-- Created with Inkscape (http://www.inkscape.org/) -->

<svg
   xmlns:dc="http://purl.org/dc/elements/1.1/"
   xmlns:cc="http://creativecommons.org/ns#"
   xmlns:rdf="http://www.w3.org/1999/02/22-rdf-syntax-ns#"
   xmlns:svg="http://www.w3.org/2000/svg"
   xmlns="http://www.w3.org/2000/svg"
   xmlns:sodipodi="http://sodipodi.sourceforge.net/DTD/sodipodi-0.dtd"
   xmlns:inkscape="http://www.inkscape.org/namespaces/inkscape"
   width="1000"
   height="1000"
   viewBox="0 0 1000 1000"
   version="1.1"
   id="svg756"
   inkscape:version="0.92.3 (2405546, 2018-03-11)"
   sodipodi:docname="u30dd.svg">
  <defs
     id="defs750" />
  <sodipodi:namedview
     id="base"
     pagecolor="#ffffff"
     bordercolor="#666666"
     borderopacity="1.0"
     inkscape:pageopacity="0.0"
     inkscape:pageshadow="2"
     inkscape:zoom="0.35"
     inkscape:cx="551.42857"
     inkscape:cy="576.33663"
     inkscape:document-units="px"
     inkscape:current-layer="layer1"
     showgrid="true"
     units="px"
     inkscape:window-width="1118"
     inkscape:window-height="864"
     inkscape:window-x="605"
     inkscape:window-y="93"
     inkscape:window-maximized="0"
     showguides="true"
     inkscape:guide-bbox="true">
    <inkscape:grid
       type="xygrid"
       id="grid758" />
    <sodipodi:guide
       position="240,200"
       orientation="0,1"
       id="guide8"
       inkscape:locked="false" />
  </sodipodi:namedview>
  <metadata
     id="metadata753">
    <rdf:RDF>
      <cc:Work
         rdf:about="">
        <dc:format>image/svg+xml</dc:format>
        <dc:type
           rdf:resource="http://purl.org/dc/dcmitype/StillImage" />
        <dc:title />
      </cc:Work>
    </rdf:RDF>
  </metadata>
  <g
     inkscape:label="Layer 1"
     inkscape:groupmode="layer"
     id="layer1"
     transform="translate(0,-32.41664)"
     style="display:inline">
    <path
       style="display:inline;fill:#000000;stroke-width:13.6683569"
       d="m 478.02571,48.648146 c -10.82947,1.277759 -20.16003,13.078439 -23.67345,21.428398 -17.74287,42.166876 -22.76981,88.487386 -23.7038,133.589806 -0.29526,14.261 -0.62438,28.91268 -2.4282,42.84734 -62.75272,21.34209 -113.9474,38.44737 -158.16906,59.5993 -7.68031,4.3542 -16.81886,8.39065 -21.22765,16.30365 -3.4476,9.66124 5.73,18.49103 14.69182,20.7357 17.88583,5.75909 37.16778,3.43916 55.51552,1.74904 39.67581,-3.65489 71.41234,-14.10518 108.59002,-26.031 -5.3622,100.5252 -7.80936,201.34798 -15.64254,301.74906 -1.8267,23.41389 -2.35402,40.21794 -4.7746,63.59027 -24.65014,-21.22104 -35.00306,-43.57792 -62.4746,-61.81821 -20.31791,-13.49053 -46.02428,-17.18397 -69.88304,-12.39672 -46.35979,9.30193 -86.73987,34.85595 -129.24706,53.7326 -30.91579,13.72918 -63.21942,24.08923 -95.974126,32.82838 -12.231183,3.26337 -25.933925,9.75894 -30.751323,22.01644 -3.161269,8.04354 3.668676,20.86789 11.755265,23.33514 20.873172,6.3684 42.892651,6.40211 64.374484,6.38275 41.89089,-0.0375 83.85686,-3.71091 125.56359,0.76234 82.22773,6.37659 164.429,18.90688 243.61262,41.75884 18.36789,5.30084 35.46206,13.95988 53.02828,21.23698 12.18709,5.04857 29.27836,-0.1832 38.45009,-11.16541 5.84239,-6.9958 10.29953,-18.09422 3.38794,-25.75933 -10.27585,-11.39617 -24.10882,-19.94209 -38.08766,-25.51411 -18.32889,-7.30596 -22.90417,-10.22897 -54.58979,-20.73835 7.90702,-57.69053 8.889,-115.98992 13.16646,-173.96936 6.17037,-83.63614 13.9157,-167.23688 16.6313,-251.09155 17.55091,-3.6497 34.50781,-11.21995 50.81943,-17.18231 -3.09807,20.24397 -5.05937,40.62969 -4.52687,61.14635 0.63703,24.54408 0.728,50.72128 13.12399,72.63964 9.20794,16.28124 43.0987,27.31327 61.16399,19.24007 21.37801,-9.55371 34.80688,-29.84816 45.53517,-49.27781 24.52351,-44.41386 32.75493,-97.69435 22.08341,-147.15797 -4.2553,-19.72393 -14.39713,-42.30552 -32.63458,-50.85411 -23.04661,-10.80282 -57.68873,-3.11534 -75.77588,9.41415 -7.02945,-19.32858 -18.36971,-40.34723 -25.81005,-59.46402 -15.69196,-40.31831 -35.40997,-85.640549 -71.41563,-93.681069 -0.23229,0.03986 -0.70347,-0.223183 -0.70347,0.01481 z m 24.78342,92.898524 c 17.97289,21.85272 33.46684,49.29123 36.39463,75.39551 -10.80629,7.22699 -24.43122,8.04296 -36.54106,12.18361 -7.16273,3.93775 -3.44186,-5.52498 -4.05491,-9.60539 1.08771,-26.20749 2.79025,-52.39513 3.52491,-78.6132 z m 115.39123,93.77752 c 10.98871,4.25399 23.61675,20.7576 24.60169,31.1332 2.04141,21.50377 -1.80883,43.64645 -6.95896,64.73109 -5.30147,21.70429 -12.80037,43.94575 -29.29111,59.56485 -3.86065,3.65659 -19.70901,-3.66435 -21.03448,-7.75621 -5.54143,-17.10703 -2.20703,-34.98878 -0.48331,-52.29701 3.00061,-30.13044 7.60384,-61.405 23.19464,-88.02446 2.02472,-3.45694 5.80173,-8.96576 9.97153,-7.35146 z M 303.54359,651.28966 c 21.91325,0.0648 38.06335,17.08723 51.64657,31.87328 8.01194,8.95738 16.53902,17.69738 22.58033,27.94891 -45.90461,-10.01907 -91.9967,-19.35334 -138.60756,-25.6315 -7.00366,-1.14824 -14.00293,-2.32254 -20.99292,-3.54769 27.00656,-12.04015 53.60666,-27.71542 83.71432,-30.61846 0.55317,0.005 1.1061,-0.025 1.65926,-0.0245 z"
       id="path1094"
       inkscape:connector-curvature="0"
       sodipodi:nodetypes="cssccccscscssssssscssssscsccsssssacscscccccccsssssssscccccccc" />
  </g>
</svg>
