<?xml version="1.0" encoding="UTF-8" standalone="no"?>
<!-- Created with Inkscape (http://www.inkscape.org/) -->

<svg
   xmlns:dc="http://purl.org/dc/elements/1.1/"
   xmlns:cc="http://creativecommons.org/ns#"
   xmlns:rdf="http://www.w3.org/1999/02/22-rdf-syntax-ns#"
   xmlns:svg="http://www.w3.org/2000/svg"
   xmlns="http://www.w3.org/2000/svg"
   xmlns:sodipodi="http://sodipodi.sourceforge.net/DTD/sodipodi-0.dtd"
   xmlns:inkscape="http://www.inkscape.org/namespaces/inkscape"
   width="1000"
   height="1000"
   viewBox="0 0 1000 1000"
   version="1.1"
   id="svg756"
   inkscape:version="0.92.3 (2405546, 2018-03-11)"
   sodipodi:docname="u30d4.svg">
  <defs
     id="defs750" />
  <sodipodi:namedview
     id="base"
     pagecolor="#ffffff"
     bordercolor="#666666"
     borderopacity="1.0"
     inkscape:pageopacity="0.0"
     inkscape:pageshadow="2"
     inkscape:zoom="0.35"
     inkscape:cx="551.42857"
     inkscape:cy="576.33663"
     inkscape:document-units="px"
     inkscape:current-layer="layer1"
     showgrid="true"
     units="px"
     inkscape:window-width="1118"
     inkscape:window-height="864"
     inkscape:window-x="545"
     inkscape:window-y="95"
     inkscape:window-maximized="0"
     showguides="true"
     inkscape:guide-bbox="true">
    <inkscape:grid
       type="xygrid"
       id="grid758" />
    <sodipodi:guide
       position="240,200"
       orientation="0,1"
       id="guide8"
       inkscape:locked="false" />
  </sodipodi:namedview>
  <metadata
     id="metadata753">
    <rdf:RDF>
      <cc:Work
         rdf:about="">
        <dc:format>image/svg+xml</dc:format>
        <dc:type
           rdf:resource="http://purl.org/dc/dcmitype/StillImage" />
        <dc:title />
      </cc:Work>
    </rdf:RDF>
  </metadata>
  <g
     inkscape:label="Layer 1"
     inkscape:groupmode="layer"
     id="layer1"
     transform="translate(0,-32.41664)"
     style="display:inline">
    <path
       id="path722"
       style="display:inline;fill:#000000;stroke-width:18.79443932"
       d="m 80.691125,89.950194 c -14.190838,6.1181 -17.990174,24.687276 -22.444126,39.189946 -14.331521,56.90227 -16.754985,117.10519 -17.554229,176.5977 0.363905,75.62876 8.240543,151.44985 19.622952,226.54877 10.757046,66.06909 26.345973,133.7877 61.552498,190.7284 24.99632,39.4765 61.65083,67.28174 103.74546,77.48331 68.97268,16.71553 129.51012,18.6382 191.91613,5.48157 47.87238,-10.72517 95.45144,-24.27439 140.03684,-45.5785 23.59927,-11.70617 48.17215,-29.30455 55.72979,-58.5331 7.55546,-31.80582 -4.6015,-65.29359 -16.50451,-94.87671 -13.48483,-32.66885 -29.09293,-65.97956 -53.77631,-90.32284 -6.42758,-6.65632 -18.65529,-11.11288 -23.93623,-1.51752 -5.74236,11.73538 -1.40774,26.2633 1.14295,38.81602 9.29231,37.71374 24.23463,66.36357 23.04211,106.14749 -2.32691,21.20112 -17.49596,32.91537 -33.94003,39.47356 -33.40891,14.42881 -64.16144,28.36389 -99.61419,35.15024 C 349.7003,744.62007 290.3285,743.36919 230.24224,723.65724 206.24145,715.59622 189.9553,690.84547 176.88112,665.88927 149.59523,619.35816 144.82337,576.34569 135.47776,523.10644 116.30387,405.42827 118.56552,291.34976 122.11548,173.37341 121.67966,151.22849 102.37697,123.83505 95.923674,102.21511 93.550153,95.59284 87.762327,87.420032 80.691125,89.950194 Z M 566.03357,103.20887 c -27.77579,6.9494 -47.54919,32.17088 -60.14391,59.01312 -18.39578,36.13086 -33.36686,77.71192 -28.56078,121.13673 1.85344,13.03989 6.4039,25.97678 14.17942,36.37757 -58.61158,5.12812 -117.30012,9.37049 -176.18834,11.32026 -39.26793,2.80867 -79.83727,5.71093 -115.57776,23.77812 -12.39754,6.49257 -24.95577,19.94717 -21.836,36.98364 3.39233,17.64709 15.32661,29.1456 30.59466,35.88609 22.57595,8.40915 45.16063,-2.25753 66.75672,-6.91341 39.54244,-9.33244 80.35049,-10.39999 120.52727,-16.03396 58.36548,-7.17973 117.24606,-15.15152 172.64373,-35.71579 39.37141,-15.41074 66.09749,-43.98645 83.89734,-86.89902 12.78353,-29.60352 29.5413,-57.2453 34.87206,-89.72558 2.82737,-31.10909 -13.13936,-64.02829 -38.76517,-78.96581 -25.265,-15.929945 -55.55905,-17.145893 -82.39924,-10.24196 z m 31.35107,78.66988 c 6.48231,-1.38116 10.61248,6.49093 9.15704,12.77381 -1.97332,24.91439 -17.44765,44.17198 -29.94351,63.21235 -6.80852,8.93036 -13.81728,19.6013 -24.35044,23.04334 -7.93205,0.48929 -10.81895,-9.51464 -9.35325,-16.52333 2.33492,-26.71327 16.87163,-49.07031 32.61811,-67.79879 6.06785,-6.71282 13.29248,-12.53378 21.87205,-14.70738 z"
       inkscape:connector-curvature="0"
       sodipodi:nodetypes="cccccscccccccccccccccccccccccccccccccccccccc" />
  </g>
</svg>
