<?xml version="1.0" encoding="UTF-8" standalone="no"?>
<!-- Created with Inkscape (http://www.inkscape.org/) -->

<svg
   xmlns:dc="http://purl.org/dc/elements/1.1/"
   xmlns:cc="http://creativecommons.org/ns#"
   xmlns:rdf="http://www.w3.org/1999/02/22-rdf-syntax-ns#"
   xmlns:svg="http://www.w3.org/2000/svg"
   xmlns="http://www.w3.org/2000/svg"
   xmlns:sodipodi="http://sodipodi.sourceforge.net/DTD/sodipodi-0.dtd"
   xmlns:inkscape="http://www.inkscape.org/namespaces/inkscape"
   width="1000"
   height="1000"
   viewBox="0 0 1000 1000"
   version="1.1"
   id="svg756"
   inkscape:version="0.92.3 (2405546, 2018-03-11)"
   sodipodi:docname="u30e8.svg">
  <defs
     id="defs750" />
  <sodipodi:namedview
     id="base"
     pagecolor="#ffffff"
     bordercolor="#666666"
     borderopacity="1.0"
     inkscape:pageopacity="0.0"
     inkscape:pageshadow="2"
     inkscape:zoom="0.35"
     inkscape:cx="551.42857"
     inkscape:cy="576.33663"
     inkscape:document-units="px"
     inkscape:current-layer="layer1"
     showgrid="true"
     units="px"
     inkscape:window-width="1118"
     inkscape:window-height="864"
     inkscape:window-x="678"
     inkscape:window-y="96"
     inkscape:window-maximized="0"
     showguides="true"
     inkscape:guide-bbox="true">
    <inkscape:grid
       type="xygrid"
       id="grid758" />
    <sodipodi:guide
       position="240,200"
       orientation="0,1"
       id="guide8"
       inkscape:locked="false" />
  </sodipodi:namedview>
  <metadata
     id="metadata753">
    <rdf:RDF>
      <cc:Work
         rdf:about="">
        <dc:format>image/svg+xml</dc:format>
        <dc:type
           rdf:resource="http://purl.org/dc/dcmitype/StillImage" />
        <dc:title />
      </cc:Work>
    </rdf:RDF>
  </metadata>
  <g
     inkscape:label="Layer 1"
     inkscape:groupmode="layer"
     id="layer1"
     transform="translate(0,-32.41664)"
     style="display:inline">
    <path
       id="path797"
       style="display:inline;fill:#000000;stroke-width:24.38299942"
       d="M 233.87771,768.12189 C 126.33025,764.38919 71.56639,757.518 60.278721,708.53905 52.976686,676.85444 57.053699,678.6832 132.56849,691.28642 c 52.86318,8.8228 122.34539,12.07104 170.36578,12.70249 38.7213,0.50923 99.31973,5.91589 106.83484,-3.79631 8.86354,-11.45469 6.97777,-53.00254 -0.3924,-100.73558 -6.34554,-41.09693 -15.77174,-77.69804 -20.27646,-103.66841 -23.2778,-10.0224 -72.6277,-22.42326 -131.12697,-34.77355 -107.20708,-22.63341 -153.25195,-35.58091 -104.89047,-71.67628 31.34002,-23.39121 67.88656,-13.98406 114.58972,-1.41601 40.86431,10.99669 109.31799,24.40195 109.31799,24.40195 -8.23145,-36.80918 -12.09694,-72.64081 -41.13457,-149.47811 -22.96981,-60.78117 -86.07839,-93.8806 -142.11936,-95.8241 C 64.943922,162.55583 49.84108,175.05757 42.860671,129.84872 35.648188,83.13691 47.600985,93.331642 122.74416,94.186656 259.21252,95.739501 361.42185,130.27273 383.39411,182.252 c 27.98312,66.19917 55.64968,160.44604 75.17684,248.16464 69.21474,43.51288 5.47678,50.96708 10.30719,78.74674 13.86135,79.71729 25.64126,152.8138 21.61329,200.06113 -2.47337,29.01126 -7.36192,47.28926 -26.65923,57.58668 -29.32988,15.65094 -94.08002,6.02667 -229.95449,1.3107 z"
       inkscape:connector-curvature="0"
       sodipodi:nodetypes="sssssscssscssssscssss" />
  </g>
</svg>
