<?xml version="1.0" encoding="UTF-8" standalone="no"?>
<!-- Created with Inkscape (http://www.inkscape.org/) -->

<svg
   xmlns:dc="http://purl.org/dc/elements/1.1/"
   xmlns:cc="http://creativecommons.org/ns#"
   xmlns:rdf="http://www.w3.org/1999/02/22-rdf-syntax-ns#"
   xmlns:svg="http://www.w3.org/2000/svg"
   xmlns="http://www.w3.org/2000/svg"
   xmlns:sodipodi="http://sodipodi.sourceforge.net/DTD/sodipodi-0.dtd"
   xmlns:inkscape="http://www.inkscape.org/namespaces/inkscape"
   width="1000"
   height="1000"
   viewBox="0 0 1000 1000"
   version="1.1"
   id="svg756"
   inkscape:version="0.92.3 (2405546, 2018-03-11)"
   sodipodi:docname="u30e9.svg">
  <defs
     id="defs750" />
  <sodipodi:namedview
     id="base"
     pagecolor="#ffffff"
     bordercolor="#666666"
     borderopacity="1.0"
     inkscape:pageopacity="0.0"
     inkscape:pageshadow="2"
     inkscape:zoom="0.35"
     inkscape:cx="551.42857"
     inkscape:cy="576.33663"
     inkscape:document-units="px"
     inkscape:current-layer="layer1"
     showgrid="true"
     units="px"
     inkscape:window-width="1118"
     inkscape:window-height="864"
     inkscape:window-x="567"
     inkscape:window-y="95"
     inkscape:window-maximized="0"
     showguides="true"
     inkscape:guide-bbox="true">
    <inkscape:grid
       type="xygrid"
       id="grid758" />
    <sodipodi:guide
       position="240,200"
       orientation="0,1"
       id="guide8"
       inkscape:locked="false" />
  </sodipodi:namedview>
  <metadata
     id="metadata753">
    <rdf:RDF>
      <cc:Work
         rdf:about="">
        <dc:format>image/svg+xml</dc:format>
        <dc:type
           rdf:resource="http://purl.org/dc/dcmitype/StillImage" />
        <dc:title />
      </cc:Work>
    </rdf:RDF>
  </metadata>
  <g
     inkscape:label="Layer 1"
     inkscape:groupmode="layer"
     id="layer1"
     transform="translate(0,-32.41664)"
     style="display:inline">
    <path
       style="display:inline;fill:#000000;stroke-width:16.39008141"
       d="m 69.086077,820.41664 c 0,-12.72543 39.917303,-53.38787 85.594553,-93.82417 43.93301,-38.8922 79.57754,-84.39369 114.98028,-117.64665 21.14385,-19.85997 22.55945,-28.6385 -10.59292,-63.20778 -20.79756,-21.68647 -37.81377,-56.27479 -37.81377,-76.863 0,-53.80966 66.61834,-155.57312 173.72989,-265.38273 51.14352,-52.43176 89.11931,-95.33051 84.39063,-95.33051 -4.72875,0 -82.42801,25.80289 -172.66509,57.33968 -165.8664,57.96844 -266.15512,52.06935 -266.15512,11.41912 0,-34.8455 22.992488,-21.12672 79.63526,-32.10815 43.32061,-8.39865 137.10357,-32.73797 207.34259,-60.413775 141.54436,-55.771862 264.042,-68.134102 242.67529,-25.095478 -6.74847,13.593414 -36.22591,67.218553 -69.85951,98.289283 -75.74744,69.97539 -183.16173,247.31264 -183.16173,286.83041 0,16.12791 17.28933,51.08096 38.42077,77.67349 44.13445,55.54046 30.87947,79.05203 -57.5326,155.50393 C 152.23355,803.71234 69.086077,856.67842 69.086077,820.41664 Z"
       id="path849"
       inkscape:connector-curvature="0"
       sodipodi:nodetypes="sssssssssssssssss" />
  </g>
</svg>
