<?xml version="1.0" encoding="UTF-8" standalone="no"?>
<!-- Created with Inkscape (http://www.inkscape.org/) -->

<svg
   xmlns:dc="http://purl.org/dc/elements/1.1/"
   xmlns:cc="http://creativecommons.org/ns#"
   xmlns:rdf="http://www.w3.org/1999/02/22-rdf-syntax-ns#"
   xmlns:svg="http://www.w3.org/2000/svg"
   xmlns="http://www.w3.org/2000/svg"
   xmlns:sodipodi="http://sodipodi.sourceforge.net/DTD/sodipodi-0.dtd"
   xmlns:inkscape="http://www.inkscape.org/namespaces/inkscape"
   width="1000"
   height="1000"
   viewBox="0 0 1000 1000"
   version="1.1"
   id="svg756"
   inkscape:version="0.92.3 (2405546, 2018-03-11)"
   sodipodi:docname="u30e7.svg">
  <defs
     id="defs750" />
  <sodipodi:namedview
     id="base"
     pagecolor="#ffffff"
     bordercolor="#666666"
     borderopacity="1.0"
     inkscape:pageopacity="0.0"
     inkscape:pageshadow="2"
     inkscape:zoom="0.35"
     inkscape:cx="551.42857"
     inkscape:cy="576.33663"
     inkscape:document-units="px"
     inkscape:current-layer="layer1"
     showgrid="true"
     units="px"
     inkscape:window-width="1118"
     inkscape:window-height="864"
     inkscape:window-x="604"
     inkscape:window-y="96"
     inkscape:window-maximized="0"
     showguides="true"
     inkscape:guide-bbox="true">
    <inkscape:grid
       type="xygrid"
       id="grid758" />
    <sodipodi:guide
       position="240,200"
       orientation="0,1"
       id="guide8"
       inkscape:locked="false" />
  </sodipodi:namedview>
  <metadata
     id="metadata753">
    <rdf:RDF>
      <cc:Work
         rdf:about="">
        <dc:format>image/svg+xml</dc:format>
        <dc:type
           rdf:resource="http://purl.org/dc/dcmitype/StillImage" />
        <dc:title />
      </cc:Work>
    </rdf:RDF>
  </metadata>
  <g
     inkscape:label="Layer 1"
     inkscape:groupmode="layer"
     id="layer1"
     transform="translate(0,-32.41664)"
     style="display:inline">
    <path
       style="display:inline;fill:#000000;stroke-width:19.71737289"
       d="m 193.94606,749.81905 c -78.09432,-33.36744 -43.64982,-60.3021 60.34967,-37.94512 44.62837,9.59379 72.57685,6.37577 98.78616,-16.18967 14.41384,-12.40991 27.48641,-36.68386 33.34833,-57.87747 -14.01541,-2.73925 -50.84703,-1.47212 -113.96336,6.43521 -72.09788,9.03247 -105.86333,34.67122 -138.27744,-8.11726 -19.42187,-25.63791 94.82241,-60.19992 172.04993,-66.57159 33.51877,-2.7655 57.73181,-3.37933 91.76065,-5.06085 -0.29174,-51.62111 -4.60519,-69.0944 -42.10808,-105.46553 -45.81128,-44.42868 -120.88427,-35.08785 -210.2265,30.51457 -47.59939,34.9514 -74.342703,62.83373 -106.087944,60.06822 -77.181327,-6.72369 107.041394,-167.49959 211.432074,-178.92869 78.93267,-8.64186 136.68276,0.43805 187.60845,74.9481 53.3983,78.12771 48.49214,189.02344 -21.85112,271.31569 -50.98849,59.64984 -131.84096,71.74754 -222.82082,32.87439 z"
       id="path765"
       inkscape:connector-curvature="0"
       sodipodi:nodetypes="ssscssscsssssss" />
  </g>
</svg>
