<?xml version="1.0" encoding="UTF-8" standalone="no"?>
<!-- Created with Inkscape (http://www.inkscape.org/) -->

<svg
   xmlns:dc="http://purl.org/dc/elements/1.1/"
   xmlns:cc="http://creativecommons.org/ns#"
   xmlns:rdf="http://www.w3.org/1999/02/22-rdf-syntax-ns#"
   xmlns:svg="http://www.w3.org/2000/svg"
   xmlns="http://www.w3.org/2000/svg"
   xmlns:sodipodi="http://sodipodi.sourceforge.net/DTD/sodipodi-0.dtd"
   xmlns:inkscape="http://www.inkscape.org/namespaces/inkscape"
   width="1000"
   height="1000"
   viewBox="0 0 1000 1000"
   version="1.1"
   id="svg756"
   inkscape:version="0.92.3 (2405546, 2018-03-11)"
   sodipodi:docname="u30ec.svg">
  <defs
     id="defs750" />
  <sodipodi:namedview
     id="base"
     pagecolor="#ffffff"
     bordercolor="#666666"
     borderopacity="1.0"
     inkscape:pageopacity="0.0"
     inkscape:pageshadow="2"
     inkscape:zoom="0.35"
     inkscape:cx="551.42857"
     inkscape:cy="576.33663"
     inkscape:document-units="px"
     inkscape:current-layer="layer1"
     showgrid="true"
     units="px"
     inkscape:window-width="1118"
     inkscape:window-height="864"
     inkscape:window-x="608"
     inkscape:window-y="95"
     inkscape:window-maximized="0"
     showguides="true"
     inkscape:guide-bbox="true">
    <inkscape:grid
       type="xygrid"
       id="grid758" />
    <sodipodi:guide
       position="240,200"
       orientation="0,1"
       id="guide8"
       inkscape:locked="false" />
  </sodipodi:namedview>
  <metadata
     id="metadata753">
    <rdf:RDF>
      <cc:Work
         rdf:about="">
        <dc:format>image/svg+xml</dc:format>
        <dc:type
           rdf:resource="http://purl.org/dc/dcmitype/StillImage" />
        <dc:title />
      </cc:Work>
    </rdf:RDF>
  </metadata>
  <g
     inkscape:label="Layer 1"
     inkscape:groupmode="layer"
     id="layer1"
     transform="translate(0,-32.41664)"
     style="display:inline">
    <path
       style="display:inline;fill:#000000;stroke-width:16.95682335"
       d="m 163.03541,32.41664 c -15.35309,1.373942 -24.7654,16.381417 -28.5074,29.974985 C 117.82007,112.75761 114.90841,166.17099 107.11729,218.29894 93.75795,325.57299 78.314325,432.82501 51.174957,537.59947 37.401673,603.62266 37.089979,673.99054 59.76005,738.11172 c 7.903037,20.74169 23.06716,40.41221 45.0231,47.13999 36.67087,13.26748 76.65649,8.66448 114.29902,2.71905 66.24768,-11.92855 127.3493,-42.81502 183.26202,-79.34011 53.05157,-32.90427 107.00011,-66.31002 150.31859,-111.85506 7.94425,-8.99129 16.67329,-20.97694 13.16417,-33.63393 -2.96313,-7.93427 -13.51712,-11.6699 -20.58605,-6.73916 -40.47365,14.35456 -75.84402,39.35181 -113.34469,59.70626 -60.5593,35.65973 -119.41515,76.20094 -186.5679,98.51474 -30.28963,9.1702 -64.52322,13.25286 -93.55403,-2.04472 -14.17494,-7.93316 -23.09989,-23.07951 -24.85788,-39.04089 -5.47783,-31.52045 -0.66117,-63.67335 2.01369,-95.37333 9.50039,-80.39708 26.44316,-159.78953 42.07417,-239.23247 16.07149,-77.96979 34.43832,-155.70179 43.24552,-234.93016 1.28985,-18.715136 2.46991,-38.923931 -6.42641,-56.068669 -9.89943,-14.146903 -29.06992,-15.5023 -44.78796,-15.516621 z"
       id="path925"
       inkscape:connector-curvature="0" />
  </g>
</svg>
