<?xml version="1.0" encoding="UTF-8" standalone="no"?>
<!-- Created with Inkscape (http://www.inkscape.org/) -->

<svg
   xmlns:dc="http://purl.org/dc/elements/1.1/"
   xmlns:cc="http://creativecommons.org/ns#"
   xmlns:rdf="http://www.w3.org/1999/02/22-rdf-syntax-ns#"
   xmlns:svg="http://www.w3.org/2000/svg"
   xmlns="http://www.w3.org/2000/svg"
   xmlns:sodipodi="http://sodipodi.sourceforge.net/DTD/sodipodi-0.dtd"
   xmlns:inkscape="http://www.inkscape.org/namespaces/inkscape"
   width="1000"
   height="1000"
   viewBox="0 0 1000 1000"
   version="1.1"
   id="svg756"
   inkscape:version="0.92.3 (2405546, 2018-03-11)"
   sodipodi:docname="u30f4.svg">
  <defs
     id="defs750" />
  <sodipodi:namedview
     id="base"
     pagecolor="#ffffff"
     bordercolor="#666666"
     borderopacity="1.0"
     inkscape:pageopacity="0.0"
     inkscape:pageshadow="2"
     inkscape:zoom="0.35"
     inkscape:cx="551.42857"
     inkscape:cy="576.33663"
     inkscape:document-units="px"
     inkscape:current-layer="layer1"
     showgrid="true"
     units="px"
     inkscape:window-width="1118"
     inkscape:window-height="864"
     inkscape:window-x="633"
     inkscape:window-y="95"
     inkscape:window-maximized="0"
     showguides="true"
     inkscape:guide-bbox="true">
    <inkscape:grid
       type="xygrid"
       id="grid758" />
    <sodipodi:guide
       position="240,200"
       orientation="0,1"
       id="guide8"
       inkscape:locked="false" />
  </sodipodi:namedview>
  <metadata
     id="metadata753">
    <rdf:RDF>
      <cc:Work
         rdf:about="">
        <dc:format>image/svg+xml</dc:format>
        <dc:type
           rdf:resource="http://purl.org/dc/dcmitype/StillImage" />
        <dc:title />
      </cc:Work>
    </rdf:RDF>
  </metadata>
  <g
     inkscape:label="Layer 1"
     inkscape:groupmode="layer"
     id="layer1"
     transform="translate(0,-32.41664)"
     style="display:inline">
    <path
       style="display:inline;fill:#000000;stroke-width:13.30529881"
       d="m 570.78925,32.41664 c -20.00493,1.441899 -37.52559,26.095434 -56.48535,29.786725 0.24621,-7.282633 -10.71721,-14.558057 -18.45487,-13.620564 -11.16607,0.948838 -21.97204,12.798621 -24.33812,22.457529 -4.37048,19.771245 -2.26275,41.42797 5.3173,60.78897 3.2924,6.50603 22.61347,8.51552 27.99904,3.32249 21.25336,-12.80987 40.14926,-50.033763 49.61745,-49.563955 8.79539,0.436475 25.37804,61.621615 41.40037,79.358395 6.61743,5.17373 20.07013,12.03586 28.98788,9.10455 7.68959,-4.65562 15.05729,-14.99405 13.20845,-22.08119 C 629.9138,120.46949 624.51684,89.495533 611.72703,59.591423 606.8059,49.3062 583.605,32.182543 570.78925,32.41664 Z M 321.34874,85.298031 c -11.50843,-0.407033 -53.70136,11.767808 -54.56823,21.957839 -2.82726,19.9809 -0.85842,45.29709 -2.46702,65.30009 -46.6357,14.24904 -68.44291,32.87096 -94.79307,54.87205 -12.13193,8.85534 -9.63437,9.69512 -20.76228,18.50385 0.70832,-15.40957 -1.18782,-20.98734 -11.54054,-34.1212 -5.46144,-7.98742 -28.59922,-2.82711 -36.11834,5.09129 -9.846578,10.48204 -8.779568,26.07278 -10.310144,39.35134 -0.875739,15.57177 -0.482761,16.08056 0.150468,31.65304 -22.948009,19.20591 -58.115605,54.33225 -69.014707,83.20276 -4.971103,15.94382 11.968238,43.48954 24.20738,54.2002 21.337552,20.8573 53.055013,24.67156 82.306533,20.4933 9.15772,-1.29052 34.04411,-12.70577 34.07922,-22.87982 2.3598,-31.19688 -8.63843,-77.19377 -10.03521,-105.06007 22.75527,-22.2416 28.20548,-26.98471 54.81467,-44.89773 26.49188,-19.81475 28.7313,-23.95792 62.18844,-36.77715 -0.41849,23.89467 17.43935,53.92652 35.60932,70.21547 11.02049,10.12895 47.02889,-0.0164 61.74261,-3.10975 6.21816,-1.22503 9.63767,-8.38694 6.72855,-14.02183 -4.48852,-10.29389 -13.13141,-18.07174 -19.60603,-27.09243 -7.00036,-7.29021 -8.87832,-25.15408 -11.19291,-42.1169 51.35187,-1.25384 79.69886,21.82642 101.91602,59.48809 21.2899,35.22997 28.02423,77.39527 31.0586,117.82168 5.39672,92.99452 -20.53264,185.59674 -61.46335,268.62111 -20.42933,41.86365 -47.0643,80.21625 -69.78013,120.81271 -2.82099,6.40977 -7.49423,12.59762 -8.1348,19.62075 1.21768,7.35197 11.10918,8.81763 16.19341,4.44541 20.7563,-10.51031 37.28618,-27.36449 54.41714,-42.73044 23.32355,-23.89566 58.07269,-54.49057 72.88312,-83.98958 23.43711,-49.78121 42.65281,-101.72006 55.58129,-155.23592 12.26783,-55.4519 18.45675,-113.3036 9.46233,-169.33446 -8.34437,-48.46358 -19.87652,-98.21465 -51.88463,-136.18307 -43.90185,-48.48516 -79.6529,-60.54188 -152.1769,-65.23729 -0.11942,-22.41538 3.49071,-40.89728 -4.43988,-62.482578 -2.78371,-5.711672 -8.38686,-10.601444 -15.05093,-10.380761 z M 101.43923,390.84616 c -5.02112,5.77021 -14.239941,1.48579 -18.662303,-3.03549 -4.83207,-5.8695 1.207007,-12.52585 4.112913,-17.74274 2.465069,-3.43422 5.490162,-6.4979 9.032057,-8.82207 2.092083,10.27766 5.143343,20.71256 5.517333,29.6003 z"
       id="path746"
       inkscape:connector-curvature="0"
       sodipodi:nodetypes="ccccccsccccccccccccccccccccccccccccccccccccccccccccc" />
  </g>
</svg>
