<?xml version="1.0" encoding="UTF-8" standalone="no"?>
<!-- Created with Inkscape (http://www.inkscape.org/) -->

<svg
   xmlns:dc="http://purl.org/dc/elements/1.1/"
   xmlns:cc="http://creativecommons.org/ns#"
   xmlns:rdf="http://www.w3.org/1999/02/22-rdf-syntax-ns#"
   xmlns:svg="http://www.w3.org/2000/svg"
   xmlns="http://www.w3.org/2000/svg"
   xmlns:sodipodi="http://sodipodi.sourceforge.net/DTD/sodipodi-0.dtd"
   xmlns:inkscape="http://www.inkscape.org/namespaces/inkscape"
   width="1000"
   height="1000"
   viewBox="0 0 1000 1000"
   version="1.1"
   id="svg756"
   inkscape:version="0.92.3 (2405546, 2018-03-11)"
   sodipodi:docname="u4eba.svg">
  <defs
     id="defs750" />
  <sodipodi:namedview
     id="base"
     pagecolor="#ffffff"
     bordercolor="#666666"
     borderopacity="1.0"
     inkscape:pageopacity="0.0"
     inkscape:pageshadow="2"
     inkscape:zoom="0.35"
     inkscape:cx="54.285713"
     inkscape:cy="576.33663"
     inkscape:document-units="px"
     inkscape:current-layer="layer1"
     showgrid="true"
     units="px"
     inkscape:window-width="1118"
     inkscape:window-height="864"
     inkscape:window-x="302"
     inkscape:window-y="107"
     inkscape:window-maximized="0"
     showguides="true"
     inkscape:guide-bbox="true">
    <inkscape:grid
       type="xygrid"
       id="grid758" />
    <sodipodi:guide
       position="240,200"
       orientation="0,1"
       id="guide8"
       inkscape:locked="false" />
  </sodipodi:namedview>
  <metadata
     id="metadata753">
    <rdf:RDF>
      <cc:Work
         rdf:about="">
        <dc:format>image/svg+xml</dc:format>
        <dc:type
           rdf:resource="http://purl.org/dc/dcmitype/StillImage" />
        <dc:title />
      </cc:Work>
    </rdf:RDF>
  </metadata>
  <g
     inkscape:label="Layer 1"
     inkscape:groupmode="layer"
     id="layer1"
     transform="translate(0,-32.41664)"
     style="display:inline">
    <path
       style="fill:#000000;stroke-width:17.39994049"
       d="m 292.99414,31.314453 c -12.30689,2.27006 -18.02767,15.131011 -23.93359,24.6875 -16.21083,30.747208 -27.99872,63.516227 -42.43362,95.088457 -55.6008,129.29159 -111.84086,258.31957 -166.22068,388.12443 -9.857725,26.0078 -21.237952,52.83726 -20.294922,81.1836 0.833196,12.16268 8.49758,22.33106 17.478516,29.97265 8.78856,8.65294 22.87358,15.68214 34.751953,8.93555 16.649033,-9.38507 22.841683,-29.05831 29.888693,-45.55305 5.84602,-14.68964 15.60991,-31.45754 32.92185,-33.57 20.29237,-2.0219 38.71446,9.52454 55.43,19.46677 45.05756,28.65117 84.2543,65.35984 123.96222,100.91867 56.03087,51.14824 114.06462,100.31299 176.17224,143.97199 21.17555,14.67133 43.26421,28.30313 67.55703,37.19274 18.64011,7.02586 37.90922,13.55342 57.86875,15.16858 8.08897,0.71668 16.3124,-5.07141 16.66406,-13.51172 0.7673,-14.10476 -9.85439,-25.59728 -19.27474,-34.74942 -11.86289,-10.91505 -27.15536,-19.00787 -43.51628,-19.53573 -21.22506,-9.16652 -37.97986,-25.7558 -55.87877,-39.92664 C 473.80896,737.47287 421.31965,677.30364 362.57823,623.76919 325.96673,590.13721 287.93927,557.21138 244.48633,532.6582 224.89832,521.77888 203.37824,514.545 181.2168,511.38672 c -6.5408,-1.4786 -10.58573,-8.15044 -8.55339,-14.6773 2.76374,-22.35064 13.29171,-42.71539 21.18723,-63.60661 32.55927,-77.64531 69.46903,-153.74649 94.99702,-234.19656 10.18433,-31.59988 20.31399,-63.74374 22.93483,-96.9985 0.54675,-19.985279 0.45456,-40.638982 -5.90358,-59.798375 -2.01769,-5.481597 -6.40742,-11.215302 -12.88477,-10.794922 z"
       id="path825"
       inkscape:connector-curvature="0" />
  </g>
</svg>
