<?xml version="1.0" encoding="UTF-8" standalone="no"?>
<!-- Created with Inkscape (http://www.inkscape.org/) -->

<svg
   xmlns:dc="http://purl.org/dc/elements/1.1/"
   xmlns:cc="http://creativecommons.org/ns#"
   xmlns:rdf="http://www.w3.org/1999/02/22-rdf-syntax-ns#"
   xmlns:svg="http://www.w3.org/2000/svg"
   xmlns="http://www.w3.org/2000/svg"
   xmlns:sodipodi="http://sodipodi.sourceforge.net/DTD/sodipodi-0.dtd"
   xmlns:inkscape="http://www.inkscape.org/namespaces/inkscape"
   width="1000"
   height="1000"
   viewBox="0 0 1000 1000"
   version="1.1"
   id="svg756"
   inkscape:version="0.92.3 (2405546, 2018-03-11)"
   sodipodi:docname="u500d.svg">
  <defs
     id="defs750" />
  <sodipodi:namedview
     id="base"
     pagecolor="#ffffff"
     bordercolor="#666666"
     borderopacity="1.0"
     inkscape:pageopacity="0.0"
     inkscape:pageshadow="2"
     inkscape:zoom="0.98994949"
     inkscape:cx="516.85303"
     inkscape:cy="719.1638"
     inkscape:document-units="px"
     inkscape:current-layer="layer1"
     showgrid="true"
     units="px"
     inkscape:window-width="1118"
     inkscape:window-height="864"
     inkscape:window-x="337"
     inkscape:window-y="108"
     inkscape:window-maximized="0"
     showguides="true"
     inkscape:guide-bbox="true">
    <inkscape:grid
       type="xygrid"
       id="grid758" />
    <sodipodi:guide
       position="240,200"
       orientation="0,1"
       id="guide8"
       inkscape:locked="false" />
  </sodipodi:namedview>
  <metadata
     id="metadata753">
    <rdf:RDF>
      <cc:Work
         rdf:about="">
        <dc:format>image/svg+xml</dc:format>
        <dc:type
           rdf:resource="http://purl.org/dc/dcmitype/StillImage" />
        <dc:title />
      </cc:Work>
    </rdf:RDF>
  </metadata>
  <g
     inkscape:label="Layer 1"
     inkscape:groupmode="layer"
     id="layer1"
     transform="translate(0,-32.41664)"
     style="display:inline">
    <path
       style="fill:#000000;stroke-width:12.82222748"
       d="m 653.98438,39.201172 c -11.54728,-0.814868 -29.36132,7.063179 -31.0879,18.921875 -4.90163,17.465018 -0.9375,53.494143 -0.9375,53.494143 0,0 -21.52948,4.45619 -32.11202,6.89406 -43.49587,6.17297 -85.36264,20.28891 -126.90654,34.09132 -19.85256,7.13466 -40.09407,14.23119 -58.00292,25.54782 -4.58328,3.01199 -5.7771,9.02853 -3.42969,13.85742 2.67716,10.58605 11.04285,21.41064 22.94531,20.89844 14.87844,0.4689 27.94959,-8.30499 42.5254,-10.00781 83.7634,-18.30162 169.05393,-27.87371 254.16034,-37.6987 16.87627,-2.57071 34.08179,-4.43113 50.43731,-9.40482 8.00168,-3.06139 13.05248,-13.07122 8.06445,-20.79297 -7.1673,-13.84101 -22.35751,-21.01186 -36.29361,-26.21485 -17.25579,-6.24383 -57.75326,-4.49608 -57.75326,-4.49608 0,0 1.71333,-47.383896 -9.41211,-58.671879 -5.86618,-5.575662 -14.4596,-6.657104 -22.19726,-6.417969 z M 385.14062,91.021484 c -25.15273,1.957436 -49.85151,15.190816 -64.19348,36.112256 -8.53227,14.55411 -13.71119,30.76723 -21.28122,45.81622 -23.86354,54.25679 -49.51466,107.63205 -77.60882,159.85066 -38.63387,73.12719 -78.01741,145.91017 -119.72347,217.35226 -8.327519,13.0611 -16.539849,26.58202 -28.267224,36.93501 6.409276,-20.04279 22.013629,-35.11555 32.076234,-53.24393 7.67735,-12.16295 16.71124,-24.5174 18.9472,-39.04513 0.0434,-7.38068 -7.52672,-11.74905 -14.23828,-11.15235 -13.129586,0.50446 -21.423265,12.73921 -28.849607,21.97071 -20.761801,28.64948 -36.249332,61.38451 -44.383196,95.84626 -2.859434,13.96294 -3.80818,30.75553 6.033587,42.28264 9.613478,9.29951 24.689856,5.787 34.933594,-0.5 27.735442,-15.60538 47.262962,-41.87282 65.426562,-67.26991 14.18697,-20.08067 25.69596,-34.62714 39.52656,-54.95274 11.63668,31.61651 21.64949,59.00202 24.45955,93.02916 5.09627,43.88652 4.94842,88.07197 8.9445,132.04217 2.10947,24.94812 3.56508,50.11075 8.33228,74.70406 2.23438,7.54649 18.97716,13.81763 26.97852,8.74023 10.41371,-7.40091 26.5467,-15.26677 29.82627,-26.72097 C 293.02088,754.00796 287.42896,724.10516 286,674.41664 284.38138,631.6566 268.28577,562.03452 251.59526,522.37597 242.68198,499.19392 232.96592,476.33225 223.80078,453.25 c 10.6886,-25.06508 23.96456,-48.94784 39.05951,-71.83602 32.56833,-55.94594 64.11138,-112.09548 97.24035,-167.68864 18.40738,-32.61384 36.12984,-66.02898 47.84858,-101.67846 1.95138,-9.41453 -4.79753,-19.244351 -14.45703,-20.347661 -2.74119,-0.57914 -5.55577,-0.737819 -8.35157,-0.677735 z m 287.77149,91.990236 c -11.11496,0.7367 -24.49499,0.95608 -32.33594,10.10156 -1.4594,4.31796 -2.92533,8.54945 -6.97461,11.2168 -16.42294,15.7682 -36.15501,27.813 -56.8164,37.08203 -2.65605,1.30474 -5.82052,-0.22372 -4.74414,-3.54102 0.3396,-13.38167 -8.59206,-24.93415 -19.69934,-31.4851 -11.06244,-7.03306 -24.62135,-11.19975 -37.68348,-9.75708 -9.1413,5.88736 -9.81981,18.04479 -12.80664,27.50976 -4.61219,21.12986 -1.64879,44.73697 -12.90234,63.80274 -13.37049,20.98644 -36.59013,32.71435 -56.53885,46.56394 -32.94078,21.34412 -67.99645,41.20284 -94.30605,70.91024 -8.62819,10.02128 -14.87004,25.16644 -7.6883,37.66449 8.32564,15.01765 24.42036,23.2412 38.76933,31.44145 8.12925,4.58648 17.79239,5.1268 26.63756,2.43155 39.86748,-7.51959 78.98536,-18.84296 117.22201,-32.31831 12.77264,-4.61767 23.03782,-13.95138 35.65966,-18.39076 37.76098,-15.77908 78.21563,-23.66153 118.40599,-30.07428 32.52794,-5.02718 65.60093,-6.4926 98.02029,-1.05059 13.74262,1.30609 28.58051,2.88913 41.57031,-2.79492 13.66008,-7.6527 16.91931,-26.77175 9.61524,-39.9375 -9.8731,-21.23648 -33.91753,-32.54077 -56.59571,-32.24805 -38.63466,-1.02286 -76.10973,10.5693 -112.89845,20.8918 -59.91863,18.10496 -118.94897,39.10055 -179.27928,55.86211 -14.39942,4.3912 -28.69996,9.09704 -42.9668,13.90039 21.00316,-17.25274 44.69504,-31.24441 68.22511,-44.79411 27.63131,-15.05672 57.33825,-27.7987 88.60692,-31.70784 13.49348,-4.9347 23.25734,-16.10388 33.98905,-25.17206 31.7798,-29.59553 61.38248,-61.77305 86.77072,-97.04084 3.51884,-5.81523 8.17141,-12.27693 7.5,-19.31445 -2.96317,-7.2957 -12.45053,-7.28632 -19,-8.76758 -5.88104,-0.79543 -11.82528,-1.04628 -17.75586,-0.98437 z m -76.07813,274.75 c -60.82527,0.55622 -120.84783,32.58406 -153.3821,84.30045 -25.7634,40.32763 -36.48091,90.74894 -27.06848,137.84919 3.68847,16.04226 11.11531,34.19485 27.54433,40.67262 12.64633,4.00485 25.08028,-5.04861 31.62305,-15.29882 3.22195,-4.26306 5.98235,-10.26329 10.64844,-12.61133 5.23287,9.16224 5.04537,20.32152 9.67383,29.88281 8.86246,21.8158 27.36791,39.17366 49.59817,46.86901 20.76206,8.6247 44.52817,10.79603 65.96971,3.29565 26.68548,-8.33 51.68095,-21.72433 74.59776,-37.60778 39.43434,-28.558 68.50513,-73.41714 71.8401,-122.6656 3.0867,-44.17776 -13.82403,-88.8304 -43.24793,-121.57878 -15.19017,-16.36936 -36.31945,-26.06837 -58.20323,-29.28877 -19.65026,-3.49129 -39.69147,-3.78148 -59.59365,-3.81865 z m 13.375,59.98633 c 30.9555,-0.10647 64.59117,13.9162 81.26172,41.26172 12.14958,19.65901 14.98206,45.88633 2.37818,65.96015 -16.32771,30.06118 -41.36485,54.65638 -68.74979,74.74153 -18.01742,12.72698 -41.73539,22.7879 -63.56003,14.16746 -24.00557,-10.04536 -37.57585,-34.49938 -47.91015,-56.96289 -7.86726,-17.63469 -15.77956,-36.24263 -16.06641,-55.87696 1.36547,-21.59527 18.41304,-38.15396 33.01758,-52.17578 21.54202,-20.05121 50.20112,-31.50653 79.6289,-31.11523 z"
       id="path825"
       inkscape:connector-curvature="0"
       sodipodi:nodetypes="cccccccccccccccccccccccccccccccccccccccccccccccccccccccccccccccccccccccccccccccccccccccccccccccccc" />
  </g>
</svg>
