<?xml version="1.0" encoding="UTF-8" standalone="no"?>
<!-- Created with Inkscape (http://www.inkscape.org/) -->

<svg
   xmlns:dc="http://purl.org/dc/elements/1.1/"
   xmlns:cc="http://creativecommons.org/ns#"
   xmlns:rdf="http://www.w3.org/1999/02/22-rdf-syntax-ns#"
   xmlns:svg="http://www.w3.org/2000/svg"
   xmlns="http://www.w3.org/2000/svg"
   xmlns:sodipodi="http://sodipodi.sourceforge.net/DTD/sodipodi-0.dtd"
   xmlns:inkscape="http://www.inkscape.org/namespaces/inkscape"
   width="1000"
   height="1000"
   viewBox="0 0 1000 1000"
   version="1.1"
   id="svg756"
   inkscape:version="0.92.3 (2405546, 2018-03-11)"
   sodipodi:docname="u5206.svg">
  <defs
     id="defs750" />
  <sodipodi:namedview
     id="base"
     pagecolor="#ffffff"
     bordercolor="#666666"
     borderopacity="1.0"
     inkscape:pageopacity="0.0"
     inkscape:pageshadow="2"
     inkscape:zoom="0.35"
     inkscape:cx="65.398791"
     inkscape:cy="768.64078"
     inkscape:document-units="px"
     inkscape:current-layer="layer1"
     showgrid="true"
     units="px"
     inkscape:window-width="1118"
     inkscape:window-height="864"
     inkscape:window-x="464"
     inkscape:window-y="97"
     inkscape:window-maximized="0"
     showguides="true"
     inkscape:guide-bbox="true">
    <inkscape:grid
       type="xygrid"
       id="grid758" />
    <sodipodi:guide
       position="240,200"
       orientation="0,1"
       id="guide8"
       inkscape:locked="false" />
  </sodipodi:namedview>
  <metadata
     id="metadata753">
    <rdf:RDF>
      <cc:Work
         rdf:about="">
        <dc:format>image/svg+xml</dc:format>
        <dc:type
           rdf:resource="http://purl.org/dc/dcmitype/StillImage" />
        <dc:title />
      </cc:Work>
    </rdf:RDF>
  </metadata>
  <g
     inkscape:label="Layer 1"
     inkscape:groupmode="layer"
     id="layer1"
     transform="translate(0,-32.41664)"
     style="display:inline">
    <path
       style="fill:#000000;stroke-width:5.99612713"
       d="m 183.88281,29.236328 c -12.95074,1.138848 -19.25762,14.601463 -24.70508,24.617188 -21.55758,44.198005 -36.42204,91.218134 -54.44131,136.886834 -14.498356,39.2554 -32.72789,76.8899 -49.962954,114.93984 -4.918801,11.47063 -11.814951,21.96255 -16.73831,33.35497 -2.313909,7.67445 2.747763,15.52559 9.953125,18.27539 10.754413,5.87073 22.158294,11.19658 34.197266,13.65234 12.888406,0.33036 21.428773,-11.11017 30.619143,-18.38477 16.22083,-14.6058 27.64019,-33.36682 39.65731,-51.32051 30.87908,-42.10773 69.34821,-79.36759 114.55948,-105.90019 27.60027,-15.58535 60.53683,-26.39448 92.19922,-16.95117 30.26162,8.68888 56.07205,27.9839 82.11133,45.06641 13.40979,9.2083 26.0436,23.60143 24.64258,40.83203 -2.76411,15.51761 -13.22633,28.23143 -21.69362,41.05639 -14.89589,20.98249 -32.51248,39.89923 -47.81224,60.52954 -4.03862,6.60966 -3.33962,16.32446 3.83398,20.50586 10.06218,7.17851 23.02206,0.88743 32.15235,-4.8457 27.66516,-17.31325 52.36322,-39.3436 73.56836,-64.09961 13.26517,-16.25565 25.69064,-35.54595 26.14258,-57.1914 -1.08075,-25.47469 -15.80805,-47.92192 -31.4336,-67.10157 -18.75879,-22.25483 -41.03458,-41.39856 -64.41015,-58.5957 -28.5362,-16.80541 -60.60117,-27.05512 -93.00201,-33.25092 -28.51129,-4.859366 -58.35177,0.236 -83.71954,14.10626 -17.8109,9.63518 -35.25579,20.07287 -51.99916,31.44739 -11.03907,7.99389 -21.79886,17.09679 -31.52734,26.20704 8.36356,-11.06384 9.91138,-25.17733 16.10742,-37.30665 7.81892,-17.48773 18.59222,-34.40807 33.6582,-46.539058 7.03645,-8.529046 3.46745,-20.521891 -2.06177,-28.804446 -8.13901,-13.376009 -20.40267,-24.761572 -35.00463,-30.593991 -1.59213,-0.41902 -3.2426,-0.647575 -4.89063,-0.591797 z M 318.18359,371.23438 c -45.98196,1.04051 -94.05086,13.68474 -128.36088,45.76444 -15.41083,14.28287 -32.47633,30.39767 -35.87935,52.15743 -1.25572,12.20927 7.48533,23.99307 19.375,26.78906 17.86799,6.02228 39.36187,4.93238 54.89258,-6.4375 8.73722,-6.90093 8.18935,-19.49581 16.10742,-27.01172 16.9973,-18.12597 43.60777,-20.25738 66.84758,-22.10866 23.97089,-1.05864 49.75511,-1.61347 70.82429,11.96413 21.13785,13.30943 38.08768,33.2812 53.07854,52.63067 12.56113,16.94032 20.09647,37.39522 21.18698,58.40929 3.65534,32.91548 0.78565,67.91284 -16.23871,96.90209 -23.06168,41.44009 -61.5216,71.47711 -100.29647,97.58164 -33.62825,21.06905 -71.37874,37.62227 -111.24987,39.4353 -11.8519,-0.0394 -25.63265,-2.58374 -33.20117,-12.50391 -2.28993,-9.0521 6.36229,-16.07756 11.20744,-22.63423 17.16832,-18.91948 34.90285,-37.41633 49.57311,-58.42 29.98728,-40.54075 58.0916,-82.85429 79.63951,-128.54539 3.26138,-6.8881 5.20176,-14.55522 6.73814,-21.8164 7.35843,-4.2108 18.00832,2.00663 24.3086,-5.1914 8.24752,-11.44992 7.85505,-26.39104 10.65873,-39.67764 1.96968,-14.05247 2.57764,-31.4898 -9.41459,-41.45322 -8.39002,-6.75066 -19.8938,-15.01644 -31.08594,-9.98242 -12.41121,6.07196 -19.40419,18.95984 -27.32524,29.63203 -29.14732,43.50038 -54.44745,89.40981 -81.18668,134.36994 -31.86833,55.21879 -66.03104,111.04581 -116.21521,151.66623 -16.465278,14.06903 -33.970541,27.35185 -54.411541,35.12477 -7.094529,3.0724 -11.663834,13.35468 -5.197265,19.26562 6.068733,5.325 15.172687,1.72305 21.404297,6.88867 6.550475,4.31185 14.745185,4.20335 21.751953,1.01563 18.685236,-6.9107 34.160496,-20.50926 53.492186,-26.02539 4.84991,-1.42776 11.87695,-3.70211 15.90625,0.38867 1.42477,5.25956 0.99915,11.8674 6.39063,15.13867 12.55416,10.11391 29.77573,10.11909 45.03942,11.60529 51.22406,2.87481 104.02595,-1.77879 151.7555,-21.65802 32.87594,-15.33243 61.60347,-38.21126 88.51172,-62.2461 23.47121,-21.11108 43.80502,-46.42144 55.17187,-76.14453 13.83473,-32.72846 21.28423,-69.23919 14.47095,-104.57733 -3.9229,-29.90458 -9.99969,-60.38569 -25.83682,-86.50192 -15.25464,-32.14382 -38.14113,-61.9998 -70.08335,-78.91341 -33.23483,-19.9569 -70.68747,-35.82823 -110.14453,-34.89015 -0.73502,0.003 -1.47005,0.007 -2.20508,0.01 z"
       id="path838"
       inkscape:connector-curvature="0" />
  </g>
</svg>
