<?xml version="1.0" encoding="UTF-8" standalone="no"?>
<!-- Created with Inkscape (http://www.inkscape.org/) -->

<svg
   xmlns:dc="http://purl.org/dc/elements/1.1/"
   xmlns:cc="http://creativecommons.org/ns#"
   xmlns:rdf="http://www.w3.org/1999/02/22-rdf-syntax-ns#"
   xmlns:svg="http://www.w3.org/2000/svg"
   xmlns="http://www.w3.org/2000/svg"
   xmlns:sodipodi="http://sodipodi.sourceforge.net/DTD/sodipodi-0.dtd"
   xmlns:inkscape="http://www.inkscape.org/namespaces/inkscape"
   width="1000"
   height="1000"
   viewBox="0 0 1000 1000"
   version="1.1"
   id="svg756"
   inkscape:version="0.92.3 (2405546, 2018-03-11)"
   sodipodi:docname="u546a.svg">
  <defs
     id="defs750" />
  <sodipodi:namedview
     id="base"
     pagecolor="#ffffff"
     bordercolor="#666666"
     borderopacity="1.0"
     inkscape:pageopacity="0.0"
     inkscape:pageshadow="2"
     inkscape:zoom="0.35"
     inkscape:cx="519.74005"
     inkscape:cy="431.45163"
     inkscape:document-units="px"
     inkscape:current-layer="layer1"
     showgrid="true"
     units="px"
     inkscape:window-width="1118"
     inkscape:window-height="864"
     inkscape:window-x="667"
     inkscape:window-y="92"
     inkscape:window-maximized="0"
     showguides="true"
     inkscape:guide-bbox="true">
    <inkscape:grid
       type="xygrid"
       id="grid758" />
    <sodipodi:guide
       position="240,200"
       orientation="0,1"
       id="guide8"
       inkscape:locked="false" />
  </sodipodi:namedview>
  <metadata
     id="metadata753">
    <rdf:RDF>
      <cc:Work
         rdf:about="">
        <dc:format>image/svg+xml</dc:format>
        <dc:type
           rdf:resource="http://purl.org/dc/dcmitype/StillImage" />
        <dc:title />
      </cc:Work>
    </rdf:RDF>
  </metadata>
  <g
     inkscape:label="Layer 1"
     inkscape:groupmode="layer"
     id="layer1"
     transform="translate(0,-32.41664)"
     style="display:inline">
    <path
       style="fill:#000000;stroke-width:16.20022202"
       d="M 556.82882,798.29012 C 531.04419,772.5055 498.53712,710.95685 481.96217,656.53819 465.8501,603.63918 450.39244,557.24531 447.6118,553.4407 c -9.38874,-12.84619 -41.39871,42.42423 -57.73766,79.47593 -9.86335,22.36704 -9.40971,21.99525 -23.15034,53.16161 -14.06981,31.91301 -52.87448,48.4921 -64.48118,18.24554 -15.61557,-40.6935 58.46558,-202.73233 125.06994,-273.56737 66.39972,-70.61742 161.38031,-246.73675 161.38031,-299.24213 0,-25.26315 -10.58565,-32.86242 -45.77674,-32.86242 -69.76885,0 -110.81958,56.85646 -139.10377,192.66277 -27.86775,133.80667 -30.61018,139.14913 -64.71143,126.06324 -18.44356,-7.07745 -23.73733,-35.43973 -22.29566,-119.45294 1.28828,-75.07394 -6.84466,-126.94501 -25.52916,-162.82257 -26.53419,-50.950331 -26.37831,-52.650717 4.82675,-52.650717 17.73557,0 40.43059,15.292131 50.43337,33.982507 l 18.18688,33.98249 25.25382,-38.03254 c 40.98024,-61.716776 71.39005,-78.533126 142.01516,-78.533126 101.86189,0 127.84236,27.140926 117.7147,122.972676 -9.73258,92.0935 -27.67013,135.91946 -91.90708,224.55228 -51.74683,71.39917 -53.68164,126.75454 -9.72085,278.11426 30.88012,106.32211 55.45589,126.51976 137.90313,113.33591 72.43238,-11.58242 84.09139,7.02496 28.708,45.81701 -53.6158,37.55396 -106.81291,30.69527 -157.86117,-20.35299 z M 151.28688,636.35566 c -13.36518,-4.59403 -53.85675,-45.97634 -52.29815,-57.74434 2.166,-16.35411 -7.883815,7.49411 -17.529964,13.45576 -9.646148,5.96165 -29.921061,1.57518 -35.771428,-7.89091 -18.271277,-29.56355 10.014828,-176.15373 41.345656,-214.27015 0,0 19.847966,-11.29844 35.511466,-12.12025 16.98995,-0.89141 30.72635,11.59056 30.72635,11.59056 27.26619,26.86357 38.09502,59.83342 43.30383,131.84456 7.54073,104.24958 -7.1976,148.22751 -45.28776,135.13477 z M 133.47183,499.60735 c -1.50941,-49.2131 -2.40052,-50.00639 -13.64828,-12.15016 -6.61839,22.2753 -9.10653,45.96812 -5.52919,52.65071 13.5873,25.38154 20.73513,10.28614 19.17747,-40.50055 z"
       id="path20"
       inkscape:connector-curvature="0"
       sodipodi:nodetypes="sscsssssssssssscsssssssssssssssssssss" />
  </g>
</svg>
