<?xml version="1.0" encoding="UTF-8" standalone="no"?>
<!-- Created with Inkscape (http://www.inkscape.org/) -->

<svg
   xmlns:dc="http://purl.org/dc/elements/1.1/"
   xmlns:cc="http://creativecommons.org/ns#"
   xmlns:rdf="http://www.w3.org/1999/02/22-rdf-syntax-ns#"
   xmlns:svg="http://www.w3.org/2000/svg"
   xmlns="http://www.w3.org/2000/svg"
   xmlns:sodipodi="http://sodipodi.sourceforge.net/DTD/sodipodi-0.dtd"
   xmlns:inkscape="http://www.inkscape.org/namespaces/inkscape"
   width="1000"
   height="1000"
   viewBox="0 0 1000 1000"
   version="1.1"
   id="svg756"
   inkscape:version="0.92.3 (2405546, 2018-03-11)"
   sodipodi:docname="u5927.svg">
  <defs
     id="defs750" />
  <sodipodi:namedview
     id="base"
     pagecolor="#ffffff"
     bordercolor="#666666"
     borderopacity="1.0"
     inkscape:pageopacity="0.0"
     inkscape:pageshadow="2"
     inkscape:zoom="0.35"
     inkscape:cx="-251.69398"
     inkscape:cy="458.38882"
     inkscape:document-units="px"
     inkscape:current-layer="layer1"
     showgrid="true"
     units="px"
     inkscape:window-width="1118"
     inkscape:window-height="864"
     inkscape:window-x="593"
     inkscape:window-y="183"
     inkscape:window-maximized="0"
     showguides="true"
     inkscape:guide-bbox="true">
    <inkscape:grid
       type="xygrid"
       id="grid758" />
    <sodipodi:guide
       position="240,200"
       orientation="0,1"
       id="guide8"
       inkscape:locked="false" />
  </sodipodi:namedview>
  <metadata
     id="metadata753">
    <rdf:RDF>
      <cc:Work
         rdf:about="">
        <dc:format>image/svg+xml</dc:format>
        <dc:type
           rdf:resource="http://purl.org/dc/dcmitype/StillImage" />
        <dc:title />
      </cc:Work>
    </rdf:RDF>
  </metadata>
  <g
     inkscape:label="Layer 1"
     inkscape:groupmode="layer"
     id="layer1"
     transform="translate(0,-32.41664)"
     style="display:inline">
    <path
       style="fill:#000000;stroke-width:15.32550526"
       d="M 471.19531,42.066406 C 455.77785,44.108053 448.20039,60.060058 443.0335,72.866965 422.33837,123.95412 417.33005,179.6557 406.02539,233.36523 c -0.0773,4.93756 -4.36963,9.13679 -9.34193,8.62838 -105.13791,26.99698 -213.06978,49.89363 -309.480371,101.69224 -18.396168,10.55228 -38.56237,24.27052 -42.902308,46.29853 -1.410453,10.24952 5.067378,23.30587 16.716797,22.94921 17.035153,0.61165 32.437952,-8.04469 48.726062,-11.67056 88.97917,-28.24361 176.83208,-61.45727 268.56886,-79.8392 5.10079,-2.81106 10.56908,3.58046 7.93474,8.45987 -19.54804,99.99161 -61.8371,193.39156 -100.74243,286.93346 -15.02512,34.18395 -31.16319,68.3806 -53.6884,98.34104 -7.44203,9.78019 -20.5137,10.08321 -31.63086,11.08399 -17.0839,2.62977 -32.70196,20.41486 -27.42188,38.13476 6.50128,22.22606 28.8934,35.1782 50.17942,40.2506 16.80071,3.44633 34.73442,-2.84663 45.66238,-15.94591 16.16633,-17.59256 25.67792,-39.89282 38.47477,-59.82848 44.4927,-78.18975 76.89203,-162.3465 107.71859,-246.66957 47.66432,61.32977 99.45828,119.78899 140.41797,186.03516 35.14084,52.56858 76.19319,102.93318 129.67382,137.64844 28.95083,18.23932 65.39793,28.67735 99.11329,19.24804 12.98793,-3.72834 27.76538,-14.65916 24.98242,-29.95312 -2.77661,-13.31735 -17.87051,-16.94496 -29.5586,-17.01758 -25.13085,-0.009 -47.05533,-15.3111 -64.88476,-31.58008 -47.34721,-45.35399 -86.57679,-98.22388 -126.30944,-150.13883 -41.31752,-54.27613 -82.32966,-109.61703 -130.6847,-157.63265 -5.46834,-5.33194 -12.34049,-8.88399 -19.52149,-11.05469 -5.22433,-4.37302 0.92363,-11.24324 1.68555,-16.03711 11.19024,-33.22422 16.09937,-68.21909 25.91406,-101.75 4.68297,-5.5683 12.89605,-4.40274 18.97232,-7.39448 50.40262,-13.61023 102.5136,-19.06946 154.20762,-25.27297 38.47111,-3.54092 77.45561,-3.44137 115.19897,-11.64114 13.4452,-4.21234 28.07076,-15.63343 25.78906,-31.26563 -3.0908,-19.87227 -22.60614,-30.96364 -38.4082,-40.85351 -16.17809,-9.51708 -33.63016,-18.1758 -52.30664,-20.90625 -10.58347,1.29751 -17.41768,12.40245 -16.10352,22.29687 -4.35019,7.76489 -14.50148,7.55671 -21.7539,10.83008 -33.01067,8.77582 -67.35343,10.21167 -100.84792,16.42141 -23.55699,3.3705 -47.12679,6.65064 -70.6931,9.95554 13.31097,-51.53741 23.48024,-105.45716 16.61328,-158.654293 -2.66466,-13.042569 -9.48141,-30.670123 -25.09961,-31.400391 z"
       id="path825"
       inkscape:connector-curvature="0" />
  </g>
</svg>
