<?xml version="1.0" encoding="UTF-8" standalone="no"?>
<!-- Created with Inkscape (http://www.inkscape.org/) -->

<svg
   xmlns:dc="http://purl.org/dc/elements/1.1/"
   xmlns:cc="http://creativecommons.org/ns#"
   xmlns:rdf="http://www.w3.org/1999/02/22-rdf-syntax-ns#"
   xmlns:svg="http://www.w3.org/2000/svg"
   xmlns="http://www.w3.org/2000/svg"
   xmlns:sodipodi="http://sodipodi.sourceforge.net/DTD/sodipodi-0.dtd"
   xmlns:inkscape="http://www.inkscape.org/namespaces/inkscape"
   width="1000"
   height="1000"
   viewBox="0 0 1000 1000"
   version="1.1"
   id="svg756"
   inkscape:version="0.92.3 (2405546, 2018-03-11)"
   sodipodi:docname="u5b57.svg">
  <defs
     id="defs750" />
  <sodipodi:namedview
     id="base"
     pagecolor="#ffffff"
     bordercolor="#666666"
     borderopacity="1.0"
     inkscape:pageopacity="0.0"
     inkscape:pageshadow="2"
     inkscape:zoom="0.35"
     inkscape:cx="551.42857"
     inkscape:cy="576.33663"
     inkscape:document-units="px"
     inkscape:current-layer="layer1"
     showgrid="true"
     units="px"
     inkscape:window-width="1118"
     inkscape:window-height="864"
     inkscape:window-x="375"
     inkscape:window-y="92"
     inkscape:window-maximized="0"
     showguides="true"
     inkscape:guide-bbox="true">
    <inkscape:grid
       type="xygrid"
       id="grid758" />
    <sodipodi:guide
       position="240,200"
       orientation="0,1"
       id="guide8"
       inkscape:locked="false" />
  </sodipodi:namedview>
  <metadata
     id="metadata753">
    <rdf:RDF>
      <cc:Work
         rdf:about="">
        <dc:format>image/svg+xml</dc:format>
        <dc:type
           rdf:resource="http://purl.org/dc/dcmitype/StillImage" />
        <dc:title />
      </cc:Work>
    </rdf:RDF>
  </metadata>
  <g
     inkscape:label="Layer 1"
     inkscape:groupmode="layer"
     id="layer1"
     transform="translate(0,-32.41664)"
     style="display:inline">
    <path
       style="display:inline;fill:#000000;stroke-width:13.67478275"
       d="M 376.77334,811.37632 C 330.58235,789.21767 222.24573,682.48783 221.29821,658.20725 c -0.22813,-5.84597 20.29606,7.21277 45.60934,29.01949 72.75456,62.67616 125.28454,95.88739 150.13077,94.91777 24.45098,-0.95422 46.53578,-61.81431 59.21139,-132.59677 0,0 5.68117,-14.80957 7.91175,-37.4834 -29.27826,8.15225 -67.55147,13.84699 -102.49095,17.19454 -113.45733,10.87034 -186.14642,14.56324 -205.68943,-20.77723 -11.61533,-21.00436 -8.03706,-45.18025 10.82675,-43.94083 130.92254,8.60199 219.47341,-1.28383 304.97758,-27.34483 1.28394,-25.7026 6.39938,-35.20475 -8.97551,-62.77996 -16.0711,-28.8239 -57.43076,-36.9281 -86.42297,-45.56507 -28.80976,-8.58268 -46.17252,-10.29599 -81.19109,-23.71573 -51.71486,-19.81788 -69.63752,-36.1892 -70.73568,-64.33022 -1.20652,-30.91734 3.77766,-44.7456 49.50191,-46.57561 52.07362,-2.08396 120.03257,-24.9821 143.14041,-82.0205 -33.03831,0.14436 -67.58255,-0.59006 -151.17324,27.5243 -70.23058,23.62092 -117.0994,58.94244 -171.16141,143.41079 -12.45529,19.46049 -27.50847,27.44152 -42.254096,22.40264 -28.550873,-9.75634 -37.674729,-38.86306 -32.541925,-103.81465 3.154751,-39.92108 4.399073,-70.77263 23.385972,-70.67106 22.949453,0.12273 34.788919,20.85655 39.814359,27.74298 5.03501,6.89956 20.9469,-0.248 35.44194,-15.92024 41.2372,-44.58635 164.04194,-86.9491 252.53474,-90.40244 36.94137,-1.4416 50.63021,-2.12147 69.94777,-2.79364 8.63707,-18.572 4.12861,-23.64901 14.6445,-55.429794 13.71132,-41.438011 23.24913,-68.027511 63.07705,-49.315342 30.43495,14.299114 21.77445,40.396016 10.71138,76.618066 -6.51302,21.32468 -6.11946,17.28874 -12.29518,30.85613 23.78325,2.81818 55.26114,9.31464 78.39525,15.16089 44.18656,11.16637 82.01807,42.99378 83.24376,74.40263 1.60157,41.04069 -32.88326,82.87465 -99.80673,95.87197 -28.97997,5.62824 -49.89075,2.82094 -67.62798,-6.64983 -16.77366,-8.95624 -30.70923,-33.23503 -45.94703,-69.81229 -15.27689,32.39683 -61.63699,48.62537 -105.78277,56.30583 -38.98505,6.78263 -45.49445,9.00597 -82.3589,9.89382 l 98.80972,28.37745 c 102.09753,29.32165 140.33978,52.42514 157.82801,91.45266 12.84535,28.66615 13.53709,45.26405 12.78189,68.28543 19.17169,-1.97415 16.45895,-2.4238 43.1315,-10.81248 34.62915,-10.89118 115.60506,-44.48023 121.69627,-39.60989 9.06244,7.246 -81.57688,87.18176 -122.93099,106.783 -21.75198,10.31001 -25.40822,9.9034 -46.50635,18.76783 -3.91404,17.84424 -3.56491,41.95597 -9.51115,68.8844 -7.59632,34.40116 -23.04526,82.81616 -33.80181,115.22502 -22.43716,67.60176 -61.80394,74.94055 -142.07369,36.43324 z M 625.73725,259.49863 c 4.21312,-14.97567 -14.95213,-29.48571 -56.12553,-38.3429 -12.76103,-2.74513 -38.62404,-8.40102 -54.04484,-8.9949 -19.17202,22.03445 -2.48011,41.75805 18.27544,60.9545 20.77034,19.21013 35.84362,16.58536 58.95661,10.19442 21.41383,-5.92113 31.00174,-16.92752 32.93832,-23.81112 z"
       id="path779"
       inkscape:connector-curvature="0"
       sodipodi:nodetypes="ssssscssscssssccsssssssscssscsssscscsscssscssssscsss" />
  </g>
</svg>
