<?xml version="1.0" encoding="UTF-8" standalone="no"?>
<!-- Created with Inkscape (http://www.inkscape.org/) -->

<svg
   xmlns:dc="http://purl.org/dc/elements/1.1/"
   xmlns:cc="http://creativecommons.org/ns#"
   xmlns:rdf="http://www.w3.org/1999/02/22-rdf-syntax-ns#"
   xmlns:svg="http://www.w3.org/2000/svg"
   xmlns="http://www.w3.org/2000/svg"
   xmlns:sodipodi="http://sodipodi.sourceforge.net/DTD/sodipodi-0.dtd"
   xmlns:inkscape="http://www.inkscape.org/namespaces/inkscape"
   width="1000"
   height="1000"
   viewBox="0 0 1000 1000"
   version="1.1"
   id="svg756"
   inkscape:version="0.92.3 (2405546, 2018-03-11)"
   sodipodi:docname="u5e74.svg">
  <defs
     id="defs750" />
  <sodipodi:namedview
     id="base"
     pagecolor="#ffffff"
     bordercolor="#666666"
     borderopacity="1.0"
     inkscape:pageopacity="0.0"
     inkscape:pageshadow="2"
     inkscape:zoom="0.35"
     inkscape:cx="-40.971366"
     inkscape:cy="657.49106"
     inkscape:document-units="px"
     inkscape:current-layer="layer1"
     showgrid="true"
     units="px"
     inkscape:window-width="1118"
     inkscape:window-height="864"
     inkscape:window-x="516"
     inkscape:window-y="135"
     inkscape:window-maximized="0"
     showguides="true"
     inkscape:guide-bbox="true">
    <inkscape:grid
       type="xygrid"
       id="grid758" />
    <sodipodi:guide
       position="240,200"
       orientation="0,1"
       id="guide8"
       inkscape:locked="false" />
  </sodipodi:namedview>
  <metadata
     id="metadata753">
    <rdf:RDF>
      <cc:Work
         rdf:about="">
        <dc:format>image/svg+xml</dc:format>
        <dc:type
           rdf:resource="http://purl.org/dc/dcmitype/StillImage" />
        <dc:title />
      </cc:Work>
    </rdf:RDF>
  </metadata>
  <g
     inkscape:label="Layer 1"
     inkscape:groupmode="layer"
     id="layer1"
     transform="translate(0,-32.41664)"
     style="display:inline">
    <path
       style="fill:#000000;stroke-width:14.7332983"
       d="m 463.39527,805.99762 c -11.12135,-13.39843 -23.62867,-57.38347 -25.29925,-102.73407 -1.6706,-45.35061 0.38769,-88.27323 0.0324,-95.2708 -30.61762,0 -142.88221,10.20587 -173.49983,20.41174 -61.23524,81.64698 -141.73031,103.31018 -178.406971,99.79232 -31.002464,-2.97362 -51.051997,-30.97616 -51.051997,-44.58455 0,-31.24417 68.887398,-74.59765 134.847958,-96.01133 25.21108,-8.18462 63.99339,-16.34932 74.08119,-20.11044 10.32395,-16.65063 11.4605,-16.91614 18.68062,-42.91437 8.42893,-30.35096 15.36232,-62.76172 15.40751,-72.02389 0.12523,-25.59171 52.58001,-36.41937 110.16215,-25.61691 36.8822,6.91915 48.74489,4.89097 41.35255,-7.07008 -13.40757,-21.6939 -100.00737,-21.47656 -173.14013,0.43448 -40.85036,12.23908 -61.99096,12.64822 -73.22209,1.41706 -28.36863,-28.36864 78.80006,-82.85818 170.86363,-74.82684 l 81.6451,5.08129 -0.0201,-55.69495 -0.0201,-63.85964 -66.77307,-6.12352 c -76.74106,-7.03766 -165.41757,32.55919 -178.1098,65.63459 -4.8047,12.52086 -22.77254,22.76519 -34.93904,22.76519 -29.48466,0 -28.15002,-68.08018 10.85683,-107.08702 15.72378,-15.72377 45.50175,-61.96502 66.17328,-102.75834 20.67155,-40.793319 41.81836,-68.383652 70.4403,-70.087316 23.64984,-1.40771 16.43076,48.194694 -15.03657,99.805866 -37.5639,61.61045 -33.19879,50.73837 15.18739,41.75135 22.28412,-4.13898 90.15866,-10.48043 150.83233,-4.11305 91.02028,9.55207 106.15934,27.55346 111.54912,59.68345 4.08451,24.34884 3.02016,33.69879 -40.358,17.97745 l -21.17965,-7.67604 0.0891,72.52568 c 0.0492,40.03791 2.43924,95.44741 3.67338,136.21712 1.35603,44.7961 1.35603,65.20785 2.17673,88.26928 13.46754,-2.64969 23.5803,4.52995 32.2324,8.33666 17.97371,7.90797 20.47882,22.11777 23.20757,36.61749 4.07003,21.62684 -14.5721,20.58115 -24.31595,19.73539 -11.53298,-1.00106 -25.8212,-2.02165 -34.20955,-2.07628 0.22365,15.36344 0.43049,16.99962 -0.77564,44.42249 -1.37521,31.2659 -0.82817,85.02451 1.21564,119.4636 4.0934,68.97684 -14.40314,76.37413 -44.34949,40.29694 z M 170.60859,668.29209 c 20.25829,-15.84627 22.57894,-19.47585 32.78481,-29.68172 -21.49274,-0.36773 -121.184603,41.33466 -121.184603,52.16002 0,17.55301 55.151123,3.52918 88.399793,-22.4783 z M 406.92096,551.55296 c 36.24204,-0.98464 36.82268,-6.1902 32.75091,-41.1198 -3.69456,-31.69397 -6.27965,-31.77081 -43.6406,-39.34856 -42.71914,-8.66453 -56.87589,2.6065 -66.69887,24.61857 -13.6744,30.6426 -13.6744,40.84847 -23.88027,61.26022 14.1808,-2.71464 78.64649,-4.79045 101.46883,-5.41043 z"
       id="path825"
       inkscape:connector-curvature="0"
       sodipodi:nodetypes="csccssscscssccscccssssssscssscsscsssccsccscsscssscc" />
  </g>
</svg>
