<?xml version="1.0" encoding="UTF-8" standalone="no"?>
<!-- Created with Inkscape (http://www.inkscape.org/) -->

<svg
   xmlns:dc="http://purl.org/dc/elements/1.1/"
   xmlns:cc="http://creativecommons.org/ns#"
   xmlns:rdf="http://www.w3.org/1999/02/22-rdf-syntax-ns#"
   xmlns:svg="http://www.w3.org/2000/svg"
   xmlns="http://www.w3.org/2000/svg"
   xmlns:sodipodi="http://sodipodi.sourceforge.net/DTD/sodipodi-0.dtd"
   xmlns:inkscape="http://www.inkscape.org/namespaces/inkscape"
   width="1000"
   height="1000"
   viewBox="0 0 1000 1000"
   version="1.1"
   id="svg756"
   inkscape:version="0.92.3 (2405546, 2018-03-11)"
   sodipodi:docname="u611b.svg">
  <defs
     id="defs750" />
  <sodipodi:namedview
     id="base"
     pagecolor="#ffffff"
     bordercolor="#666666"
     borderopacity="1.0"
     inkscape:pageopacity="0.0"
     inkscape:pageshadow="2"
     inkscape:zoom="0.35"
     inkscape:cx="282.85714"
     inkscape:cy="576.33663"
     inkscape:document-units="px"
     inkscape:current-layer="layer1"
     showgrid="true"
     units="px"
     inkscape:window-width="1118"
     inkscape:window-height="864"
     inkscape:window-x="375"
     inkscape:window-y="92"
     inkscape:window-maximized="0"
     showguides="true"
     inkscape:guide-bbox="true">
    <inkscape:grid
       type="xygrid"
       id="grid758" />
    <sodipodi:guide
       position="240,200"
       orientation="0,1"
       id="guide8"
       inkscape:locked="false" />
  </sodipodi:namedview>
  <metadata
     id="metadata753">
    <rdf:RDF>
      <cc:Work
         rdf:about="">
        <dc:format>image/svg+xml</dc:format>
        <dc:type
           rdf:resource="http://purl.org/dc/dcmitype/StillImage" />
        <dc:title />
      </cc:Work>
    </rdf:RDF>
  </metadata>
  <g
     inkscape:label="Layer 1"
     inkscape:groupmode="layer"
     id="layer1"
     transform="translate(0,-32.41664)"
     style="display:inline">
    <path
       style="fill:#000000;stroke-width:11.80398941"
       d="m 496.38281,30.242188 c -25.24137,3.752755 -46.57402,19.2613 -67.33711,32.971809 -38.67522,28.210934 -77.37478,56.444563 -117.89752,81.982433 -30.78702,20.29633 -62.92631,39.23916 -90.03295,64.47154 -5.35684,5.00476 -10.47465,12.44878 -6.99804,19.99805 2.62993,7.80061 11.50509,12.01093 19.25579,9.56327 21.80135,-3.55891 40.37086,-16.61137 59.55475,-26.67656 58.01819,-33.61491 114.32804,-70.29346 168.03907,-110.43945 17.95144,-14.035566 36.12442,-28.684374 49.29492,-47.484374 4.37704,-6.789941 4.67183,-17.956913 -3.4961,-21.982422 -3.14721,-1.759609 -6.80107,-2.465487 -10.38281,-2.404296 z M 70.513672,91.431641 c -15.398214,0.585971 -27.947351,13.273469 -31.320313,27.835939 -7.608374,25.57921 0.938231,52.26667 6.997817,77.20492 13.580328,49.174 31.5468,97.57725 57.679914,141.53727 11.80341,18.06772 26.8696,35.87986 47.58203,43.67968 7.77946,2.41647 19.51774,-0.59538 20.17774,-10.07226 0.2453,-13.20794 -9.63915,-23.53374 -15.24315,-34.69555 C 136.68096,302.37431 125.99556,263.48989 115.91325,225.21212 105.94248,185.879 100.35475,145.20222 87.449219,106.73047 84.884605,99.434979 79.225923,91.001431 70.513672,91.431641 Z M 512.35156,154.14453 c -21.12728,1.90285 -35.96769,19.16562 -51.28899,31.86311 -36.27065,32.93983 -67.95292,72.26788 -111.35749,96.34002 -18.05113,8.82226 -37.9271,4.34131 -57.26367,5.33203 -3.40472,0.89943 -18.23347,-2.18832 -10.81401,2.48895 19.70726,16.48092 45.00241,27.32404 60.54057,48.07159 -38.24641,32.16713 -84.93033,52.59352 -122.91016,85.24805 -32.51635,26.55436 -64.30573,55.95039 -84.52148,93.25781 -6.21218,13.02472 -10.39427,28.99768 -4.15235,42.75 5.98068,8.84592 18.81837,7.34955 26.67774,2.0293 26.41109,-13.90082 46.322,-36.85166 67.54082,-57.25635 21.88812,-21.91027 43.01949,-45.43242 68.90058,-62.61865 27.67415,-7.61882 47.27607,-31.64034 75.00908,-38.48442 36.30864,-11.3552 74.79405,-13.42052 112.69014,-11.90425 5.86843,0.77739 10.12297,6.01135 9.35352,11.94336 2.20166,26.04008 -6.83204,53.75454 -23.99805,73.8457 -7.11916,7.36682 -17.97296,9.05532 -27.59812,6.51611 -16.20113,-2.61138 -35.07566,-7.07933 -49.6675,3.05225 -4.04021,3.8683 -8.03799,8.38551 -14.13672,8.4043 -23.48937,3.80157 -47.27154,-9.1514 -70.49609,-0.88282 -22.19711,7.81707 -39.5113,24.78654 -56.39459,40.50396 -16.03575,15.82445 -31.52411,34.79248 -34.95112,57.74019 -1.5263,11.13312 5.69672,22.702 16.86328,25.11132 15.45168,4.12937 29.91675,-5.42855 41.4033,-14.65036 19.75214,-15.81087 34.30121,-36.77665 50.42873,-56.00198 13.15303,13.54418 27.97128,27.19191 40.0918,40.67187 -21.71597,16.83622 -43.24042,37.3484 -71.27126,42.10696 -55.75797,1.13661 -108.80875,43.10431 -120.72288,97.93015 -1.39112,8.03026 3.56714,16.25761 11.25195,18.88282 10.71191,8.54901 6.04586,23.78404 10.58985,35.24609 8.61094,22.89057 26.0704,41.55805 45.50318,55.90936 14.83526,10.49091 32.87024,19.77322 51.59057,15.95588 22.07922,-4.27619 40.54897,-18.40665 56.68945,-33.32032 12.44891,-6.69312 25.92876,1.99048 37.40625,6.69922 44.3985,21.66829 86.25068,48.14286 129.97776,71.17855 37.1266,19.80651 75.07816,39.24703 115.96211,49.99794 9.54194,1.98473 21.39332,3.16474 29.07966,-3.99875 6.02975,-6.61736 3.71726,-17.89964 -4.15039,-21.98829 -18.69068,-15.29131 -42.57509,-21.84616 -62.44176,-35.17626 -61.86518,-35.08676 -119.2263,-77.77584 -182.52894,-110.3628 -4.56462,-2.61108 -10.6214,-3.2712 -14.49805,-6.36133 -2.62197,-9.77295 -0.86631,-20.2983 0.1543,-30.1582 2.69229,-19.9489 7.71353,-41.57163 -0.60156,-60.87109 -4.05546,-6.54356 -12.2383,-9.94448 -13.8418,-18.09766 -4.25018,-15.20813 0.12486,-32.17152 9.7539,-44.42187 5.56563,-6.39353 13.08624,-12.57119 21.48438,-13.82032 2.58654,4.67776 2.16419,10.76344 3.39169,15.95076 1.82736,18.3626 5.5508,37.46017 17.56339,52.12151 9.25511,12.53901 26.64399,21.74217 41.9707,14.8457 15.30749,-6.55691 23.46359,-24.79335 19.66631,-40.76683 -3.32513,-24.49109 -15.4267,-48.13623 -12.58037,-73.15504 1.15897,-20.4938 10.95354,-40.74584 27.81905,-52.78334 22.92863,-25.22137 36.7322,-57.0028 49.929,-88.00377 8.66738,-21.14284 11.11196,-45.63602 2.21144,-67.10796 -7.28146,-18.7371 -24.8518,-30.32875 -42.10402,-38.91939 -5.11912,-3.37411 -12.06288,-5.67803 -15.29297,-10.94922 -0.85408,-9.34101 6.82761,-16.62701 10.13281,-24.82812 16.39471,-29.74288 34.78891,-60.81981 35.70508,-95.73047 -0.17368,-16.50359 -10.84901,-32.74962 -26.97852,-37.53711 -3.44721,-1.22122 -7.10293,-1.94394 -10.76953,-1.83789 z m -40.10547,93.85742 c -1.95014,10.44032 -9.19454,18.97512 -14.4277,27.94854 -16.35162,23.67344 -37.33734,45.19191 -63.34183,58.0456 -2.70569,1.09973 -7.18105,1.53456 -3.38476,-1.73437 12.23465,-12.53303 25.90234,-23.66517 37.7621,-36.6185 15.09651,-15.51148 28.82356,-32.29285 43.43516,-48.2272 z m -314.66601,16.40821 c -12.10097,0.40641 -17.56754,15.18164 -14.625,25.47265 5.29691,24.00847 20.85996,43.95088 35.04281,63.39868 12.80331,16.07391 28.06365,31.98991 48.01383,38.64234 18.1134,4.09505 34.9278,-7.15139 48.66685,-17.56472 15.84772,-11.59821 32.60514,-24.25372 40.97377,-42.55833 2.86528,-7.74758 -1.99346,-17.97728 -10.91992,-18.1289 -17.32181,-1.50338 -32.36005,9.2695 -47.27344,16.38476 -6.82504,3.27141 -15.44123,4.74445 -21.61914,-0.69141 -10.44712,-8.17594 -17.71256,-19.62809 -26.88328,-29.10815 -12.92299,-14.70342 -27.44289,-30.35325 -46.98586,-35.55396 -1.45096,-0.22821 -2.92223,-0.32476 -4.39062,-0.29296 z m 255.5664,276.81054 c -2.22876,7.9022 -8.99474,16.62783 -17.15039,17.30274 3.8318,-7.0445 9.84315,-14.34004 17.15039,-17.30274 z M 307.02344,703.625 c 12.393,0.3067 23.3877,11.25624 22.63086,23.78516 0.24241,5.91436 -5.91374,7.32948 -10.6296,6.8393 -23.31424,0.63291 -45.68411,-7.28445 -68.29032,-11.84907 -10.63236,-0.90152 -1.3256,-3.4195 3.65925,-5.59568 16.6731,-7.01451 34.1964,-13.71745 52.62981,-13.17971 z m -54.36914,72.40234 c 12.78479,0.89869 27.0197,2.32847 36.89648,11.42578 -2.32922,5.96068 -10.35586,7.08446 -16.0625,7.58008 -10.70414,0.26873 -22.97973,-7.22726 -23.69726,-18.55468 0.81907,-0.55624 1.93168,-0.41746 2.86328,-0.45118 z"
       id="path836"
       inkscape:connector-curvature="0" />
  </g>
</svg>
