<?xml version="1.0" encoding="UTF-8" standalone="no"?>
<!-- Created with Inkscape (http://www.inkscape.org/) -->

<svg
   xmlns:dc="http://purl.org/dc/elements/1.1/"
   xmlns:cc="http://creativecommons.org/ns#"
   xmlns:rdf="http://www.w3.org/1999/02/22-rdf-syntax-ns#"
   xmlns:svg="http://www.w3.org/2000/svg"
   xmlns="http://www.w3.org/2000/svg"
   xmlns:sodipodi="http://sodipodi.sourceforge.net/DTD/sodipodi-0.dtd"
   xmlns:inkscape="http://www.inkscape.org/namespaces/inkscape"
   width="1000"
   height="1000"
   viewBox="0 0 1000 1000"
   version="1.1"
   id="svg756"
   inkscape:version="0.92.3 (2405546, 2018-03-11)"
   sodipodi:docname="u6210.svg">
  <defs
     id="defs750" />
  <sodipodi:namedview
     id="base"
     pagecolor="#ffffff"
     bordercolor="#666666"
     borderopacity="1.0"
     inkscape:pageopacity="0.0"
     inkscape:pageshadow="2"
     inkscape:zoom="0.24748737"
     inkscape:cx="-507.48869"
     inkscape:cy="932.84168"
     inkscape:document-units="px"
     inkscape:current-layer="layer1"
     showgrid="true"
     units="px"
     inkscape:window-width="1118"
     inkscape:window-height="864"
     inkscape:window-x="197"
     inkscape:window-y="90"
     inkscape:window-maximized="0"
     showguides="true"
     inkscape:guide-bbox="true">
    <inkscape:grid
       type="xygrid"
       id="grid758" />
    <sodipodi:guide
       position="240,200"
       orientation="0,1"
       id="guide8"
       inkscape:locked="false" />
  </sodipodi:namedview>
  <metadata
     id="metadata753">
    <rdf:RDF>
      <cc:Work
         rdf:about="">
        <dc:format>image/svg+xml</dc:format>
        <dc:type
           rdf:resource="http://purl.org/dc/dcmitype/StillImage" />
        <dc:title />
      </cc:Work>
    </rdf:RDF>
  </metadata>
  <g
     inkscape:label="Layer 1"
     inkscape:groupmode="layer"
     id="layer1"
     transform="translate(0,-32.41664)"
     style="display:inline">
    <path
       style="fill:#000000;stroke-width:15.24871063"
       d="m 830.75998,32.659005 c -13.16287,0.982684 -28.92133,4.855936 -35.15076,17.780892 -5.25194,14.773282 3.00988,29.784055 7.17896,43.606737 9.53998,26.322066 19.12008,54.289126 39.58125,74.333476 6.8688,6.30224 19.42192,8.07946 25.41509,-0.28208 10.52189,-13.28641 8.52778,-31.55115 8.65169,-47.38885 C 875.35716,96.915735 872.2559,72.295035 860.88775,51.018154 854.5501,40.629682 843.43054,32.097982 830.75998,32.659005 Z m -362.5529,13.79354 c -14.5031,1.249558 -30.54707,0.362495 -43.61507,7.742999 -4.84808,6.708164 1.77559,13.993704 2.43118,20.896546 10.50958,36.94609 18.86411,74.59958 24.50913,112.61629 -51.96076,20.96911 -101.80147,46.90931 -153.76227,67.74864 -31.06021,13.27367 -63.08213,25.33595 -91.29166,44.22566 0.19476,-31.57363 1.09887,-63.43589 -3.74961,-94.72531 -1.35856,-7.57103 -6.44779,-17.65556 -15.5001,-16.50149 -10.98395,2.447 -14.68442,14.92369 -18.86812,23.8548 -11.28822,29.07422 -15.286,60.26039 -21.40228,90.66954 -2.84392,16.49318 -5.32771,33.04842 -7.44888,49.65023 -29.50855,30.21731 -44.288868,70.83046 -59.859573,109.21364 -13.746289,39.40534 -11.491437,82.09707 -5.358291,122.73364 2.392825,15.05654 -4.069441,29.45598 -7.095042,43.88337 -12.345933,45.55113 -29.454729,91.15369 -28.388398,139.02728 0.336307,10.24147 6.457391,21.56291 17.474638,22.957 10.396006,1.97034 20.647312,-4.10371 25.90823,-12.89211 18.063426,-23.7836 26.864656,-52.86019 37.198316,-80.46916 14.07703,-41.01607 26.11247,-83.45657 49.21631,-120.57359 21.42893,-7.66359 39.12844,-22.63483 57.26545,-35.82201 22.64519,-18.45417 44.1273,-42.19482 74.07059,-47.70813 14.92945,-2.5768 31.90121,-1.49289 44.11149,8.38899 14.43343,14.06612 15.20298,36.36745 12.81635,55.07342 -3.25208,21.46006 -8.5329,42.95721 -17.91588,62.80634 -20.29173,40.13379 -53.86539,71.23155 -83.83637,104.21945 -27.24958,29.2204 -55.08451,58.54935 -76.19972,92.64374 -3.18866,6.09565 -0.21104,15.47842 7.62614,15.4316 17.91114,2.22265 34.21785,-7.82274 49.97495,-14.68745 40.46245,-20.56563 79.19054,-45.8717 110.68372,-78.80881 23.53903,-27.17661 42.7881,-57.97354 58.63967,-90.18389 23.1466,-48.80605 34.4548,-106.11323 18.2296,-158.78729 -9.83974,-31.92018 -32.87997,-62.03146 -65.96097,-71.71351 -35.18768,-10.28024 -72.58854,0.17603 -104.81714,15.09297 -18.70949,8.72378 -36.52099,19.31053 -54.81196,28.75178 5.32049,-25.03409 1.53317,-51.03914 7.17281,-76.02565 26.05121,-29.47604 64.46658,-42.73207 99.03475,-59.4446 48.58566,-22.51909 97.55387,-44.18637 148.62437,-60.41171 3.4571,-1.24596 6.89847,-2.53501 10.31191,-3.89668 17.87597,95.91091 27.21235,193.14676 42.07233,289.57327 5.80642,40.51033 13.39668,80.97124 22.39222,120.74927 -21.85814,34.26269 -54.3425,59.76332 -83.04965,87.97545 -35.92148,35.29165 -73.67608,69.44719 -103.24172,110.46737 -6.02662,11.23583 1.78553,26.9528 14.66395,28.22981 14.02065,2.04532 27.42921,-4.95822 39.50754,-11.13964 36.12161,-20.75033 64.17525,-52.247 94.71223,-79.98806 22.75667,-21.58256 45.59082,-43.07083 68.38166,-64.61881 17.45773,33.09405 39.86333,64.92892 70.87977,86.5733 7.04353,4.84524 19.1335,6.55402 23.97046,-2.12565 5.79005,-10.89371 1.1614,-23.68857 -1.87641,-34.70875 -8.26536,-23.47754 -23.59924,-44.01666 -29.20237,-68.51915 -3.39928,-11.10636 -6.5175,-22.31167 -10.54967,-33.21249 34.5911,-38.09732 65.41253,-79.3975 99.1378,-118.24243 24.93126,-29.61919 47.74418,-61.14279 74.99599,-88.7294 13.93156,-14.00258 29.97879,-27.00285 39.2067,-44.80359 2.84473,-6.95292 -2.02496,-16.38254 -10.21721,-15.51219 -14.08352,0.0694 -26.51955,7.95621 -39.13353,13.23223 -48.14751,24.031 -86.35652,63.05229 -124.44597,100.16958 -19.99498,20.27747 -38.8607,41.62001 -58.04195,62.65622 -21.56191,-107.12164 -29.19343,-216.50713 -48.0762,-324.11716 -1.97911,-13.40236 -3.77574,-26.87179 -4.73657,-40.30953 11.27068,-5.49914 25.28838,-11.88275 37.5746,-5.67377 8.37346,5.61043 7.26232,16.27199 8.23058,24.93758 1.81508,10.28546 12.11602,20.21883 23.0114,16.51557 17.79197,-4.74067 27.8917,-22.18144 36.11587,-37.24014 8.9434,-17.92629 10.24326,-42.18083 -4.37219,-57.60002 -16.99681,-18.66093 -44.33724,-22.10878 -68.22972,-20.2649 -15.57005,1.11282 -30.8928,4.34576 -46.0455,7.96839 C 522.73761,139.96588 515.8287,116.66009 512.38199,92.824242 509.1247,76.383893 503.37276,57.248073 486.94702,49.555386 481.06564,47.015294 474.56293,46.2853 468.20708,46.452545 Z"
       id="path20"
       inkscape:connector-curvature="0" />
  </g>
</svg>
