<?xml version="1.0" encoding="UTF-8" standalone="no"?>
<!-- Created with Inkscape (http://www.inkscape.org/) -->

<svg
   xmlns:dc="http://purl.org/dc/elements/1.1/"
   xmlns:cc="http://creativecommons.org/ns#"
   xmlns:rdf="http://www.w3.org/1999/02/22-rdf-syntax-ns#"
   xmlns:svg="http://www.w3.org/2000/svg"
   xmlns="http://www.w3.org/2000/svg"
   xmlns:sodipodi="http://sodipodi.sourceforge.net/DTD/sodipodi-0.dtd"
   xmlns:inkscape="http://www.inkscape.org/namespaces/inkscape"
   width="1000"
   height="1000"
   viewBox="0 0 1000 1000"
   version="1.1"
   id="svg756"
   inkscape:version="0.92.3 (2405546, 2018-03-11)"
   sodipodi:docname="u624b.svg">
  <defs
     id="defs750" />
  <sodipodi:namedview
     id="base"
     pagecolor="#ffffff"
     bordercolor="#666666"
     borderopacity="1.0"
     inkscape:pageopacity="0.0"
     inkscape:pageshadow="2"
     inkscape:zoom="0.35"
     inkscape:cx="191.49356"
     inkscape:cy="672.49987"
     inkscape:document-units="px"
     inkscape:current-layer="layer1"
     showgrid="true"
     units="px"
     inkscape:window-width="1118"
     inkscape:window-height="864"
     inkscape:window-x="375"
     inkscape:window-y="92"
     inkscape:window-maximized="0"
     showguides="true"
     inkscape:guide-bbox="true">
    <inkscape:grid
       type="xygrid"
       id="grid758" />
    <sodipodi:guide
       position="240,200"
       orientation="0,1"
       id="guide8"
       inkscape:locked="false" />
  </sodipodi:namedview>
  <metadata
     id="metadata753">
    <rdf:RDF>
      <cc:Work
         rdf:about="">
        <dc:format>image/svg+xml</dc:format>
        <dc:type
           rdf:resource="http://purl.org/dc/dcmitype/StillImage" />
        <dc:title />
      </cc:Work>
    </rdf:RDF>
  </metadata>
  <g
     inkscape:label="Layer 1"
     inkscape:groupmode="layer"
     id="layer1"
     transform="translate(0,-32.41664)"
     style="display:inline">
    <path
       style="fill:#000000;stroke-width:18.30657959"
       d="m 425.04053,33.643568 c -33.93144,1.190864 -63.05956,18.557721 -89.48079,34.901495 -61.73689,40.490547 -116.4795,87.856897 -172.00776,134.130717 -31.33763,27.47437 -64.544723,54.0627 -89.683783,85.96558 -6.793324,9.25498 -14.90265,22.60617 -5.7135,32.68692 11.142893,11.87275 30.403922,15.34673 47.371133,12.40866 45.63179,-6.79498 86.54388,-29.28103 132.53314,-33.675 2.6903,-0.32613 9.02285,-0.0456 4.59098,3.01001 -16.91382,12.97943 -37.50296,22.09521 -56.28151,33.00319 -40.32753,22.43901 -97.475415,44.76875 -135.911068,69.52097 -11.831928,12.17489 -19.628801,14.06152 -20.404635,28.31082 0.204474,14.66071 11.518897,27.66178 23.961026,37.12124 26.013943,16.82596 60.750677,18.65431 92.321337,18.36104 53.9115,-1.12794 106.23791,-13.60723 157.23711,-27.38085 19.3837,-4.82203 39.01391,-8.96458 58.36041,-13.97184 -12.42592,47.05362 -25.0878,94.03944 -38.04597,140.97901 -14.37106,58.70992 -25.17888,119.27918 -16.36773,179.2242 4.81843,27.40217 13.88469,57.6574 41.55434,75.14154 18.0117,11.16388 41.52477,19.78394 64.14124,15.10028 13.22004,-2.55631 19.5218,-16.13742 13.64877,-26.06491 -3.73731,-7.74195 -13.71909,-11.46998 -23.16439,-11.12175 -15.91598,-3.30493 -20.16013,-18.90624 -22.95885,-30.64781 -7.21916,-41.24695 -0.38206,-83.09665 5.58699,-124.13837 13.44193,-82.58024 35.29265,-164.01814 59.69938,-244.78358 36.00127,-13.82662 70.02209,-30.88711 105.45714,-45.6758 38.17297,-17.8083 77.53203,-37.95955 101.73696,-69.5246 14.6826,-18.85855 17.67978,-42.53169 13.27891,-64.3749 -0.70689,-5.73952 -8.42608,-8.94325 -14.1997,-5.76918 -21.75901,10.60608 -37.56764,27.71017 -57.28507,40.55222 -22.55465,16.27034 -48.6022,28.66499 -75.3468,39.42128 -17.73294,7.77643 -34.54715,17.01321 -52.67554,24.14658 10.81997,-35.39943 18.26159,-71.50428 31.0764,-106.43429 25.49863,-16.54917 54.13009,-28.89044 82.42293,-41.65371 18.48979,-9.82623 37.31859,-25.54785 36.5985,-45.33551 -0.59312,-12.9508 -15.42214,-21.6031 -29.68228,-22.65793 -11.98853,-0.52119 -24.53513,-1.07531 -34.6989,-7.25268 -14.06805,-6.88795 -22.73012,-19.049694 -27.21737,-31.89563 -2.38119,-4.93631 -6.91799,-13.653977 -14.96386,-10.656413 -10.2077,6.343321 -13.53924,17.690547 -19.12951,26.808693 -9.51053,21.72811 -23.60653,42.22324 -45.02263,57.10072 -39.46622,27.91258 -88.74364,42.53646 -135.8726,58.46106 -23.75401,6.88261 -47.94191,15.64544 -73.51739,16.26346 -5.78001,0.68544 -12.08275,-3.3075 -8.39568,-8.45638 10.41031,-18.35698 29.76175,-31.67592 46.6068,-45.74553 36.65907,-28.3696 76.93419,-54.72129 122.78349,-71.36338 15.56747,-6.55744 33.45732,-3.05774 49.73777,-7.67552 16.64337,-3.90854 35.85465,-13.999217 35.95705,-30.289832 -0.92865,-15.537142 -19.32973,-23.99858 -34.08705,-29.8536 -10.8091,-4.136108 -22.64149,-6.499332 -34.54744,-6.22069 z M 413.08331,269.94006 c -7.95295,33.47453 -14.01934,67.39502 -23.72566,100.47099 -28.97075,10.12948 -57.47431,21.85988 -88.02006,27.7684 -53.88481,11.65623 -109.72606,18.33545 -165.08381,16.22568 -16.01855,-0.95371 -31.6281,-4.98495 -47.787561,-4.73094 52.757661,-19.5234 102.433151,-44.38751 153.018111,-67.52327 57.12778,-26.2178 113.22908,-54.51889 172.0335,-77.78592 2.23901,-1.28487 -0.75271,4.72785 -0.43452,5.57506 z"
       id="path20"
       inkscape:connector-curvature="0"
       sodipodi:nodetypes="ccccccccccccccccccccccccccccccccccccccccccccccccccccccccc" />
  </g>
</svg>
