<?xml version="1.0" encoding="UTF-8" standalone="no"?>
<!-- Created with Inkscape (http://www.inkscape.org/) -->

<svg
   xmlns:dc="http://purl.org/dc/elements/1.1/"
   xmlns:cc="http://creativecommons.org/ns#"
   xmlns:rdf="http://www.w3.org/1999/02/22-rdf-syntax-ns#"
   xmlns:svg="http://www.w3.org/2000/svg"
   xmlns="http://www.w3.org/2000/svg"
   xmlns:sodipodi="http://sodipodi.sourceforge.net/DTD/sodipodi-0.dtd"
   xmlns:inkscape="http://www.inkscape.org/namespaces/inkscape"
   width="1000"
   height="1000"
   viewBox="0 0 1000 1000"
   version="1.1"
   id="svg756"
   inkscape:version="0.92.3 (2405546, 2018-03-11)"
   sodipodi:docname="u6587.svg">
  <defs
     id="defs750" />
  <sodipodi:namedview
     id="base"
     pagecolor="#ffffff"
     bordercolor="#666666"
     borderopacity="1.0"
     inkscape:pageopacity="0.0"
     inkscape:pageshadow="2"
     inkscape:zoom="0.35"
     inkscape:cx="551.42857"
     inkscape:cy="576.33663"
     inkscape:document-units="px"
     inkscape:current-layer="layer1"
     showgrid="true"
     units="px"
     inkscape:window-width="1118"
     inkscape:window-height="864"
     inkscape:window-x="685"
     inkscape:window-y="129"
     inkscape:window-maximized="0"
     showguides="true"
     inkscape:guide-bbox="true">
    <inkscape:grid
       type="xygrid"
       id="grid758" />
    <sodipodi:guide
       position="240,200"
       orientation="0,1"
       id="guide8"
       inkscape:locked="false" />
  </sodipodi:namedview>
  <metadata
     id="metadata753">
    <rdf:RDF>
      <cc:Work
         rdf:about="">
        <dc:format>image/svg+xml</dc:format>
        <dc:type
           rdf:resource="http://purl.org/dc/dcmitype/StillImage" />
        <dc:title />
      </cc:Work>
    </rdf:RDF>
  </metadata>
  <g
     inkscape:label="Layer 1"
     inkscape:groupmode="layer"
     id="layer1"
     transform="translate(0,-32.41664)"
     style="display:inline">
    <path
       style="display:inline;fill:#000000;stroke-width:13.18322754"
       d="m 162.323,802.79423 c -14.98071,-12.75429 -26.39098,-32.14259 -25.35625,-43.08507 1.50034,-15.86608 8.57285,-18.69904 34.42101,5.90778 0,0 19.30514,9.53163 34.20665,10.2108 17.41932,0.79407 39.3462,-16.88049 39.3462,-16.88049 22.55724,-17.8601 58.16724,-46.52808 79.44429,-76.0577 l 32.4715,-43.60249 -45.92232,-60.19352 c -47.20925,-61.88047 -59.67314,-118.05225 -42.2739,-116.40699 6.45623,0.61052 42.28126,23.15292 73.2802,56.1142 30.9989,32.96137 53.17518,57.75492 55.45618,55.25237 31.6465,-34.7206 61.27353,-146.79829 73.60416,-223.05271 8.40985,-52.00735 11.85124,-78.52103 9.08852,-78.68834 -2.76277,-0.1673 -24.23294,3.76824 -72.56907,14.29921 C 333.99888,302.62935 246.51695,306.68607 175.1752,304.04424 106.22906,301.49113 52.484581,287.6291 40.856706,277.31378 19.486619,258.35592 46.006019,247.16258 233.39081,230.1478 c 44.07721,-4.00222 103.71055,-10.75157 132.09622,-17.05731 l 41.3422,-10.43358 -3.9832,-47.26185 C 397.54144,92.453957 431.03999,41.0544 456.7596,43.486528 c 6.96461,0.658586 21.16102,15.601662 19.04113,39.07131 -6.93715,76.801992 0.10466,77.844862 5.107,106.085022 C 569.95318,174.2598 676.56368,125.66309 694,97.651204 677.06831,45.124188 750.02027,40.12675 759.26388,89.27948 c 10.38506,55.22233 -53.37399,103.19151 -121.00324,127.15566 -38.24284,13.55117 -65.66926,24.20246 -68.86676,26.60152 -3.19754,2.39907 -8.17956,32.30406 -15.14917,77.42338 -13.02493,84.31963 -24.5897,152.37319 -46.08558,206.89943 -14.79921,37.53959 -40.70684,91.17813 -49.68959,105.15301 14.34863,14.92524 12.52223,12.78708 37.19684,37.70279 53.12667,53.6459 124.08941,95.88622 239.49233,95.43183 107.58061,-0.42369 111.04674,18.41158 6.13194,33.32102 -113.74873,16.16462 -203.73612,19.01566 -289.77986,-63.88838 l -42.11839,-40.58153 -32.94416,39.36377 c -59.70215,71.33598 -126.33007,93.59075 -166.54934,90.07771 -11.85431,-1.03557 -32.5952,-8.39124 -47.5759,-21.14546 z"
       id="path764"
       inkscape:connector-curvature="0"
       sodipodi:nodetypes="sssssscssssscssssscsssccsscsscsssscsss" />
  </g>
</svg>
