<?xml version="1.0" encoding="UTF-8" standalone="no"?>
<!-- Created with Inkscape (http://www.inkscape.org/) -->

<svg
   xmlns:dc="http://purl.org/dc/elements/1.1/"
   xmlns:cc="http://creativecommons.org/ns#"
   xmlns:rdf="http://www.w3.org/1999/02/22-rdf-syntax-ns#"
   xmlns:svg="http://www.w3.org/2000/svg"
   xmlns="http://www.w3.org/2000/svg"
   xmlns:sodipodi="http://sodipodi.sourceforge.net/DTD/sodipodi-0.dtd"
   xmlns:inkscape="http://www.inkscape.org/namespaces/inkscape"
   width="1000"
   height="1000"
   viewBox="0 0 1000 1000"
   version="1.1"
   id="svg756"
   inkscape:version="0.92.3 (2405546, 2018-03-11)"
   sodipodi:docname="u65e5.svg">
  <defs
     id="defs750" />
  <sodipodi:namedview
     id="base"
     pagecolor="#ffffff"
     bordercolor="#666666"
     borderopacity="1.0"
     inkscape:pageopacity="0.0"
     inkscape:pageshadow="2"
     inkscape:zoom="0.35"
     inkscape:cx="740.22067"
     inkscape:cy="314.01095"
     inkscape:document-units="px"
     inkscape:current-layer="layer1"
     showgrid="true"
     units="px"
     inkscape:window-width="1118"
     inkscape:window-height="864"
     inkscape:window-x="735"
     inkscape:window-y="82"
     inkscape:window-maximized="0"
     showguides="true"
     inkscape:guide-bbox="true">
    <inkscape:grid
       type="xygrid"
       id="grid758" />
    <sodipodi:guide
       position="240,200"
       orientation="0,1"
       id="guide8"
       inkscape:locked="false" />
  </sodipodi:namedview>
  <metadata
     id="metadata753">
    <rdf:RDF>
      <cc:Work
         rdf:about="">
        <dc:format>image/svg+xml</dc:format>
        <dc:type
           rdf:resource="http://purl.org/dc/dcmitype/StillImage" />
        <dc:title />
      </cc:Work>
    </rdf:RDF>
  </metadata>
  <g
     inkscape:label="Layer 1"
     inkscape:groupmode="layer"
     id="layer1"
     transform="translate(0,-32.41664)"
     style="display:inline">
    <path
       style="fill:#000000;stroke-width:16.57907486"
       d="m 168.35705,766.96014 c -14.82395,-20.74932 -32.88465,-56.83288 -48.67947,-70.74482 -15.48363,0 -21.83371,-0.92377 -29.05124,-2.84488 C 61.66728,685.66234 60.42489,672.9619 72.28367,505.86111 88.57962,276.23664 84.23359,186.3112 54.64877,140.9699 39.05953,117.07807 36.768175,100.88814 47.99407,93.950159 72.0787,79.065038 120,92.41664 129.42733,140.77262 133.75844,162.98835 138,159.7718 138,180.41664 c 10.32242,-20.64484 7.15419,-25.26008 27.59868,-45.89753 36.65827,-37.004268 80.40531,-60.059712 134.16058,-78.252968 72.77645,-24.630901 155.60471,-32.43332 184.0844,3.039922 32.82831,40.889736 48.49054,86.205016 56.50834,131.194536 8.37745,47.0075 6.67385,105.20475 -4.53891,160.69204 -6.50233,32.17728 -8.39984,40.51123 -20.14198,79.53867 42.7094,43.55194 47.87062,53.87436 35.9455,73.05932 -5.17653,8.32793 -29.42906,-11.95927 -50.0739,-22.28169 -6.54271,15.9077 -6.8837,27.14805 -55.70101,129.99494 -71.37456,150.36987 -135.81529,218.00339 -187.62017,219.87269 -29.80169,1.07534 -58.81645,-20.95798 -89.86448,-64.41643 z M 381.24569,605.40093 c 30.6546,-66.61424 40.10455,-92.98921 55.73564,-138.91881 -31.51179,-6.50216 -60.02798,-10.04265 -88.41387,-10.14895 -41.48539,-0.15535 -82.69244,7.02447 -132.5654,23.01452 -24.82896,7.96055 -65.28345,17.98032 -73.03002,30.02694 -6.85281,10.65678 -2.99313,36.04523 -2.99313,56.38265 0,54.6096 27.30984,104.61962 81.86494,167.96284 0,0 15.78477,21.97904 32.20764,22.94448 18.40717,1.0821 40.76152,-22.94448 40.76152,-22.94448 22.41883,-20.56772 55.77808,-61.70495 86.43268,-128.31919 z M 351.29616,390.43827 c 50.72175,-1.44808 68.54773,0.63281 103.93889,10.95523 l 14.83141,-61.0921 c 7.79765,-32.1193 9.09939,-77.66293 3.00223,-120.80718 -5.73604,-40.58908 -18.23539,-67.04911 -30.61956,-90.18915 -21.7624,-40.663409 -77.90173,-34.335981 -157.70978,6.59196 -103.36576,53.00906 -120.32467,81.03635 -132.81776,198.28841 l -8.98138,95.06416 64.87221,-17.78207 C 234.10091,404.26161 282,392.41664 351.29616,390.43827 Z"
       id="path20"
       inkscape:connector-curvature="0"
       sodipodi:nodetypes="scssssscssssscscsssscssssssssscssssscss" />
  </g>
</svg>
