<?xml version="1.0" encoding="UTF-8" standalone="no"?>
<!-- Created with Inkscape (http://www.inkscape.org/) -->

<svg
   xmlns:dc="http://purl.org/dc/elements/1.1/"
   xmlns:cc="http://creativecommons.org/ns#"
   xmlns:rdf="http://www.w3.org/1999/02/22-rdf-syntax-ns#"
   xmlns:svg="http://www.w3.org/2000/svg"
   xmlns="http://www.w3.org/2000/svg"
   xmlns:sodipodi="http://sodipodi.sourceforge.net/DTD/sodipodi-0.dtd"
   xmlns:inkscape="http://www.inkscape.org/namespaces/inkscape"
   width="1000"
   height="1000"
   viewBox="0 0 1000 1000"
   version="1.1"
   id="svg756"
   inkscape:version="0.92.3 (2405546, 2018-03-11)"
   sodipodi:docname="u6642.svg">
  <defs
     id="defs750" />
  <sodipodi:namedview
     id="base"
     pagecolor="#ffffff"
     bordercolor="#666666"
     borderopacity="1.0"
     inkscape:pageopacity="0.0"
     inkscape:pageshadow="2"
     inkscape:zoom="0.35"
     inkscape:cx="88.821459"
     inkscape:cy="858.64967"
     inkscape:document-units="px"
     inkscape:current-layer="layer1"
     showgrid="true"
     units="px"
     inkscape:window-width="1118"
     inkscape:window-height="864"
     inkscape:window-x="528"
     inkscape:window-y="82"
     inkscape:window-maximized="0"
     showguides="true"
     inkscape:guide-bbox="true">
    <inkscape:grid
       type="xygrid"
       id="grid758" />
    <sodipodi:guide
       position="240,200"
       orientation="0,1"
       id="guide8"
       inkscape:locked="false" />
  </sodipodi:namedview>
  <metadata
     id="metadata753">
    <rdf:RDF>
      <cc:Work
         rdf:about="">
        <dc:format>image/svg+xml</dc:format>
        <dc:type
           rdf:resource="http://purl.org/dc/dcmitype/StillImage" />
        <dc:title />
      </cc:Work>
    </rdf:RDF>
  </metadata>
  <g
     inkscape:label="Layer 1"
     inkscape:groupmode="layer"
     id="layer1"
     transform="translate(0,-32.41664)"
     style="display:inline">
    <path
       style="fill:#000000;stroke-width:13.8507967"
       d="m 550.07835,33.991316 c -12.36921,0.309344 -18.89352,13.437186 -20.97181,24.092325 -9.73625,48.533219 -9.01088,98.322669 -13.52042,147.382779 -1.64721,5.46329 1.60898,14.75402 -3.16416,17.77727 -55.02648,17.93674 -112.13126,30.77728 -164.68394,55.64242 -11.49055,6.06585 -23.87457,12.83082 -30.84686,24.18759 -3.66632,7.81525 1.38977,17.55933 9.8999,19.14547 19.27943,6.89197 40.28835,3.12227 59.98194,0.3686 36.73413,-6.44733 71.79447,-21.8169 107.55445,-30.22983 -18.97245,25.5805 -43.99353,45.99571 -69.61823,64.56577 -9.04655,6.36322 -19.69525,10.06284 -30.68508,10.83218 -17.62371,3.90005 -31.45398,16.45214 -43.22772,29.37623 -9.7275,7.44468 -21.98964,9.99902 -32.88442,15.18013 -6.2027,-26.17844 -18.89172,-50.34167 -32.3709,-73.40963 -17.07227,-26.63337 -44.14697,-49.67253 -76.80301,-52.26319 -14.61718,-1.32607 -29.6935,2.12405 -42.10354,10.01103 -1.98816,-13.04893 -11.70224,-27.62231 -26.16092,-27.85061 -14.23605,0.29866 -22.86104,14.48493 -25.8379,26.92294 -3.46534,8.69124 -0.27394,18.8815 -5.28229,26.93951 -17.201864,21.07638 -32.236573,44.00976 -46.100196,67.40986 -18.979042,37.7078 -29.812875,80.71334 -25.129027,123.022 3.038566,21.75599 17.670329,43.40558 39.949568,48.61535 12.856742,3.18141 26.485685,-1.80014 35.466425,-11.24812 19.19071,-17.65896 30.97535,-41.70812 40.98018,-65.37651 9.6499,-25.06164 11.8216,-52.22645 11.44948,-78.80245 0.70194,-13.11364 1.94386,-26.18216 2.63183,-39.31593 12.43377,-10.5437 29.79787,-20.57251 46.39145,-14.06818 13.24499,6.8259 19.78243,21.40497 26.95152,33.67225 9.53074,18.37903 16.77197,37.92738 18.43357,58.67165 -30.73328,17.97518 -63.22237,33.51482 -91.29821,55.64324 -29.58171,24.21926 -54.33664,57.85812 -58.75753,96.72752 -2.8594,21.71309 5.49755,46.32594 25.48382,57.26456 23.69479,12.71665 52.21946,7.28869 76.23404,-1.6669 28.71653,-10.26033 49.29163,-34.52237 65.57932,-59.2523 19.68075,-31.16047 34.29046,-65.81915 40.95079,-102.15281 18.13819,-13.05427 31.44563,-31.96749 42.79468,-50.5535 7.38809,3.49735 15.54843,-0.13843 22.96008,-1.79489 55.39762,-19.56633 107.50296,-47.17181 160.86011,-71.45531 3.22437,25.19781 10.39376,50.5117 7.27843,76.04975 -5.32348,9.38249 -14.36291,16.57282 -23.85006,21.41287 -23.3018,9.36972 -48.40223,0.74488 -71.10459,-5.84621 -21.45551,-6.70043 -45.01876,-11.21444 -66.87318,-3.5603 -12.01566,3.89212 -25.06745,10.80423 -29.76775,23.22414 -3.03903,13.08509 3.3328,27.10799 12.84855,35.95937 7.92025,6.37851 19.1696,2.40467 27.22733,8.55191 16.97744,10.55109 21.62847,31.26417 32.05464,47.04473 25.91679,43.9247 59.4821,83.81325 100.27817,114.6047 3.87507,2.62838 7.87409,5.08248 12.02856,7.24531 -6.40068,30.86519 -5.44251,63.06127 -13.70167,93.45171 -3.58673,10.6822 -13.13895,17.67718 -18.20539,27.38057 -7.54186,17.66087 -1.2951,38.20709 8.85007,53.47523 7.64052,9.9931 23.37586,13.63925 33.59052,5.42103 19.36705,-12.4096 25.46599,-36.31588 30.3026,-57.35613 22.41551,-91.52854 30.99866,-185.83768 34.80815,-279.79584 0.62457,-17.78889 0.95056,-35.58965 0.98732,-53.3901 15.274,-7.6161 30.85069,-16.37934 41.05901,-30.53489 6.75934,-9.08139 11.9564,-22.48159 4.36751,-32.66632 -6.92023,-9.86079 -20.18927,-11.04099 -31.22581,-11.96642 -6.22645,-0.22726 -12.46153,0.28138 -18.61745,1.20099 -2.18589,-16.90255 -5.57955,-34.45472 -14.6464,-49.12539 -5.6946,-4.99316 1.87733,-4.85165 6.43484,-5.92371 15.37303,-3.23395 30.62157,-6.34889 46.18983,-8.37159 10.19525,18.69285 18.2163,42.08233 39.17721,51.37349 14.38442,5.9437 34.69022,-1.2984 37.64747,-17.74658 4.20181,-15.92641 -0.62158,-32.74473 -6.42995,-47.34722 12.74411,-3.94672 26.96748,-12.98168 28.37035,-27.42818 -0.36992,-15.66695 -15.13904,-27.13503 -29.87572,-28.68303 -8.57944,-1.77486 -17.4912,-0.35956 -25.84412,1.14509 -6.89385,-7.98129 -10.07491,-19.64958 -19.97582,-25.0676 -11.3895,-7.16525 -25.78847,0.86163 -31.35419,11.67655 -4.41034,6.78024 -5.74065,14.97215 -8.11706,22.40677 -27.42744,8.90678 -56.41001,13.95402 -83.94317,23.14811 7.16239,-13.27751 9.30597,-28.43695 11.94782,-43.0825 18.49856,-13.11978 42.30069,-21.7256 53.6048,-42.78827 13.15566,-21.20229 18.31752,-50.10491 4.9001,-72.43868 -8.37308,-11.94493 -23.34108,-15.60285 -35.14354,-22.80644 -2.6445,-0.55323 -5.78235,-1.42455 -4.42296,-4.79777 -0.39099,-17.69475 1.90399,-36.186856 -5.43344,-52.905137 -4.47818,-14.041172 -11.88227,-30.290908 -27.15485,-34.870844 -1.11032,-0.210283 -2.24284,-0.313726 -3.37315,-0.283683 z M 581.3994,177.08336 c 5.78101,2.94083 5.58411,11.37781 0.27335,14.57137 -3.91162,5.29907 -1.14624,-4.31536 -1.35437,-7.079 0.34751,-2.37293 0.33761,-5.59463 1.08102,-7.49237 z M 109.59984,430.05795 c -2.78532,13.57078 -3.05826,28.66975 -9.11719,41.26652 -1.434817,2.77749 -3.611083,6.50069 -5.603253,8.09013 1.291486,-18.70429 5.438663,-37.18266 15.285733,-53.29714 -0.18843,1.31349 -0.37687,2.62699 -0.56529,3.94049 z m 446.71539,83.52074 c 0.26775,27.27839 0.87559,54.4959 -1.05537,81.6434 -0.38165,10.33088 -0.75648,20.49436 -2.26393,30.75708 -24.55785,-19.05187 -41.36198,-45.8038 -59.41401,-70.6256 -7.43956,-10.70404 -14.77213,-21.48523 -22.29076,-32.13794 21.83575,0.82391 44.57113,5.57278 66.21611,-0.008 6.81486,-2.59373 12.52349,-7.26735 18.82246,-10.82342 l -0.0129,1.06011 z m -304.55928,9.03851 c -9.42587,27.31035 -28.00242,50.17487 -45.94004,72.39915 -6.87267,7.44005 -14.96392,15.68778 -25.30367,17.25908 -8.79157,-3.23311 -9.97499,-14.38019 -11.24999,-22.42749 -0.91088,-16.76114 11.6275,-31.22332 25.16472,-39.91931 17.28106,-12.6355 37.6704,-21.24292 57.76589,-28.68222 l -0.32196,1.01012 z"
       id="path825"
       inkscape:connector-curvature="0" />
  </g>
</svg>
