<?xml version="1.0" encoding="UTF-8" standalone="no"?>
<!-- Created with Inkscape (http://www.inkscape.org/) -->

<svg
   xmlns:dc="http://purl.org/dc/elements/1.1/"
   xmlns:cc="http://creativecommons.org/ns#"
   xmlns:rdf="http://www.w3.org/1999/02/22-rdf-syntax-ns#"
   xmlns:svg="http://www.w3.org/2000/svg"
   xmlns="http://www.w3.org/2000/svg"
   xmlns:sodipodi="http://sodipodi.sourceforge.net/DTD/sodipodi-0.dtd"
   xmlns:inkscape="http://www.inkscape.org/namespaces/inkscape"
   width="1000"
   height="1000"
   viewBox="0 0 1000 1000"
   version="1.1"
   id="svg756"
   inkscape:version="0.92.3 (2405546, 2018-03-11)"
   sodipodi:docname="u6708.svg">
  <defs
     id="defs750" />
  <sodipodi:namedview
     id="base"
     pagecolor="#ffffff"
     bordercolor="#666666"
     borderopacity="1.0"
     inkscape:pageopacity="0.0"
     inkscape:pageshadow="2"
     inkscape:zoom="0.7"
     inkscape:cx="257.06444"
     inkscape:cy="636.73023"
     inkscape:document-units="px"
     inkscape:current-layer="layer1"
     showgrid="true"
     units="px"
     inkscape:window-width="1118"
     inkscape:window-height="864"
     inkscape:window-x="505"
     inkscape:window-y="186"
     inkscape:window-maximized="0"
     showguides="true"
     inkscape:guide-bbox="true">
    <inkscape:grid
       type="xygrid"
       id="grid758" />
    <sodipodi:guide
       position="240,200"
       orientation="0,1"
       id="guide8"
       inkscape:locked="false" />
  </sodipodi:namedview>
  <metadata
     id="metadata753">
    <rdf:RDF>
      <cc:Work
         rdf:about="">
        <dc:format>image/svg+xml</dc:format>
        <dc:type
           rdf:resource="http://purl.org/dc/dcmitype/StillImage" />
        <dc:title />
      </cc:Work>
    </rdf:RDF>
  </metadata>
  <g
     inkscape:label="Layer 1"
     inkscape:groupmode="layer"
     id="layer1"
     transform="translate(0,-32.41664)"
     style="display:inline">
    <path
       style="fill:#000000;stroke-width:11.84237957"
       d="m 193.40831,869.87807 c -12.00072,-12.00071 -32.19854,-72.52695 -19.13448,-80.60099 6.51331,-4.02545 9.22087,-26.67439 16.31034,-59.91079 4.60673,-21.59695 4.08044,-25.78302 4.08044,-42.53788 -6.70315,-2.47583 -13.4039,5.84439 -27.51949,5.84439 -15.85927,0 -44.30793,-14.24988 -61.60833,-23.49594 -23.741142,-12.68826 -24.350924,-35.18247 -1.79308,-47.80674 13.00536,-7.2783 46.06047,-9.24489 67.24999,-7.81785 18.67791,1.25789 18.08595,-1.22241 27.15626,-2.94463 2.0996,-15.03265 1.15247,-5.81471 0.93487,-31.16182 -0.37128,-43.24743 -14.75419,-140.00631 -36.66125,-228.33679 -7.82518,-31.55158 -46.3732,-133.75908 -50.52471,-136.12087 -1.80013,-1.02409 -23.569583,4.25578 -41.481174,-3.43671 -37.80411,-16.23572 -36.799108,-76.08551 -1.877817,-76.08551 7.748168,0 16.784137,4.10735 20.725744,-3.23394 2.95487,-5.50349 -4.169319,-25.98407 -4.169319,-30.51185 0,-10.15436 -5.329067,-15.16892 -11.842379,-11.14347 -6.513311,4.02545 -11.842378,2.11126 -11.842378,-4.25374 0,-6.365008 -3.234693,-20.002178 -7.188191,-30.304848 -15.514318,-40.429641 62.056034,-21.510221 82.170904,21.208836 11.50082,24.424912 19.25586,46.095012 19.25586,46.095012 0,0 46.03402,-5.44556 90.66813,-10.85966 140.98102,-17.10094 243.63015,22.78582 305.68292,149.51412 30.09693,61.46595 37.06784,106.2861 31.75579,193.94648 -6.44182,106.30379 -44.79861,184.47748 -83.27199,205.06782 -38.7644,20.74607 -76.32662,-13.91541 -37.70678,-57.07227 47.66915,-53.26927 35.25028,-49.20224 -42.12508,-2.75155 -31.60389,18.97273 -74.17797,36.67337 -104.9521,48.98824 -25.81662,10.33102 -30.61308,15.2694 -50.71892,21.97134 -2.03578,23.25143 -7.38335,59.7261 -15.28998,131.4307 -7.21134,65.39901 -40.28487,82.31983 -56.2838,66.32091 z M 329.97378,579.37604 c 35.21452,-12.38109 79.82078,-40.35225 119.3545,-51.4659 l 59.15776,-16.63032 c 8.46247,-27.6441 8.67584,-80.08539 8.67584,-80.08539 C 530.191,310.92458 429.55702,175.70976 314.42127,175.70976 c -84.8051,0 -114.39021,9.84375 -134.56444,22.70688 11.16992,55.84953 44.91361,134.1447 52.39035,159.28606 7.47845,0 23.29071,10.71123 35.13837,23.80275 31.11159,34.37794 126.73396,61.23312 189.02473,51.91591 46.07669,-6.89195 51.04589,5.80694 47.2586,25.71098 -8.45715,44.44641 -162.26549,27.35153 -213.63327,3.17588 -11.97564,-5.63618 -31.75545,-13.57987 -42.92536,-24.74977 11.16991,33.50972 15.79744,77.71063 17.07307,103.73239 1.48677,30.32862 0.79877,48.6992 2.25606,60.03777 9.71262,-0.16867 28.31987,-9.57149 63.5344,-21.95257 z"
       id="path856"
       inkscape:connector-curvature="0"
       sodipodi:nodetypes="ssscsssscssssssssssscssssssscsssscssccsssscscs" />
  </g>
</svg>
