<?xml version="1.0" encoding="UTF-8" standalone="no"?>
<!-- Created with Inkscape (http://www.inkscape.org/) -->

<svg
   xmlns:dc="http://purl.org/dc/elements/1.1/"
   xmlns:cc="http://creativecommons.org/ns#"
   xmlns:rdf="http://www.w3.org/1999/02/22-rdf-syntax-ns#"
   xmlns:svg="http://www.w3.org/2000/svg"
   xmlns="http://www.w3.org/2000/svg"
   xmlns:sodipodi="http://sodipodi.sourceforge.net/DTD/sodipodi-0.dtd"
   xmlns:inkscape="http://www.inkscape.org/namespaces/inkscape"
   width="1000"
   height="1000"
   viewBox="0 0 1000 1000"
   version="1.1"
   id="svg756"
   inkscape:version="0.92.3 (2405546, 2018-03-11)"
   sodipodi:docname="u69d8.svg">
  <defs
     id="defs750" />
  <sodipodi:namedview
     id="base"
     pagecolor="#ffffff"
     bordercolor="#666666"
     borderopacity="1.0"
     inkscape:pageopacity="0.0"
     inkscape:pageshadow="2"
     inkscape:zoom="0.24748737"
     inkscape:cx="1679.2058"
     inkscape:cy="1487.7437"
     inkscape:document-units="px"
     inkscape:current-layer="layer1"
     showgrid="true"
     units="px"
     inkscape:window-width="1118"
     inkscape:window-height="864"
     inkscape:window-x="550"
     inkscape:window-y="101"
     inkscape:window-maximized="0"
     showguides="true"
     inkscape:guide-bbox="true">
    <inkscape:grid
       type="xygrid"
       id="grid758" />
    <sodipodi:guide
       position="240,200"
       orientation="0,1"
       id="guide8"
       inkscape:locked="false" />
  </sodipodi:namedview>
  <metadata
     id="metadata753">
    <rdf:RDF>
      <cc:Work
         rdf:about="">
        <dc:format>image/svg+xml</dc:format>
        <dc:type
           rdf:resource="http://purl.org/dc/dcmitype/StillImage" />
        <dc:title />
      </cc:Work>
    </rdf:RDF>
  </metadata>
  <g
     inkscape:label="Layer 1"
     inkscape:groupmode="layer"
     id="layer1"
     transform="translate(0,-32.41664)"
     style="display:inline">
    <path
       style="fill:#000000;stroke-width:14.06460285"
       d="m 575.93945,34.988281 c -19.49018,2.014061 -34.66552,16.480234 -49.9486,27.507115 -37.12239,29.087084 -70.44479,62.650034 -106.82612,92.582304 -18.14212,13.54782 -39.7529,26.56946 -63.28973,24.31488 -10.76697,-1.49824 -18.78127,-9.87419 -23.72656,-19.00196 -4.30812,-6.39342 -14.29136,-10.69118 -20.12891,-3.83984 -16.85094,15.30499 -17.3142,40.64291 -32.54416,57.14082 -12.16018,14.49394 -25.87914,22.67684 -43.4031,28.73613 -1.38704,-40.89476 -3.35869,-81.87222 -6.55349,-122.67452 -1.88494,-17.62833 -3.6339,-35.898561 -11.28636,-52.15946 -1.60624,-3.255664 -26.5429,-4.262383 -27.63086,0.138672 -6.33305,12.627072 -5.99882,27.404641 -7.55273,41.080078 -2.71827,45.19265 1.48142,90.52328 2.35156,135.74023 -0.13727,5.39819 -3.64543,7.98253 -8.39167,7.80194 -36.91027,10.01948 -59.54952,21.69216 -97.495048,27.17463 -15.684602,5.35506 -27.781657,17.4239 -40.056641,28.11328 -7.90095,7.81775 -16.308747,16.35268 -19.863281,27.07422 0.331097,5.47913 7.967014,2.88186 11.535156,3.63086 30.554697,-1.74203 59.963218,-11.9036 89.835384,-18.12517 24.72835,-5.59444 35.71529,-10.08526 60.85212,-13.38851 -6.67881,67.66666 -16.05451,134.39821 -49.5363,193.71623 -28.28938,52.42377 -74.466677,99.96781 -105.710256,150.55627 -7.438109,12.96269 -16.640742,27.185 -14.603057,42.78024 2.500638,11.20256 29.934643,21.14963 40.978515,14.59766 13.487631,-7.42904 22.759711,-20.35877 32.863282,-31.70313 19.233546,-23.34008 39.388316,-49.27184 69.425106,-58.77901 4.15792,-1.17639 0.36992,8.15554 1.0707,11.47889 -1.71052,25.99668 -5.17296,53.00905 2.22685,78.38801 2.55123,8.05396 11.12764,14.31776 19.56641,10.98047 14.9582,-3.43452 27.59445,-16.23742 28.86914,-31.86328 2.85703,-23.82602 -6.59914,-47.24959 -3.91992,-71.29297 0.81065,-5.63698 -0.63279,-12.98383 5.91732,-15.25386 26.49658,-16.87604 56.17206,-27.74916 82.62292,-44.68518 11.47436,-7.01316 23.68884,-14.1027 31.35038,-25.55705 2.18728,-5.27377 -3.56264,-8.25074 -8.00391,-8.3086 -18.97293,-2.54139 -37.94229,2.82999 -56.71732,5.34415 -14.87697,2.50928 -29.74987,5.04231 -44.62838,7.54257 11.30458,-55.76644 21.37044,-111.85667 27.21812,-168.44315 1.56398,-23.53896 0.98982,-47.17407 0.7643,-70.78732 38.32555,-14.91877 71.22367,-40.53391 108.72266,-57.0957 16.92841,-7.06512 35.76558,-8.53392 51.73194,-18.0337 37.7943,-20.16092 69.77264,-49.31083 100.1997,-79.11083 14.90551,-13.85676 29.97563,-28.09842 47.75,-38.19727 3.65954,-1.67359 5.14745,3.39962 2.55864,5.52701 -13.04417,22.36539 -32.70502,39.79277 -50.57781,58.17703 -35.53577,34.79035 -73.20377,67.75139 -115.12759,94.67692 -13.33072,9.79595 -27.16468,23.03911 -28.82394,40.50771 -0.14291,10.7739 10.11351,17.38909 19.83789,18.28516 19.60724,2.36667 38.51936,-6.25145 57.04882,-11.64844 45.33826,-15.1474 87.21447,-39.79373 133.78321,-51.33789 6.26206,-0.71154 13.03859,-3.86858 19.20898,-1.6582 3.83834,2.34416 0.2321,6.6511 -2.39929,8.20955 -19.66198,16.92415 -45.64005,23.14812 -67.69641,36.11271 -71.89289,37.76674 -135.22635,89.70414 -194.41004,144.92346 -6.14893,3.20218 -4.46191,6.66689 0.24598,10.30506 16.92964,17.79534 32.36924,37.28845 51.4375,52.88281 7.67027,5.67559 18.15609,5.00709 25.72733,-0.48468 17.11446,-10.02593 32.89019,-23.14242 51.36753,-31.19237 9.87917,-4.79651 19.97849,-9.12301 29.8485,-13.94014 -0.43709,64.00689 7.77945,129.25271 -7.57618,192.20704 -3.71905,14.79093 -11.59005,28.24417 -22.18945,39.14453 -1.92483,2.44375 -6.08903,5.96887 -8.43929,4.12681 -2.98025,-10.33434 -0.87434,-21.65708 -6.09196,-31.4608 -14.05961,-36.19791 -36.56665,-68.52239 -61.14375,-98.32162 -7.93732,-8.48553 -16.10262,-18.29645 -27.45,-21.98502 -8.55147,-1.95584 -23.82486,5.10743 -22.98047,15.28321 0.96659,16.99037 8.87748,32.71098 15.52195,48.10222 8.19184,18.34122 18.30682,36.16313 23.13626,55.78254 2.07407,13.27197 -6.76115,22.70675 -15.5,31.55469 -10.08399,11.42761 -21.53655,26.13319 -17.70899,42.35937 4.26986,12.99345 23.06984,17.54297 35.4668,17.50196 15.35834,0.0649 28.61514,9.24538 40.66409,17.77402 20.96679,15.26331 35.6524,37.9147 57.97429,51.25982 7.9834,2.89998 16.45377,-2.61631 22.85576,-7.18228 13.63251,-9.81666 22.44844,-24.40012 29.02751,-39.50262 13.07398,-16.06522 33.33969,-23.81353 52.45275,-30.05499 20.26668,-6.00257 40.99107,-10.24812 61.44943,-15.51856 -35.6386,-21.54701 -61.27781,-45.09299 -96.91602,-66.64063 7.45222,-74.44886 14.5675,-148.87998 18.75781,-223.57422 0.52939,-3.52284 -0.0601,-8.21199 4.75977,-8.47265 15.79858,-7.14959 24.07594,-12.33962 41.68547,-13.06505 19.91413,-2.43695 45.33031,-4.00352 62.10945,-16.21816 5.75474,-4.92452 4.91564,-13.66568 -0.25781,-18.62695 -8.9959,-9.85806 -23.47697,-14.63304 -28.78906,-27.75781 -14.00786,-27.6701 -6.04484,-63.93724 16.53051,-84.6634 11.45932,-10.11593 27.14766,-13.14712 39.13941,-22.3366 24.29882,-16.34556 46.61845,-36.94758 63.26562,-60.82422 3.44344,-5.93088 8.81212,-15.649 1.16602,-20.5918 -11.49531,-5.98633 -31.08373,-3.30886 -43.41771,-2.6591 -56.80225,7.51219 -110.17223,30.41736 -164.44362,48.20988 23.82281,-37.39251 55.38612,-72.62291 63.09961,-117.480464 3.71609,-20.573067 -0.47902,-45.237713 -18.31836,-58.734375 -3.96586,-3.039525 -8.81796,-5.25818 -13.9043,-5.09961 z M 473.21484,392.24414 c 6.08275,-0.27145 6.02461,8.07378 1.67383,10.4707 -9.91532,8.22205 -22.67218,11.58915 -34.93555,14.56446 8.76375,-10.53994 18.20516,-24.08541 33.26172,-25.03516 z M 712.3418,517.76953 c -10.5036,-0.24027 -31.19802,9.829 -34.53907,21.78575 -5.28984,17.21384 -3.07687,35.45212 -1.41772,53.15822 4.73049,34.5926 19.16923,70.20311 47.53491,91.98962 13.58721,9.42943 29.0738,16.23387 44.94527,20.68611 21.0841,3.16005 47.01578,-1.23077 64.59541,-10.34622 15.70908,-9.37576 32.31991,-18.1718 45.38706,-31.17192 5.66913,-5.72218 5.21763,-33.32078 -0.67188,-39.49609 -5.45428,-8.71005 -15.64893,-17.74716 -26.63672,-13.03906 -15.92649,6.61205 -28.55271,19.24049 -44.34375,26.23633 -12.5011,6.14944 -29.10431,8.48123 -40.52343,-1.21289 -11.33463,-9.29943 -17.91199,-23.1018 -23.03907,-36.52149 -3.79118,-11.9345 -0.49029,-25.52947 8.56055,-34.23828 7.48091,-9.13873 12.92159,-23.7053 4.26562,-33.85742 -10.4494,-12.55668 -28.98544,-13.9485 -44.11718,-13.97266 z"
       id="path20"
       inkscape:connector-curvature="0"
       sodipodi:nodetypes="cccccccccccccccccccccccccccccccccccccccccccccccccccccccccccccccccccccccccccccccccccccccccccccccccccccccccccccccc" />
  </g>
</svg>
