<?xml version="1.0" encoding="UTF-8" standalone="no"?>
<!-- Created with Inkscape (http://www.inkscape.org/) -->

<svg
   xmlns:dc="http://purl.org/dc/elements/1.1/"
   xmlns:cc="http://creativecommons.org/ns#"
   xmlns:rdf="http://www.w3.org/1999/02/22-rdf-syntax-ns#"
   xmlns:svg="http://www.w3.org/2000/svg"
   xmlns="http://www.w3.org/2000/svg"
   xmlns:sodipodi="http://sodipodi.sourceforge.net/DTD/sodipodi-0.dtd"
   xmlns:inkscape="http://www.inkscape.org/namespaces/inkscape"
   width="1000"
   height="1000"
   viewBox="0 0 1000 1000"
   version="1.1"
   id="svg756"
   inkscape:version="0.92.3 (2405546, 2018-03-11)"
   sodipodi:docname="u6e0b.svg">
  <defs
     id="defs750" />
  <sodipodi:namedview
     id="base"
     pagecolor="#ffffff"
     bordercolor="#666666"
     borderopacity="1.0"
     inkscape:pageopacity="0.0"
     inkscape:pageshadow="2"
     inkscape:zoom="0.35"
     inkscape:cx="74.285713"
     inkscape:cy="576.33663"
     inkscape:document-units="px"
     inkscape:current-layer="layer1"
     showgrid="true"
     units="px"
     inkscape:window-width="1118"
     inkscape:window-height="864"
     inkscape:window-x="486"
     inkscape:window-y="98"
     inkscape:window-maximized="0"
     showguides="true"
     inkscape:guide-bbox="true">
    <inkscape:grid
       type="xygrid"
       id="grid758" />
    <sodipodi:guide
       position="240,200"
       orientation="0,1"
       id="guide8"
       inkscape:locked="false" />
  </sodipodi:namedview>
  <metadata
     id="metadata753">
    <rdf:RDF>
      <cc:Work
         rdf:about="">
        <dc:format>image/svg+xml</dc:format>
        <dc:type
           rdf:resource="http://purl.org/dc/dcmitype/StillImage" />
        <dc:title />
      </cc:Work>
    </rdf:RDF>
  </metadata>
  <g
     inkscape:label="Layer 1"
     inkscape:groupmode="layer"
     id="layer1"
     transform="translate(0,-32.41664)"
     style="display:inline">
    <path
       style="fill:#000000;stroke-width:12.26052284"
       d="m 415.17969,38.939453 c -15.87861,1.15716 -25.86759,16.634485 -29.51172,30.75 -20.46284,72.747377 -13.91791,149.472337 -27.70508,223.160157 -2.44753,-35.33116 3.66169,-72.48194 -9.12305,-106.4668 -6.92659,-12.6091 -27.83543,-14.84509 -35.72461,-2.02148 -12.1042,15.51381 -12.02245,36.24654 -15.60351,54.71289 -4.62076,38.50695 -0.38244,78.2265 -10.96094,115.81055 -10.67937,17.66536 -32.63112,21.91833 -48.27734,33.75976 -15.22777,9.81601 -31.0333,24.23819 -31.74024,43.62305 -0.18191,15.13262 11.20282,31.98257 27.49219,31.875 20.91876,-0.98076 34.52981,-19.32757 51.18166,-29.40345 2.13491,-1.3632 10.96785,-7.30148 9.5117,-6.08874 -10.1344,8.67547 -12.20284,22.98702 -10.76088,35.57658 2.22752,36.69657 17.73519,71.96712 40.58705,100.43709 8.2482,8.29735 23.95617,11.2161 32.15625,1.32422 11.24131,-12.34811 9.1153,-30.58638 8.57331,-45.93372 -2.66358,-29.0341 -10.28692,-58.74887 -27.77643,-82.5155 -8.78427,-10.14265 -23.76328,-18.54095 -37.12891,-12.57031 46.90248,-29.05259 96.12267,-54.09881 145.96875,-77.65039 30.22266,-14.18517 62.14986,-25.46892 95.57334,-27.58662 44.76888,-4.40403 90.7587,1.12046 134.92471,-9.52471 10.88571,-2.60421 20.83472,-10.53013 23.10351,-21.89258 3.69007,-14.40961 -5.32431,-31.29541 -20.32617,-34.35547 -33.50082,-8.62795 -68.53096,-8.3076 -102.87878,-7.34721 -30.59515,0.76901 -61.63255,3.33057 -90.51963,14.18021 -0.75297,-1.82761 2.27249,-7.2737 3.38669,-10.36229 15.58973,-34.43933 51.40528,-57.50199 88.77809,-60.23197 23.92704,-3.05937 49.36067,0.65609 72.16137,-8.89108 8.61608,-3.70366 15.16254,-12.90538 12.89062,-22.51758 -3.11971,-19.32305 -21.14486,-32.21151 -38.47461,-38.38281 -32.75992,-11.22696 -69.03295,-3.99027 -99.71875,10.11133 -30.53852,14.40733 -55.24932,39.26184 -72.11103,68.28118 -8.17438,13.36213 -15.17083,27.4021 -21.82452,41.57038 -0.25738,-48.67645 3.0841,-98.20863 19.53321,-144.197265 4.84908,-18.986113 -0.98385,-42.417441 -19.12305,-52.320313 -4.94202,-3.049462 -10.67176,-5.063891 -16.5332,-4.912109 z M 68.818359,85.957031 C 50.343346,86.430606 40.56807,111.05784 50.759766,125.41602 c 17.862864,34.9711 45.211604,63.83807 72.089814,91.97789 17.93041,16.84907 40.30224,31.97275 65.72073,32.62171 12.95041,-0.46575 24.34578,-14.32975 19.51563,-27.05859 -4.14635,-13.68585 -15.31658,-23.5109 -22.97596,-35.18352 C 159.36475,154.98927 133.57446,120.91291 98.950016,96.929668 89.937527,91.076564 79.735617,86.293806 68.818359,85.957031 Z M 54.166016,330.94922 c -14.880102,0.3405 -24.168933,18.66581 -18.089844,31.5625 7.566767,30.35974 32.474876,51.73885 54.921974,71.62286 28.079924,23.24067 57.259874,46.11528 90.646384,61.20331 3.82378,0.84084 7.84917,0.57957 11.58985,-0.5332 -16.12567,16.65221 -28.71567,36.35239 -41.80318,55.39038 -32.9889,50.26705 -60.683074,104.01659 -83.165575,159.75415 -7.340743,20.1805 -13.063237,43.23099 -5.208984,64.10547 4.230239,9.61971 16.981121,15.28199 26.236328,9.17187 11.772681,-6.84456 15.461831,-20.91648 22.842651,-31.47586 31.37058,-56.42094 59.08946,-114.77097 87.40637,-172.75468 11.69425,-25.15801 23.74844,-50.37791 32.46192,-76.71282 1.26419,-10.71763 -9.46821,-21.72713 -20.34375,-17.9707 -1.5056,0.0376 -5.12629,1.97428 -5.27344,1.42773 7.29781,-9.84172 2.74121,-23.18911 -2.55023,-32.84905 -13.45116,-21.40535 -34.59156,-36.33399 -52.54544,-53.63007 -14.99889,-13.175 -28.35882,-28.05128 -42.42189,-42.09578 C 93.849993,343.36092 75.225285,331.27792 54.166016,330.94922 Z M 510.69141,484.39453 c -22.75855,3.20607 -37.81833,22.71771 -54.95951,35.94891 -50.20708,45.01742 -91.33462,100.66697 -148.06198,137.95148 -8.18643,1.63056 -17.00813,-4.11317 -24.72265,0.99024 -13.73112,6.08755 -17.17272,23.13267 -15.28321,36.66406 2.00673,16.52922 15.53742,32.52487 33.07422,32.4414 20.07967,0.4285 35.81243,-14.49237 51.23047,-25.16601 46.98897,-35.56681 88.71114,-77.6307 127.55865,-121.80025 18.89336,-22.69179 36.92583,-46.96746 47.23041,-74.87358 2.12456,-10.06198 -4.87391,-22.55902 -16.0664,-22.15625 z m 67.83398,19.81641 c -27.87459,4.03025 -48.55184,25.31189 -68.2524,43.5545 -20.08623,20.14279 -40.42619,43.03504 -46.44487,71.65448 -0.67336,16.95832 13.81879,28.94209 24.83985,39.68164 35.94774,33.36499 79.7165,56.49914 118.67791,85.81958 42.78929,29.81495 83.78971,62.82959 130.35724,86.7312 11.85596,5.37879 26.66499,10.30587 38.91211,3.45899 11.57253,-7.59943 13.16077,-26.40534 2.33454,-35.36708 -19.34222,-21.40261 -45.0796,-35.35298 -67.49469,-53.12902 -61.60772,-45.85903 -119.0101,-97.18371 -180.40625,-143.37109 25.79582,-23.26903 54.87978,-43.67524 75.80664,-71.77539 5.69985,-11.66297 -4.08971,-27.30744 -17.18945,-26.86523 -3.69361,-0.47486 -7.42563,-0.39585 -11.14063,-0.39258 z"
       id="path825"
       inkscape:connector-curvature="0" />
  </g>
</svg>
