<?xml version="1.0" encoding="UTF-8" standalone="no"?>
<!-- Created with Inkscape (http://www.inkscape.org/) -->

<svg
   xmlns:dc="http://purl.org/dc/elements/1.1/"
   xmlns:cc="http://creativecommons.org/ns#"
   xmlns:rdf="http://www.w3.org/1999/02/22-rdf-syntax-ns#"
   xmlns:svg="http://www.w3.org/2000/svg"
   xmlns="http://www.w3.org/2000/svg"
   xmlns:sodipodi="http://sodipodi.sourceforge.net/DTD/sodipodi-0.dtd"
   xmlns:inkscape="http://www.inkscape.org/namespaces/inkscape"
   width="1000"
   height="1000"
   viewBox="0 0 1000 1000"
   version="1.1"
   id="svg756"
   inkscape:version="0.92.3 (2405546, 2018-03-11)"
   sodipodi:docname="u7389.svg">
  <defs
     id="defs750" />
  <sodipodi:namedview
     id="base"
     pagecolor="#ffffff"
     bordercolor="#666666"
     borderopacity="1.0"
     inkscape:pageopacity="0.0"
     inkscape:pageshadow="2"
     inkscape:zoom="0.24748737"
     inkscape:cx="-816.696"
     inkscape:cy="70.94933"
     inkscape:document-units="px"
     inkscape:current-layer="layer1"
     showgrid="true"
     units="px"
     inkscape:window-width="1118"
     inkscape:window-height="864"
     inkscape:window-x="375"
     inkscape:window-y="92"
     inkscape:window-maximized="0"
     showguides="true"
     inkscape:guide-bbox="true"
     inkscape:snap-global="false">
    <inkscape:grid
       type="xygrid"
       id="grid758" />
    <sodipodi:guide
       position="240,200"
       orientation="0,1"
       id="guide8"
       inkscape:locked="false" />
  </sodipodi:namedview>
  <metadata
     id="metadata753">
    <rdf:RDF>
      <cc:Work
         rdf:about="">
        <dc:format>image/svg+xml</dc:format>
        <dc:type
           rdf:resource="http://purl.org/dc/dcmitype/StillImage" />
        <dc:title />
      </cc:Work>
    </rdf:RDF>
  </metadata>
  <g
     inkscape:label="Layer 1"
     inkscape:groupmode="layer"
     id="layer1"
     transform="translate(0,-32.41664)"
     style="display:inline">
    <path
       style="fill:#000000;stroke-width:18.69698715"
       d="m 582.12891,37.054688 c -66.27447,1.560175 -132.2983,10.572119 -197.86036,20.588219 -47.0395,7.916325 -94.36543,15.536041 -139.94433,30.019202 -12.74665,3.481747 -23.84252,11.359354 -31.59766,22.031251 -13.0146,17.39567 -23.92607,37.52049 -26.56445,59.34961 -0.57195,4.5199 0.74592,11.96163 6.89062,10.82617 45.23853,-9.66477 89.75826,-22.62336 134.46313,-34.61504 48.31234,-12.916 96.16497,-27.77337 145.07649,-38.30858 8.92816,-1.80045 18.00132,-2.79078 27.10101,-3.10763 -10.63124,11.40624 -10.47292,28.26203 -12.97569,42.70168 -6.15158,50.86936 -9.9344,102.17664 -20.71767,152.35887 -28.04425,19.32692 -62.1071,26.24359 -93.57648,37.93246 -43.73382,15.36526 -88.7764,28.28921 -134.91766,33.94644 -16.57701,1.80427 -35.11393,-1.53286 -49.39258,8.9961 -9.79868,8.5171 -10.3482,22.95421 -8.54297,34.88672 3.67658,17.17129 21.76918,25.32494 37.53711,27.87695 37.5428,5.74815 75.14811,-3.22596 111.1875,-13.96484 40.26147,-12.40631 78.26191,-31.46407 118.58203,-43.83985 5.99153,-2.75578 7.05057,0.0589 5.11444,5.82388 -16.71957,93.07663 -34.93589,185.92343 -56.1479,278.08823 -5.99621,23.50501 -10.65305,47.6039 -20.05638,70.05469 -4.34668,8.75643 -15.33623,10.40617 -23.6543,13.42187 -39.41077,10.29176 -80.24738,14.37384 -120.87653,15.7228 -21.1152,0.24239 -43.92577,0.5932 -62.34612,-11.34194 -5.49385,-2.90529 -6.12167,-10.48913 -1.62696,-14.59765 13.32871,-13.66641 31.12192,-21.78804 46.98952,-32.0345 19.15496,-12.50195 38.75922,-26.65185 51.06712,-46.11785 5.11081,-8.50306 3.383,-21.24901 -4.18554,-27.67773 -10.91401,-5.47851 -22.4221,2.84568 -30.7786,9.46758 -11.3848,9.43742 -19.22652,22.76397 -32.62622,29.87558 -34.63631,20.44467 -78.74264,20.51994 -109.724089,47.52598 -14.795118,12.53606 -32.515012,23.22553 -41.925782,41.01758 -8.559887,15.75144 -3.497392,35.23566 5.742188,49.47656 11.226685,14.13119 30.684105,16.44456 47.36708,19.10998 51.866143,5.74191 104.596683,2.86493 156.812253,0.92618 70.54938,-2.70333 140.71976,-13.37008 209.26012,-30.29983 33.88598,-6.86071 66.91118,-17.15746 99.62711,-28.47336 31.27659,-10.79092 64.00703,-17.82296 93.41632,-33.50955 22.82777,-12.07655 46.88047,-26.41039 59.5386,-49.75928 4.7365,-8.99869 5.98829,-19.71775 3.06641,-29.39648 22.61862,-0.4254 43.88214,-16.69727 50.95508,-37.9375 2.07958,-11.48138 -5.77592,-21.81329 -11.28907,-31.19532 -22.00234,-31.7624 -50.25828,-59.19654 -82.14258,-81.11328 -17.05508,-10.52732 -35.35081,-20.82431 -55.50781,-23.22265 -7.14393,-1.24485 -15.92107,2.81484 -15.75195,10.97461 0.0788,17.29517 10.31208,32.6 18.80504,46.84538 20.48359,30.80428 45.12097,58.55658 67.57934,87.89869 4.46164,5.63355 8.92412,11.26643 13.38515,16.90046 -56.84584,23.18402 -113.17904,48.52771 -172.98285,63.32007 -24.40923,6.35972 -49.06007,11.72191 -73.69098,17.14282 8.34644,-34.96516 12.78766,-70.72794 19.36588,-106.06645 11.55546,-68.8034 28.1841,-136.61746 40.74805,-205.23438 3.86356,-20.2209 7.50312,-40.48362 11.24935,-60.72652 13.51809,-9.92382 30.77965,-15.95522 47.57813,-12.38086 18.69906,0.62194 33.59183,-14.2257 43.04188,-28.85839 7.49889,-12.48619 14.28535,-28.63637 8.18859,-43.03614 -6.36992,-11.95602 -22.00181,-13.04865 -34.03125,-12.71484 -18.50012,0.59626 -34.26236,12.51591 -52.57422,14.15234 3.48852,-49.33737 13.53731,-98.05093 11.88672,-147.58984 -0.28064,-9.75148 -0.95487,-19.59881 -1.68946,-29.343751 23.18283,-2.048663 46.39628,-3.821598 69.6875,-3.726562 17.49998,-1.223038 37.76989,-5.318847 48.17579,-20.867188 8.10765,-12.129807 -1.74368,-28.104927 -14.60547,-31.464843 -18.84718,-5.039209 -38.56858,-4.292669 -57.875,-6.431641 -5.73496,-0.294884 -11.52093,-0.344439 -17.30664,-0.304687 z"
       id="path20"
       inkscape:connector-curvature="0" />
  </g>
</svg>
