<?xml version="1.0" encoding="UTF-8" standalone="no"?>
<!-- Created with Inkscape (http://www.inkscape.org/) -->

<svg
   xmlns:dc="http://purl.org/dc/elements/1.1/"
   xmlns:cc="http://creativecommons.org/ns#"
   xmlns:rdf="http://www.w3.org/1999/02/22-rdf-syntax-ns#"
   xmlns:svg="http://www.w3.org/2000/svg"
   xmlns="http://www.w3.org/2000/svg"
   xmlns:sodipodi="http://sodipodi.sourceforge.net/DTD/sodipodi-0.dtd"
   xmlns:inkscape="http://www.inkscape.org/namespaces/inkscape"
   width="1000"
   height="1000"
   viewBox="0 0 1000 1000"
   version="1.1"
   id="svg756"
   inkscape:version="0.92.3 (2405546, 2018-03-11)"
   sodipodi:docname="u751f.svg">
  <defs
     id="defs750" />
  <sodipodi:namedview
     id="base"
     pagecolor="#ffffff"
     bordercolor="#666666"
     borderopacity="1.0"
     inkscape:pageopacity="0.0"
     inkscape:pageshadow="2"
     inkscape:zoom="0.35"
     inkscape:cx="234.15731"
     inkscape:cy="578.92372"
     inkscape:document-units="px"
     inkscape:current-layer="layer1"
     showgrid="true"
     units="px"
     inkscape:window-width="1118"
     inkscape:window-height="864"
     inkscape:window-x="139"
     inkscape:window-y="94"
     inkscape:window-maximized="0"
     showguides="true"
     inkscape:guide-bbox="true">
    <inkscape:grid
       type="xygrid"
       id="grid758" />
    <sodipodi:guide
       position="240,200"
       orientation="0,1"
       id="guide8"
       inkscape:locked="false" />
  </sodipodi:namedview>
  <metadata
     id="metadata753">
    <rdf:RDF>
      <cc:Work
         rdf:about="">
        <dc:format>image/svg+xml</dc:format>
        <dc:type
           rdf:resource="http://purl.org/dc/dcmitype/StillImage" />
        <dc:title></dc:title>
      </cc:Work>
    </rdf:RDF>
  </metadata>
  <g
     inkscape:label="Layer 1"
     inkscape:groupmode="layer"
     id="layer1"
     transform="translate(0,-32.41664)"
     style="display:inline">
    <path
       style="fill:#000000;stroke-width:15.33371925"
       d="m 584.76562,37.126953 c -21.63743,-0.168463 -39.04031,18.137043 -44.72265,37.863281 -8.35617,12.754325 -25.5871,13.117077 -39.19922,14.017578 -37.86524,2.422237 -76.47415,-6.197319 -113.89844,2.658204 -15.2108,5.384635 -24.52552,20.996014 -25.6967,36.597104 -4.17465,21.87341 -2.43548,44.65604 -6.97322,66.17047 -6.45361,5.15788 -14.21947,8.51418 -20.98673,13.29093 -32.13932,18.96433 -64.96523,37.27448 -98.47616,53.58993 -1.1147,-0.64329 3.28826,-6.18878 4.23047,-8.54687 24.93315,-43.02106 58.15979,-81.87988 74.57226,-129.43946 2.70596,-10.35555 -5.13722,-22.07585 -16.17382,-22.20117 -16.34804,-1.751271 -29.58939,10.66292 -40.90266,20.66005 -29.65947,27.94123 -52.002,62.44543 -74.22068,96.30351 -47.12064,75.16074 -84.48467,155.79583 -124.614945,234.75715 -10.099034,21.25155 -21.080855,42.68956 -25.439453,65.99218 -0.718246,10.4176 7.617571,21.0071 18.503906,20.57813 22.196101,2.45319 42.220333,-12.48639 54.150382,-30.01364 19.75453,-27.17117 29.03509,-60.92202 51.90177,-85.86862 46.65074,-58.84581 108.48036,-105.17502 177.59824,-134.38141 6.14276,-2.87133 12.24766,-5.83059 18.23633,-9.01368 2.62758,79.85847 2.70795,160.00377 -4.71094,239.56836 -20.74458,-2.79603 -43.9336,-2.40489 -61.73438,9.9336 -11.26889,8.86617 -15.70866,26.34484 -7.14453,38.53125 11.07043,18.7154 33.95065,24.91117 54.0293,28.11133 4.42518,0.76306 8.86233,1.45166 13.29102,2.19336 -2.00806,24.65607 -0.83165,49.49409 -3.28321,74.06836 -3.1845,15.87434 -15.28574,28.11396 -28.99414,35.80078 -20.97292,13.66822 -44.16608,25.17151 -69.12304,28.58951 -14.52159,-0.44087 -31.59982,0.66813 -41.39844,12.889 -10.38398,12.27669 -8.92898,31.09777 0.50297,43.50189 9.64392,14.23654 23.61518,25.02405 37.8525,34.31452 21.69737,10.82608 46.69527,5.46223 69.77122,4.17444 46.17283,-4.16903 92.40094,-10.46624 136.805,-24.24339 76.42879,-22.84998 148.30461,-59.13611 215.44607,-101.86153 10.36021,-7.17607 21.70436,-14.25242 28.79021,-24.88983 3.67127,-8.34956 -3.50864,-19.20211 -12.8711,-17.75196 -16.84921,-0.14837 -32.54344,7.07896 -48.58203,11.26367 -71.89455,23.19413 -140.71888,56.55199 -214.65234,72.85938 -8.93825,-31.20161 -2.91113,-64.01696 -3.44187,-95.9659 0.49299,-15.97425 0.98598,-31.94851 1.47898,-47.92277 23.39088,6.45783 48.78296,9.7254 68.64843,24.85547 14.70032,9.53199 37.14436,8.51865 48.14063,-6.16797 6.26969,-8.26399 4.48181,-19.23622 4.2315,-28.8795 -0.91333,-12.49349 -7.32862,-24.96655 -18.83306,-30.73964 -21.21927,-12.41801 -46.66896,-12.78988 -69.84281,-19.11246 -10.72974,-2.36476 -21.57373,-5.0871 -32.04977,-8.41684 3.60131,-54.64042 5.21539,-109.38216 6.47316,-164.11414 2.12541,-46.37833 6.39311,-92.66492 9.36668,-139.02453 58.58585,-39.02602 119.73441,-74.36878 176.14614,-116.60864 11.63207,-9.64296 24.36976,-20.89593 27.29527,-36.438237 0.93359,-14.971193 -11.4926,-26.373682 -22.99219,-33.894531 -7.91185,-4.888238 -17.14891,-7.870862 -26.50391,-7.636719 z M 460,120.41664 c 2.19381,0.17413 45.94755,-0.79706 40,2 -8.565,5.43662 -57.2023,28.4677 -65,35 0.20246,-6.08527 -2.9152,-33.36914 5,-35 3.68781,-1.20414 16.16187,-2.30464 20,-2 z M 343.7207,722.4043 c 0.19422,7.74329 2.2368,30.23594 3.12696,37.26953 -10.47059,-0.18203 -36.39708,-1.27579 -46.84766,-2.25719 8.40201,-8.06466 33.21408,-30.52828 43.7207,-35.01234 z"
       id="path825"
       inkscape:connector-curvature="0"
       sodipodi:nodetypes="ccccccccccccccccccccccccccccccccccccccccccccccccccccscccscccc" />
  </g>
</svg>
