<?xml version="1.0" encoding="UTF-8" standalone="no"?>
<!-- Created with Inkscape (http://www.inkscape.org/) -->

<svg
   xmlns:dc="http://purl.org/dc/elements/1.1/"
   xmlns:cc="http://creativecommons.org/ns#"
   xmlns:rdf="http://www.w3.org/1999/02/22-rdf-syntax-ns#"
   xmlns:svg="http://www.w3.org/2000/svg"
   xmlns="http://www.w3.org/2000/svg"
   xmlns:sodipodi="http://sodipodi.sourceforge.net/DTD/sodipodi-0.dtd"
   xmlns:inkscape="http://www.inkscape.org/namespaces/inkscape"
   width="1000"
   height="1000"
   viewBox="0 0 1000 1000"
   version="1.1"
   id="svg756"
   inkscape:version="0.92.3 (2405546, 2018-03-11)"
   sodipodi:docname="u79d2.svg">
  <defs
     id="defs750" />
  <sodipodi:namedview
     id="base"
     pagecolor="#ffffff"
     bordercolor="#666666"
     borderopacity="1.0"
     inkscape:pageopacity="0.0"
     inkscape:pageshadow="2"
     inkscape:zoom="0.49497475"
     inkscape:cx="-122.19361"
     inkscape:cy="757.96148"
     inkscape:document-units="px"
     inkscape:current-layer="layer1"
     showgrid="true"
     units="px"
     inkscape:window-width="1118"
     inkscape:window-height="864"
     inkscape:window-x="537"
     inkscape:window-y="91"
     inkscape:window-maximized="0"
     showguides="true"
     inkscape:guide-bbox="true">
    <inkscape:grid
       type="xygrid"
       id="grid758" />
    <sodipodi:guide
       position="240,200"
       orientation="0,1"
       id="guide8"
       inkscape:locked="false" />
  </sodipodi:namedview>
  <metadata
     id="metadata753">
    <rdf:RDF>
      <cc:Work
         rdf:about="">
        <dc:format>image/svg+xml</dc:format>
        <dc:type
           rdf:resource="http://purl.org/dc/dcmitype/StillImage" />
        <dc:title />
      </cc:Work>
    </rdf:RDF>
  </metadata>
  <g
     inkscape:label="Layer 1"
     inkscape:groupmode="layer"
     id="layer1"
     transform="translate(0,-32.41664)"
     style="display:inline">
    <path
       style="fill:#000000;stroke-width:8.95416164"
       d="m 296.93945,31.523438 c -12.8307,0.563362 -24.4162,9.446749 -28.71208,21.526338 -40.68165,75.355374 -89.4957,150.749254 -134.9714,223.336144 -13.42014,20.71336 -29.31951,40.95652 -35.37706,65.33869 -2.4867,10.0867 16.09244,17.54089 24.92187,18.92969 22.49198,3.89085 45.12852,-3.63868 65.82031,-11.82227 10.52276,-3.85351 21.76346,-9.2458 33.15821,-6.58984 4.53472,2.80148 -1.24805,8.50055 -3.51758,11.0957 -13.605,13.46968 -32.63104,20.00478 -45.39063,34.54492 -4.36357,4.42489 -8.07119,9.9148 -8.35156,16.26367 -5.81398,8.62901 -17.54354,7.51964 -26.66992,8.06641 -21.55563,1.46422 -42.98588,19.14401 -54.492188,35.69531 -16.74052,24.81345 -30.533879,51.54951 -43.050734,78.69579 -4.785701,10.0041 -5.496781,21.96242 -0.203233,31.93566 7.727169,15.43242 21.406109,31.66295 33.966857,43.81387 4.75903,4.61553 10.15696,-1.7365 13.84961,-4.50977 29.830178,-27.13259 56.721528,-57.37514 82.660778,-88.19849 5.66627,-7.76479 13.19131,-14.83419 16.35094,-24.07104 -0.37641,-4.39946 6.19157,-8.77108 9.65625,-5.83789 4.62641,11.3413 -4.2301,40.81953 -4.58789,52.68031 -5.76009,68.87538 -16.27003,119.40732 -23.93371,188.03696 -2.24902,25.88759 -5.18504,52.92547 3.04113,78.08937 3.77765,10.64029 11.70306,19.95349 21.60938,25.32226 8.60261,3.15933 15.24016,-5.77592 20.44336,-11.0957 10.5044,-11.29781 21.19896,-23.82409 23.42773,-39.68359 4.9763,-30.88589 7.09595,-62.36453 7.42394,-93.52135 -1.08108,-57.67201 1.44728,-105.79103 12.12022,-162.58173 1.09868,-2.55263 0.54378,-7.20888 3.01248,-8.61567 12.48341,3.32536 18.03464,9.86292 30.79102,12.54687 21.88073,5.09976 44.16648,10.4656 66.76604,10.11068 24.97558,-2.15048 53.36033,-19.58771 73.68005,-34.1994 6.27944,-4.69678 9.80717,-14.01634 6.58906,-22.63784 -2.15709,-8.27851 -12.34671,-9.16628 -19.22461,-6.9707 -11.86052,2.09957 -21.24883,11.9215 -33.49023,12.00586 -7.43095,-0.82154 -5.33898,-10.21673 -2.83789,-14.80274 7.65966,-15.21967 23.25104,-25.10213 29.125,-41.53711 1.42579,-10.26883 10.13959,-17.61585 16.18995,-25.42888 22.15261,-23.94514 46.19679,-46.58479 73.50731,-64.57112 4.97544,-2.95632 11.94412,-7.73896 17.0625,-2.33203 12.59999,12.33209 17.67022,30.02297 23.7375,46.03937 7.14553,21.09483 13.2447,43.87614 28.51641,60.79462 5.06413,6.04396 15.03461,9.29592 21.26172,3.05468 10.30017,-10.5312 16.22411,-26.17333 18.55078,-40.05273 3.82697,-27.31995 1.69,-55.01159 1.21094,-82.37305 -0.62566,-8.22305 6.43114,-10.54805 12.78906,-11.46289 20.2686,-3.44434 38.21212,-8.5736 58.17188,-13.3164 6.68223,-1.64358 14.00807,3.81272 12.12304,11.02343 -2.16513,14.37123 -15.79291,22.2784 -22.23242,34.44922 -22.78365,35.87828 -39.07542,75.29024 -59.93555,112.23172 -33.9624,62.67637 -70.76667,123.75598 -106.67431,185.32455 -22.3571,38.55853 -47.70493,75.38049 -67.87447,115.1874 -22.49624,39.98428 -48.78117,78.02693 -66.44198,120.59155 -5.68708,14.60997 -12.67553,29.67814 -12.15963,45.68041 1.12445,7.59166 7.25795,17.6981 16.24024,15.19336 10.82374,-4.37733 15.46154,-16.47762 19.63476,-26.49805 2.35644,-8.08813 5.47969,-16.08619 11.9961,-21.79492 22.28897,-22.59504 50.36569,-40.75269 65.13663,-69.77209 19.56516,-32.8304 37.44332,-66.75042 55.39757,-100.36419 19.209,-33.13014 44.13104,-62.39799 66.61684,-93.25251 33.81643,-58.6435 71.52199,-114.86001 107.75158,-171.99555 29.534,-48.35596 58.29439,-97.69697 78.4255,-150.83051 4.5307,-13.85291 10.23544,-28.30705 8.67969,-43.13086 -3.67392,-14.8387 -18.67854,-22.85306 -32.04688,-27.50976 -14.28242,-5.36336 -29.88226,-4.12396 -44.39453,-0.40039 -21.69725,4.53217 -41.37932,15.35862 -63.13027,19.63491 -16.40506,3.63066 -21.19089,6.99549 -38.15684,6.05454 -5.61675,-2.3015 -10.00559,-10.20976 -11.5332,-14.96484 -4.497,-28.60114 -7.52286,-56.2436 -15.10302,-84.12335 -7.43345,-23.342 -13.70396,-48.03717 -28.72315,-67.882512 -8.85461,-11.858323 -37.1728,-16.987825 -51.30274,-13.238282 -8.17424,3.876941 -10.0189,14.699035 -9.20865,21.956533 8.36931,46.078061 23.66408,90.572111 33.05045,136.420421 2.27151,12.01847 5.48725,24.03368 5.57031,36.23242 -13.90642,-6.19268 -20.7241,-17.69526 -31.80859,-27.78515 -14.38893,-13.41214 -29.78196,-27.98787 -49.5293,-32.51368 -10.10536,-2.58146 -20.82981,3.71446 -23.80859,13.64063 -2.30825,5.46358 -6.02469,14.68432 -13.375,12.59765 -9.16976,-6.79038 -9.74637,-19.71248 -10.4031,-30.20869 -0.19774,-36.20613 -14.12863,-71.50947 -34.91526,-100.77959 -10.2889,-13.34947 -23.00975,-27.908303 -40.64453,-30.482419 -6.22445,0.25424 -7.3898,-0.823476 -7.18945,-9.054687 -0.81193,-9.155048 4.36822,-20.633144 -3.4336,-28.003906 -3.63425,-3.031095 -16.66212,-3.419068 -21.19922,-3.34375 z m 44.98633,85.882812 c 8.20174,2.36438 10.34046,12.44209 12.71466,19.40109 5.50586,22.24154 7.10354,45.4426 6.18962,68.23158 -0.26994,13.32372 -8.46781,25.23003 -19.97459,31.72085 -10.53979,6.54048 -22.27251,13.53905 -35.12891,12.8164 C 315,217.41664 312.73068,207.0166 320,172.41664 c 2.64312,-12.58051 6.83811,-45.69802 17.48633,-53.78187 1.32568,-0.80231 2.86823,-1.37013 4.43945,-1.22852 z m -84.33203,65.10352 c -0.49211,29.4957 -6.1084,58.41147 -12.24414,87.24609 -2.04466,8.19057 -5.17989,16.17188 -9.01563,23.85937 -21.07773,6.49242 -41.64052,15.02943 -63.64648,17.60157 -2.50862,0.47919 -4.90462,-0.59255 -3.15039,-3.42188 7.24586,-18.78962 20.4479,-34.77045 32.89453,-50.45312 10.58466,-13.0865 24.71456,-23.21644 32.79802,-38.30103 7.55926,-12.62871 14.40395,-25.7183 22.40901,-37.97632 l -0.0311,0.99952 z m 144.91992,72.93554 c 0.93394,8.06702 -2.39608,16.38687 -4.05754,24.42548 -10.87363,39.17061 -23.58111,78.15971 -40.55751,115.04223 -5.43611,10.54572 -12.79161,21.94747 -24.51581,25.99909 -6.05724,-0.64956 -12.82882,3.09901 -12.78711,9.80859 -0.61415,12.47081 7.08262,25.03316 1.15235,37.10938 -4.71351,4.87125 -12.86479,0.45126 -18.09754,-0.98828 -14.56406,-6.23023 -25.31345,-14.31779 -35.16613,-27.10547 -3.98531,-5.14812 1.24804,-11.0599 1.50813,-16.5746 6.48733,-29.64013 11.65407,-58.59688 19.31804,-87.94298 2.14609,-9.1593 4.4599,-18.33279 5.45117,-27.70508 22.55134,-11.91144 45.84574,-22.39485 70.61905,-28.72472 12.13059,-4.36514 25.45075,-7.89045 35.13095,-16.81043 1.89022,-1.73405 0.9485,-4.67561 2.00195,-6.53321 z m 65.1543,-0.0234 c 11.75199,1.41049 21.00964,11.16034 26.18164,21.21289 2.10087,7.97326 -6.93963,12.94973 -11.7793,17.50585 -10.64102,8.04059 -21.92518,16.51665 -35.24609,19.22266 -6.14155,1.01382 -11.17306,-5.67202 -7.95899,-11.15234 2.68156,-6.39613 10.76152,-8.11863 12.91993,-14.95703 4.12842,-7.42413 3.11019,-16.08855 4.8164,-24.0586 1.38408,-4.84657 5.96209,-8.25338 11.06641,-7.77343 z M 127.29492,487.73047 c 4.69036,5.16244 0.88295,15.17446 -6.60156,13.78906 -4.92098,-1.09385 -0.80555,-7.00097 1.14258,-9.12305 1.54873,-1.72799 3.20912,-3.92195 5.45898,-4.66601 z"
       id="path825"
       inkscape:connector-curvature="0"
       sodipodi:nodetypes="ccccccccccccccccccccccccccccccccccccccccccccccccccccccccccccccccccccccccccccccccccccccccscccccccccccccccccccccccccccccccccccccc" />
  </g>
</svg>
