<?xml version="1.0" encoding="UTF-8" standalone="no"?>
<!-- Created with Inkscape (http://www.inkscape.org/) -->

<svg
   xmlns:dc="http://purl.org/dc/elements/1.1/"
   xmlns:cc="http://creativecommons.org/ns#"
   xmlns:rdf="http://www.w3.org/1999/02/22-rdf-syntax-ns#"
   xmlns:svg="http://www.w3.org/2000/svg"
   xmlns="http://www.w3.org/2000/svg"
   xmlns:sodipodi="http://sodipodi.sourceforge.net/DTD/sodipodi-0.dtd"
   xmlns:inkscape="http://www.inkscape.org/namespaces/inkscape"
   width="1000"
   height="1000"
   viewBox="0 0 1000 1000"
   version="1.1"
   id="svg756"
   inkscape:version="0.92.3 (2405546, 2018-03-11)"
   sodipodi:docname="u7dd1.svg">
  <defs
     id="defs750" />
  <sodipodi:namedview
     id="base"
     pagecolor="#ffffff"
     bordercolor="#666666"
     borderopacity="1.0"
     inkscape:pageopacity="0.0"
     inkscape:pageshadow="2"
     inkscape:zoom="0.98994949"
     inkscape:cx="449.42564"
     inkscape:cy="487.49104"
     inkscape:document-units="px"
     inkscape:current-layer="layer1"
     showgrid="true"
     units="px"
     inkscape:window-width="1118"
     inkscape:window-height="864"
     inkscape:window-x="557"
     inkscape:window-y="228"
     inkscape:window-maximized="0"
     showguides="true"
     inkscape:guide-bbox="true">
    <inkscape:grid
       type="xygrid"
       id="grid758" />
    <sodipodi:guide
       position="240,200"
       orientation="0,1"
       id="guide8"
       inkscape:locked="false" />
  </sodipodi:namedview>
  <metadata
     id="metadata753">
    <rdf:RDF>
      <cc:Work
         rdf:about="">
        <dc:format>image/svg+xml</dc:format>
        <dc:type
           rdf:resource="http://purl.org/dc/dcmitype/StillImage" />
        <dc:title />
      </cc:Work>
    </rdf:RDF>
  </metadata>
  <g
     inkscape:label="Layer 1"
     inkscape:groupmode="layer"
     id="layer1"
     transform="translate(0,-32.41664)"
     style="display:inline">
    <path
       style="fill:#000000;stroke-width:14.00715351"
       d="M 276.51367,32.855469 C 259.07959,35.603028 242.04845,45.1669 230.17095,56.592854 180.41461,110.69163 136.68497,169.89659 90.699219,227.14062 c -5.570699,8.40049 -14.029308,15.65765 -16.228516,25.81055 -3.314541,18.95678 15.161439,42.93788 29.527347,54.0293 11.06681,8.42887 25.19011,11.69018 38.84375,11.50586 6.6779,2.82363 2.61178,10.77596 1.5502,15.77728 -6.79277,22.49602 -19.19489,42.71273 -29.32754,63.7798 -17.54066,33.94745 -37.492262,67.75667 -45.123054,105.63432 -2.426689,16.23751 2.865344,33.46235 14.857422,44.85352 8.374771,9.74394 22.422592,16.96524 35.130862,11.51172 23.21715,-8.08636 40.66371,-26.35132 59.83116,-40.91068 13.41855,-11.09472 26.72415,-22.31939 40.11415,-33.45065 -0.60888,36.19392 2.75309,72.89935 -3.99609,108.47852 -3.10252,12.71822 -12.36567,23.76963 -24.96875,27.86914 -7.94167,3.73672 -20.20745,7.74737 -25.99219,-1.39844 -5.49002,-7.88819 -15.72583,-11.19711 -24.88281,-8.67383 -17.42406,5.01874 -28.94512,20.80878 -37.75586,35.70313 -13.961682,25.37731 -20.551809,54.08207 -34.299984,79.35476 -9.533712,20.8647 -26.177597,38.92427 -29.851714,62.24995 -2.525005,13.71946 0.112944,29.37144 9.831382,39.79177 5.180505,5.18539 13.285812,4.34176 18.904297,0.37695 12.071098,-7.31179 22.114892,-17.53303 32.134766,-27.34961 9.874093,-10.02659 17.502303,-22.68994 19.787113,-36.58593 8.85488,-24.14772 27.79686,-42.08865 42.60546,-62.43946 13.91777,26.89601 24.3091,56.96195 46.57422,78.46485 8.75365,8.37536 24.16778,13.06875 34.11133,4.07422 13.81689,-12.00009 14.29477,-31.92034 17.02678,-48.63939 3.02859,-21.61036 3.84291,-44.56132 14.69588,-64.08718 9.15308,-12.46305 25.85988,-6.70805 39.72348,-7.34819 32.97911,-1.82302 67.30756,2.12696 99.20035,-8.63032 6.92446,-2.62641 15.70133,-14.7504 12.8789,-23.29688 -3.71458,-10.70282 -16.25435,-13.22664 -25.54101,-17.02734 -22.52959,-6.85135 -46.16795,-9.30429 -69.56836,-10.88867 -10.39361,-0.56605 -20.91362,-0.95777 -31.14063,-1.87891 13.89223,-10.80398 14.51732,-30.07282 16.31852,-46.07851 3.75407,-42.67417 1.89885,-85.57969 2.60522,-128.35897 -0.001,-43.65548 0.35271,-87.342 0.79697,-130.97463 -2.70831,-10.64881 -15.27074,-20.20857 -26.125,-15.3125 -12.93802,7.09378 -18.67377,21.87105 -24.57032,34.5293 -6.43779,16.99686 -18.21492,31.53007 -29.13086,46.14844 -27.18333,40.08707 -50.94992,73.55725 -88.08984,104.9375 -2.22373,1.46028 -8.34486,6.87641 -9.89453,6.28515 6.09918,-20.52576 16.04914,-34.5693 26.44957,-53.09722 26.14723,-45.08803 58.34719,-86.31051 84.49214,-131.38247 6.70973,-12.40493 13.86078,-24.90851 17.94501,-38.44414 1.15851,-6.42984 -4.217,-12.59869 -10.78516,-12.28125 -18.43378,-1.77766 -35.70222,3.19617 -52.53881,9.29857 -17.14895,6.50168 -31.97591,15.41378 -50.29127,12.29323 -4.62657,-0.89407 -9.20586,-6.123 -5.16992,-10.46484 17.64021,-30.1211 43.57947,-51.97433 66.41288,-78.40855 28.85876,-32.87828 59.35687,-65.27278 80.29806,-104.019187 4.33287,-8.622965 1.63099,-23.001331 -5.9043,-30.800781 -4.18449,-3.833501 -10.14858,-4.974813 -15.65625,-4.814453 z m 256.00391,7.255859 c -54.82561,0.739992 -105.5965,32.030137 -138.77655,74.408602 -10.19298,12.8602 -22.17256,26.73705 -22.99298,43.90195 0.94404,8.60162 16.99844,19.32926 24.65097,16.01593 20.48299,-4.98479 34.62841,-23.64454 50.94535,-36.13618 24.7739,-20.02296 45.97637,-39.129025 78.54625,-44.338739 23.63192,-2.986466 43.46702,8.849019 58.58985,25.837889 20.82613,23.3477 31.78268,55.11576 17.75391,84.15039 -5.59558,11.85215 -17.78536,19.86836 -30.93114,20.02546 -21.6797,0.6771 -42.56214,7.33073 -63.1071,13.72523 -24.59878,8.58727 -49.14343,18.11656 -71.56733,31.49879 -6.46336,4.47583 -15.89326,10.35262 -14.13076,19.56302 1.60201,9.49565 11.53308,14.59574 20.47703,14.41224 22.03946,1.88546 43.488,-5.62759 64.1675,-12.22279 11.89994,-4.17704 24.97889,-9.37704 37.17187,-9.61914 -18.35459,18.66228 -44.68647,26.89172 -63.55859,45.12891 -5.2299,4.51528 -11.53345,13.00241 -5.91406,19.52149 7.87701,7.81327 20.33489,6.56633 30.49861,5.93435 25.2143,-2.99076 48.78552,-13.79902 70.94814,-25.66023 28.42091,-16.00659 52.64753,-40.18935 65.99856,-70.19991 C 661.28258,214.57008 668.0742,165.30465 653.9414,120.94472 636.3852,71.518772 584.42757,38.492752 532.51758,40.111328 Z M 667.69336,382.29688 c -71.15322,2.12513 -140.38187,22.03608 -203.8679,53.31212 -18.2155,8.05991 -37.42452,20.19664 -57.53444,20.94764 -7.05769,-0.30307 -13.97134,-2.28265 -9.00196,-8.80859 8.38283,-14.88564 23.66017,-23.94701 36.13745,-35.02524 4.48466,-4.38271 11.00977,-8.64069 11.99341,-15.15836 -0.79326,-6.40041 -9.33975,-7.03635 -13.69295,-3.85862 -30.14467,11.06035 -63.26303,29.02989 -80.69572,56.22972 -10.24225,15.60077 -18.56891,34.877 -14.45898,53.82617 3.12381,12.34475 17.06909,28.23391 30.83398,30.18945 16.44122,1.93042 31.79314,-6.42606 46.72563,-11.97836 39.36175,-16.56865 76.70562,-38.42448 117.50093,-50.97086 8.81222,33.34962 7.30555,67.81291 10.3418,102.04883 1.75712,30.92608 -1.73828,88.57617 -1.73828,88.57617 0,0 -61.47312,47.98726 -90.72535,65.65142 -9.82637,4.90256 -19.11497,12.21592 -30.06176,14.04585 -1.43538,-5.0776 5.31993,-8.13271 8.29101,-11.51172 27.99878,-25.92624 65.69168,-41.17116 88.16993,-73.08594 12.66383,-16.49962 19.5355,-40.76654 8.34961,-59.81445 -7.92733,-13.78893 -20.52333,-25.61528 -35.73633,-30.70508 -9.45955,-2.37165 -20.19883,4.06899 -21.00391,14.16016 -2.97779,14.84406 7.51599,29.78647 0.93555,44.28711 -9.36353,28.59363 -32.76391,49.24817 -51.34439,71.75005 -24.16476,27.52851 -49.8942,53.98801 -70.66928,84.25385 -4.09484,6.554 -3.07923,16.89417 5.08643,19.72857 16.75762,8.85496 36.87321,8.22986 54.34973,1.88244 42.11749,-15.71533 79.63643,-41.15135 117.60986,-64.73705 4.54773,-2.8766 9.11861,-5.75059 13.66882,-8.5888 -6.77662,23.8542 -14.9104,50.28759 -5.15039,74.52539 5.10506,12.51545 16.39592,25.24166 30.91602,24.8457 12.74318,-1.88532 18.97653,-15.24445 21.9707,-26.38867 10.05822,-32.17591 1.87126,-67.03617 11.89062,-99.08789 2.29245,-6.93146 10.16243,-12.3819 17.16211,-8.49219 17.74874,7.08816 28.59162,25.03653 46.55469,32.16602 35.88528,16.85012 78.29706,18.86839 115.99713,7.04209 9.4335,-3.48056 21.71092,-7.4407 23.86615,-18.77647 1.93846,-10.66959 -8.93505,-17.64795 -17.51367,-20.95703 -24.5598,-9.33951 -52.35901,-1.86311 -76.22231,-13.92026 -10.25739,-4.463 -22.40612,-12.34355 -23.23668,-24.73013 2.14684,-14.08353 14.6391,-22.97657 23.20518,-33.2713 19.8433,-20.74425 42.46851,-39.98269 56.75576,-65.28339 3.25331,-10.80614 -8.23247,-21.16089 -18.79101,-19.13085 -22.72827,0.52899 -43.14296,12.3477 -62.40741,23.2115 -27.52333,17.1333 -50.75718,40.27477 -78.55548,57.00334 -4.44601,-44.20166 1.43973,-88.68766 3.5957,-132.9375 0.92014,-3.4376 -0.8324,-7.4305 0.35156,-10.5586 30.15388,3.16824 64.82034,12.88935 93.98047,-0.0234 18.80145,-7.44988 37.06742,-28.0542 35.10547,-49.26563 -0.47136,-12.95537 -12.93552,-35.48823 -25.73617,-39.00637 -13.73282,-5.28583 -28.70286,-3.34539 -43.20133,-3.61081 z m 2.72852,46.14257 c 3.4151,0.0507 9.82211,1.44375 9.12304,5.68164 -11.39909,7.69511 -25.73443,6.24339 -38.77532,7.23474 -6.17497,0.0719 -12.22629,-0.0263 -18.37116,-0.56481 15.2436,-6.37265 31.33291,-12.06971 48.02344,-12.35157 z m -412.36329,5.85547 c 4.86405,10.11656 4.17616,21.89901 5.04493,32.8125 0.24594,11.86221 -0.64528,23.77022 -3.21094,35.23633 -1.07322,-15.19785 -3.22294,-30.24913 -6.31207,-45.16144 -1.14954,-7.89074 -1.2883,-16.96742 4.13043,-23.42645 z m -53.89062,242.88281 c 7.02212,4.21825 13.76303,11.28807 14.81445,19.38672 -5.38766,1.9277 -9.56141,-4.25702 -12.21094,-8.21679 -2.06231,-3.48786 -3.34835,-7.49883 -3.30468,-11.57422 z"
       id="path836"
       inkscape:connector-curvature="0"
       sodipodi:nodetypes="ccccccccccccccccccccccccccccccccccccccccccccccccccccccccccccccccccccccccccccccccccccccccccccccccccccccccccccccccccccccccccccccccccccccccccccccc" />
  </g>
</svg>
