<?xml version="1.0" encoding="UTF-8" standalone="no"?>
<!-- Created with Inkscape (http://www.inkscape.org/) -->

<svg
   xmlns:dc="http://purl.org/dc/elements/1.1/"
   xmlns:cc="http://creativecommons.org/ns#"
   xmlns:rdf="http://www.w3.org/1999/02/22-rdf-syntax-ns#"
   xmlns:svg="http://www.w3.org/2000/svg"
   xmlns="http://www.w3.org/2000/svg"
   xmlns:sodipodi="http://sodipodi.sourceforge.net/DTD/sodipodi-0.dtd"
   xmlns:inkscape="http://www.inkscape.org/namespaces/inkscape"
   width="1000"
   height="1000"
   viewBox="0 0 1000 1000"
   version="1.1"
   id="svg756"
   inkscape:version="0.92.3 (2405546, 2018-03-11)"
   sodipodi:docname="u897f.svg">
  <defs
     id="defs750" />
  <sodipodi:namedview
     id="base"
     pagecolor="#ffffff"
     bordercolor="#666666"
     borderopacity="1.0"
     inkscape:pageopacity="0.0"
     inkscape:pageshadow="2"
     inkscape:zoom="0.35"
     inkscape:cx="-300.61676"
     inkscape:cy="267.18911"
     inkscape:document-units="px"
     inkscape:current-layer="layer1"
     showgrid="true"
     units="px"
     inkscape:window-width="1118"
     inkscape:window-height="864"
     inkscape:window-x="-205"
     inkscape:window-y="80"
     inkscape:window-maximized="0"
     showguides="true"
     inkscape:guide-bbox="true">
    <inkscape:grid
       type="xygrid"
       id="grid758" />
    <sodipodi:guide
       position="240,200"
       orientation="0,1"
       id="guide8"
       inkscape:locked="false" />
  </sodipodi:namedview>
  <metadata
     id="metadata753">
    <rdf:RDF>
      <cc:Work
         rdf:about="">
        <dc:format>image/svg+xml</dc:format>
        <dc:type
           rdf:resource="http://purl.org/dc/dcmitype/StillImage" />
        <dc:title />
      </cc:Work>
    </rdf:RDF>
  </metadata>
  <g
     inkscape:label="Layer 1"
     inkscape:groupmode="layer"
     id="layer1"
     transform="translate(0,-32.41664)"
     style="display:inline">
    <path
       style="fill:#000000;stroke-width:18.98862267"
       d="M 66.868869,860.60241 C 49.815206,840.054 48.793288,816.03021 63.022189,770.1723 73.679271,735.82594 87.956395,669.27242 94.749141,622.27556 118.98724,454.58008 142.16423,390.40464 174.068,402.64726 c 29.71406,11.40234 39.35495,-12.54599 64.71919,-37.98975 13.05518,-58.84572 20.64312,-118.72741 35.05379,-175.48491 9.24249,-36.07007 13.08054,-50.9121 19.02965,-74.48767 -18.60202,5.47118 -50.09343,18.219 -100.22843,43.63322 C 142.50719,183.73238 86.29607,212.63951 72.699438,204.52586 16.1117,170.75768 46.556897,171.61496 95.309213,142.5648 140.53774,115.61438 211.37405,84.703998 279.71831,62.171625 326.96263,46.59569 373.01612,39.356172 408.5967,35.862709 522.02631,24.725676 551.49969,58.404895 523.14762,160.50626 c -16.0309,57.73048 -17.41176,81.74522 -26.81955,118.98522 28.9061,-0.40986 57.87419,-3.9253 98.00891,6.1856 44.38591,11.18188 72.82979,29.10002 91.10635,37.07562 4.02878,1.75809 23.94152,15.90707 34.77392,32.15566 5.41619,-27.08098 26.44501,-72.45915 28.22393,-117.89809 1.43478,-36.64651 5.64673,70.17001 0,148.86131 38.1439,83.79459 27.48552,122.23777 24.32203,154.10343 -7.61294,76.68505 -78.17784,191.96296 -151.74427,237.42953 -73.16274,45.21707 -308.10223,73.70314 -308.10223,37.35699 0,-12.21332 30.92273,-21.76944 71.20734,-22.00538 154.65953,-0.90575 308.30592,-122.92771 308.49414,-244.9979 0,0 4.32654,-23.98274 0.071,-46.03439 l -47.67477,44.78812 c -21.32182,20.0308 -43.57376,36.60083 -62.18143,45.90466 18.60767,-9.30383 31.40668,9.32829 37.80221,13.28094 31.54872,19.49817 -58.4432,52.91912 -203.28104,75.49393 -62.66247,9.76675 -133.33038,27.6771 -157.03983,39.8008 -33.27722,17.01611 -48.43358,16.64257 -66.46017,-1.63796 -38.36778,-38.90814 28.37559,-71.73148 175.29834,-86.20884 84.74938,-8.35098 118.7814,-19.33005 146.6929,-23.98197 -27.9115,-3.72154 -39.2754,-13.12098 -52.06633,-25.91192 -26.73353,-26.73353 -36.9306,-63.14566 -36.9306,-131.87367 0,-44.28178 0.89421,-78.05453 3.0607,-105.13551 -45.49606,8.66592 -88.82563,35.7469 -137.5714,62.82789 -10.8324,54.16197 -31.93383,110.05611 -9.51288,132.47708 6.32466,6.32464 38.0441,-13.51237 70.48765,-44.08221 l 58.98827,-55.58156 -41.05563,81.62682 c -22.5806,44.89474 -53.59573,86.43888 -68.92249,92.32033 -37.81509,14.51101 -84.16285,-27.15716 -85.18251,-76.58193 -1.348,-65.34237 -54.45334,99.12687 -68.13852,211.02781 C 135.32147,862.13675 103.55537,904.8069 66.868907,860.60241 Z M 633.35397,482.3054 c 17.02235,-15.86172 37.34376,-43.05912 48.9499,-56.98648 -7.35055,-24.37288 -26.29841,-43.96909 -40.61266,-52.86715 -30.5398,-18.9842 -73.549,-35.00556 -103.47181,-35.00556 -21.90812,0 -35.73326,1.21356 -47.75803,2.837 -3.14058,14.62515 -6.64706,37.54224 -6.64706,88.94134 0,50.47811 5.6966,97.47495 12.6591,104.43742 28.08102,28.08105 75.05107,6.25728 136.88056,-51.35657 z M 444.50777,222.83501 C 469.89012,108.76684 468.01285,90.594105 416.88415,90.594105 c -52.87437,0 -69.5022,33.093055 -93.72489,165.919155 -8.46752,46.43199 -13.50252,80.47035 -13.50252,80.47035 0,0 38.73801,-21.61376 61.17654,-30.89868 23.7067,-9.80966 40.66077,-10.75474 62.32555,-21.58712 5.4162,-21.66479 7.47812,-44.26742 11.34894,-61.6628 z"
       id="path20"
       inkscape:connector-curvature="0"
       sodipodi:nodetypes="sssscccsssssscsscccssssscscssscscsscccscssssssssscscsssssscss" />
  </g>
</svg>
