<?xml version="1.0" encoding="UTF-8" standalone="no"?>
<!-- Created with Inkscape (http://www.inkscape.org/) -->

<svg
   xmlns:dc="http://purl.org/dc/elements/1.1/"
   xmlns:cc="http://creativecommons.org/ns#"
   xmlns:rdf="http://www.w3.org/1999/02/22-rdf-syntax-ns#"
   xmlns:svg="http://www.w3.org/2000/svg"
   xmlns="http://www.w3.org/2000/svg"
   xmlns:sodipodi="http://sodipodi.sourceforge.net/DTD/sodipodi-0.dtd"
   xmlns:inkscape="http://www.inkscape.org/namespaces/inkscape"
   width="1000"
   height="1000"
   viewBox="0 0 1000 1000"
   version="1.1"
   id="svg756"
   inkscape:version="0.92.3 (2405546, 2018-03-11)"
   sodipodi:docname="u8c37.svg">
  <defs
     id="defs750" />
  <sodipodi:namedview
     id="base"
     pagecolor="#ffffff"
     bordercolor="#666666"
     borderopacity="1.0"
     inkscape:pageopacity="0.0"
     inkscape:pageshadow="2"
     inkscape:zoom="0.35"
     inkscape:cx="74.285713"
     inkscape:cy="576.33663"
     inkscape:document-units="px"
     inkscape:current-layer="layer1"
     showgrid="true"
     units="px"
     inkscape:window-width="1118"
     inkscape:window-height="864"
     inkscape:window-x="375"
     inkscape:window-y="92"
     inkscape:window-maximized="0"
     showguides="true"
     inkscape:guide-bbox="true">
    <inkscape:grid
       type="xygrid"
       id="grid758" />
    <sodipodi:guide
       position="240,200"
       orientation="0,1"
       id="guide8"
       inkscape:locked="false" />
  </sodipodi:namedview>
  <metadata
     id="metadata753">
    <rdf:RDF>
      <cc:Work
         rdf:about="">
        <dc:format>image/svg+xml</dc:format>
        <dc:type
           rdf:resource="http://purl.org/dc/dcmitype/StillImage" />
        <dc:title />
      </cc:Work>
    </rdf:RDF>
  </metadata>
  <g
     inkscape:label="Layer 1"
     inkscape:groupmode="layer"
     id="layer1"
     transform="translate(0,-32.41664)"
     style="display:inline">
    <path
       style="fill:#000000;stroke-width:10.71234703"
       d="m 222.48242,36.544922 c -18.67761,1.37207 -31.29726,17.861964 -39.23209,33.254681 -28.04273,54.429417 -60.47118,106.696457 -98.59868,154.648237 -11.238933,13.98807 -24.881151,25.84932 -36.393838,39.54044 -7.105424,9.37992 -11.00778,24.01161 -2.416015,33.73633 11.648316,13.25036 31.755581,13.23148 47.521483,8.7832 22.14779,-5.85067 38.91735,-23.58225 49.83499,-43.00891 C 171.97965,221.05766 199.155,177.54185 226.98828,134.48828 240.1601,111.56237 252.48047,85.777409 250.20117,58.660156 247.36989,46.185927 235.52379,35.963461 222.48242,36.544922 Z M 456.39453,137.12305 c -41.47702,1.16176 -84.8444,-0.86191 -123.87305,15.56445 -11.23276,6.39253 -12.52608,24.70675 -1.29101,31.75586 3.43823,2.47408 7.36377,4.12014 11.33008,5.54297 -22.68153,22.00668 -45.54999,43.84665 -66.53646,67.50796 -42.46036,46.05922 -84.13184,93.23044 -119.48112,145.05844 -25.39606,39.49012 -48.41119,80.454 -72.419819,120.78183 -9.852906,18.28188 -20.137042,37.6447 -20.996198,58.80997 0.703456,12.42504 11.918468,24.75386 25.027344,22.42578 16.156593,-2.21666 25.570663,-17.45321 34.804683,-29.17383 29.54028,-40.88388 49.51373,-87.72785 79.43506,-128.37532 26.95647,-39.86791 56.56944,-77.91697 88.51221,-113.97233 41.41464,23.85845 81.43997,50.56626 114.96566,84.94416 37.22643,35.8299 67.43289,78.37669 105.83512,113.01287 8.62307,7.65924 21.78306,14.31352 32.85742,7.66797 8.43017,-4.67539 11.21168,-15.09497 9.33594,-24.03906 -1.83836,-32.005 -22.13304,-58.64011 -40.4921,-83.40823 -36.17622,-46.18876 -77.52948,-89.22298 -126.64462,-121.73045 -15.67403,-9.5337 -33.8705,-15.4486 -50.10937,-22.63086 20.52501,-23.95006 47.32277,-44.44133 58.48632,-74.98242 1.74886,-4.06545 2.33335,-8.58393 2.57227,-12.77929 36.70296,0.37199 73.32255,4.62608 109.74825,9.68555 20.16023,2.98773 39.70247,8.49922 58.60136,16.13085 13.42296,4.15094 31.14298,2.97508 39.45508,-9.9043 12.8391,-18.11129 4.73571,-45.05689 -13.72461,-56.02929 -23.19907,-15.10799 -51.8519,-17.14406 -78.5957,-20.24024 -18.89279,-1.51083 -37.85966,-1.66919 -56.80274,-1.62304 z M 255.59375,520.61719 c -33.57239,1.09834 -69.51945,5.42454 -97.00977,26.5039 -22.86096,19.85595 -29.48244,52.46445 -25.53484,81.39592 4.58648,35.52874 19.57917,71.5879 48.13096,94.38744 27.11698,18.11108 62.89624,18.05488 92.88631,7.65024 25.96355,-10.20876 44.16181,-32.79394 61.63094,-53.48945 14.26675,-18.54316 27.63689,-38.70092 33.64445,-61.55938 0.65744,-3.67068 0.86669,-7.43067 0.52343,-11.14648 18.07294,8.04883 37.28798,20.76772 41.71289,41.41406 1.69212,24.96129 -6.23896,49.27565 -15.05273,72.35937 -10.1136,24.13886 -26.73676,44.72044 -44.51172,63.61133 -7.70908,9.55521 -16.72269,20.73321 -15.50586,33.75977 2.96439,11.63889 17.36078,17.51454 28.11133,13.02734 25.63754,-6.28565 45.60021,-25.10433 64.55274,-42.35352 36.94216,-37.23469 60.83561,-90.48261 53.89317,-143.52833 -4.63941,-42.17786 -36.03825,-78.2592 -74.89391,-93.5678 -47.52176,-21.87867 -100.68759,-28.84792 -152.57739,-28.46441 z m 31.55078,67.24414 c 12.51938,0.0777 24.81792,0.86136 37.19531,3.04297 -15.21887,11.99175 -27.21206,27.45473 -40.86523,41.01758 -9.983,11.20932 -19.26782,23.09348 -27.08984,35.92187 -10.17481,0.90288 -21.60021,3.2026 -28.88477,10.2793 -17.58535,-16.61331 -23.37876,-42.80847 -17.6582,-65.89844 0.44656,-8.72757 7.37253,-16.39626 16.2832,-16.85156 19.90323,-5.27434 40.60606,-7.14769 61.01953,-7.51172 z"
       id="path825"
       inkscape:connector-curvature="0" />
  </g>
</svg>
