<?xml version="1.0" encoding="UTF-8" standalone="no"?>
<!-- Created with Inkscape (http://www.inkscape.org/) -->

<svg
   xmlns:dc="http://purl.org/dc/elements/1.1/"
   xmlns:cc="http://creativecommons.org/ns#"
   xmlns:rdf="http://www.w3.org/1999/02/22-rdf-syntax-ns#"
   xmlns:svg="http://www.w3.org/2000/svg"
   xmlns="http://www.w3.org/2000/svg"
   xmlns:sodipodi="http://sodipodi.sourceforge.net/DTD/sodipodi-0.dtd"
   xmlns:inkscape="http://www.inkscape.org/namespaces/inkscape"
   width="1000"
   height="1000"
   viewBox="0 0 1000 1000"
   version="1.1"
   id="svg756"
   inkscape:version="0.92.3 (2405546, 2018-03-11)"
   sodipodi:docname="u91ce.svg">
  <defs
     id="defs750" />
  <sodipodi:namedview
     id="base"
     pagecolor="#ffffff"
     bordercolor="#666666"
     borderopacity="1.0"
     inkscape:pageopacity="0.0"
     inkscape:pageshadow="2"
     inkscape:zoom="0.35"
     inkscape:cx="89.100048"
     inkscape:cy="687.30027"
     inkscape:document-units="px"
     inkscape:current-layer="layer1"
     showgrid="true"
     units="px"
     inkscape:window-width="1118"
     inkscape:window-height="864"
     inkscape:window-x="536"
     inkscape:window-y="127"
     inkscape:window-maximized="0"
     showguides="true"
     inkscape:guide-bbox="true">
    <inkscape:grid
       type="xygrid"
       id="grid758" />
    <sodipodi:guide
       position="240,200"
       orientation="0,1"
       id="guide8"
       inkscape:locked="false" />
  </sodipodi:namedview>
  <metadata
     id="metadata753">
    <rdf:RDF>
      <cc:Work
         rdf:about="">
        <dc:format>image/svg+xml</dc:format>
        <dc:type
           rdf:resource="http://purl.org/dc/dcmitype/StillImage" />
        <dc:title />
      </cc:Work>
    </rdf:RDF>
  </metadata>
  <g
     inkscape:label="Layer 1"
     inkscape:groupmode="layer"
     id="layer1"
     transform="translate(0,-32.41664)"
     style="display:inline">
    <path
       style="fill:#000000;stroke-width:18.20178795"
       d="m 76.039648,823.9966 c -12.513728,-5.04939 -22.752234,-23.97235 -22.752234,-42.051 0,-40.90002 64.913526,-123.55336 82.935016,-105.59981 7.29379,7.26632 2.90053,25.69563 -9.76281,40.95402 -12.68131,15.28004 -14.3873,26.74565 -4.82248,23.74255 C 130,738.41664 160,703.41664 180,683.41664 c 2,-30 0.65915,-27.25286 3.58392,-65.7868 3.28957,-43.34016 1.41608,-80.2132 1.41608,-80.2132 1.61665,1.89296 -33.807,5.5667 -63.45588,17.10572 -60.414079,23.51249 -34.326416,-46.78562 27.30268,-73.57216 15.86819,-6.89697 21.8958,-8.19799 38.1532,-10.53356 0,-7 0,-14 -0.26468,-20.89045 C 120,452.41664 100.69218,402.26005 89.69099,354.49396 80,312.41664 76.328673,271.00581 59.996966,220.4376 21.182554,100.25573 41.802561,25.691311 84.566896,140.85539 100,182.41664 110,202.41664 114.99016,217.94826 129.14877,215.93003 196,208.41664 196,208.41664 c 0,0 -0.26793,-32.84208 -0.57712,-48.95817 C 195,137.41664 195,132.41664 194.35856,115.84752 185,117.41664 177.93107,116.87178 165.62399,120.09015 115.82765,133.11219 94.565708,89.933667 135.89358,59.713982 193.40423,17.661165 271.72924,29.794731 328.89409,89.612281 357.50812,119.55412 375,142.41664 382.27217,166.96988 388.47964,187.92833 390,217.41664 380.83294,254.98027 363.18882,327.28019 318.08241,385.13795 291.29268,408.31878 275,422.41664 253.49292,434.22134 242,437.41664 c 0,3.54651 -2,15 -0.71044,21.77889 18.71044,-1.77889 41.56081,-5.3818 57.72199,-5.3818 28.3139,0 45.50447,10.31436 45.50447,27.30269 0,18.20179 -17.23309,26.17747 -53.17679,31.94554 C 266.42857,517.0595 241,524.41664 238.99776,523.49617 241,524.41664 238,542.41664 238.66243,574.281 l -1.35714,66.29049 69.81661,-40.63811 c 83.9804,-48.88242 114.21009,-18.79955 38.37971,35.19644 -74.84533,53.29458 -143.35706,111.55602 -188.11153,159.96746 -39.32732,42.54086 -43.69657,44.093 -81.350432,28.89932 z M 194.90171,326.10526 C 196,292.41664 195,275.41664 195,265.41664 c -5,0 -49.24644,3.35194 -65,7 5,25 5,30 12.04466,60.08054 6.8817,29.38471 11.44011,51.889 18.93825,59.01011 2.76561,2.62655 15.01709,6.90935 31.87946,3.70108 0.13763,-17.79173 0.92077,-34.79239 2.03934,-69.10311 z m 103.64242,-17.00194 c 37.09705,-71.7378 34.99097,-115.61586 -8.02792,-167.25398 -35.40257,-42.495823 -35.8047,-42.539611 -36.40358,-3.96386 -0.33309,21.45365 -0.51606,64.59534 -0.51606,64.59534 30.40343,-6.06418 54.51587,7.0323 54.51587,21.2919 0,14.2596 -33.73946,30.93503 -61.11244,33.64392 0,0 -0.54368,34.98092 -0.54368,60.32256 0,20.82154 -3.792,43.99125 -1.45632,59.67744 17.66432,-10.68619 31.32763,-25.35135 53.54413,-68.31332 z m 239.7712,453.63073 c -10.04522,-32.12171 -48.18501,-235.822 -48.18501,-257.35067 0,-35.1262 48.95855,-11.42538 64.743,31.34207 l 17.16504,46.50813 62.31459,-52.45217 c 42.87526,-36.0895 58.66835,-61.9542 50.62618,-82.91173 -14.63048,-38.12645 -61.67197,-38.4436 -189.5182,-1.27777 -92.10137,26.7746 -102.78924,26.7746 -129.56384,0 -26.77459,-26.77452 -24.52725,-29.18176 27.24331,-29.18176 31.03386,0 79.88614,-12.82354 108.56068,-28.49676 l 52.1355,-28.49675 -77.3576,6.22552 c -131.71782,10.60027 -78.1738,-73.38566 72.80716,-114.20093 49.11444,-13.2773 68.2567,-28.36732 68.2567,-53.80734 0,-37.00107 -31.41376,-49.62097 -145.46525,-58.43802 -45.5393,-3.52053 -65.40375,-14.64945 -70.07088,-39.2567 -5.82834,-30.729682 2.79216,-33.449078 81.92873,-25.84505 134.2793,12.902535 197.31366,49.43022 197.31366,114.34099 0,53.19005 -24.49038,74.65127 -127.41252,111.6532 -28.44927,10.22791 -19.64379,15.66588 40.29905,24.88734 90.10925,13.86221 150.81972,62.2317 150.81972,120.1617 0,48.52769 -77.19344,146.45267 -128.21193,162.64532 -25.42048,8.06815 -35.68388,27.86955 -35.88288,69.22957 -0.33728,70.09974 -29.16546,127.50635 -42.54521,84.72181 z"
       id="path825"
       inkscape:connector-curvature="0"
       sodipodi:nodetypes="sscsscscssccsssccscssssssccssscccsssssccsscsssccscscsssscssscsscsssssssssssss" />
  </g>
</svg>
