<?xml version="1.0" encoding="UTF-8" standalone="no"?>
<!-- Created with Inkscape (http://www.inkscape.org/) -->

<svg
   xmlns:dc="http://purl.org/dc/elements/1.1/"
   xmlns:cc="http://creativecommons.org/ns#"
   xmlns:rdf="http://www.w3.org/1999/02/22-rdf-syntax-ns#"
   xmlns:svg="http://www.w3.org/2000/svg"
   xmlns="http://www.w3.org/2000/svg"
   xmlns:sodipodi="http://sodipodi.sourceforge.net/DTD/sodipodi-0.dtd"
   xmlns:inkscape="http://www.inkscape.org/namespaces/inkscape"
   width="1000"
   height="1000"
   viewBox="0 0 1000 1000"
   version="1.1"
   id="svg756"
   inkscape:version="0.92.3 (2405546, 2018-03-11)"
   sodipodi:docname="u962a.svg">
  <defs
     id="defs750" />
  <sodipodi:namedview
     id="base"
     pagecolor="#ffffff"
     bordercolor="#666666"
     borderopacity="1.0"
     inkscape:pageopacity="0.0"
     inkscape:pageshadow="2"
     inkscape:zoom="0.35"
     inkscape:cx="187.19104"
     inkscape:cy="512.73656"
     inkscape:document-units="px"
     inkscape:current-layer="layer1"
     showgrid="true"
     units="px"
     inkscape:window-width="1118"
     inkscape:window-height="864"
     inkscape:window-x="504"
     inkscape:window-y="190"
     inkscape:window-maximized="0"
     showguides="true"
     inkscape:guide-bbox="true">
    <inkscape:grid
       type="xygrid"
       id="grid758" />
    <sodipodi:guide
       position="240,200"
       orientation="0,1"
       id="guide8"
       inkscape:locked="false" />
  </sodipodi:namedview>
  <metadata
     id="metadata753">
    <rdf:RDF>
      <cc:Work
         rdf:about="">
        <dc:format>image/svg+xml</dc:format>
        <dc:type
           rdf:resource="http://purl.org/dc/dcmitype/StillImage" />
        <dc:title />
      </cc:Work>
    </rdf:RDF>
  </metadata>
  <g
     inkscape:label="Layer 1"
     inkscape:groupmode="layer"
     id="layer1"
     transform="translate(0,-32.41664)"
     style="display:inline">
    <path
       style="fill:#000000;stroke-width:7.61700344"
       d="M 647.95508,42.044922 C 605.25432,44.620368 567.6933,68.494688 534.21104,93.209579 499.30615,120.029 466.88977,155.12166 457.28488,199.41382 c -1.79287,9.66753 -3.73411,20.1737 0.50028,29.37329 5.23291,4.32846 9.71465,-3.01351 12.42578,-6.76953 6.44586,-10.47221 10.85142,-23.02511 21.73334,-29.94143 16.73872,-13.00983 37.57084,-19.5748 53.63569,-33.61013 18.41551,-13.77872 33.99769,-31.82496 54.70323,-42.35274 4.50006,-1.38403 8.93737,3.81817 6.03215,7.90161 -10.60891,25.92217 -29.81691,46.86656 -45.14917,69.91521 -26.92289,37.7315 -55.28601,74.73472 -77.79118,115.3531 -6.29377,14.1035 -6.20973,32.09631 3.0918,44.81641 6.65814,6.83246 16.85381,1.9514 24.97834,1.68056 14.76711,-2.98538 30.87107,2.19059 40.41228,14.01671 13.20833,15.74889 14.77678,37.95194 10.27428,57.29259 -2.95093,15.3044 -7.9682,30.0971 -12.60631,44.94569 -26.64913,-23.10928 -63.66142,-27.13633 -97.60533,-26.2211 -9.57208,-0.16711 -19.22462,0.44367 -28.61733,2.63321 -7.70853,-83.97722 -3.25263,-169.29376 -22.10156,-251.93555 -6.53855,-29.13774 -14.65321,-58.45648 -29.59961,-84.60156 -4.87289,-8.0955 -15.12825,-17.324842 -24.94922,-11.81641 -14.33461,8.23642 -19.82163,26.45977 -20.02539,41.86914 -0.096,32.5957 18.65869,61.3012 22.4239,93.39096 3.38532,23.72847 2.30318,47.82987 4.65618,71.61099 3.96756,59.89217 13.78823,119.15483 20.73047,178.75977 -18.20791,20.88817 -42.69673,36.52419 -55.43709,61.69857 -22.99403,37.47028 -43.07298,80.19241 -41.61564,125.18034 0.73141,16.81412 7.67398,34.37822 22.38085,43.65234 24.53223,18.9209 57.00086,31.3507 88.03321,24.33984 30.23669,-7.6309 54.89272,-28.47431 79.46319,-46.69611 34.32803,-27.23874 65.8818,-58.56047 89.7604,-95.49724 4.59927,-6.47415 9.52569,-12.72598 14.96391,-18.51954 30.46277,40.36321 62.39787,79.95925 88.55801,123.25626 14.11473,18.43483 29.82006,35.64432 42.60405,55.08483 16.48939,22.39804 34.70833,45.99288 60.92192,57.50657 10.45941,2.92861 25.70337,1.72372 30.0918,-9.95508 2.9505,-11.97057 -8.72407,-20.19754 -15.0293,-28.56445 -13.39333,-14.50289 -25.85538,-29.88876 -35.84794,-46.95549 -31.89794,-48.4434 -59.46009,-99.57561 -89.6406,-149.03918 -14.16162,-21.25444 -29.20108,-41.94561 -44.37474,-62.47213 -3.35454,-6.06239 3.44383,-11.10015 4.7354,-16.64832 22.45354,-50.48985 26.86772,-111.92602 0.9649,-162.17308 -11.43771,-21.61485 -29.00583,-38.82428 -44.78624,-57.19032 28.97398,-39.41804 55.11866,-81.35994 89.93946,-116.07226 21.03872,-26.14023 27.92142,-61.5403 24.25153,-94.336316 -1.84171,-13.131917 -9.89317,-27.243784 -24.18317,-29.17736 -4.01837,-0.840562 -8.13467,-1.167672 -12.23633,-1.101562 z M 140.68945,62.292969 c -13.39242,0.787461 -27.01961,10.999152 -26.74366,25.26172 -4.82612,37.121501 -0.58533,74.547651 -0.44323,111.850311 3.6438,118.43309 1.71598,237.32673 -13.11675,355.00657 -12.32742,104.64469 -33.071829,208.01877 -50.616361,311.84807 -2.949654,20.97682 -6.601907,42.0395 -4.558511,63.2345 2.944922,15.08595 19.276285,26.24525 34.341796,21.75977 21.993066,-5.53779 35.246816,-27.78051 39.632546,-48.72099 3.88094,-19.46991 1.57338,-40.153 4.86941,-60.04269 5.70369,-46.59956 16.10739,-92.41756 20.41352,-139.19745 15.53648,-128.88206 26.04297,-258.44876 30.23915,-388.2491 0.75657,-36.87707 -1.19372,-73.77031 -1.27181,-110.6179 1.30754,-11.90503 10.34772,-25.27195 23.51367,-24.67383 13.35077,1.56699 20.27751,15.31382 23.88602,26.80041 12.07428,34.83044 13.66265,72.49186 8.59951,108.78944 -4.6854,58.40723 -6.46537,117.17492 -5.56194,175.84543 0.92957,28.27576 1.76969,56.7349 7.23071,84.4241 2.71133,11.05645 8.72729,25.01788 21.82812,25.81055 17.28909,1.44832 32.69189,-13.35392 34.58789,-30.12305 3.44126,-17.75175 -4.23878,-34.49716 -8.27539,-51.41992 -5.58681,-30.60146 2.3046,-61.43823 5.31405,-91.86721 6.98204,-50.54289 7.3637,-101.94911 4.30917,-152.81549 -2.14627,-28.02233 -5.0891,-56.15057 -11.67721,-83.51218 -7.68391,-21.61649 -21.49486,-41.78869 -39.93038,-55.75434 -18.24293,-11.88486 -42.0579,-14.06364 -62.64844,-7.13086 -2.20621,-16.37229 2.3603,-33.377713 -2.54688,-49.363283 -5.09751,-11.796283 -19.14495,-17.723856 -31.375,-17.142578 z M 460.72266,498.75 c 23.7886,0.96569 49.73476,9.49082 63.5332,30.08789 2.56111,7.88458 -5.0161,13.82883 -7.49392,20.60232 -20.94892,35.33555 -49.59171,65.25894 -78.03147,94.57346 -7.82054,7.50067 -16.22967,14.46319 -25.64063,19.89258 -4.73984,-36.54318 1.1545,-73.33031 4.94727,-109.62891 2.19444,-14.32069 4.15593,-29.49022 12.00586,-41.96484 7.28077,-9.12304 19.21888,-13.60736 30.67969,-13.5625 z m -104.7168,73.10156 c 3.99397,1.17345 3.59065,6.90221 5.03906,10.13672 2.9093,15.58802 -0.008,31.50555 -0.89723,47.11176 -1.95726,17.57259 -4.45667,36.06858 -14.14574,51.23785 -4.11222,4.63182 -12.91043,3.02017 -14.11328,-3.41601 -8.26168,-19.33807 -2.05497,-40.89703 2.66016,-60.28516 4.44861,-14.87758 8.93417,-30.49057 18.30859,-43.03516 0.88431,-0.80505 1.84525,-1.8332 3.14844,-1.75 z"
       id="path838"
       inkscape:connector-curvature="0" />
  </g>
</svg>
