<?xml version="1.0" encoding="UTF-8" standalone="no"?>
<!-- Created with Inkscape (http://www.inkscape.org/) -->

<svg
   xmlns:dc="http://purl.org/dc/elements/1.1/"
   xmlns:cc="http://creativecommons.org/ns#"
   xmlns:rdf="http://www.w3.org/1999/02/22-rdf-syntax-ns#"
   xmlns:svg="http://www.w3.org/2000/svg"
   xmlns="http://www.w3.org/2000/svg"
   xmlns:sodipodi="http://sodipodi.sourceforge.net/DTD/sodipodi-0.dtd"
   xmlns:inkscape="http://www.inkscape.org/namespaces/inkscape"
   width="1000"
   height="1000"
   viewBox="0 0 1000 1000"
   version="1.1"
   id="svg756"
   inkscape:version="0.92.3 (2405546, 2018-03-11)"
   sodipodi:docname="u304b.svg">
  <defs
     id="defs750" />
  <sodipodi:namedview
     id="base"
     pagecolor="#ffffff"
     bordercolor="#666666"
     borderopacity="1.0"
     inkscape:pageopacity="0.0"
     inkscape:pageshadow="2"
     inkscape:zoom="0.35"
     inkscape:cx="551.42857"
     inkscape:cy="576.33663"
     inkscape:document-units="px"
     inkscape:current-layer="layer1"
     showgrid="true"
     units="px"
     inkscape:window-width="1118"
     inkscape:window-height="864"
     inkscape:window-x="612"
     inkscape:window-y="129"
     inkscape:window-maximized="0"
     showguides="true"
     inkscape:guide-bbox="true">
    <inkscape:grid
       type="xygrid"
       id="grid758" />
    <sodipodi:guide
       position="240,200"
       orientation="0,1"
       id="guide8"
       inkscape:locked="false" />
  </sodipodi:namedview>
  <metadata
     id="metadata753">
    <rdf:RDF>
      <cc:Work
         rdf:about="">
        <dc:format>image/svg+xml</dc:format>
        <dc:type
           rdf:resource="http://purl.org/dc/dcmitype/StillImage" />
        <dc:title />
      </cc:Work>
    </rdf:RDF>
  </metadata>
  <g
     inkscape:label="Layer 1"
     inkscape:groupmode="layer"
     id="layer1"
     transform="translate(0,-32.41664)"
     style="display:inline">
    <path
       style="display:inline;fill:#000000;stroke-width:18.51686859"
       d="m 494.9185,30.44382 c -13.80345,0.118121 -29.50075,10.208485 -29.24509,25.272087 0.53668,19.197327 15.11643,34.348815 29.42971,44.894443 55.16228,40.64201 100.42167,71.50727 160.11823,103.98625 20.20809,10.99462 45.67591,20.60067 68.41738,13.94556 11.75427,-4.21991 19.09029,-18.75838 13.30127,-30.3388 -6.18361,-14.7947 -20.7859,-23.22127 -31.99714,-33.78672 C 668.60015,124.91547 629.96433,98.35115 591.07762,72.351749 564.31982,55.399702 536.31935,39.191281 505.60879,30.767651 c -3.55086,-0.3687 -7.12532,-0.343359 -10.69029,-0.323831 z m -120.2946,71.34183 c -13.46163,1.03585 -21.46425,14.4417 -24.49121,26.31391 -9.02964,28.7132 -17.4142,69.91865 -26.58274,98.57462 -13.13053,-6.01631 -14.58384,-9.21213 -24.77033,-12.85586 -35.82042,-17.47251 -73.26463,-31.5216 -111.78824,-41.74565 -34.46202,-9.67759 -70.08424,-17.44938 -106.060149,-16.32186 -19.665288,3.35341 -33.964329,11.88896 -35.953311,31.159 -4.766817,20.56867 -9.487344,42.30373 -4.973908,63.30159 5.292521,12.63055 22.358982,17.93498 33.917582,10.5959 14.473044,-5.75791 24.271038,-22.40177 40.975316,-21.75252 57.96615,2.31626 114.4657,20.54811 165.86472,46.8969 5.67348,3.77812 22.45577,13.36259 22.45577,13.36259 0,0 -14.42975,43.15696 -19.46782,63.82372 -17.76199,64.90899 -42.55193,127.64157 -60.93368,192.38771 -21.12014,68.60981 -42.71748,137.54218 -53.32721,208.71342 -1.58941,18.7544 -1.52942,39.64204 9.77002,55.60394 10.86504,10.46267 30.72966,4.30028 35.56414,-9.46563 19.64269,-31.68727 27.32409,-68.78189 39.26848,-103.60089 7.74107,-25.88736 14.91301,-51.93871 22.02188,-78.00552 -0.9298,61.7741 40.18089,116.92368 98.62542,137.4665 27.77655,10.0042 60.32159,10.01591 86.10315,-5.56444 22.6923,-12.9114 34.36061,-29.71064 43.16724,-54.08445 20.85655,-50.82388 20.01271,-107.42323 13.22757,-161.02656 -12.20938,-89.47415 -44.03022,-170.97128 -103.03111,-239.64286 -11.4094,-13.98815 -18.91123,-23.37618 -27.06505,-30.11195 0,0 29.05309,-83.99215 27.27451,-115.02256 -0.97076,-19.42335 -9.37295,-38.91033 -24.07485,-51.8377 -4.5045,-3.39426 -9.88498,-7.12338 -15.71619,-7.16135 z m 14.28101,285.43503 c 24.66598,39.94781 46.60966,76.44909 58.61578,118.48134 10.88768,41.05488 18.27867,84.21318 12.00881,126.46134 -2.60804,17.57396 -18.17205,49.53737 -35.19172,56.71436 -30.98909,13.06763 -68.61837,-14.88554 -87.53412,-41.7776 -11.01,-14.59559 -13.68689,-35.76254 -30.4276,-45.69039 -7.12338,-4.59148 -17.14411,-3.6397 -22.72768,2.9238 -2.80873,3.09769 1.72472,-7.46502 1.80562,-9.75999 17.43557,-62.82869 40.16914,-123.8672 61.98625,-185.50346 5.2345,-14.78818 11.90587,-34.08431 18.20443,-50.53116 9.89001,9.00648 15.78469,16.57471 23.26023,28.68176 z"
       id="path277"
       inkscape:connector-curvature="0"
       sodipodi:nodetypes="ccssccccccccccccccccccccccccccccccccccscssccccscs" />
  </g>
</svg>
