<?xml version="1.0" encoding="UTF-8" standalone="no"?>
<!-- Created with Inkscape (http://www.inkscape.org/) -->

<svg
   xmlns:dc="http://purl.org/dc/elements/1.1/"
   xmlns:cc="http://creativecommons.org/ns#"
   xmlns:rdf="http://www.w3.org/1999/02/22-rdf-syntax-ns#"
   xmlns:svg="http://www.w3.org/2000/svg"
   xmlns="http://www.w3.org/2000/svg"
   xmlns:sodipodi="http://sodipodi.sourceforge.net/DTD/sodipodi-0.dtd"
   xmlns:inkscape="http://www.inkscape.org/namespaces/inkscape"
   width="1000"
   height="1000"
   viewBox="0 0 1000 1000"
   version="1.1"
   id="svg756"
   inkscape:version="0.92.3 (2405546, 2018-03-11)"
   sodipodi:docname="u3048.svg">
  <defs
     id="defs750" />
  <sodipodi:namedview
     id="base"
     pagecolor="#ffffff"
     bordercolor="#666666"
     borderopacity="1.0"
     inkscape:pageopacity="0.0"
     inkscape:pageshadow="2"
     inkscape:zoom="0.35"
     inkscape:cx="551.42857"
     inkscape:cy="576.33663"
     inkscape:document-units="px"
     inkscape:current-layer="layer1"
     showgrid="true"
     units="px"
     inkscape:window-width="1118"
     inkscape:window-height="864"
     inkscape:window-x="647"
     inkscape:window-y="97"
     inkscape:window-maximized="0"
     showguides="true"
     inkscape:guide-bbox="true">
    <inkscape:grid
       type="xygrid"
       id="grid758" />
    <sodipodi:guide
       position="240,200"
       orientation="0,1"
       id="guide8"
       inkscape:locked="false" />
  </sodipodi:namedview>
  <metadata
     id="metadata753">
    <rdf:RDF>
      <cc:Work
         rdf:about="">
        <dc:format>image/svg+xml</dc:format>
        <dc:type
           rdf:resource="http://purl.org/dc/dcmitype/StillImage" />
        <dc:title />
      </cc:Work>
    </rdf:RDF>
  </metadata>
  <g
     inkscape:label="Layer 1"
     inkscape:groupmode="layer"
     id="layer1"
     transform="translate(0,-32.41664)"
     style="display:inline">
    <path
       transform="matrix(0.94569474,0,0,0.94569474,-1.7061435,-167.62328)"
       sodipodi:type="inkscape:offset"
       inkscape:radius="0"
       inkscape:original="M 369.62695 199.22266 C 353.5035 198.91845 341.60961 214.4804 340.17969 229.50391 C 332.25232 267.44319 335.15377 306.45635 333.97266 344.92773 C 333.79913 389.6115 334.07305 434.29661 333.95898 478.98047 C 268.91582 538.50917 199.88501 595.87656 150.53906 669.92188 C 141.05635 684.8256 131.90038 700.39871 126.75 717.36328 C 125.70378 724.91564 134.33987 731.14763 141.12891 727.38867 C 150.06574 723.30247 156.94648 715.84772 164.75 710.04102 C 205.00313 675.51576 242.55549 637.87656 284.37305 605.16797 C 336.13246 563.7942 391.33418 525.32801 453.20312 500.67773 C 474.10766 492.81872 496.67399 486.13126 519.12109 489.89844 C 531.09515 492.35771 543.07312 502.93313 540.89648 516.19531 C 538.81805 534.11502 531.24675 550.85082 524.62695 567.45312 C 502.22469 618.61541 472.94632 666.46518 441.91406 712.77148 C 416.27757 749.79125 389.07865 786.13442 355.55859 816.41211 C 310.44468 855.87198 258.49705 886.55225 206.11328 915.36133 C 168.62616 935.14213 129.68063 953.50833 88.441406 963.18164 C 77.241923 965.44298 65.389153 963.70955 54.455078 967.01367 C 45.989643 970.60308 42.197152 981.01353 45.572266 989.41797 C 48.543611 1002.6631 53.669703 1015.7371 61.378906 1026.8789 C 72.972264 1038.7843 91.254155 1037.4655 106.33398 1035.252 C 147.85348 1029.8356 188.08631 1017.7859 228.72852 1008.1543 C 266.80207 998.47253 304.8382 986.43566 344.08008 983.19141 C 399.47425 980.57919 452.77147 999.11045 505.39648 1014.043 C 523.13481 1019.2009 540.72384 1025.4271 558.95898 1028.5195 C 570.43974 1029.4138 584.58531 1022.8562 585.75781 1010.1719 C 586.51949 997.58259 574.353 989.78905 565.41797 983.37305 C 512.59952 946.72443 451.0195 926.33592 392.8457 900.20898 C 386.44873 897.48884 380.05322 894.76898 373.65625 892.04883 C 403.26625 868.03528 431.42637 841.86353 454.28906 811.19336 C 507.4402 744.75198 554.22686 673.09962 593.00195 597.33008 C 606.63142 569.92277 616.40878 539.27704 613.12695 508.39258 C 610.22195 471.57938 592.77759 433.86865 560.58594 414.05469 C 541.18539 402.56199 517.2297 400.80312 495.72852 406.74023 C 460.2473 413.99783 427.28683 429.76485 395.3457 446.35938 C 398.35146 377.98167 405.3228 309.56193 403.23828 241.01953 C 402.15295 227.49097 399.78353 211.39591 387.58008 203.26562 C 382.19666 200.076 375.7944 199.13353 369.62695 199.22266 z "
       style="display:inline;fill:#000000;stroke-width:17.57049942"
       id="path263"
       d="m 369.62695,199.22266 c -16.12345,-0.30421 -28.01734,15.25774 -29.44726,30.28125 -7.92737,37.93928 -5.02592,76.95244 -6.20703,115.42382 -0.17353,44.68377 0.10039,89.36888 -0.0137,134.05274 -65.04316,59.5287 -134.07397,116.89609 -183.41992,190.94141 -9.48271,14.90372 -18.63868,30.47683 -23.78906,47.4414 -1.04622,7.55236 7.58987,13.78435 14.37891,10.02539 8.93683,-4.0862 15.81757,-11.54095 23.62109,-17.34765 40.25313,-34.52526 77.80549,-72.16446 119.62305,-104.87305 51.75941,-41.37377 106.96113,-79.83996 168.83007,-104.49024 20.90454,-7.85901 43.47087,-14.54647 65.91797,-10.77929 11.97406,2.45927 23.95203,13.03469 21.77539,26.29687 -2.07843,17.91971 -9.64973,34.65551 -16.26953,51.25781 -22.40226,51.16229 -51.68063,99.01206 -82.71289,145.31836 -25.63649,37.01977 -52.83541,73.36294 -86.35547,103.64063 -45.11391,39.45987 -97.06154,70.14014 -149.44531,98.94922 -37.48712,19.7808 -76.43265,38.147 -117.671874,47.82031 -11.199483,2.26134 -23.052253,0.52791 -33.986328,3.83203 -8.465435,3.58941 -12.257926,13.99986 -8.882812,22.4043 2.971345,13.24513 8.097437,26.31913 15.80664,37.46093 11.593358,11.9054 29.875249,10.5866 44.955074,8.3731 41.5195,-5.4164 81.75233,-17.4661 122.39454,-27.0977 38.07355,-9.68177 76.10968,-21.71864 115.35156,-24.96289 55.39417,-2.61222 108.69139,15.91904 161.3164,30.85159 17.73833,5.1579 35.32736,11.3841 53.5625,14.4765 11.48076,0.8943 25.62633,-5.6633 26.79883,-18.3476 0.76168,-12.58931 -11.40481,-20.38285 -20.33984,-26.79885 -52.81845,-36.64862 -114.39847,-57.03713 -172.57227,-83.16407 -6.39697,-2.72014 -12.79248,-5.44 -19.18945,-8.16015 29.61,-24.01355 57.77012,-50.1853 80.63281,-80.85547 53.15114,-66.44138 99.9378,-138.09374 138.71289,-213.86328 13.62947,-27.40731 23.40683,-58.05304 20.125,-88.9375 -2.905,-36.8132 -20.34936,-74.52393 -52.54101,-94.33789 -19.40055,-11.4927 -43.35624,-13.25157 -64.85742,-7.31446 -35.48122,7.2576 -68.44169,23.02462 -100.38282,39.61915 3.00576,-68.37771 9.9771,-136.79745 7.89258,-205.33985 -1.08533,-13.52856 -3.45475,-29.62362 -15.6582,-37.75391 -5.38342,-3.18962 -11.78568,-4.13209 -17.95313,-4.04296 z" />
  </g>
</svg>
