<?xml version="1.0" encoding="UTF-8" standalone="no"?>
<!-- Created with Inkscape (http://www.inkscape.org/) -->

<svg
   xmlns:dc="http://purl.org/dc/elements/1.1/"
   xmlns:cc="http://creativecommons.org/ns#"
   xmlns:rdf="http://www.w3.org/1999/02/22-rdf-syntax-ns#"
   xmlns:svg="http://www.w3.org/2000/svg"
   xmlns="http://www.w3.org/2000/svg"
   xmlns:sodipodi="http://sodipodi.sourceforge.net/DTD/sodipodi-0.dtd"
   xmlns:inkscape="http://www.inkscape.org/namespaces/inkscape"
   width="1000"
   height="1000"
   viewBox="0 0 1000 1000"
   version="1.1"
   id="svg756"
   inkscape:version="0.92.3 (2405546, 2018-03-11)"
   sodipodi:docname="u304a.svg">
  <defs
     id="defs750" />
  <sodipodi:namedview
     id="base"
     pagecolor="#ffffff"
     bordercolor="#666666"
     borderopacity="1.0"
     inkscape:pageopacity="0.0"
     inkscape:pageshadow="2"
     inkscape:zoom="0.35"
     inkscape:cx="551.42857"
     inkscape:cy="576.33663"
     inkscape:document-units="px"
     inkscape:current-layer="layer1"
     showgrid="true"
     units="px"
     inkscape:window-width="1118"
     inkscape:window-height="864"
     inkscape:window-x="738"
     inkscape:window-y="124"
     inkscape:window-maximized="0"
     showguides="true"
     inkscape:guide-bbox="true">
    <inkscape:grid
       type="xygrid"
       id="grid758" />
    <sodipodi:guide
       position="240,200"
       orientation="0,1"
       id="guide8"
       inkscape:locked="false" />
  </sodipodi:namedview>
  <metadata
     id="metadata753">
    <rdf:RDF>
      <cc:Work
         rdf:about="">
        <dc:format>image/svg+xml</dc:format>
        <dc:type
           rdf:resource="http://purl.org/dc/dcmitype/StillImage" />
        <dc:title />
      </cc:Work>
    </rdf:RDF>
  </metadata>
  <g
     inkscape:label="Layer 1"
     inkscape:groupmode="layer"
     id="layer1"
     transform="translate(0,-32.41664)"
     style="display:inline">
    <path
       style="display:inline;fill:#000000;stroke-width:16.06258011"
       d="m 302.82373,71.859319 c -6.50742,-0.06974 -9.05758,7.259695 -8.64367,12.700022 -2.29198,23.390909 -11.35023,46.587889 -7.56138,70.333839 1.36106,9.68272 6.42591,19.24649 15.45505,23.72 6.03171,3.87676 11.22729,12.74829 5.15166,18.89134 -10.93201,13.2923 -28.28567,18.18204 -43.91624,23.71073 -57.28464,17.78619 -117.756,19.52714 -177.334387,19.42557 -11.423947,0.65215 -23.300184,0.62857 -34.218662,4.33705 -5.612073,2.24869 -8.762627,9.46503 -4.97528,14.67717 7.940833,16.20804 23.627555,27.79081 41.128178,31.724 26.927991,6.45889 54.954941,4.56563 82.379011,3.59916 46.73202,-2.46175 93.31565,-7.19841 139.98014,-10.3092 -5.31425,40.10945 -6.85032,80.75006 -14.23349,120.48978 -1.80772,9.72226 -6.73766,20.37528 -17.20567,23.00893 -20.12716,6.21661 -41.622,1.29386 -62.06702,6.04653 -47.75489,9.41383 -88.01003,41.25994 -117.950178,78.43168 -34.048679,42.51105 -57.252275,95.11646 -59.852519,149.92053 -0.846534,26.56157 2.949594,54.59773 17.469533,77.39924 9.978725,14.92728 24.860109,29.09461 43.454181,31.10312 19.761893,0.85255 37.317913,-10.6074 53.027933,-21.22679 41.85449,-29.8868 75.45619,-69.62788 106.29898,-110.37948 22.76125,-30.45722 41.06864,-63.95322 63.63626,-94.5206 6.14213,-7.21955 14.59994,-16.83705 25.20462,-13.18936 16.13738,6.11174 29.52238,17.75951 42.55944,28.75447 32.22924,28.16182 55.7633,64.22652 82.62486,97.15801 44.07686,55.27273 89.00011,109.92112 135.28446,163.35364 4.20142,4.76107 12.54886,9.39711 17.74029,3.47533 6.41702,-8.53737 5.84535,-20.09644 7.55691,-30.17877 3.74903,-38.58791 3.51996,-77.38843 4.92386,-116.09649 1.91763,-73.55404 1.84473,-147.29152 8.66931,-220.56286 1.53485,-13.22466 2.42677,-27.10206 9.38313,-38.75005 6.00438,-2.28535 9.60916,5.51283 13.12701,8.93696 14.71715,18.96999 25.06648,40.99586 40.99173,59.10446 10.25582,12.47614 22.84491,25.66572 39.56565,28.18445 14.9424,1.10178 30.24288,-10.42703 32.78879,-25.24044 1.30197,-15.11768 -11.2686,-26.5053 -20.60054,-36.46497 -12.59835,-13.90656 -22.33779,-31.91271 -22.8072,-51.21188 -3.92236,-23.55897 -19.53758,-43.19832 -35.85385,-59.76687 -11.4472,-10.93273 -25.51799,-21.63412 -41.94666,-22.29792 -13.85586,0.1236 -25.37099,10.70113 -30.15824,23.1593 -11.5488,25.3002 -13.9451,53.49123 -17.59682,80.71826 -9.23297,83.60283 -11.07868,167.77724 -16.23626,251.66317 -0.74099,14.02402 -1.482,28.04804 -2.22305,42.07205 C 560.87103,668.20912 528.055,616.89717 487.82705,571.31067 460.1694,538.95258 429.8905,508.71924 396.10368,482.74796 c -11.36943,-10.00104 -23.93802,-20.54068 -28.95733,-35.31388 -4.61189,-17.71616 1.50307,-35.88329 3.23334,-53.8399 5.97642,-38.41743 10.41617,-77.4515 19.62712,-115.07751 4.46404,-14.18003 16.39819,-24.73452 30.07752,-29.85754 23.25265,-10.05305 47.24975,-18.27879 70.42455,-28.54021 25.94523,-10.9944 52.67261,-21.59214 75.29913,-38.72569 8.60431,-6.86748 14.53977,-17.77067 12.66656,-28.97659 -0.33078,-13.62083 -8.54875,-28.73013 -23.03309,-31.00659 -20.61172,-4.11919 -40.83611,4.88057 -59.55532,12.37988 -27.96571,12.16082 -53.88112,30.06237 -83.99356,36.27981 -7.09924,1.23195 -14.89485,-3.07142 -15.347,-10.80648 -1.68787,-9.71603 -6.01585,-18.65294 -12.34363,-26.19477 -17.55052,-22.9748 -40.29973,-41.867916 -65.26174,-56.301042 -4.97505,-2.653868 -10.42446,-4.715893 -16.1165,-4.908129 z M 249.81997,497.44153 c 5.65195,-0.3287 15.52791,2.6955 13.48052,10.17587 -5.92167,20.37124 -18.94994,38.07288 -29.86307,56.14304 -23.92675,36.74447 -49.33215,73.01327 -79.75607,104.68697 -9.12462,8.28394 -19.97003,16.25984 -32.61985,17.22429 -8.48364,-2.47975 -9.10204,-13.52435 -10.21796,-20.78864 -4.31822,-35.95171 3.17623,-73.27046 21.87092,-104.51313 13.23652,-21.18199 35.43774,-34.42277 57.08114,-45.84175 18.82617,-8.8643 38.99844,-16.51718 60.02437,-17.08665 z"
       id="path295"
       inkscape:connector-curvature="0" />
  </g>
</svg>
