<?xml version="1.0" encoding="UTF-8" standalone="no"?>
<!-- Created with Inkscape (http://www.inkscape.org/) -->

<svg
   xmlns:dc="http://purl.org/dc/elements/1.1/"
   xmlns:cc="http://creativecommons.org/ns#"
   xmlns:rdf="http://www.w3.org/1999/02/22-rdf-syntax-ns#"
   xmlns:svg="http://www.w3.org/2000/svg"
   xmlns="http://www.w3.org/2000/svg"
   xmlns:sodipodi="http://sodipodi.sourceforge.net/DTD/sodipodi-0.dtd"
   xmlns:inkscape="http://www.inkscape.org/namespaces/inkscape"
   width="1000"
   height="1000"
   viewBox="0 0 1000 1000"
   version="1.1"
   id="svg756"
   inkscape:version="0.92.3 (2405546, 2018-03-11)"
   sodipodi:docname="u3042.svg">
  <defs
     id="defs750" />
  <sodipodi:namedview
     id="base"
     pagecolor="#ffffff"
     bordercolor="#666666"
     borderopacity="1.0"
     inkscape:pageopacity="0.0"
     inkscape:pageshadow="2"
     inkscape:zoom="0.35"
     inkscape:cx="551.42857"
     inkscape:cy="576.33663"
     inkscape:document-units="px"
     inkscape:current-layer="layer1"
     showgrid="true"
     units="px"
     inkscape:window-width="1118"
     inkscape:window-height="864"
     inkscape:window-x="683"
     inkscape:window-y="97"
     inkscape:window-maximized="0"
     showguides="true"
     inkscape:guide-bbox="true">
    <inkscape:grid
       type="xygrid"
       id="grid758" />
    <sodipodi:guide
       position="240,200"
       orientation="0,1"
       id="guide8"
       inkscape:locked="false" />
  </sodipodi:namedview>
  <metadata
     id="metadata753">
    <rdf:RDF>
      <cc:Work
         rdf:about="">
        <dc:format>image/svg+xml</dc:format>
        <dc:type
           rdf:resource="http://purl.org/dc/dcmitype/StillImage" />
        <dc:title />
      </cc:Work>
    </rdf:RDF>
  </metadata>
  <g
     inkscape:label="Layer 1"
     inkscape:groupmode="layer"
     id="layer1"
     transform="translate(0,-32.41664)"
     style="display:inline">
    <path
       style="display:inline;fill:#000000;stroke-width:16.56112862"
       d="m 434.93554,46.773592 c -21.606,2.268571 -39.72255,15.629669 -57.45696,26.937723 -37.334,25.447275 -68.4501,58.662105 -105.28675,84.692645 -46.0323,33.63401 -95.0085,63.92863 -148.33439,84.74551 -25.19471,10.62514 -51.193608,19.91297 -74.853556,33.72541 -5.522235,3.00481 -10.343318,10.35336 -5.831657,16.1778 4.355483,6.29119 10.525555,11.41258 17.015579,15.36396 16.931464,7.77635 36.173824,3.06765 53.636074,-0.0692 31.31682,-6.69786 60.86471,-20.11029 92.57827,-24.97799 2.21372,-0.46401 4.9854,0.85398 3.16043,3.33229 -4.50797,12.2593 -10.11034,24.32561 -12.96292,37.2324 -19.75877,70.17857 -24.83088,143.59889 -46.50581,213.20769 -3.86955,11.92084 -9.5914,24.73097 -21.44938,30.65431 -19.00363,14.50988 -27.77664,37.91524 -35.33371,59.65328 -14.138616,44.37058 -19.972206,91.74685 -14.65347,138.08587 2.413081,17.89399 6.868245,36.73796 18.95228,50.76802 11.23837,10.97803 28.55728,9.95531 42.83248,7.04031 38.0902,-6.70265 73.6885,-26.99821 112.90242,-26.09285 16.00842,0.33257 31.23366,5.68066 45.93188,11.45936 38.40279,11.34187 80.38472,1.32068 114.07667,-18.67286 22.96075,-13.68181 41.81735,-34.26232 52.13739,-58.91294 25.27047,-52.00999 44.22701,-107.70223 50.58813,-165.29209 1.61844,-17.88204 2.62476,-37.1859 -5.73735,-53.6605 -4.74119,-8.21516 -16.15646,-12.16762 -24.44282,-6.76206 -20.93774,10.44169 -37.53591,27.49304 -53.80379,43.85504 -25.91326,27.77344 -52.14857,55.24303 -79.21038,81.92109 -23.26923,22.82569 -46.1213,46.20373 -71.77519,66.40739 -6.05968,4.94868 -15.73891,9.37792 -22.36275,2.93786 -9.70535,-7.9052 -16.78682,-18.55242 -22.95449,-29.22665 -21.09714,-40.26329 -16.66609,-92.15882 11.16403,-128.12467 16.20285,-19.29771 38.19859,-32.60429 59.35199,-46.11141 64.10025,-38.2976 136.78775,-62.72326 211.10557,-70.33783 31.01117,-2.58884 62.51746,-2.8945 93.34078,0.23617 20.35355,2.67307 39.5363,12.253 53.6708,27.08086 15.93111,15.21857 31.68371,31.26557 42.71876,50.3944 13.2274,26.47767 9.55779,57.02724 8.01852,85.57867 -2.4252,35.15491 -7.82847,70.77003 -2.67919,105.94274 0.93565,6.76597 4.45169,16.29569 12.76839,15.83017 13.29259,-1.73547 20.36651,-15.27079 23.69117,-26.80614 10.23953,-32.77176 12.99388,-67.21644 18.02562,-100.98099 3.97231,-31.94224 10.03777,-64.56223 4.23734,-96.66686 -4.03793,-23.13236 -15.86881,-44.72791 -33.51557,-60.39985 -23.00919,-21.34084 -51.52921,-35.70465 -80.09526,-48.21397 -47.76956,-18.15868 -100.34749,-17.63497 -150.4135,-11.64194 -88.81256,11.21629 -173.89881,43.37323 -251.5741,86.94023 -9.51054,5.12525 -19.01001,10.27145 -28.53108,15.3775 13.70703,-51.51796 23.78194,-104.41233 46.77059,-152.91055 28.45416,-62.07484 70.81204,-118.78827 126.37963,-159.32658 24.4006,-16.88594 52.2177,-31.57816 68.809,-57.04947 6.29429,-9.890769 10.85976,-23.044486 4.47309,-34.031908 -6.70818,-12.318767 -21.68009,-16.982546 -34.73246,-19.011776 -1.27616,-0.119647 -2.55838,-0.290819 -3.84035,-0.297771 z M 152.51445,626.7582 c 6.15135,5.02693 7.16148,13.78621 10.37346,20.61824 10.67359,30.44975 21.16411,61.54961 23.57919,93.89372 -0.36863,10.38135 -12.5747,18.48948 -22.20321,13.36462 -12.38821,-5.55001 -19.51549,-17.92857 -25.85264,-29.25324 -9.77562,-19.8417 -15.50057,-43.75944 -7.08179,-65.21376 4.13514,-11.4988 10.76681,-22.04212 18.20125,-31.67074 0.82864,-0.62824 1.92475,-1.86964 2.98374,-1.73884 z m 259.83421,44.01281 c 4.37334,2.27538 1.6972,8.53749 1.59712,12.3844 -5.97012,33.19021 -29.15247,63.74007 -61.58974,75.48522 -11.83843,3.79991 -27.27425,2.41067 -34.63258,-8.55051 -2.34335,-8.11846 5.77799,-14.33312 10.47256,-19.74113 21.87148,-20.53224 45.65803,-39.19325 71.18433,-55.07049 3.9879,-2.22159 8.333,-4.30973 12.96831,-4.50749 z"
       id="path187"
       inkscape:connector-curvature="0" />
  </g>
</svg>
