<?xml version="1.0" encoding="UTF-8" standalone="no"?>
<!-- Created with Inkscape (http://www.inkscape.org/) -->

<svg
   xmlns:dc="http://purl.org/dc/elements/1.1/"
   xmlns:cc="http://creativecommons.org/ns#"
   xmlns:rdf="http://www.w3.org/1999/02/22-rdf-syntax-ns#"
   xmlns:svg="http://www.w3.org/2000/svg"
   xmlns="http://www.w3.org/2000/svg"
   xmlns:sodipodi="http://sodipodi.sourceforge.net/DTD/sodipodi-0.dtd"
   xmlns:inkscape="http://www.inkscape.org/namespaces/inkscape"
   width="1000"
   height="1000"
   viewBox="0 0 1000 1000"
   version="1.1"
   id="svg756"
   inkscape:version="0.92.3 (2405546, 2018-03-11)"
   sodipodi:docname="u3041.svg">
  <defs
     id="defs750" />
  <sodipodi:namedview
     id="base"
     pagecolor="#ffffff"
     bordercolor="#666666"
     borderopacity="1.0"
     inkscape:pageopacity="0.0"
     inkscape:pageshadow="2"
     inkscape:zoom="0.35"
     inkscape:cx="551.42857"
     inkscape:cy="576.33663"
     inkscape:document-units="px"
     inkscape:current-layer="layer1"
     showgrid="true"
     units="px"
     inkscape:window-width="1118"
     inkscape:window-height="864"
     inkscape:window-x="666"
     inkscape:window-y="96"
     inkscape:window-maximized="0"
     showguides="true"
     inkscape:guide-bbox="true">
    <inkscape:grid
       type="xygrid"
       id="grid758" />
    <sodipodi:guide
       position="240,200"
       orientation="0,1"
       id="guide8"
       inkscape:locked="false" />
  </sodipodi:namedview>
  <metadata
     id="metadata753">
    <rdf:RDF>
      <cc:Work
         rdf:about="">
        <dc:format>image/svg+xml</dc:format>
        <dc:type
           rdf:resource="http://purl.org/dc/dcmitype/StillImage" />
        <dc:title />
      </cc:Work>
    </rdf:RDF>
  </metadata>
  <g
     inkscape:label="Layer 1"
     inkscape:groupmode="layer"
     id="layer1"
     transform="translate(0,-32.41664)"
     style="display:inline">
    <path
       style="display:inline;fill:#000000;stroke-width:16.55924034"
       d="m 356.20527,295.7718 c -25.55907,-0.0704 -47.9813,19.34734 -56.0952,42.85482 -5.25434,13.23433 -13.3238,27.73901 -28.20539,31.52097 -23.38465,7.42313 -48.14382,5.16987 -72.33633,6.23118 -18.88307,0.26465 -38.12932,-0.60307 -56.67522,3.46443 -5.25759,1.44236 -8.57267,8.41058 -4.05863,12.57344 9.01704,10.65095 21.43954,17.93701 33.74819,24.18238 22.52583,10.99643 47.69126,15.87439 72.67414,15.45771 7.10423,0.2863 17.83877,1.74184 18.79482,10.49167 1.65348,17.78574 -4.95181,34.82572 -8.42017,52.0149 -8.60961,32.79929 -18.70801,66.40049 -39.84887,93.55056 -6.32913,7.85822 -15.52042,14.35166 -25.99892,13.83746 -25.05467,4.87345 -47.58433,17.76091 -69.89236,29.56088 -23.64221,13.46082 -47.280337,27.65712 -67.371987,46.15632 -9.496795,9.20211 -15.673781,23.05065 -11.781661,36.26636 3.845787,19.62747 17.544432,37.34995 36.543843,44.3023 33.566405,14.33769 70.834745,14.29369 105.932975,22.05024 15.782,3.22701 32.26361,5.49065 46.71339,12.83534 13.66131,8.83301 30.72933,9.51794 46.49654,9.58241 9.46443,-0.0472 20.04519,-5.09379 21.92316,-15.20541 4.70428,-17.27177 0.75599,-35.31147 -0.31582,-52.79889 -2.78534,-27.0058 -8.53561,-54.10575 -5.5919,-81.2184 1.24218,-7.14464 7.67439,-12.22589 14.88896,-11.97523 16.48851,-1.21123 30.14374,10.37493 43.34856,18.45748 38.56844,26.06676 68.84359,61.7689 103.03046,92.86647 9.88214,8.21352 20.35136,17.30482 33.21994,20.06305 11.7858,1.57839 21.21799,-7.32692 27.38142,-16.2971 7.09566,-9.32196 9.50163,-22.35918 4.04285,-33.05466 -7.84834,-18.0675 -20.98668,-33.38845 -34.91412,-47.07221 -33.07658,-31.08567 -72.28127,-55.04239 -112.98209,-74.77575 -18.65981,-8.64223 -38.71577,-16.24773 -59.40523,-16.5533 -6.45366,0.065 -9.91738,-6.03638 -9.44801,-11.82428 -0.43959,-16.99067 5.79191,-33.2164 9.46797,-49.63383 10.97709,-42.11291 25.47894,-85.85186 58.03797,-116.39743 15.19766,-15.51582 33.99911,-27.25685 47.83798,-44.11503 6.24447,-7.43772 8.48113,-18.51167 3.16773,-27.09796 -7.29264,-13.2806 -18.82849,-24.1694 -31.81367,-31.83024 -9.75192,-5.45878 -20.87166,-8.69267 -32.09532,-8.47065 z M 213.24435,658.88109 c 10.72684,0.12772 18.30079,10.34068 18.39542,20.50659 1.38844,10.23811 1.08964,24.27912 -9.82353,29.3601 -13.67141,6.05632 -29.10539,4.556 -43.65812,5.25458 -19.58298,0.17236 -39.16218,-0.39768 -58.74426,-0.46336 25.68556,-19.61279 49.50049,-43.63534 81.13005,-53.10258 4.13788,-1.12138 8.41876,-1.59753 12.70044,-1.55533 z"
       id="path286"
       inkscape:connector-curvature="0" />
  </g>
</svg>
