<?xml version="1.0" encoding="UTF-8" standalone="no"?>
<!-- Created with Inkscape (http://www.inkscape.org/) -->

<svg
   xmlns:dc="http://purl.org/dc/elements/1.1/"
   xmlns:cc="http://creativecommons.org/ns#"
   xmlns:rdf="http://www.w3.org/1999/02/22-rdf-syntax-ns#"
   xmlns:svg="http://www.w3.org/2000/svg"
   xmlns="http://www.w3.org/2000/svg"
   xmlns:sodipodi="http://sodipodi.sourceforge.net/DTD/sodipodi-0.dtd"
   xmlns:inkscape="http://www.inkscape.org/namespaces/inkscape"
   width="1000"
   height="1000"
   viewBox="0 0 1000 1000"
   version="1.1"
   id="svg756"
   inkscape:version="0.92.3 (2405546, 2018-03-11)"
   sodipodi:docname="u304d.svg">
  <defs
     id="defs750" />
  <sodipodi:namedview
     id="base"
     pagecolor="#ffffff"
     bordercolor="#666666"
     borderopacity="1.0"
     inkscape:pageopacity="0.0"
     inkscape:pageshadow="2"
     inkscape:zoom="0.35"
     inkscape:cx="551.42857"
     inkscape:cy="576.33663"
     inkscape:document-units="px"
     inkscape:current-layer="layer1"
     showgrid="true"
     units="px"
     inkscape:window-width="1118"
     inkscape:window-height="864"
     inkscape:window-x="646"
     inkscape:window-y="128"
     inkscape:window-maximized="0"
     showguides="true"
     inkscape:guide-bbox="true">
    <inkscape:grid
       type="xygrid"
       id="grid758" />
    <sodipodi:guide
       position="240,200"
       orientation="0,1"
       id="guide8"
       inkscape:locked="false" />
  </sodipodi:namedview>
  <metadata
     id="metadata753">
    <rdf:RDF>
      <cc:Work
         rdf:about="">
        <dc:format>image/svg+xml</dc:format>
        <dc:type
           rdf:resource="http://purl.org/dc/dcmitype/StillImage" />
        <dc:title />
      </cc:Work>
    </rdf:RDF>
  </metadata>
  <g
     inkscape:label="Layer 1"
     inkscape:groupmode="layer"
     id="layer1"
     transform="translate(0,-32.41664)"
     style="display:inline">
    <path
       style="display:inline;fill:#000000;stroke-width:13.3742342"
       d="M 303.78006,55.235664 C 255.21342,57.697739 210.01164,78.229248 166.31228,98.069956 114.882,123.05501 65.237833,152.98351 22.472444,191.41011 15.836761,198.23659 8.0968672,206.22851 7.72815,216.3397 c 0.7247083,7.77036 9.567733,12.73644 16.54186,9.45488 32.813363,-6.53662 63.185717,-21.34108 94.12304,-33.63315 51.51005,-21.64139 102.25578,-45.62375 155.41741,-62.76961 5.19802,-1.08504 11.23913,-4.19653 16.29223,-2.44225 2.88267,5.43704 1.45949,12.04529 2.02064,17.99646 -1.44421,31.43938 -20.41381,58.20579 -37.39082,83.43503 -37.43839,53.01437 -82.61963,99.70664 -125.06094,148.54793 -16.62781,19.9849 -33.008954,40.66505 -44.607105,64.12206 -5.788869,12.26488 -8.363095,28.80533 1.493364,39.72233 9.012448,10.64717 24.829471,14.04827 37.514531,8.58772 28.93191,-9.08534 55.01877,-25.13571 81.68583,-39.29087 50.66538,-28.48881 98.48294,-61.76341 147.88015,-92.34061 3.75128,-2.24105 7.01698,-3.41641 3.06754,1.5012 -18.13488,29.98687 -42.18382,55.80928 -64.24284,82.88626 -45.25196,52.88997 -95.09048,101.50578 -143.12916,151.76329 -20.82134,22.75317 -41.85266,47.69173 -49.466715,78.44122 -6.156592,29.50965 -2.070391,56.00042 7.745065,83.58414 6.46962,17.52887 23.99334,34.59468 41.12266,44.80682 19.79034,11.02767 38.96577,15.52344 60.86334,18.51561 29.14603,2.30895 43.30418,2.73057 62.92631,-6.28986 29.82113,-11.30091 61.20046,-24.43635 87.76795,-42.42955 7.13579,-5.47039 15.34144,-11.91127 17.16836,-21.27343 0.6139,-7.88223 -6.76828,-14.4732 -14.36389,-13.93418 -19.409,-2.07734 -37.97767,5.64913 -56.85745,8.57343 -27.09335,6.46449 -54.76934,14.04995 -82.59495,9.0331 -17.50075,-2.57676 -35.69302,-7.30788 -50.06656,-18.22902 -10.68477,-11.55108 -9.29206,-28.71377 -9.07827,-43.31036 1.17183,-22.36692 12.0468,-42.63149 25.81423,-59.7153 29.05828,-38.23391 64.89909,-70.3177 98.79424,-104.02735 41.79801,-40.31854 81.3669,-83.16322 115.81456,-130.12671 20.82581,-27.98905 39.13818,-57.88198 55.44015,-88.72141 23.10998,-25.78049 39.15874,-57.64801 47.49597,-91.31798 2.16469,-11.11553 4.82047,-22.71449 3.18192,-34.0236 -3.42699,-11.63418 -11.64446,-20.95996 -18.00893,-31.0193 -24.10434,-32.43196 -58.67408,-55.392649 -94.89045,-71.868605 -6.14287,-1.975553 -12.8589,-5.320586 -19.35354,-3.570277 -8.85197,3.550439 -10.04492,14.6339 -9.04568,22.972087 0.62186,25.069075 10.14438,48.627095 15.17667,72.861135 2.74787,24.28231 5.69469,48.95738 4.52955,73.304 -0.32447,3.90003 0.41965,29.4323 -4.33853,30.72892 -46.31543,30.63866 -120.26748,84.49086 -170.2384,108.95772 -1.31295,0.20245 -6.64424,3.47712 -4.72866,0.59152 10.42392,-17.62875 55.27463,-71.92335 67.26846,-88.4831 30.6074,-38.99139 61.65936,-78.67359 81.69924,-124.50351 11.28524,-26.71173 14.93225,-58.29149 2.84872,-85.41734 -5.52974,-13.826477 -16.87632,-25.310535 -31.28985,-29.263652 -8.66177,-2.796993 -17.82918,-3.705015 -26.88934,-3.489874 z"
       id="path185"
       inkscape:connector-curvature="0"
       sodipodi:nodetypes="ccccccccccccccccccccccccccccccccccccccccccccccccccc" />
  </g>
</svg>
