<?xml version="1.0" encoding="UTF-8" standalone="no"?>
<!-- Created with Inkscape (http://www.inkscape.org/) -->

<svg
   xmlns:dc="http://purl.org/dc/elements/1.1/"
   xmlns:cc="http://creativecommons.org/ns#"
   xmlns:rdf="http://www.w3.org/1999/02/22-rdf-syntax-ns#"
   xmlns:svg="http://www.w3.org/2000/svg"
   xmlns="http://www.w3.org/2000/svg"
   xmlns:sodipodi="http://sodipodi.sourceforge.net/DTD/sodipodi-0.dtd"
   xmlns:inkscape="http://www.inkscape.org/namespaces/inkscape"
   width="1000"
   height="1000"
   viewBox="0 0 1000 1000"
   version="1.1"
   id="svg756"
   inkscape:version="0.92.3 (2405546, 2018-03-11)"
   sodipodi:docname="u304c.svg">
  <defs
     id="defs750" />
  <sodipodi:namedview
     id="base"
     pagecolor="#ffffff"
     bordercolor="#666666"
     borderopacity="1.0"
     inkscape:pageopacity="0.0"
     inkscape:pageshadow="2"
     inkscape:zoom="0.35"
     inkscape:cx="551.42857"
     inkscape:cy="576.33663"
     inkscape:document-units="px"
     inkscape:current-layer="layer1"
     showgrid="true"
     units="px"
     inkscape:window-width="1118"
     inkscape:window-height="864"
     inkscape:window-x="585"
     inkscape:window-y="96"
     inkscape:window-maximized="0"
     showguides="true"
     inkscape:guide-bbox="true">
    <inkscape:grid
       type="xygrid"
       id="grid758" />
    <sodipodi:guide
       position="240,200"
       orientation="0,1"
       id="guide8"
       inkscape:locked="false" />
  </sodipodi:namedview>
  <metadata
     id="metadata753">
    <rdf:RDF>
      <cc:Work
         rdf:about="">
        <dc:format>image/svg+xml</dc:format>
        <dc:type
           rdf:resource="http://purl.org/dc/dcmitype/StillImage" />
        <dc:title />
      </cc:Work>
    </rdf:RDF>
  </metadata>
  <g
     inkscape:label="Layer 1"
     inkscape:groupmode="layer"
     id="layer1"
     transform="translate(0,-32.41664)"
     style="display:inline">
    <path
       style="display:inline;fill:#000000;stroke-width:8.92487621"
       d="m 449.77278,3.8302873 c -19.11267,3.674014 -31.05926,21.5450797 -37.91439,38.4024787 -17.11391,35.079962 -34.66936,70.909164 -40.81173,109.823664 0.86184,16.57457 23.16888,27.47529 36.27688,16.68434 11.25722,-6.75251 19.00659,-17.69155 26.67737,-28.03674 0.12502,35.82586 1.01123,74.17973 20.5241,105.57576 13.78268,21.00116 41.32805,33.84665 65.97473,25.92281 14.1688,-3.7145 29.94566,-7.95822 43.97378,-1.93966 21.31252,5.67818 44.82688,13.29197 66.42007,4.55368 19.48748,-8.92055 23.98876,-38.0523 8.91839,-52.98984 -16.34865,-20.74283 -43.23165,-28.41597 -67.92234,-33.91164 -20.25332,-3.72383 -41.1321,-3.81889 -61.46331,-0.62693 -2.5789,-48.92025 1.43266,-98.683508 -8.50412,-147.010636 -5.88099,-19.012647 -22.32194,-37.2130001 -43.44805,-37.2835872 -2.91886,0 -5.8319,0.3098208 -8.70138,0.8363005 z M 301.11949,181.94506 c -22.35756,3.37829 -38.15903,24.1346 -42.39515,45.32447 -4.35124,15.64821 -3.8785,32.04018 -5.16533,48.09339 -36.61744,-18.84423 -78.54727,-21.91569 -118.78517,-26.23692 -24.0589,-1.47614 -50.956557,-0.69191 -70.586984,15.16461 -17.091208,13.88292 -28.408504,37.4822 -22.410332,59.46967 6.237536,12.84586 22.872388,15.5086 35.565374,12.51681 40.419962,-4.90564 82.145082,-12.32319 122.215392,-0.92982 13.29296,3.23687 27.97764,7.20387 37.41423,17.66504 0.15753,11.60227 -6.08066,21.98663 -7.93404,33.26415 -24.12295,80.40826 -58.02275,157.49378 -91.15845,234.57141 -22.00532,48.3871 -47.806249,94.95097 -72.320757,142.10392 -8.178478,18.78201 -14.698234,40.98017 -6.732473,60.90903 11.069042,23.47673 46.47893,32.04099 65.58726,13.39084 11.71733,-11.65817 10.52599,-29.63004 10.23897,-44.83502 1.68396,-10.16174 5.57724,-20.13296 10.06858,-29.34841 9.37202,25.36003 40.48028,37.86381 65.60524,30.01213 17.70392,-5.67245 32.61097,-17.68714 46.13837,-30.06647 25.89794,-25.27821 45.16453,-56.36097 63.29235,-87.4239 29.60255,-53.22764 51.99525,-110.41261 67.72723,-169.19768 6.15355,-38.16469 -1.15177,-77.01817 -11.04851,-113.89256 -9.18689,-27.43298 -29.34452,-49.18445 -50.44646,-68.14706 -5.8237,-3.77708 -0.27598,-10.43058 0.15311,-15.56986 8.94908,-33.29629 18.64731,-68.61501 10.38995,-103.08047 -4.72236,-14.47414 -19.6591,-26.53494 -35.4124,-23.7573 z m 1.20131,225.59413 c 12.71313,20.42967 21.79067,44.76492 16.74912,68.94132 -4.80541,28.44355 -13.38552,56.27724 -23.04385,83.50133 -18.36908,49.53035 -42.73386,97.19687 -75.60402,138.71021 -3.7434,5.44157 -0.75766,-5.10404 -0.84262,-7.67325 3.26173,-21.75923 8.53503,-43.57639 6.54857,-65.73072 0.43581,-23.60944 11.02946,-45.31671 17.24828,-67.7012 16.71201,-51.46595 35.79434,-102.14145 58.09908,-151.41716 l 0.49571,0.80298 z"
       id="path242"
       inkscape:connector-curvature="0" />
  </g>
</svg>
