<?xml version="1.0" encoding="UTF-8" standalone="no"?>
<!-- Created with Inkscape (http://www.inkscape.org/) -->

<svg
   xmlns:dc="http://purl.org/dc/elements/1.1/"
   xmlns:cc="http://creativecommons.org/ns#"
   xmlns:rdf="http://www.w3.org/1999/02/22-rdf-syntax-ns#"
   xmlns:svg="http://www.w3.org/2000/svg"
   xmlns="http://www.w3.org/2000/svg"
   xmlns:sodipodi="http://sodipodi.sourceforge.net/DTD/sodipodi-0.dtd"
   xmlns:inkscape="http://www.inkscape.org/namespaces/inkscape"
   width="1000"
   height="1000"
   viewBox="0 0 1000 1000"
   version="1.1"
   id="svg756"
   inkscape:version="0.92.3 (2405546, 2018-03-11)"
   sodipodi:docname="u3049.svg">
  <defs
     id="defs750" />
  <sodipodi:namedview
     id="base"
     pagecolor="#ffffff"
     bordercolor="#666666"
     borderopacity="1.0"
     inkscape:pageopacity="0.0"
     inkscape:pageshadow="2"
     inkscape:zoom="0.35"
     inkscape:cx="551.42857"
     inkscape:cy="576.33663"
     inkscape:document-units="px"
     inkscape:current-layer="layer1"
     showgrid="true"
     units="px"
     inkscape:window-width="1118"
     inkscape:window-height="864"
     inkscape:window-x="624"
     inkscape:window-y="97"
     inkscape:window-maximized="0"
     showguides="true"
     inkscape:guide-bbox="true">
    <inkscape:grid
       type="xygrid"
       id="grid758" />
    <sodipodi:guide
       position="240,200"
       orientation="0,1"
       id="guide8"
       inkscape:locked="false" />
  </sodipodi:namedview>
  <metadata
     id="metadata753">
    <rdf:RDF>
      <cc:Work
         rdf:about="">
        <dc:format>image/svg+xml</dc:format>
        <dc:type
           rdf:resource="http://purl.org/dc/dcmitype/StillImage" />
        <dc:title />
      </cc:Work>
    </rdf:RDF>
  </metadata>
  <g
     inkscape:label="Layer 1"
     inkscape:groupmode="layer"
     id="layer1"
     transform="translate(0,-32.41664)"
     style="display:inline">
    <path
       style="display:inline;fill:#000000;stroke-width:9.46554089"
       d="m 210.63668,300.39177 c -19.47796,0.61355 -32.90888,23.23828 -26.42668,41.05549 3.75273,19.89769 14.23425,37.55837 20.70937,56.42298 -27.9622,3.91771 -54.71852,13.94466 -82.44938,18.62834 -18.73494,4.65208 -38.719564,9.24139 -53.800147,21.96295 -8.485005,10.33017 -3.426197,27.8256 9.152465,32.24169 25.962052,15.78833 59.159822,15.73947 86.831772,4.49712 17.34908,-5.66189 34.90946,-13.21417 53.42483,-12.71473 6.37274,31.41763 9.2377,63.57243 4.57447,95.34711 -1.40583,9.38837 -2.92308,19.46524 -5.62849,28.17913 -36.11965,-9.59477 -73.69841,-19.51187 -111.36941,-14.25386 -30.5297,2.75498 -57.680313,27.71806 -61.942763,58.22716 -8.401494,41.5608 1.275884,84.06711 12.58508,124.0905 7.345889,22.6425 18.941392,46.13044 40.161223,58.65274 16.74457,8.84534 37.74934,5.49844 52.81502,-5.27951 23.63461,-14.63077 43.01889,-35.07668 61.1971,-55.84658 20.79554,-25.22217 35.9857,-54.38058 54.45162,-81.19635 1.99117,-2.07433 4.11438,2.49951 6.19941,2.76242 16.15373,11.4717 30.75514,25.37431 44.17125,40.09637 12.68359,14.18465 23.24088,30.52966 37.37245,43.39401 13.73948,9.97431 35.51153,10.60723 47.02348,-3.17852 15.40882,-16.99368 15.05123,-43.26966 6.43776,-63.37455 -8.51909,-21.98784 -22.51304,-41.27201 -32.62946,-62.39831 -4.47028,-12.87337 -7.0925,-26.5773 -9.10204,-39.99811 -0.0425,-3.13452 -0.67367,-10.73441 4.50198,-8.19928 8.54264,5.5135 13.27483,15.38193 17.57597,24.31987 8.48823,18.83787 14.29585,38.53744 20.80465,58.07804 4.31051,11.44267 9.74357,23.89595 21.42116,29.48475 13.84755,8.00723 34.28039,7.22314 44.2299,-6.56049 10.33474,-14.23472 7.15211,-33.27519 2.23198,-48.93687 -11.32296,-38.86617 -34.14909,-74.98368 -66.41107,-99.72982 -17.19115,-10.46938 -39.23322,-15.71384 -58.68911,-8.90317 -12.88139,6.04568 -17.30118,21.78561 -15.60575,34.98469 0.87636,22.85748 6.56484,45.15 9.68865,67.69966 0.15834,6.04487 -0.83853,12.71713 -3.40217,17.93468 -19.52906,-11.00602 -36.31903,-25.84286 -54.64902,-38.66476 6.10533,-41.02014 9.13064,-82.73076 10.38976,-123.97534 12.40299,2.89984 27.87927,4.96868 38.03418,-4.49466 8.38811,-10.03865 2.75776,-25.72238 -7.44675,-32.20489 -13.91957,-12.84328 -29.28139,-23.97244 -44.42702,-35.29755 -10.76519,-35.20035 -20.91503,-72.48744 -45.64503,-100.82748 -7.00329,-6.87527 -16.31311,-12.14185 -26.36124,-12.02487 z m -77.6356,327.47068 c 22.65848,0.33516 45.83604,4.2228 66.34762,14.16223 0.0488,11.18392 -6.91376,20.70862 -10.99038,30.71921 -14.47893,27.85804 -33.26399,53.52012 -55.73852,75.46262 -8.39343,-7.1497 -13.25685,-17.75428 -18.30309,-27.18428 -11.09383,-23.64858 -15.712605,-51.69737 -7.81068,-76.99769 4.68861,-9.9762 15.66985,-16.03152 26.49505,-16.16209 z"
       id="path387"
       inkscape:connector-curvature="0" />
  </g>
</svg>
