<?xml version="1.0" encoding="UTF-8" standalone="no"?>
<!-- Created with Inkscape (http://www.inkscape.org/) -->

<svg
   xmlns:dc="http://purl.org/dc/elements/1.1/"
   xmlns:cc="http://creativecommons.org/ns#"
   xmlns:rdf="http://www.w3.org/1999/02/22-rdf-syntax-ns#"
   xmlns:svg="http://www.w3.org/2000/svg"
   xmlns="http://www.w3.org/2000/svg"
   xmlns:sodipodi="http://sodipodi.sourceforge.net/DTD/sodipodi-0.dtd"
   xmlns:inkscape="http://www.inkscape.org/namespaces/inkscape"
   width="1000"
   height="1000"
   viewBox="0 0 1000 1000"
   version="1.1"
   id="svg756"
   inkscape:version="0.92.3 (2405546, 2018-03-11)"
   sodipodi:docname="u3058.svg">
  <defs
     id="defs750" />
  <sodipodi:namedview
     id="base"
     pagecolor="#ffffff"
     bordercolor="#666666"
     borderopacity="1.0"
     inkscape:pageopacity="0.0"
     inkscape:pageshadow="2"
     inkscape:zoom="0.35"
     inkscape:cx="551.42857"
     inkscape:cy="576.33663"
     inkscape:document-units="px"
     inkscape:current-layer="layer1"
     showgrid="true"
     units="px"
     inkscape:window-width="1118"
     inkscape:window-height="864"
     inkscape:window-x="541"
     inkscape:window-y="128"
     inkscape:window-maximized="0"
     showguides="true"
     inkscape:guide-bbox="true">
    <inkscape:grid
       type="xygrid"
       id="grid758" />
    <sodipodi:guide
       position="240,200"
       orientation="0,1"
       id="guide8"
       inkscape:locked="false" />
  </sodipodi:namedview>
  <metadata
     id="metadata753">
    <rdf:RDF>
      <cc:Work
         rdf:about="">
        <dc:format>image/svg+xml</dc:format>
        <dc:type
           rdf:resource="http://purl.org/dc/dcmitype/StillImage" />
        <dc:title />
      </cc:Work>
    </rdf:RDF>
  </metadata>
  <g
     inkscape:label="Layer 1"
     inkscape:groupmode="layer"
     id="layer1"
     transform="translate(0,-32.41664)"
     style="display:inline">
    <path
       style="display:inline;fill:#000000;stroke-width:14.64028454"
       d="m 629.1838,56.41664 c -19.37095,1.476734 -35.32523,14.211183 -50.57666,25.005017 -24.66134,19.017843 -48.05776,40.906373 -63.77396,68.072973 -5.75193,12.68255 -8.52429,26.48455 -14.4098,39.13436 -20.00806,52.008 -45.25252,101.94325 -63.41394,154.681 -4.758,15.06595 -9.51873,31.58768 -5.22272,47.29835 5.04597,14.14512 17.84685,23.95178 30.73311,30.65029 15.10752,6.3205 31.05743,-1.28998 44.5121,-8.07271 24.1193,-13.1437 44.81018,-32.09781 62.1283,-53.2725 15.1682,-19.95051 26.31975,-42.6859 42.68216,-61.78977 10.49294,-13.93587 24.06085,-25.02631 35.47405,-38.10002 3.90317,-4.86514 9.07253,-13.08056 3.74608,-18.6336 -7.50309,-5.23613 -16.95677,-0.11637 -24.52685,2.40162 -33.03757,13.48582 -60.17641,37.41319 -89.36857,57.30928 -3.39707,1.29976 -13.33012,12.37144 -10.64119,4.57206 5.2257,-23.93248 11.34274,-48.12558 24.32726,-69.19953 24.80566,-44.60464 59.93503,-82.87864 99.14829,-115.36373 11.20788,-10.69691 22.77017,-25.226323 19.99224,-41.732879 -3.21092,-14.008718 -18.47156,-20.693112 -31.52008,-22.12121 -3.07725,-0.456494 -6.18242,-0.710457 -9.28982,-0.839001 z M 84.233493,88.187226 c -7.932263,-0.478456 -14.6119,6.715798 -13.995844,14.581834 -1.746391,21.84364 2.765382,43.52705 4.838266,65.17108 14.434154,113.46091 17.276404,227.89715 23.382338,342.03213 3.998657,60.7378 8.041577,122.25193 25.496577,180.89562 9.83207,31.81483 27.63055,62.75805 56.38059,80.92631 35.45255,23.02022 80.44661,25.45632 120.86872,16.85927 62.55802,-12.77923 119.03571,-45.80606 168.9772,-84.57828 70.82136,-55.71583 129.81754,-126.06814 174.2952,-204.31863 12.18453,-22.23433 24.51818,-45.39759 27.8807,-70.85964 1.06042,-7.54462 -2.47356,-17.66027 -11.24648,-18.09786 -10.12243,-0.14279 -17.75998,8.00117 -25.39556,13.54596 -15.74611,13.04737 -27.05022,30.37363 -36.86141,48.07162 -28.88688,43.03276 -66.87102,78.7855 -104.90852,113.55173 -43.97078,39.14055 -89.9564,76.40569 -141.20022,105.71843 -27.37603,14.4179 -58.06194,24.55811 -89.26871,23.30114 -21.6703,-1.48473 -41.90997,-12.92275 -54.90431,-30.15587 -9.79459,-11.13888 -16.44526,-25.18612 -17.83547,-40.11261 -8.4576,-51.13315 -9.95125,-103.14041 -13.97784,-154.77522 -6.50565,-99.68973 -9.71129,-200.17381 -29.68046,-298.34734 -6.51279,-29.86431 -13.8405,-60.76475 -31.60892,-86.18721 C 108.13773,95.453727 97.039718,87.684417 84.233493,88.187226 Z"
       id="path248"
       inkscape:connector-curvature="0" />
  </g>
</svg>
