<?xml version="1.0" encoding="UTF-8" standalone="no"?>
<!-- Created with Inkscape (http://www.inkscape.org/) -->

<svg
   xmlns:dc="http://purl.org/dc/elements/1.1/"
   xmlns:cc="http://creativecommons.org/ns#"
   xmlns:rdf="http://www.w3.org/1999/02/22-rdf-syntax-ns#"
   xmlns:svg="http://www.w3.org/2000/svg"
   xmlns="http://www.w3.org/2000/svg"
   xmlns:sodipodi="http://sodipodi.sourceforge.net/DTD/sodipodi-0.dtd"
   xmlns:inkscape="http://www.inkscape.org/namespaces/inkscape"
   width="1000"
   height="1000"
   viewBox="0 0 1000 1000"
   version="1.1"
   id="svg756"
   inkscape:version="0.92.3 (2405546, 2018-03-11)"
   sodipodi:docname="u305b.svg">
  <defs
     id="defs750" />
  <sodipodi:namedview
     id="base"
     pagecolor="#ffffff"
     bordercolor="#666666"
     borderopacity="1.0"
     inkscape:pageopacity="0.0"
     inkscape:pageshadow="2"
     inkscape:zoom="0.35"
     inkscape:cx="341.66665"
     inkscape:cy="833.04257"
     inkscape:document-units="px"
     inkscape:current-layer="layer1"
     showgrid="true"
     units="px"
     inkscape:window-width="1118"
     inkscape:window-height="864"
     inkscape:window-x="601"
     inkscape:window-y="39"
     inkscape:window-maximized="0"
     showguides="true"
     inkscape:guide-bbox="true">
    <inkscape:grid
       type="xygrid"
       id="grid758" />
    <sodipodi:guide
       position="240,200"
       orientation="0,1"
       id="guide8"
       inkscape:locked="false" />
  </sodipodi:namedview>
  <metadata
     id="metadata753">
    <rdf:RDF>
      <cc:Work
         rdf:about="">
        <dc:format>image/svg+xml</dc:format>
        <dc:type
           rdf:resource="http://purl.org/dc/dcmitype/StillImage" />
        <dc:title />
      </cc:Work>
    </rdf:RDF>
  </metadata>
  <g
     inkscape:label="Layer 1"
     inkscape:groupmode="layer"
     id="layer1"
     transform="translate(0,-32.41664)"
     style="display:inline">
    <path
       style="display:inline;fill:#000000;stroke-width:17.81057739"
       d="m 499.37299,72.41664 c -8.29885,0.730716 -8.44254,10.724484 -10.49634,16.702741 -8.18488,31.547659 -13.96569,63.740549 -18.79618,95.975359 -2.35078,17.91047 -4.70429,35.82057 -7.05343,53.73125 C 412.10157,237.709 395,235.41664 338.03048,233.4731 326.72072,233.08727 296.42202,231.85917 288,229.41664 c 2,-10 5.16417,-15.59657 6.24826,-20.85119 10.68704,-29.63571 25.55162,-58.09925 45.51239,-82.55886 11.92876,-14.1644 30.37994,-19.18251 46.4912,-26.774865 1.80098,-1.616174 7.16963,-2.398383 6.11128,-5.52979 -3.92938,-3.648845 -10.28684,-2.894386 -15.22682,-4.339088 -20.96836,-2.838502 -42.60989,-2.909604 -63.3953,-1.633233 -16.6728,1.249342 -33.59575,8.161685 -42.99071,22.652086 C 248.43303,139.9957 210,222.41664 210,222.41664 c 0,0 -46.16165,3.46946 -72.49262,8.3739 -28.97293,5.92379 -58.449562,11.75732 -84.714821,25.87412 -7.24236,4.19831 -16.543693,12.65163 -12.35738,21.82623 6.365818,11.04717 20.264352,13.88629 31.615251,16.5144 29.34445,5.94726 59.29688,-0.014 88.2895,-4.68995 7.42057,-0.93447 14.66007,-1.8987 29.66007,-1.8987 -2.92966,8.50303 -6.47177,23.80957 -7.88157,32.5115 -12.18489,52.3224 -20.67152,106.20612 -26.53748,159.62387 -5.6636,57.64333 -7.52998,115.75033 -1.59308,173.60795 3.61791,33.2801 13.78123,67.83454 38.40131,91.74809 27.07388,26.11414 46.49518,34.41386 82.01225,43.78942 16.03768,4.23361 66.38839,4.04413 82.40263,1.03929 42.50402,-7.97516 49.769,-8.60546 85.16833,-25.6047 24.12424,-11.58488 52.00853,-34.98349 67.11237,-52.95653 26.78291,-30.48146 48.01148,-65.41363 67.92469,-100.59595 13.98381,-26.13461 27.7752,-53.15749 34.86659,-81.955 1.33012,-6.50828 1.82801,-15.94217 -5.68704,-18.70146 -7.70279,-3.8007 -16.94448,0.89892 -19.43941,8.81033 -8.46502,18.87548 -22.28851,34.59208 -34.90469,50.75959 -32.11395,38.3603 -67.4031,74.09266 -105.03454,107.04464 -16.48108,14.01171 -34.11622,27.0984 -54.44142,34.96776 -30.17378,12.9804 -64.40014,21.55954 -97.06788,13.69546 -25.8744,-6.54461 -47.62754,-25.32259 -59.64273,-48.94532 -20.29718,-37.77232 -24.04764,-81.81059 -23.78139,-123.96665 1.14262,-77.46388 18.8998,-153.59639 40.83082,-227.51836 C 257.06976,313.45975 260,302.41664 265,292.41664 c 23.77342,-2.03274 49.31968,-0.80924 68.23561,-0.58098 40.80101,1.9292 81.52631,5.14519 122.28486,7.78144 0.0348,21.00925 -4.73075,42.25627 -0.8722,63.05495 2.35574,11.33338 11.32114,23.91935 24.26047,22.45932 15.00886,-2.21799 23.81872,-17.0273 29.24927,-29.80435 7.46517,-17.67192 10.09888,-39.55958 11.58778,-58.47411 25.0968,-4.23669 40.75963,-11.60559 59.22072,-22.84275 16.31544,-9.93117 23.27207,-14.16999 31.78659,-30.24705 9.00842,-17.00952 11.36311,-46.80377 1.93123,-64.34212 -12.79456,-26.53171 -33.04487,-48.52306 -53.56862,-69.30294 -15.13271,-14.334445 -31.39943,-28.661309 -50.9726,-36.386628 -2.82439,-0.944584 -5.79297,-1.39698 -8.77012,-1.314782 z m 47.16174,135.00841 c -1.06012,12.1624 -23.00469,21.339 -23.00469,21.339 0,0 2.17292,-48.02706 9.74132,-49.81249 8.31305,-1.96117 14.17958,17.96226 13.26337,28.47349 z"
       id="path485"
       inkscape:connector-curvature="0"
       sodipodi:nodetypes="ccccscccccccccccccccccccssscccccccccccccccccccssccccscss" />
  </g>
</svg>
