<?xml version="1.0" encoding="UTF-8" standalone="no"?>
<!-- Created with Inkscape (http://www.inkscape.org/) -->

<svg
   xmlns:dc="http://purl.org/dc/elements/1.1/"
   xmlns:cc="http://creativecommons.org/ns#"
   xmlns:rdf="http://www.w3.org/1999/02/22-rdf-syntax-ns#"
   xmlns:svg="http://www.w3.org/2000/svg"
   xmlns="http://www.w3.org/2000/svg"
   xmlns:sodipodi="http://sodipodi.sourceforge.net/DTD/sodipodi-0.dtd"
   xmlns:inkscape="http://www.inkscape.org/namespaces/inkscape"
   width="1000"
   height="1000"
   viewBox="0 0 1000 1000"
   version="1.1"
   id="svg756"
   inkscape:version="0.92.3 (2405546, 2018-03-11)"
   sodipodi:docname="u305a.svg">
  <defs
     id="defs750" />
  <sodipodi:namedview
     id="base"
     pagecolor="#ffffff"
     bordercolor="#666666"
     borderopacity="1.0"
     inkscape:pageopacity="0.0"
     inkscape:pageshadow="2"
     inkscape:zoom="0.35"
     inkscape:cx="551.42857"
     inkscape:cy="576.33663"
     inkscape:document-units="px"
     inkscape:current-layer="layer1"
     showgrid="true"
     units="px"
     inkscape:window-width="1118"
     inkscape:window-height="864"
     inkscape:window-x="606"
     inkscape:window-y="126"
     inkscape:window-maximized="0"
     showguides="true"
     inkscape:guide-bbox="true">
    <inkscape:grid
       type="xygrid"
       id="grid758" />
    <sodipodi:guide
       position="240,200"
       orientation="0,1"
       id="guide8"
       inkscape:locked="false" />
  </sodipodi:namedview>
  <metadata
     id="metadata753">
    <rdf:RDF>
      <cc:Work
         rdf:about="">
        <dc:format>image/svg+xml</dc:format>
        <dc:type
           rdf:resource="http://purl.org/dc/dcmitype/StillImage" />
        <dc:title />
      </cc:Work>
    </rdf:RDF>
  </metadata>
  <g
     inkscape:label="Layer 1"
     inkscape:groupmode="layer"
     id="layer1"
     transform="translate(0,-32.41664)"
     style="display:inline">
    <path
       style="display:inline;fill:#000000;stroke-width:13.26673317"
       d="M 426.42365,29.96227 C 408.91261,34.46336 398.08582,50.29706 386,62.41664 c -20.44005,24.40124 -39.93884,50.49203 -66.82025,68.32542 -38.39359,28.37984 -82.55442,51.1196 -130.2025,58.10495 -26.84686,2.8765 -53.5889,7.5077 -79.18877,16.26898 -22.15154,6.9756 -45.124517,14.9803 -62.563766,30.8151 -5.77661,7.1457 -2.759581,19.5203 6.498397,21.9022 16.153002,6.5844 34.074969,3.4996 50.952659,3.9752 52.66929,-2.1413 105.04853,-10.3081 156.18295,-22.9344 44.28165,-12.868 85.87788,-36.1236 118.75807,-68.53908 1.44321,20.77051 0.0978,41.67708 0.28532,62.55328 -1.95924,76.7127 -18.66335,154.6944 -59.93575,220.4654 -17.45068,27.7339 -38.6819,52.9664 -62.59885,75.3657 -6.66507,5.9153 -16.39576,7.9671 -24.55539,4.0648 -13.97906,-5.0827 -27.30507,-12.3096 -42.2148,-14.4473 -23.67344,-5.3014 -50.6773,-6.9359 -72.0801,6.45 -16.40098,10.8879 -23.78828,32.5363 -18.53779,51.3236 8.92112,42.2181 51.29132,73.5665 94.19702,71.7766 7.58496,0.4509 15.2774,-1.5993 22.76082,-0.6357 5.45683,1.8656 2.33102,8.5759 2.95831,12.6204 -1.51517,18.6465 -5.84869,37.2699 -10.02662,55.5807 -8.36862,33.2283 -22.40853,64.8689 -29.29321,98.5037 -3.2336,15.9216 -2.48769,34.4194 9.33121,46.8352 6.66621,8.3363 19.26509,14.9221 29.31811,8.4548 10.97346,-6.8274 15.96134,-19.5354 22.50042,-30.0788 21.84417,-40.9589 35.79694,-85.5487 47.96983,-130.1492 6.61149,-26.5986 8.84093,-54.0691 11.44765,-81.1904 5.47147,-33.7858 22.30176,-65.0403 45.71221,-89.8907 45.58769,-56.2447 83.33123,-120.8146 98.17151,-192.2832 16.29108,-70.9265 21.00478,-143.93096 22.41615,-216.49251 -0.18778,-27.81484 -1.76768,-56.65465 -13.2584,-82.39908 -5.43641,-9.88521 -15.90994,-18.13381 -27.76079,-16.80003 z m 159.58777,12.32082 c -11.14621,0.94039 -25.57319,2.01499 -31.33647,13.27393 -3.85596,9.51185 3.67887,18.83993 10.72227,24.52107 7.68497,8.07409 19.74651,11.31939 25.44469,21.22736 2.66269,7.4273 -1.26016,15.40187 -3.31085,22.46163 -6.07541,14.33861 -12.62885,28.46844 -17.71891,43.20335 -4.41654,11.86633 -9.35415,24.77165 -6.83718,37.56466 4.32556,11.435 19.7618,15.5036 29.76348,8.9214 22.71571,-10.2342 38.0682,-31.15306 52.25561,-50.71275 15.50655,-24.03674 24.57152,-55.08319 14.12568,-82.85914 -9.65619,-24.10036 -35.95107,-38.71646 -61.43603,-37.97003 -3.89398,-0.0912 -7.7908,0.0501 -11.67229,0.36852 z"
       id="path882"
       inkscape:connector-curvature="0" />
  </g>
</svg>
