<?xml version="1.0" encoding="UTF-8" standalone="no"?>
<!-- Created with Inkscape (http://www.inkscape.org/) -->

<svg
   xmlns:dc="http://purl.org/dc/elements/1.1/"
   xmlns:cc="http://creativecommons.org/ns#"
   xmlns:rdf="http://www.w3.org/1999/02/22-rdf-syntax-ns#"
   xmlns:svg="http://www.w3.org/2000/svg"
   xmlns="http://www.w3.org/2000/svg"
   xmlns:sodipodi="http://sodipodi.sourceforge.net/DTD/sodipodi-0.dtd"
   xmlns:inkscape="http://www.inkscape.org/namespaces/inkscape"
   width="1000"
   height="1000"
   viewBox="0 0 1000 1000"
   version="1.1"
   id="svg756"
   inkscape:version="0.92.3 (2405546, 2018-03-11)"
   sodipodi:docname="u3055.svg">
  <defs
     id="defs750" />
  <sodipodi:namedview
     id="base"
     pagecolor="#ffffff"
     bordercolor="#666666"
     borderopacity="1.0"
     inkscape:pageopacity="0.0"
     inkscape:pageshadow="2"
     inkscape:zoom="0.35"
     inkscape:cx="551.42857"
     inkscape:cy="576.33663"
     inkscape:document-units="px"
     inkscape:current-layer="layer1"
     showgrid="true"
     units="px"
     inkscape:window-width="1118"
     inkscape:window-height="864"
     inkscape:window-x="667"
     inkscape:window-y="125"
     inkscape:window-maximized="0"
     showguides="true"
     inkscape:guide-bbox="true">
    <inkscape:grid
       type="xygrid"
       id="grid758" />
    <sodipodi:guide
       position="240,200"
       orientation="0,1"
       id="guide8"
       inkscape:locked="false" />
  </sodipodi:namedview>
  <metadata
     id="metadata753">
    <rdf:RDF>
      <cc:Work
         rdf:about="">
        <dc:format>image/svg+xml</dc:format>
        <dc:type
           rdf:resource="http://purl.org/dc/dcmitype/StillImage" />
        <dc:title />
      </cc:Work>
    </rdf:RDF>
  </metadata>
  <g
     inkscape:label="Layer 1"
     inkscape:groupmode="layer"
     id="layer1"
     transform="translate(0,-32.41664)"
     style="display:inline">
    <path
       style="display:inline;fill:#000000;stroke-width:14.33169174"
       d="m 518.73833,30.411197 c -27.94005,0.634581 -51.56834,19.363737 -68.7773,39.853253 -27.87378,36.2111 -48.86745,77.04146 -71.33507,116.66996 -3.78345,6.1512 -6.48365,13.38142 -10.83576,18.93883 -71.57487,38.38794 -141.93704,79.05835 -214.62062,115.36998 -35.93498,18.65586 -72.222222,36.76466 -107.073908,57.39431 -7.71359,4.22316 -7.347979,14.14337 -5.902424,21.61146 2.897121,12.1105 6.318775,24.9184 15.769952,33.69701 11.553893,11.8153 30.758363,18.4635 46.23873,10.66167 6.76632,-3.90129 10.55823,-11.46107 11.8141,-18.83936 10.67763,-10.48897 24.25278,-17.417 36.78338,-25.38643 43.38552,-25.05811 89.75478,-44.66829 133.51704,-69.11512 17.59947,-8.39988 36.17857,-15.16444 52.66196,-25.82776 -12.77837,36.88498 -26.74901,73.53801 -35.59958,111.66608 -19.42765,72.33032 -42.33625,143.76979 -60.61132,216.44141 -9.57076,43.60218 -15.11374,90.3885 -0.70514,133.60189 7.8092,21.38567 21.60206,42.09777 42.42574,52.51983 10.92828,2.3816 18.47897,-8.20367 26.02717,-14.04309 58.59733,-51.91943 107.85854,-115.45697 176.24038,-155.35079 52.22248,-32.61497 113.11713,-48.39949 165.52953,-80.79234 5.83583,-4.53832 15.44333,-8.34176 14.78377,-17.20496 0,-6.51241 -5.72584,-11.41172 -11.97844,-11.81226 -15.9576,-3.39115 -32.34413,-0.2977 -48.43022,0.26513 -68.54037,6.28613 -133.31473,34.39973 -190.2689,72.09312 -41.57167,27.356 -79.48777,59.92034 -115.00124,94.69365 3.83727,-34.94428 9.55918,-69.59461 19.066,-103.4689 25.41559,-101.15655 53.79585,-201.65213 88.15544,-300.16387 5.86345,-13.98169 11.16976,-28.61749 18.25587,-41.81935 30.11881,-21.2691 61.33286,-41.02002 93.67142,-58.84308 29.31725,-18.05978 57.97861,-39.39802 77.099,-68.52244 6.15407,-10.51173 7.3557,-23.7403 2.36211,-34.94174 -7.79023,-26.144652 -27.54806,-47.42855 -50.23896,-61.753848 -8.85116,-4.850455 -18.88646,-7.749512 -29.02271,-7.592245 z m -3.02507,75.544033 c 8.13216,0.78428 12.64157,13.20951 4.7327,17.58649 -13.80943,11.54995 -30.5037,18.88484 -45.14287,29.28199 -6.16113,5.23586 -1.72674,-1.48019 -0.0792,-4.83036 8.91563,-16.44673 19.93693,-33.093 37.18903,-41.5395 1.06433,-0.33628 2.18079,-0.54108 3.30028,-0.49862 z"
       id="path432"
       inkscape:connector-curvature="0" />
  </g>
</svg>
