<?xml version="1.0" encoding="UTF-8" standalone="no"?>
<!-- Created with Inkscape (http://www.inkscape.org/) -->

<svg
   xmlns:dc="http://purl.org/dc/elements/1.1/"
   xmlns:cc="http://creativecommons.org/ns#"
   xmlns:rdf="http://www.w3.org/1999/02/22-rdf-syntax-ns#"
   xmlns:svg="http://www.w3.org/2000/svg"
   xmlns="http://www.w3.org/2000/svg"
   xmlns:sodipodi="http://sodipodi.sourceforge.net/DTD/sodipodi-0.dtd"
   xmlns:inkscape="http://www.inkscape.org/namespaces/inkscape"
   width="1000"
   height="1000"
   viewBox="0 0 1000 1000"
   version="1.1"
   id="svg756"
   inkscape:version="0.92.3 (2405546, 2018-03-11)"
   sodipodi:docname="u305f.svg">
  <defs
     id="defs750" />
  <sodipodi:namedview
     id="base"
     pagecolor="#ffffff"
     bordercolor="#666666"
     borderopacity="1.0"
     inkscape:pageopacity="0.0"
     inkscape:pageshadow="2"
     inkscape:zoom="0.35"
     inkscape:cx="551.42857"
     inkscape:cy="576.33663"
     inkscape:document-units="px"
     inkscape:current-layer="layer1"
     showgrid="true"
     units="px"
     inkscape:window-width="1118"
     inkscape:window-height="864"
     inkscape:window-x="780"
     inkscape:window-y="94"
     inkscape:window-maximized="0"
     showguides="true"
     inkscape:guide-bbox="true">
    <inkscape:grid
       type="xygrid"
       id="grid758" />
    <sodipodi:guide
       position="240,200"
       orientation="0,1"
       id="guide8"
       inkscape:locked="false" />
  </sodipodi:namedview>
  <metadata
     id="metadata753">
    <rdf:RDF>
      <cc:Work
         rdf:about="">
        <dc:format>image/svg+xml</dc:format>
        <dc:type
           rdf:resource="http://purl.org/dc/dcmitype/StillImage" />
        <dc:title />
      </cc:Work>
    </rdf:RDF>
  </metadata>
  <g
     inkscape:label="Layer 1"
     inkscape:groupmode="layer"
     id="layer1"
     transform="translate(0,-32.41664)"
     style="display:inline">
    <path
       style="display:inline;fill:#000000;stroke-width:11.44365883"
       d="M 454.27858,57.242462 C 423.68411,60.473663 393.2475,69.348886 362.14077,66.640878 343.33645,66.045859 324.65832,61.720124 306.05705,60.82491 293.98935,64.730027 290.18917,79.362479 290,90.484643 c -5.26948,43.768927 -3.83859,88.096417 -6.77359,132.055207 -1.13172,7.86628 -9.64436,10.6153 -14.51243,15.68547 -67.38433,55.55402 -138.54923,109.16342 -190.228877,180.51968 -19.630428,27.61983 -37.60429,59.10163 -38.529619,93.73912 1.674737,9.09507 15.045404,11.08455 20.641886,4.41488 37.231887,-23.07982 59.92855,-62.08918 92.35038,-90.62929 40.27536,-39.67992 81.99972,-78.1679 127.98597,-111.20461 -9.20011,89.11411 -36.55689,175.24031 -45.61267,264.31737 -2.03787,25.37086 -3.21652,51.20117 1.14821,76.43985 3.95457,17.69905 15.13028,36.92604 34.69042,39.36992 11.06242,0.99235 20.61937,-6.38439 26.30701,-15.24806 17.00922,-22.26024 28.67292,-47.91648 42.79583,-72.03669 20.72935,-37.60795 42.98984,-76.28901 77.57912,-102.93238 3.32148,-2.11264 6.92337,-3.72671 10.41052,-5.53647 -2.27223,37.6234 -18.73408,72.52519 -23.24322,109.71214 -8.98406,52.34219 -10.13461,108.21757 10.55666,158.06765 12.64857,28.48773 38.19265,51.60449 68.83248,58.47556 48.88445,13.40995 100.45537,0.16342 145.97784,-19.00893 77.79857,-33.36109 142.90912,-90.58288 198.99094,-153.085 22.27741,-25.69336 43.83665,-53.76493 53.39533,-86.89991 3.09441,-12.93844 4.38703,-28.48304 -4.159,-39.52542 -7.74546,-6.80811 -18.87554,-2.3646 -25.56558,3.72497 -19.04867,14.64749 -33.71368,33.98716 -49.81774,51.62314 -30.26132,35.28663 -61.84379,69.95042 -99.40534,97.66532 -44.72355,34.53812 -95.91135,63.48234 -152.36415,72.4415 -22.27646,2.76568 -47.76191,0.14476 -64.53209,-16.32089 -18.7875,-19.64263 -22.11037,-48.77368 -20.20296,-74.71484 5.05126,-65.64164 36.57849,-124.91995 56.33432,-186.63762 4.13713,-14.41556 8.54914,-29.25335 8.91561,-44.2373 -3.34749,-14.48903 -18.51315,-21.76645 -31.24274,-26.43156 -8.93365,-2.72239 -20.46436,-4.09004 -27.88786,2.69793 -3.14149,5.7441 -8.01399,12.02677 -15.3197,11.56523 -14.71939,1.99641 -29.91445,0.7867 -43.46741,7.79213 -34.53091,14.56423 -61.46095,42.29769 -84.09025,71.40368 -7.6982,9.92358 -13.90078,21.20198 -22.21081,30.50895 -4.38088,1.25143 -3.75177,-4.95862 -2.87929,-7.46651 12.61404,-53.36247 25.73775,-106.70577 33.88853,-160.92987 4.49303,-25.89327 7.4843,-52.21468 14.72789,-77.51876 6.62067,-18.02952 21.65093,-31.10891 37.43042,-41.15166 40.53408,-29.38355 82.10269,-59.30754 111.53498,-100.37133 7.94502,-12.03977 15.72284,-26.44419 11.7262,-41.290496 -4.60473,-21.469133 -23.8332,-37.928129 -45.38922,-41.046331 -4.77597,-0.916169 -9.64551,-1.329371 -14.50742,-1.237951 z m -22.78257,62.927658 c -20.16097,28.75028 -46.68274,54.09721 -79.33919,67.93866 -0.94299,-18.23265 -4.77525,-38.69589 5.80855,-55.01523 11.84349,-13.95316 31.82517,-14.51808 48.6762,-15.53504 9.02316,-0.31027 18.05415,-0.27929 27.08052,-0.44896 -0.74202,1.02019 -1.48406,2.04037 -2.22608,3.06057 z"
       id="path131"
       inkscape:connector-curvature="0" />
  </g>
</svg>
