<?xml version="1.0" encoding="UTF-8" standalone="no"?>
<!-- Created with Inkscape (http://www.inkscape.org/) -->

<svg
   xmlns:dc="http://purl.org/dc/elements/1.1/"
   xmlns:cc="http://creativecommons.org/ns#"
   xmlns:rdf="http://www.w3.org/1999/02/22-rdf-syntax-ns#"
   xmlns:svg="http://www.w3.org/2000/svg"
   xmlns="http://www.w3.org/2000/svg"
   xmlns:sodipodi="http://sodipodi.sourceforge.net/DTD/sodipodi-0.dtd"
   xmlns:inkscape="http://www.inkscape.org/namespaces/inkscape"
   width="1000"
   height="1000"
   viewBox="0 0 1000 1000"
   version="1.1"
   id="svg756"
   inkscape:version="0.92.3 (2405546, 2018-03-11)"
   sodipodi:docname="u3056.svg">
  <defs
     id="defs750" />
  <sodipodi:namedview
     id="base"
     pagecolor="#ffffff"
     bordercolor="#666666"
     borderopacity="1.0"
     inkscape:pageopacity="0.0"
     inkscape:pageshadow="2"
     inkscape:zoom="0.35"
     inkscape:cx="551.42857"
     inkscape:cy="576.33663"
     inkscape:document-units="px"
     inkscape:current-layer="layer1"
     showgrid="true"
     units="px"
     inkscape:window-width="1118"
     inkscape:window-height="864"
     inkscape:window-x="600"
     inkscape:window-y="125"
     inkscape:window-maximized="0"
     showguides="true"
     inkscape:guide-bbox="true">
    <inkscape:grid
       type="xygrid"
       id="grid758" />
    <sodipodi:guide
       position="240,200"
       orientation="0,1"
       id="guide8"
       inkscape:locked="false" />
  </sodipodi:namedview>
  <metadata
     id="metadata753">
    <rdf:RDF>
      <cc:Work
         rdf:about="">
        <dc:format>image/svg+xml</dc:format>
        <dc:type
           rdf:resource="http://purl.org/dc/dcmitype/StillImage" />
        <dc:title />
      </cc:Work>
    </rdf:RDF>
  </metadata>
  <g
     inkscape:label="Layer 1"
     inkscape:groupmode="layer"
     id="layer1"
     transform="translate(0,-32.41664)"
     style="display:inline">
    <path
       style="display:inline;fill:#000000;stroke-width:13.58134747"
       d="m 627.86307,32.41664 c -13.84176,-0.02716 -30.21879,5.245774 -35.38768,19.417086 -5.32387,15.831954 3.90978,32.000573 13.83593,43.827923 17.34329,20.688781 42.90777,37.223251 70.84401,35.343201 17.59187,-0.66484 35.17891,-12.11297 39.68283,-29.70097 3.68966,-13.384908 2.95265,-29.850157 -8.28825,-39.555017 C 694.98029,49.904258 677.50635,43.794841 660.79665,37.818793 650.15312,34.499065 639.05363,32.259456 627.86307,32.41664 Z M 337.66096,85.451884 c -8.59874,0.24979 -20.62218,-0.238112 -24.83143,9.084993 -4.05274,11.802863 0.20028,24.499653 2.02865,36.338943 4.69142,24.02985 11.80508,47.57808 15.69114,71.75123 1.24112,6.32531 -0.89575,14.48589 -8.29934,15.46101 -10.53447,2.19635 -21.55468,0.45033 -31.91729,3.93655 -46.19943,12.24676 -90.73158,29.9513 -135.10466,47.52869 -34.70483,14.49305 -69.900366,28.40652 -102.482445,47.35056 -6.355156,3.37639 -11.724487,9.02248 -12.440927,16.48418 -1.525302,10.77865 -0.846541,22.65984 4.608283,32.27664 9.602894,12.04806 25.691221,15.77969 40.021029,18.96839 29.03013,5.10219 59.60352,5.53714 88.05879,-2.90703 10.59758,-3.25297 21.2793,-9.32279 25.5337,-20.15826 14.93149,-21.55229 38.63402,-34.99116 61.40272,-46.61866 31.67354,-15.40974 66.25385,-25.32852 101.19017,-28.87251 9.61235,-1.2052 18.75696,4.51002 22.65606,13.23751 9.84308,20.28039 15.96123,42.31529 22.62429,63.65105 8.62694,31.45466 15.23111,66.15649 2.26429,97.33548 -11.8755,28.17755 -38.44706,46.77442 -64.39381,60.92515 -22.97484,13.21408 -47.39356,27.85254 -60.52625,51.80252 -10.60886,19.29154 -6.90301,42.7982 1.82313,62.03158 13.52797,29.95631 33.79811,56.29156 54.55281,81.54478 42.6321,48.68983 99.7828,82.0994 158.60942,107.52678 30.65558,11.0553 64.60521,5.32295 94.50206,-5.42538 36.43235,-13.77923 71.20331,-36.7631 91.65491,-70.65143 8.002,-15.38982 16.12031,-31.16249 19.79838,-48.23218 1.21523,-4.76547 0.033,-12.22726 -6.1462,-12.3629 -10.79996,0.64471 -19.56191,8.38998 -28.30207,13.98983 -19.86773,14.56757 -38.11405,31.73278 -61.04407,41.50733 -32.3593,15.35406 -70.60348,16.17646 -103.89058,3.60963 -39.30974,-14.23635 -71.48482,-41.98785 -102.2462,-69.52851 -21.16438,-20.32431 -42.58121,-42.15748 -53.30585,-70.00757 -5.1687,-12.97623 -4.62338,-29.8881 6.93375,-39.34563 12.08495,-10.75316 29.29111,-11.38275 42.62108,-20.01956 37.34562,-20.94785 59.8615,-61.12318 68.90928,-101.92352 10.40062,-45.80954 5.09695,-94.17735 -10.78397,-138.08902 -2.81196,-10.96339 -8.76516,-22.20064 -6.39959,-33.74242 3.67794,-7.80243 14.02426,-8.39199 21.09957,-10.5155 31.69264,-6.33831 65.65734,-11.05079 92.25299,-30.96285 12.2245,-8.8295 20.90466,-24.38886 17.01007,-39.67724 -4.33896,-16.69276 -16.0791,-30.27459 -27.30879,-42.87367 -8.10673,-7.8915 -17.14726,-17.53692 -29.18777,-18.16263 -11.98625,0.73025 -18.99725,12.40547 -25.34351,21.11266 -9.23156,15.00967 -20.90655,31.80803 -39.74146,34.71309 -19.19668,2.58761 -39.40647,-2.67632 -56.3853,-12.12942 -10.03871,-5.38835 -13.71136,-17.27749 -16.13555,-27.52377 -2.1286,-10.33538 -0.27335,-24.70892 11.47165,-28.1797 6.84687,-0.70517 16.39979,-0.65138 19.24105,-8.51059 2.60672,-7.53487 -3.48474,-14.638935 -10.28201,-17.05646 -22.02255,-9.394304 -46.60571,-8.687708 -70.0602,-8.692166 z"
       id="path762"
       inkscape:connector-curvature="0" />
  </g>
</svg>
