<?xml version="1.0" encoding="UTF-8" standalone="no"?>
<!-- Created with Inkscape (http://www.inkscape.org/) -->

<svg
   xmlns:dc="http://purl.org/dc/elements/1.1/"
   xmlns:cc="http://creativecommons.org/ns#"
   xmlns:rdf="http://www.w3.org/1999/02/22-rdf-syntax-ns#"
   xmlns:svg="http://www.w3.org/2000/svg"
   xmlns="http://www.w3.org/2000/svg"
   xmlns:sodipodi="http://sodipodi.sourceforge.net/DTD/sodipodi-0.dtd"
   xmlns:inkscape="http://www.inkscape.org/namespaces/inkscape"
   width="1000"
   height="1000"
   viewBox="0 0 1000 1000"
   version="1.1"
   id="svg756"
   inkscape:version="0.92.3 (2405546, 2018-03-11)"
   sodipodi:docname="u3059.svg">
  <defs
     id="defs750" />
  <sodipodi:namedview
     id="base"
     pagecolor="#ffffff"
     bordercolor="#666666"
     borderopacity="1.0"
     inkscape:pageopacity="0.0"
     inkscape:pageshadow="2"
     inkscape:zoom="0.35"
     inkscape:cx="551.42857"
     inkscape:cy="576.33663"
     inkscape:document-units="px"
     inkscape:current-layer="layer1"
     showgrid="true"
     units="px"
     inkscape:window-width="1118"
     inkscape:window-height="864"
     inkscape:window-x="572"
     inkscape:window-y="128"
     inkscape:window-maximized="0"
     showguides="true"
     inkscape:guide-bbox="true">
    <inkscape:grid
       type="xygrid"
       id="grid758" />
    <sodipodi:guide
       position="240,200"
       orientation="0,1"
       id="guide8"
       inkscape:locked="false" />
  </sodipodi:namedview>
  <metadata
     id="metadata753">
    <rdf:RDF>
      <cc:Work
         rdf:about="">
        <dc:format>image/svg+xml</dc:format>
        <dc:type
           rdf:resource="http://purl.org/dc/dcmitype/StillImage" />
        <dc:title />
      </cc:Work>
    </rdf:RDF>
  </metadata>
  <g
     inkscape:label="Layer 1"
     inkscape:groupmode="layer"
     id="layer1"
     transform="translate(0,-32.41664)"
     style="display:inline">
    <path
       style="display:inline;fill:#000000;stroke-width:12.95483971"
       d="m 304.82556,39.492083 c -9.00901,0.0095 -17.78496,7.481156 -16.76611,16.936987 -0.21059,14.887308 4.06192,29.845079 6.42048,44.71511 9.13382,42.05181 25.07693,83.94097 22.06483,127.74389 -0.71369,3.70744 0.71631,9.09471 -1.44359,11.76512 -22.02187,6.70622 -45.48824,3.87426 -68.14334,3.98511 -45.57707,-0.28774 -93.17487,-1.23722 -135.21728,-21.01882 -26.864461,-13.33328 -55.058932,-29.013 -85.640682,-27.14116 -7.440709,0.66079 -15.697029,7.41465 -12.872912,15.47696 4.04954,15.6263 18.74131,24.91852 30.265898,34.77232 24.801298,19.97419 52.310927,39.52864 84.815146,43.56922 37.05774,6.08745 74.69708,8.95493 112.05441,11.34553 23.11734,0.58459 46.2374,-1.32978 69.34919,-0.30096 -1.88196,10.82896 -4.04913,21.56545 -6.14893,32.33149 -7.21643,27.69387 -26.58092,50.10706 -46.28356,69.96939 -14.72123,12.66496 -33.4561,20.70335 -45.77581,36.0347 -5.07857,7.15723 -5.65278,16.62753 -1.33574,24.2826 7.66296,16.25796 19.67155,30.0063 31.93752,42.99847 5.51048,4.97952 11.48898,10.68179 18.92635,12.22932 6.30925,0.15955 14.65286,-0.44333 18.35581,5.99788 13.35534,16.12892 13.34785,38.21699 19.14454,57.41089 7.23906,30.59878 4.9704,62.85242 -4.1427,92.80177 -5.79588,24.1985 -14.28778,49.64386 -33.75252,66.35948 -6.00957,4.78272 -15.23248,5.95135 -21.27468,0.56231 -24.21973,-13.58363 -40.30697,-37.07889 -59.76972,-55.97011 -7.45706,-5.41109 -17.07406,-11.60637 -26.60838,-8.40183 -15.10714,7.78028 -17.84152,27.92842 -14.69224,42.82309 6.4226,35.0391 31.95647,63.4738 60.13131,83.84817 17.88374,13.83595 40.54256,26.23606 63.64405,21.12714 22.06645,-4.74224 40.72618,-20.05286 54.4105,-37.6834 36.56557,-43.23204 60.37057,-98.85086 59.70377,-155.90709 0.0691,-42.85961 -12.14519,-84.86391 -26.53332,-124.97323 -6.86457,-22.32186 -16.21413,-45.98388 -11.12796,-69.68982 5.34215,-15.19948 18.25091,-25.73947 24.22555,-40.51822 13.65391,-28.71652 22.88669,-59.78278 26.64574,-91.31108 0.83262,-3.39966 -0.49039,-8.09477 1.45377,-10.51722 25.43838,-10.24174 53.42126,-18.12278 73.20878,-38.19565 8.9705,-9.74352 17.5075,-23.74045 11.62997,-37.23395 -6.40506,-14.98208 -23.75314,-19.11871 -36.47013,-27.0147 -21.3734,-14.41462 -38.74941,-34.27456 -52.77399,-55.77848 -10.1296,-15.58682 -18.39853,-32.33445 -24.30098,-49.935763 -7.51548,-20.391545 -24.2055,-37.2414 -44.51837,-44.927794 -4.15535,-1.283284 -8.29352,-2.828817 -12.79467,-2.56767 z M 387.3112,192.41664 c 11.6768,8.1618 24.57893,18.62788 26.55924,33.61621 -2.30882,9.10684 -13.55285,10.57245 -21.48034,10.12511 -4.5505,1.02334 -6.96655,-3.73074 -5.94875,-7.58107 -0.78339,-12.60122 -2.8461,-25.38204 -1.94345,-38.13288 0.93773,0.65754 1.87551,1.31509 2.8133,1.97263 z"
       id="path431"
       inkscape:connector-curvature="0" />
  </g>
</svg>
