<?xml version="1.0" encoding="UTF-8" standalone="no"?>
<!-- Created with Inkscape (http://www.inkscape.org/) -->

<svg
   xmlns:dc="http://purl.org/dc/elements/1.1/"
   xmlns:cc="http://creativecommons.org/ns#"
   xmlns:rdf="http://www.w3.org/1999/02/22-rdf-syntax-ns#"
   xmlns:svg="http://www.w3.org/2000/svg"
   xmlns="http://www.w3.org/2000/svg"
   xmlns:sodipodi="http://sodipodi.sourceforge.net/DTD/sodipodi-0.dtd"
   xmlns:inkscape="http://www.inkscape.org/namespaces/inkscape"
   width="1000"
   height="1000"
   viewBox="0 0 1000 1000"
   version="1.1"
   id="svg756"
   inkscape:version="0.92.3 (2405546, 2018-03-11)"
   sodipodi:docname="u306d.svg">
  <defs
     id="defs750" />
  <sodipodi:namedview
     id="base"
     pagecolor="#ffffff"
     bordercolor="#666666"
     borderopacity="1.0"
     inkscape:pageopacity="0.0"
     inkscape:pageshadow="2"
     inkscape:zoom="0.35"
     inkscape:cx="551.42857"
     inkscape:cy="578.63539"
     inkscape:document-units="px"
     inkscape:current-layer="layer1"
     showgrid="true"
     units="px"
     inkscape:window-width="1118"
     inkscape:window-height="864"
     inkscape:window-x="730"
     inkscape:window-y="95"
     inkscape:window-maximized="0"
     showguides="true"
     inkscape:guide-bbox="true">
    <inkscape:grid
       type="xygrid"
       id="grid758" />
    <sodipodi:guide
       position="240,200"
       orientation="0,1"
       id="guide8"
       inkscape:locked="false" />
  </sodipodi:namedview>
  <metadata
     id="metadata753">
    <rdf:RDF>
      <cc:Work
         rdf:about="">
        <dc:format>image/svg+xml</dc:format>
        <dc:type
           rdf:resource="http://purl.org/dc/dcmitype/StillImage" />
        <dc:title />
      </cc:Work>
    </rdf:RDF>
  </metadata>
  <g
     inkscape:label="Layer 1"
     inkscape:groupmode="layer"
     id="layer1"
     transform="translate(0,-32.41664)"
     style="display:inline">
    <path
       style="display:inline;fill:#000000;stroke-width:12.50024509"
       d="m 165.80934,52.531589 c -13.84895,0.157756 -23.16967,14.109363 -24.25051,26.819229 -6.1398,28.094132 -1.37368,56.952442 2.11922,85.051992 -29.77731,9.1354 -60.235739,17.43673 -87.809707,32.24288 -10.134591,6.19414 -19.814984,18.11495 -15.979237,30.65577 5.043403,14.75677 22.035118,20.70975 36.332641,21.49465 24.837173,1.17578 47.217873,-12.16343 70.811503,-17.04733 3.47684,-1.71601 1.1393,5.42964 2.34735,7.25502 7.48668,73.33097 5.57244,147.12943 5.9025,220.76453 -13.79553,25.83915 -34.82869,47.95831 -43.29736,76.5219 -9.62134,27.76613 -13.537578,59.61988 -1.8408,87.38958 5.92833,12.53625 17.67813,21.45203 30.16622,26.52387 -1.19036,10.98419 -0.44514,22.21048 -1.08703,33.3106 -0.36521,26.03669 0.42609,53.27905 11.60961,77.28174 6.85186,11.56148 24.54466,16.63184 34.9914,6.87496 12.83702,-10.94646 13.51035,-29.32591 15.97216,-44.75514 3.49406,-27.70762 3.26724,-55.94471 8.50585,-83.27878 4.04463,-6.96889 11.46613,-11.141 16.18288,-17.64524 35.55284,-37.9204 64.5223,-81.67024 87.42254,-128.25226 7.3435,-14.05016 13.96861,-32.12155 30.73653,-36.90138 11.99891,-2.61474 24.45734,-2.06375 36.6244,-1.85871 50.19929,3.11919 96.89078,23.44824 141.40914,45.46612 27.02784,14.07357 54.03154,30.42554 73.74452,54.06428 4.77878,6.65974 4.88831,16.37055 -1.46415,22.08364 -14.39533,17.09457 -36.65227,24.34922 -57.3902,30.83977 -31.8158,8.74295 -64.99205,6.70041 -97.37486,11.5293 -11.64466,2.23164 -24.27302,5.0034 -33.25938,13.13349 -7.01593,9.62636 -1.8862,22.33644 3.87995,31.22965 18.26897,31.40335 45.28956,56.35081 70.91922,81.61396 38.68997,36.48532 84.65875,67.55778 137.21705,79.31827 18.78433,3.80501 40.46712,6.18831 57.11172,-5.41999 11.23216,-7.14985 16.82649,-20.1672 17.9278,-33.03734 0.90303,-10.08745 0.0226,-21.7042 -7.00343,-29.54942 -10.19284,-9.11001 -25.06706,-5.85857 -37.07573,-3.12947 -23.57577,3.56353 -46.60694,-5.55576 -68.26176,-14.44603 -20.83958,-9.62199 -40.95992,-22.27522 -55.94949,-39.81042 -3.16416,-4.50063 -7.29244,-11.55429 -3.36028,-16.50683 9.0009,-4.58707 19.50999,-1.85104 29.36406,-3.29526 28.1758,-2.28396 53.46752,-17.62347 74.48906,-35.63907 17.92355,-16.18445 33.2426,-36.29838 40.60531,-59.5062 5.30375,-19.10337 0.74812,-39.87982 -10.20858,-56.15055 -20.64142,-34.0445 -54.53026,-57.14473 -88.13513,-77.03573 -63.75661,-36.2057 -136.50746,-56.41463 -209.80426,-58.315 10.50096,-34.8315 14.27924,-71.42425 14.50854,-107.6862 -2.93982,-52.80417 -34.98537,-105.00056 -84.64175,-125.67604 -26.63749,-11.26066 -56.72474,-12.96586 -84.91072,-7.2713 -4.60564,-30.6227 -9.57724,-61.84537 -22.58635,-90.187584 -3.3481,-5.073672 -8.91236,-9.180122 -15.21046,-9.063927 z m 78.39351,159.500691 c 23.42048,-0.12354 43.3436,19.99932 47.75606,42.34892 10.05456,34.9859 9.95002,73.07949 1.32656,108.48968 -3.25433,10.62088 -7.72642,21.01126 -11.66928,31.47043 -20.24372,6.51537 -41.1721,11.51262 -60.19969,21.27265 -2.94085,-66.55939 -7.70625,-133.01964 -11.29131,-199.54513 11.35271,-1.77784 22.59239,-4.02595 34.07766,-4.03655 z m 6.21628,270.87098 c -8.34866,19.28521 -19.93308,38.35945 -34.35471,52.88252 0.96013,-11.86566 0.67742,-24.23644 1.88432,-35.80606 9.23916,-8.63028 21.14754,-13.77963 32.84285,-17.95163 l -0.36784,0.86441 z"
       id="path621"
       inkscape:connector-curvature="0" />
  </g>
</svg>
