<?xml version="1.0" encoding="UTF-8" standalone="no"?>
<!-- Created with Inkscape (http://www.inkscape.org/) -->

<svg
   xmlns:dc="http://purl.org/dc/elements/1.1/"
   xmlns:cc="http://creativecommons.org/ns#"
   xmlns:rdf="http://www.w3.org/1999/02/22-rdf-syntax-ns#"
   xmlns:svg="http://www.w3.org/2000/svg"
   xmlns="http://www.w3.org/2000/svg"
   xmlns:sodipodi="http://sodipodi.sourceforge.net/DTD/sodipodi-0.dtd"
   xmlns:inkscape="http://www.inkscape.org/namespaces/inkscape"
   width="1000"
   height="1000"
   viewBox="0 0 1000 1000"
   version="1.1"
   id="svg756"
   inkscape:version="0.92.3 (2405546, 2018-03-11)"
   sodipodi:docname="u3060.svg">
  <defs
     id="defs750" />
  <sodipodi:namedview
     id="base"
     pagecolor="#ffffff"
     bordercolor="#666666"
     borderopacity="1.0"
     inkscape:pageopacity="0.0"
     inkscape:pageshadow="2"
     inkscape:zoom="0.35"
     inkscape:cx="551.42857"
     inkscape:cy="576.33663"
     inkscape:document-units="px"
     inkscape:current-layer="layer1"
     showgrid="true"
     units="px"
     inkscape:window-width="1118"
     inkscape:window-height="864"
     inkscape:window-x="794"
     inkscape:window-y="96"
     inkscape:window-maximized="0"
     showguides="true"
     inkscape:guide-bbox="true">
    <inkscape:grid
       type="xygrid"
       id="grid758" />
    <sodipodi:guide
       position="240,200"
       orientation="0,1"
       id="guide8"
       inkscape:locked="false" />
  </sodipodi:namedview>
  <metadata
     id="metadata753">
    <rdf:RDF>
      <cc:Work
         rdf:about="">
        <dc:format>image/svg+xml</dc:format>
        <dc:type
           rdf:resource="http://purl.org/dc/dcmitype/StillImage" />
        <dc:title />
      </cc:Work>
    </rdf:RDF>
  </metadata>
  <g
     inkscape:label="Layer 1"
     inkscape:groupmode="layer"
     id="layer1"
     transform="translate(0,-32.41664)"
     style="display:inline">
    <path
       style="display:inline;fill:#000000;stroke-width:14.02003288"
       d="m 743.75609,53.563553 c -15.67775,0.261131 -26.36939,13.98858 -32.66404,26.602568 -17.04916,36.137089 -20.5826,77.003679 -18.22728,116.316679 2.11252,28.10497 8.22955,58.22743 28.77763,79.31699 10.87794,11.69517 25.62704,22.86371 42.57436,22.298 12.86423,-0.99722 22.74783,-11.5208 25.86649,-23.30876 6.4115,-20.40179 3.55073,-42.42151 -1.47687,-62.79341 -1.86109,-7.51635 -5.99358,-14.37435 -11.47433,-19.78504 -8.12568,-17.70349 -8.41102,-37.66742 -9.89711,-56.64167 C 766.2741,111.9417 768.87309,87.175076 760,64.648579 757.06281,58.498916 751.03541,53.288912 743.75609,53.563553 Z m -339.58975,0.484044 c -26.40885,1.176782 -47.9691,19.497892 -63.66939,38.824453 -37.73292,51.56525 -75.69596,104.20687 -126.04133,144.86249 -19.88857,14.91608 -42.28272,29.66334 -68.13651,31.07336 -13.97542,1.02208 -27.6412,-3.59895 -39.17829,-11.09294 -15.672248,-8.5597 -35.650134,-15.06959 -52.889172,-7.00436 -13.178117,6.85728 -17.667789,23.60779 -13.151961,36.93461 6.64306,23.78158 26.901832,41.16264 47.610119,53.63477 17.639314,9.95565 42.374824,9.75263 62.185194,6.1633 31.28182,-5.66785 50.66059,-9.33372 84.87107,-33.29014 -6.53458,16.09192 -12.99156,35.15853 -17.69581,50.19436 -20.36884,65.10308 -29.32353,127.94969 -38.87207,195.30863 -4.14201,34.16432 -8.85825,68.9537 -3.48882,103.24558 2.69306,15.3721 6.53746,31.43303 16.29508,44.08401 12.03075,12.57558 31.31801,13.64328 47.81004,12.87439 19.54857,-1.22249 40.331,-5.91977 55.08234,-19.28575 2.66226,-2.9108 4.6397,-6.44074 5.62735,-10.23188 14.85705,16.19904 21.71344,37.73671 36.50773,54.03598 20.50511,25.75091 47.0586,48.1258 79.3502,57.95923 31.23744,10.59776 66.6769,10.4864 96.82087,-3.51531 41.48384,-18.49845 71.92764,-53.94196 96.42371,-90.52451 21.89584,-33.38138 40.6524,-68.80532 55.87399,-105.56747 4.69318,-12.16802 9.64478,-25.56327 6.63537,-38.6665 -2.88498,-8.40614 -15.43523,-12.19854 -21.49186,-4.66316 -17.87363,15.35678 -33.85447,32.94338 -47.24267,52.07135 -24.05172,34.36301 -41.33595,66.59672 -72.29776,97.59835 -15.41372,15.43345 -35.51923,23.36612 -57.51186,24.07763 -19.07864,0.61731 -39.73339,-0.20179 -54.71975,-12.72222 -19.3628,-14.19196 -35.62917,-42.24984 -37.12753,-65.51758 -3.77322,-39.87649 7.60753,-79.01675 19.36687,-116.7303 17.21092,-53.21874 48.61954,-103.02497 66.15274,-156.10511 3.58981,-13.00571 7.55661,-26.66542 5.66112,-40.23594 -1.67006,-10.08795 -9.90554,-18.54979 -20.27703,-20.2542 -9.56867,-2.07795 -21.22684,-4.56932 -29.41295,2.2812 -13.39266,10.4062 -22.34982,25.14489 -31.83668,38.82345 -22.82354,34.94605 -41.47418,72.72824 -53.29505,112.61855 -14.0855,38.89414 -35.62297,74.81046 -58.04335,109.535 -10.68488,15.04857 -21.03458,30.9141 -35.29652,42.96406 -4.68707,3.43283 -6.38797,-4.01358 -6.64418,-7.45551 -1.20057,-28.35185 7.0774,-56.02087 12.03001,-83.71936 21.98371,-106.86388 50.50398,-213.90779 104.12842,-310.0129 18.91059,-33.64061 42.1536,-64.73803 67.86027,-93.56794 11.0615,-13.93795 24.01378,-28.45771 26.26305,-46.655375 -0.0341,-13.427521 -12.27564,-22.742819 -23.49785,-28.177103 -6.46968,-2.904969 -13.61423,-4.40717 -20.73715,-4.169195 z"
       id="path383"
       inkscape:connector-curvature="0"
       sodipodi:nodetypes="cccccccccccccccccccscscccccccccccccssscccccccccccccccccc" />
  </g>
</svg>
