<?xml version="1.0" encoding="UTF-8" standalone="no"?>
<!-- Created with Inkscape (http://www.inkscape.org/) -->

<svg
   xmlns:dc="http://purl.org/dc/elements/1.1/"
   xmlns:cc="http://creativecommons.org/ns#"
   xmlns:rdf="http://www.w3.org/1999/02/22-rdf-syntax-ns#"
   xmlns:svg="http://www.w3.org/2000/svg"
   xmlns="http://www.w3.org/2000/svg"
   xmlns:sodipodi="http://sodipodi.sourceforge.net/DTD/sodipodi-0.dtd"
   xmlns:inkscape="http://www.inkscape.org/namespaces/inkscape"
   width="1000"
   height="1000"
   viewBox="0 0 1000 1000"
   version="1.1"
   id="svg756"
   inkscape:version="0.92.3 (2405546, 2018-03-11)"
   sodipodi:docname="u3069.svg">
  <defs
     id="defs750" />
  <sodipodi:namedview
     id="base"
     pagecolor="#ffffff"
     bordercolor="#666666"
     borderopacity="1.0"
     inkscape:pageopacity="0.0"
     inkscape:pageshadow="2"
     inkscape:zoom="0.35"
     inkscape:cx="551.42857"
     inkscape:cy="576.33663"
     inkscape:document-units="px"
     inkscape:current-layer="layer1"
     showgrid="true"
     units="px"
     inkscape:window-width="1118"
     inkscape:window-height="864"
     inkscape:window-x="698"
     inkscape:window-y="97"
     inkscape:window-maximized="0"
     showguides="true"
     inkscape:guide-bbox="true">
    <inkscape:grid
       type="xygrid"
       id="grid758" />
    <sodipodi:guide
       position="240,200"
       orientation="0,1"
       id="guide8"
       inkscape:locked="false" />
  </sodipodi:namedview>
  <metadata
     id="metadata753">
    <rdf:RDF>
      <cc:Work
         rdf:about="">
        <dc:format>image/svg+xml</dc:format>
        <dc:type
           rdf:resource="http://purl.org/dc/dcmitype/StillImage" />
        <dc:title />
      </cc:Work>
    </rdf:RDF>
  </metadata>
  <g
     inkscape:label="Layer 1"
     inkscape:groupmode="layer"
     id="layer1"
     transform="translate(0,-32.41664)"
     style="display:inline">
    <path
       style="display:inline;fill:#000000;stroke-width:16.16553307"
       d="m 72.234913,32.41664 c -9.958357,-0.355399 -21.543138,2.831561 -25.743192,12.858906 -6.90993,16.380004 -5.742824,34.732922 -6.469967,52.131323 -0.564268,76.857511 6.787515,154.307641 27.720381,228.446301 11.802754,39.55527 27.197676,79.65976 55.513955,110.5205 16.98117,18.61944 41.52234,31.64412 67.20745,30.06097 3.92438,-0.87979 -0.28308,4.15953 -0.36346,6.30224 -7.28721,22.14105 -14.35548,44.51183 -18.45067,67.48829 -9.02304,53.07609 -0.5466,109.96693 28.58714,155.77656 22.40443,35.46324 55.44346,64.48966 94.02875,81.11327 24.44206,9.67736 51.6592,15.62023 77.83803,10.38088 51.61915,-11.72377 95.42974,-46.93433 125.55616,-89.54759 25.48261,-36.68789 44.74334,-78.33977 52.82898,-122.42944 2.782,-22.30233 5.06367,-44.82277 4.37925,-67.32928 0.0903,-4.52684 -1.30897,-10.31303 -0.95369,-13.95099 12.76491,1.50262 26.31237,4.22913 38.85647,0.17448 16.73543,-8.87339 33.04383,-23.5949 35.87804,-43.25788 1.86601,-11.11023 -5.71988,-21.52646 -15.77191,-25.57421 -18.75225,-8.25573 -40.0339,-6.71829 -59.76946,-3.75624 -18.95179,-0.90344 -34.71617,-15.88825 -54.01605,-14.53622 -12.10684,1.76539 -20.1005,15.17142 -18.89031,26.79544 1.60513,14.95787 12.21237,26.92445 17.35927,40.46627 0.54811,52.72854 -11.43452,106.06443 -35.87094,152.88284 -16.44171,29.73568 -37.46738,58.17103 -66.30715,76.95598 -20.91651,13.77392 -48.02107,18.41149 -71.48123,8.71765 -26.76078,-10.54391 -46.41811,-33.28966 -63.73835,-55.46622 -12.08791,-15.77237 -19.75284,-34.66914 -21.17095,-54.43216 -6.06474,-56.45855 8.42648,-114.75257 40.40778,-161.84884 41.15651,-41.27734 91.23227,-72.18113 134.1084,-111.60219 25.85194,-23.46359 52.80383,-46.69482 72.24975,-76.00789 8.85111,-13.44978 14.88769,-31.18803 7.53126,-46.66754 -7.21789,-14.95085 -20.44698,-26.16687 -34.09507,-35.12199 -16.68486,-10.79558 -38.42205,-12.88838 -56.773,-5.16831 -28.92337,11.85692 -50.53651,35.8707 -70.18412,59.31514 -33.28688,41.7315 -61.49969,87.21509 -89.2421,132.73445 -10.07271,16.70016 -19.79715,34.00232 -28.5576,51.21147 -14.14942,3.89359 -30.92276,1.27594 -40.72647,-10.28385 C 158.76587,382.90557 154.38349,359.9605 142.8588,341.01698 132.49943,315.49667 128.67614,287.99885 123.78492,260.98703 116.28564,212.1557 109.88426,162.90712 109.42135,113.52059 110.2665,93.027679 114.28424,70.909028 105.21805,51.406938 99.613657,38.475103 85.979529,31.585893 72.234913,32.41664 Z M 419.70087,238.06785 c 4.99993,0.11518 9.76019,4.89346 10.40374,9.62417 -3.9648,12.78034 -14.42939,22.28105 -22.85419,32.24582 -30.52493,32.5631 -65.89794,59.89267 -99.25788,89.41738 19.71588,-28.44858 38.85539,-57.33993 61.02879,-83.97524 13.24871,-15.66152 25.57597,-32.85586 42.68541,-44.579 2.43611,-1.41708 5.12031,-2.69502 7.99413,-2.73313 z"
       id="path798"
       inkscape:connector-curvature="0" />
  </g>
</svg>
