<?xml version="1.0" encoding="UTF-8" standalone="no"?>
<!-- Created with Inkscape (http://www.inkscape.org/) -->

<svg
   xmlns:dc="http://purl.org/dc/elements/1.1/"
   xmlns:cc="http://creativecommons.org/ns#"
   xmlns:rdf="http://www.w3.org/1999/02/22-rdf-syntax-ns#"
   xmlns:svg="http://www.w3.org/2000/svg"
   xmlns="http://www.w3.org/2000/svg"
   xmlns:sodipodi="http://sodipodi.sourceforge.net/DTD/sodipodi-0.dtd"
   xmlns:inkscape="http://www.inkscape.org/namespaces/inkscape"
   width="1000"
   height="1000"
   viewBox="0 0 1000 1000"
   version="1.1"
   id="svg756"
   inkscape:version="0.92.3 (2405546, 2018-03-11)"
   sodipodi:docname="u306e.svg">
  <defs
     id="defs750" />
  <sodipodi:namedview
     id="base"
     pagecolor="#ffffff"
     bordercolor="#666666"
     borderopacity="1.0"
     inkscape:pageopacity="0.0"
     inkscape:pageshadow="2"
     inkscape:zoom="0.35"
     inkscape:cx="551.42857"
     inkscape:cy="578.63539"
     inkscape:document-units="px"
     inkscape:current-layer="layer1"
     showgrid="true"
     units="px"
     inkscape:window-width="1118"
     inkscape:window-height="864"
     inkscape:window-x="706"
     inkscape:window-y="92"
     inkscape:window-maximized="0"
     showguides="true"
     inkscape:guide-bbox="true">
    <inkscape:grid
       type="xygrid"
       id="grid758" />
    <sodipodi:guide
       position="240,200"
       orientation="0,1"
       id="guide8"
       inkscape:locked="false" />
  </sodipodi:namedview>
  <metadata
     id="metadata753">
    <rdf:RDF>
      <cc:Work
         rdf:about="">
        <dc:format>image/svg+xml</dc:format>
        <dc:type
           rdf:resource="http://purl.org/dc/dcmitype/StillImage" />
        <dc:title />
      </cc:Work>
    </rdf:RDF>
  </metadata>
  <g
     inkscape:label="Layer 1"
     inkscape:groupmode="layer"
     id="layer1"
     transform="translate(0,-32.41664)"
     style="display:inline">
    <path
       style="display:inline;fill:#000000;stroke-width:23.30238342"
       d="m 370.76795,782.7009 c 0.14188,-5.21013 19.57494,-42.03949 43.18455,-81.84301 63.80937,-107.57597 69.32469,-376.33929 9.01639,-439.37053 -53.01136,-55.4049 -74.63844,-43.48136 -161.40553,88.98619 -66.13509,100.96879 -66.13534,100.99078 -0.93635,87.57911 47.914,-9.85608 51.31136,-4.63643 34.25991,52.63805 C 267.27795,583.42828 142.46193,747.77464 94.35682,754.73072 13.186928,766.4677 22.022027,662.99585 119.52155,460.0129 240.09274,208.99729 307.50932,135.08411 395.53149,157.40547 c 107.70746,27.31332 149.23039,114.85979 144.08706,303.7917 -3.45333,126.85362 -16.74715,183.88158 -56.03,240.35816 -43.49204,62.52787 -113.68818,113.01624 -112.8206,81.14557 z M 174,558.46454 c 43.20702,-95.20577 26.45221,-99.95822 -26.10318,-7.40401 -23.6634,41.67326 -34.55615,76.00002 -24.20617,76.2818 10.35,0.28175 32.98912,-30.71328 50.30935,-68.87779 z"
       id="path3859"
       inkscape:connector-curvature="0" />
  </g>
</svg>
