<?xml version="1.0" encoding="UTF-8" standalone="no"?>
<!-- Created with Inkscape (http://www.inkscape.org/) -->

<svg
   xmlns:dc="http://purl.org/dc/elements/1.1/"
   xmlns:cc="http://creativecommons.org/ns#"
   xmlns:rdf="http://www.w3.org/1999/02/22-rdf-syntax-ns#"
   xmlns:svg="http://www.w3.org/2000/svg"
   xmlns="http://www.w3.org/2000/svg"
   xmlns:sodipodi="http://sodipodi.sourceforge.net/DTD/sodipodi-0.dtd"
   xmlns:inkscape="http://www.inkscape.org/namespaces/inkscape"
   width="1000"
   height="1000"
   viewBox="0 0 1000 1000"
   version="1.1"
   id="svg756"
   inkscape:version="0.92.3 (2405546, 2018-03-11)"
   sodipodi:docname="u306f.svg">
  <defs
     id="defs750" />
  <sodipodi:namedview
     id="base"
     pagecolor="#ffffff"
     bordercolor="#666666"
     borderopacity="1.0"
     inkscape:pageopacity="0.0"
     inkscape:pageshadow="2"
     inkscape:zoom="0.35"
     inkscape:cx="500.78982"
     inkscape:cy="783.44126"
     inkscape:document-units="px"
     inkscape:current-layer="layer1"
     showgrid="true"
     units="px"
     inkscape:window-width="1118"
     inkscape:window-height="864"
     inkscape:window-x="724"
     inkscape:window-y="24"
     inkscape:window-maximized="0"
     showguides="true"
     inkscape:guide-bbox="true">
    <inkscape:grid
       type="xygrid"
       id="grid758" />
    <sodipodi:guide
       position="240,200"
       orientation="0,1"
       id="guide8"
       inkscape:locked="false" />
  </sodipodi:namedview>
  <metadata
     id="metadata753">
    <rdf:RDF>
      <cc:Work
         rdf:about="">
        <dc:format>image/svg+xml</dc:format>
        <dc:type
           rdf:resource="http://purl.org/dc/dcmitype/StillImage" />
        <dc:title />
      </cc:Work>
    </rdf:RDF>
  </metadata>
  <g
     inkscape:label="Layer 1"
     inkscape:groupmode="layer"
     id="layer1"
     transform="translate(0,-32.41664)"
     style="display:inline">
    <path
       style="display:inline;fill:#000000;stroke-width:13.54786777"
       d="M 121.47219,32.41664 C 109.35153,33.986205 104.07128,46.911348 100.18166,56.808858 86.843855,94.59791 83.254681,134.83043 78.453696,174.33225 c -8.916271,86.0521 -12.68255,172.52259 -17.498761,258.8683 -1.55129,36.14946 -4.274713,72.55824 -0.227539,108.6308 1.086722,10.69059 5.869387,22.95638 17.287471,26.15508 11.006197,3.65152 21.733604,-3.18209 29.390413,-10.4646 29.35623,-26.35071 45.4783,-63.27188 69.41161,-93.96976 22.16164,-30.06955 50.09528,-56.57114 83.68971,-73.8491 41.96915,-22.35999 88.19351,-35.28599 133.23666,-50.16206 3.50402,-0.94329 1.68984,5.47569 2.68636,7.71615 2.19231,31.15675 0.22289,62.67387 -0.65164,93.95627 C 394.27332,473.2135 395,517.41664 383,562.41664 c 0,0 -24.72359,11.55939 -45.9085,19.76108 -18.6601,6.96258 -37.21023,14.46057 -53.98917,25.30675 -25.96491,15.92793 -51.04158,35.48255 -66.82601,61.89015 -5.69483,9.91505 -7.04694,22.08176 -2.86204,32.8078 6.92736,24.30894 16.95361,48.0758 31.60161,68.81303 9.71023,12.56077 25.28125,19.62334 41.0901,19.97928 26.6882,2.72688 56.34283,-1.82509 76.28102,-21.1255 24.73855,-23.06277 33.19156,-39.50175 45.56327,-70.09198 8.55665,-22.17593 13.73274,-42.61289 26.04972,-69.34061 40,-20 97.30507,-48.48707 135.47718,-72.73132 39.77682,-24.36259 78.41742,-51.39103 111.20364,-84.66805 6.18044,-6.82033 13.26334,-14.53694 14.03152,-24.07114 -1.00472,-7.48345 -10.34847,-9.72664 -16.54897,-7.31398 -19.56703,4.77955 -37.55421,14.09374 -56.0707,21.73531 C 570.39053,486.4548 531.50008,510.5736 481.49655,532.39872 470,537.41664 460,542.41664 455,542.41664 c 10,-65 10.12604,-72.53073 11.18867,-102.27012 4.9247,-91.20329 16.78157,-182.46743 11.35749,-273.9391 -1.97783,-26.76349 -4.72843,-54.99464 -19.08194,-78.395315 -8.772,-13.500397 -26.51194,-21.321554 -42.22186,-16.259042 -9.3041,2.790591 -12.9025,12.593604 -14.49194,21.194654 -4.22652,21.751953 -3.02863,44.035653 -3.63516,66.065533 -0.19508,33.82416 0.0432,67.64885 -0.05,101.47323 -44.59873,19.06841 -57.99455,26.98344 -104.86615,44.2637 -15.18563,5.59853 -58.12583,25.78891 -71.5257,34.12327 -31.93839,19.86482 -63.29233,41.105 -91.53684,65.98654 -3.04811,4.51579 -1.63075,-1.41916 -1.25506,-3.91017 5.6313,-23.0101 6.47017,-46.80817 8.50474,-70.31452 4.20217,-69.73971 4.41112,-139.69098 2.53228,-209.51475 -1.33612,-26.343353 -1.9588,-52.999376 -7.14384,-78.879874 -1.34991,-5.42958 -4.96488,-10.594295 -11.30247,-9.624036 z M 345.08584,654.267 c 4.1828,-0.51483 7.35799,3.48198 5.15739,7.35821 -3.97786,16.31337 -11.72078,31.72067 -21.27753,45.56295 -3.72183,5.49181 -11.93864,10.29021 -17.53295,4.45588 -6.98326,-5.59096 -10.81372,-15.1478 -7.40562,-23.77961 5.25064,-14.71212 17.33735,-27.61302 32.37205,-32.58998 2.82866,-0.85292 5.75566,-1.00008 8.68666,-1.00745 z"
       id="path587"
       inkscape:connector-curvature="0"
       sodipodi:nodetypes="cccccccccccccccccccccccccccsccccccccsscccccccccccccc" />
  </g>
</svg>
