<?xml version="1.0" encoding="UTF-8" standalone="no"?>
<!-- Created with Inkscape (http://www.inkscape.org/) -->

<svg
   xmlns:dc="http://purl.org/dc/elements/1.1/"
   xmlns:cc="http://creativecommons.org/ns#"
   xmlns:rdf="http://www.w3.org/1999/02/22-rdf-syntax-ns#"
   xmlns:svg="http://www.w3.org/2000/svg"
   xmlns="http://www.w3.org/2000/svg"
   xmlns:sodipodi="http://sodipodi.sourceforge.net/DTD/sodipodi-0.dtd"
   xmlns:inkscape="http://www.inkscape.org/namespaces/inkscape"
   width="1000"
   height="1000"
   viewBox="0 0 1000 1000"
   version="1.1"
   id="svg756"
   inkscape:version="0.92.3 (2405546, 2018-03-11)"
   sodipodi:docname="u3065.svg">
  <defs
     id="defs750" />
  <sodipodi:namedview
     id="base"
     pagecolor="#ffffff"
     bordercolor="#666666"
     borderopacity="1.0"
     inkscape:pageopacity="0.0"
     inkscape:pageshadow="2"
     inkscape:zoom="0.35"
     inkscape:cx="551.42857"
     inkscape:cy="576.33663"
     inkscape:document-units="px"
     inkscape:current-layer="layer1"
     showgrid="true"
     units="px"
     inkscape:window-width="1118"
     inkscape:window-height="864"
     inkscape:window-x="732"
     inkscape:window-y="97"
     inkscape:window-maximized="0"
     showguides="true"
     inkscape:guide-bbox="true">
    <inkscape:grid
       type="xygrid"
       id="grid758" />
    <sodipodi:guide
       position="240,200"
       orientation="0,1"
       id="guide8"
       inkscape:locked="false" />
  </sodipodi:namedview>
  <metadata
     id="metadata753">
    <rdf:RDF>
      <cc:Work
         rdf:about="">
        <dc:format>image/svg+xml</dc:format>
        <dc:type
           rdf:resource="http://purl.org/dc/dcmitype/StillImage" />
        <dc:title />
      </cc:Work>
    </rdf:RDF>
  </metadata>
  <g
     inkscape:label="Layer 1"
     inkscape:groupmode="layer"
     id="layer1"
     transform="translate(0,-32.41664)"
     style="display:inline">
    <path
       style="display:inline;fill:#000000;stroke-width:18.7562809"
       d="m 622.36654,-119.47547 c -24.058,1.74773 -42.49183,21.369132 -53.1927,41.404449 -13.32572,25.633809 -10.76391,58.454361 7.0737,81.4519566 11.68432,15.6607534 25.97589,29.2784524 40.7371,41.9887614 11.6019,9.310326 27.22038,13.862586 41.81489,9.879326 28.3805,-5.589404 54.88896,-17.628437 82.66602,-25.615036 29.83832,-9.607019 61.26557,-20.0596511 93.00959,-15.37819 21.04179,3.854957 38.10949,18.928076 49.33049,36.538381 6.25398,9.207932 16.79617,18.817036 28.81583,15.171513 15.72914,-4.856352 24.22934,-21.16197 29.41947,-35.62293 10.47103,-30.51913158 7.28722,-66.695519 -10.92567,-93.617593 -10.523,-13.766406 -28.8852,-19.674467 -45.55322,-16.861288 -24.11028,3.149622 -46.24201,14.915253 -69.89086,20.555543 -38.4555,11.018045 -78.6115,21.20758 -118.8998,16.600828 -18.59341,-2.329906 -38.05879,-11.635698 -46.02158,-29.557695 -6.46258,-13.300325 -2.43869,-30.827786 -14.18427,-41.498806 -3.82231,-3.52638 -8.97725,-5.61658 -14.19899,-5.43922 z M 133.90796,198.4176 c -27.44843,0.84716 -56.095112,1.5673 -81.537034,13.0453 C 42.674959,216.14859 34.845091,226.85589 38,237.98619 c 2.974168,15.21938 11.545178,29.14917 22.441086,39.99387 15.921154,13.35947 38.008034,13.72141 57.799684,13.78261 46.90206,-0.91333 93.6482,-7.86094 140.69965,-7.33782 58.71245,-0.36247 118.73708,3.26245 174.37421,23.5173 30.18967,11.25425 60.15139,30.2638 73.91612,60.57872 12.62348,28.58378 7.41726,61.72511 -5.14527,89.37604 -20.29043,46.32196 -54.86671,84.48505 -90.33197,119.76342 -32.25735,31.69691 -68.2289,59.19527 -102.85429,88.16687 -19.45442,16.95619 -39.66097,34.57316 -51.26583,58.14199 -4.853,10.82333 -3.05082,24.44087 5.94718,32.5993 5.84453,6.08531 13.26663,15.30505 22.82241,11.83541 12.97998,-4.9905 23.66099,-14.4685 35.17585,-22.03615 82.55831,-59.04958 163.31644,-122.25072 230.00353,-199.24037 32.46385,-38.04941 62.4557,-81.0158 74.71479,-130.16934 7.59729,-32.09114 3.65305,-67.55372 -15.81303,-94.69486 C 585.85727,286.69987 546.25618,265.33631 506.85182,249.90073 430.79461,220.78482 349.297,210.42322 268.49116,203.61351 223.73917,200.1112 178.82979,197.62437 133.90796,198.4176 Z"
       id="path991"
       inkscape:connector-curvature="0" />
  </g>
</svg>
