<?xml version="1.0" encoding="UTF-8" standalone="no"?>
<!-- Created with Inkscape (http://www.inkscape.org/) -->

<svg
   xmlns:dc="http://purl.org/dc/elements/1.1/"
   xmlns:cc="http://creativecommons.org/ns#"
   xmlns:rdf="http://www.w3.org/1999/02/22-rdf-syntax-ns#"
   xmlns:svg="http://www.w3.org/2000/svg"
   xmlns="http://www.w3.org/2000/svg"
   xmlns:sodipodi="http://sodipodi.sourceforge.net/DTD/sodipodi-0.dtd"
   xmlns:inkscape="http://www.inkscape.org/namespaces/inkscape"
   width="1000"
   height="1000"
   viewBox="0 0 1000 1000"
   version="1.1"
   id="svg756"
   inkscape:version="0.92.3 (2405546, 2018-03-11)"
   sodipodi:docname="u306a.svg">
  <defs
     id="defs750" />
  <sodipodi:namedview
     id="base"
     pagecolor="#ffffff"
     bordercolor="#666666"
     borderopacity="1.0"
     inkscape:pageopacity="0.0"
     inkscape:pageshadow="2"
     inkscape:zoom="0.35"
     inkscape:cx="549.36709"
     inkscape:cy="576.33663"
     inkscape:document-units="px"
     inkscape:current-layer="layer1"
     showgrid="true"
     units="px"
     inkscape:window-width="1118"
     inkscape:window-height="864"
     inkscape:window-x="688"
     inkscape:window-y="96"
     inkscape:window-maximized="0"
     showguides="true"
     inkscape:guide-bbox="true">
    <inkscape:grid
       type="xygrid"
       id="grid758" />
    <sodipodi:guide
       position="240,200"
       orientation="0,1"
       id="guide8"
       inkscape:locked="false" />
  </sodipodi:namedview>
  <metadata
     id="metadata753">
    <rdf:RDF>
      <cc:Work
         rdf:about="">
        <dc:format>image/svg+xml</dc:format>
        <dc:type
           rdf:resource="http://purl.org/dc/dcmitype/StillImage" />
        <dc:title />
      </cc:Work>
    </rdf:RDF>
  </metadata>
  <g
     inkscape:label="Layer 1"
     inkscape:groupmode="layer"
     id="layer1"
     transform="translate(0,-32.41664)"
     style="display:inline">
    <path
       style="display:inline;fill:#000000;stroke-width:15.17036819"
       d="M 420.55533,32.41664 C 389.88419,34.786178 364.13293,53.8688 339.71492,70.807409 275.25651,118.27361 220.58749,177.50769 169.28693,238.58298 124.66229,292.91218 83.51459,350.66496 52.146981,413.74257 c -9.493477,21.52507 -12.391077,48.48227 1.145709,69.00977 12.080903,18.23542 37.38334,23.55925 57.23188,16.33928 21.45139,-7.14769 38.72208,-22.43392 57.24683,-34.79738 35.55269,-26.23327 70.13283,-54.1276 100.99098,-85.81284 15.06604,-17.91637 29.69187,-36.26999 46.7858,-52.34254 40.14397,-40.18883 81.84974,-78.89448 126.68622,-113.82209 20.33076,-14.8838 42.28348,-29.31209 67.30165,-34.69861 7.95017,-1.22812 17.35176,2.48194 19.21537,10.94534 5.7909,17.06964 0.38802,35.49605 -2.87833,52.57574 -12.83315,52.55634 -37.2431,101.5488 -60.98516,150.03255 -27.71384,54.46167 -57.31166,108.2081 -93.25414,157.73309 -8.57362,10.92211 -17.64358,22.24134 -29.65291,29.31293 -8.34779,2.00691 -16.98469,4.11021 -23.46438,10.14644 -23.87,17.78318 -41.66449,42.21969 -58.60478,66.34962 -19.28418,29.00458 -36.64978,59.98135 -46.02608,93.71267 -5.19921,20.18442 -4.09346,44.2068 10.7572,60.22376 6.99663,7.85158 19.46699,11.4525 28.6684,5.23655 13.27564,-7.72584 21.94807,-20.96309 31.80673,-32.33853 28.76566,-36.63411 51.45106,-79.57753 90.55807,-106.60615 19.30701,-12.25057 43.46214,-15.15679 65.19572,-8.23908 44.99525,11.83668 82.28856,41.07882 123.00884,62.30539 16.55839,8.72809 33.92186,17.1184 52.62877,19.70386 10.39199,0.62729 21.45075,-6.6153 22.22532,-17.54579 1.72874,-13.36653 -9.37707,-23.37629 -17.91666,-31.89377 -30.50163,-30.54117 -66.38419,-54.96086 -101.87703,-79.23552 -26.59468,-17.49422 -55.33748,-32.4352 -86.35506,-40.14268 -3.02692,-1.79447 2.71024,-4.55386 2.49844,-6.79078 56.3788,-106.80692 118.11225,-212.30643 153.05691,-328.65964 8.4982,-29.70552 15.44132,-61.92476 6.60044,-92.37774 -8.38556,-27.1283 -32.54477,-49.68818 -61.32169,-52.550595 -23.05276,-2.868456 -46.08231,5.961405 -64.20428,19.842915 -58.94716,38.74978 -113.02406,84.34581 -165.67639,131.13554 -20.77368,18.95187 -38.88696,40.51406 -58.12374,60.94049 -36.15714,36.01831 -75.72397,68.53113 -116.89305,98.62908 -5.23388,3.57969 -10.59525,6.98414 -16.16927,10.01199 9.63095,-20.65667 26.01023,-37.095 39.98454,-54.88343 50.89086,-59.49925 107.34662,-114.08628 167.29034,-164.40131 25.07302,-20.55601 52.85252,-37.6345 79.79436,-55.60375 23.88065,-16.73714 48.44117,-35.12969 62.37626,-61.42657 6.11114,-12.97688 3.17705,-30.20181 -8.97547,-38.646034 C 443.90025,37.467867 432.4354,32.351621 420.55533,32.41664 Z"
       id="path283"
       inkscape:connector-curvature="0" />
  </g>
</svg>
