<?xml version="1.0" encoding="UTF-8" standalone="no"?>
<!-- Created with Inkscape (http://www.inkscape.org/) -->

<svg
   xmlns:dc="http://purl.org/dc/elements/1.1/"
   xmlns:cc="http://creativecommons.org/ns#"
   xmlns:rdf="http://www.w3.org/1999/02/22-rdf-syntax-ns#"
   xmlns:svg="http://www.w3.org/2000/svg"
   xmlns="http://www.w3.org/2000/svg"
   xmlns:sodipodi="http://sodipodi.sourceforge.net/DTD/sodipodi-0.dtd"
   xmlns:inkscape="http://www.inkscape.org/namespaces/inkscape"
   width="1000"
   height="1000"
   viewBox="0 0 1000 1000"
   version="1.1"
   id="svg756"
   inkscape:version="0.92.3 (2405546, 2018-03-11)"
   sodipodi:docname="u3077.svg">
  <defs
     id="defs750" />
  <sodipodi:namedview
     id="base"
     pagecolor="#ffffff"
     bordercolor="#666666"
     borderopacity="1.0"
     inkscape:pageopacity="0.0"
     inkscape:pageshadow="2"
     inkscape:zoom="0.35"
     inkscape:cx="551.42857"
     inkscape:cy="576.33663"
     inkscape:document-units="px"
     inkscape:current-layer="layer1"
     showgrid="true"
     units="px"
     inkscape:window-width="1118"
     inkscape:window-height="864"
     inkscape:window-x="640"
     inkscape:window-y="87"
     inkscape:window-maximized="0"
     showguides="true"
     inkscape:guide-bbox="true">
    <inkscape:grid
       type="xygrid"
       id="grid758" />
    <sodipodi:guide
       position="240,200"
       orientation="0,1"
       id="guide8"
       inkscape:locked="false" />
  </sodipodi:namedview>
  <metadata
     id="metadata753">
    <rdf:RDF>
      <cc:Work
         rdf:about="">
        <dc:format>image/svg+xml</dc:format>
        <dc:type
           rdf:resource="http://purl.org/dc/dcmitype/StillImage" />
        <dc:title />
      </cc:Work>
    </rdf:RDF>
  </metadata>
  <g
     inkscape:label="Layer 1"
     inkscape:groupmode="layer"
     id="layer1"
     transform="translate(0,-32.41664)"
     style="display:inline">
    <path
       style="display:inline;fill:#000000;stroke-width:16.79124832"
       d="m 220.26759,99.063347 c -31.14095,0.961013 -63.03191,4.589243 -91.79947,17.247783 -13.36675,5.9305 -26.14666,17.55524 -27.76142,32.80559 -0.948491,13.14383 10.9295,22.74954 22.25729,26.59891 21.89971,8.09488 45.76607,4.5292 68.10237,1.03462 11.88495,-0.70144 24.93006,-3.06521 35.25281,4.01139 6.8938,6.39098 2.9843,16.72617 -0.0381,23.8943 -18.10978,37.88538 -50.72928,65.96723 -72.00403,101.85585 -8.77511,14.97171 -18.54361,30.2993 -21.41606,47.70569 -0.3887,10.24355 6.6534,18.93469 11.44873,27.42655 27.01215,40.35343 60.17248,76.1813 93.99753,110.86143 36.87821,37.68545 74.04581,76.12108 101.31883,121.61287 13.91306,23.94216 25.52927,52.78404 17.49053,80.72921 -6.30896,21.51135 -22.63259,38.02762 -39.21917,52.32614 -9.74947,8.41638 -23.79838,12.97038 -35.99446,7.37895 -27.76953,-11.56598 -43.57146,-39.96128 -70.4753,-52.85234 -5.64525,-2.92611 -15.03996,-4.08085 -17.96134,3.12067 -3.38365,10.75311 2.52004,21.7862 6.97501,31.31097 14.69009,27.43403 37.11425,49.57746 58.69672,71.58922 11.71534,11.61607 26.74477,22.29124 44.07415,21.02235 16.53145,-0.99827 32.6056,-5.77821 48.36197,-10.57558 24.81688,-10.30221 42.2296,-32.6148 55.60551,-55.08998 16.85813,-29.82282 28.20057,-64.01247 26.59651,-98.58375 -3.42132,-30.46672 -18.32888,-58.16242 -33.51741,-84.25827 -34.22214,-56.4129 -78.82007,-105.95109 -127.32166,-150.33243 -19.1138,-19.33266 -38.74486,-39.11416 -51.9594,-63.01352 -5.70898,-9.28032 1.30992,-19.46128 5.03184,-28.00087 11.81375,-23.45752 28.68418,-43.63694 44.61317,-64.38548 22.41725,-31.47714 40.72616,-68.00175 42.68704,-107.21503 0.95885,-20.48741 -4.969,-43.51695 -22.68219,-55.74064 -17.51586,-10.32899 -38.64718,-11.4723 -58.46586,-12.430822 -3.96348,-0.11074 -7.92954,-0.11074 -11.89395,-0.05373 z m 520.05352,13.353293 c -14.90029,2.20287 -27.82744,11.00755 -40.67683,18.3119 -33.18344,20.27812 -61.88267,46.79126 -93.50046,69.28852 -15.26789,11.77934 -31.56734,22.11391 -47.23899,33.30181 -7.00479,5.10243 -13.75285,14.10267 -9.67233,23.07489 4.87991,11.59033 17.69675,18.5243 19.59648,31.65223 2.80195,14.26745 -5.34736,27.63557 -10.84396,40.28977 -7.89428,24.96926 -7.35252,51.63156 -7.22029,77.53316 1.93148,60.7686 9.98332,121.54261 25.89879,180.27265 7.93826,26.87408 17.11107,54.65963 35.88983,76.08644 9.26714,10.7606 24.41621,17.74227 38.51229,13.04862 15.29768,-5.08787 27.98123,-16.71624 36.5824,-30.14147 9.85707,-16.83207 15.0397,-38.04622 8.76803,-57.02264 -2.48984,-8.04921 -11.01029,-14.27057 -19.53081,-11.70533 -7.44698,3.05493 -16.90528,4.82345 -23.40706,-1.27568 -10.34493,-9.72414 -12.16866,-24.91789 -11.50638,-38.51593 1.11026,-19.05013 9.54413,-37.91455 24.91816,-49.56565 21.67024,-21.58585 33.78286,-50.59187 43.95256,-78.92477 14.08903,-42.30608 23.15822,-86.8617 22.01445,-131.60929 -1.08886,-17.36866 -2.692,-36.66637 -14.72747,-50.29247 -3.7696,-3.74906 -10.83881,-6.57683 -8.80367,-13.18355 5.10793,-15.13548 21.2578,-21.85781 31.89048,-32.49422 13.09776,-12.81454 24.90372,-30.19236 23.34581,-49.31359 -0.72297,-10.08712 -9.60935,-18.11861 -19.57642,-18.61465 -1.54773,-0.16637 -3.10808,-0.24743 -4.66461,-0.20075 z m -75.40578,173.90839 c 4.32469,3.5052 2.88095,10.56953 3.15532,15.5834 -1.88564,26.0642 -10.65195,51.06407 -19.28805,75.57917 -3.34029,7.18774 -5.45674,16.07599 -12.00279,21.00906 -3.77231,-4.0217 -2.98342,-10.85634 -3.71709,-16.07677 -0.90828,-27.75839 2.68415,-57.22812 15.70345,-82.14846 3.60909,-5.91613 8.42058,-13.66012 16.14916,-13.9464 z M 116.57661,436.13842 c -15.40508,-0.06 -27.438506,11.90687 -34.141498,24.75198 -14.766284,28.28822 -20.512384,60.14439 -27.042683,91.07874 -6.352822,35.45806 -14.036238,70.92732 -15.623899,107.01028 -0.334219,13.25665 0.862633,29.41422 13.027298,37.49414 10.326449,6.28158 21.403485,14.58164 34.146956,13.38616 11.971524,-2.22701 16.462946,-15.36272 19.795756,-25.49034 6.80417,-24.39839 11.23714,-49.40318 17.78801,-73.87951 9.46402,-40.29773 21.54767,-79.95098 30.32145,-120.40726 2.00034,-12.63382 5.7746,-26.75018 -0.41063,-38.79699 -6.14467,-9.4853 -18.24896,-11.98973 -28.53336,-14.4227 -3.0772,-0.53211 -6.20308,-0.8173 -9.3274,-0.7245 z"
       id="path842"
       inkscape:connector-curvature="0" />
  </g>
</svg>
