<?xml version="1.0" encoding="UTF-8" standalone="no"?>
<!-- Created with Inkscape (http://www.inkscape.org/) -->

<svg
   xmlns:dc="http://purl.org/dc/elements/1.1/"
   xmlns:cc="http://creativecommons.org/ns#"
   xmlns:rdf="http://www.w3.org/1999/02/22-rdf-syntax-ns#"
   xmlns:svg="http://www.w3.org/2000/svg"
   xmlns="http://www.w3.org/2000/svg"
   xmlns:sodipodi="http://sodipodi.sourceforge.net/DTD/sodipodi-0.dtd"
   xmlns:inkscape="http://www.inkscape.org/namespaces/inkscape"
   width="1000"
   height="1000"
   viewBox="0 0 1000 1000"
   version="1.1"
   id="svg756"
   inkscape:version="0.92.3 (2405546, 2018-03-11)"
   sodipodi:docname="u307d.svg">
  <defs
     id="defs750" />
  <sodipodi:namedview
     id="base"
     pagecolor="#ffffff"
     bordercolor="#666666"
     borderopacity="1.0"
     inkscape:pageopacity="0.0"
     inkscape:pageshadow="2"
     inkscape:zoom="0.35"
     inkscape:cx="551.42857"
     inkscape:cy="576.33663"
     inkscape:document-units="px"
     inkscape:current-layer="layer1"
     showgrid="true"
     units="px"
     inkscape:window-width="1118"
     inkscape:window-height="864"
     inkscape:window-x="555"
     inkscape:window-y="90"
     inkscape:window-maximized="0"
     showguides="true"
     inkscape:guide-bbox="true">
    <inkscape:grid
       type="xygrid"
       id="grid758" />
    <sodipodi:guide
       position="240,200"
       orientation="0,1"
       id="guide8"
       inkscape:locked="false" />
  </sodipodi:namedview>
  <metadata
     id="metadata753">
    <rdf:RDF>
      <cc:Work
         rdf:about="">
        <dc:format>image/svg+xml</dc:format>
        <dc:type
           rdf:resource="http://purl.org/dc/dcmitype/StillImage" />
        <dc:title />
      </cc:Work>
    </rdf:RDF>
  </metadata>
  <g
     inkscape:label="Layer 1"
     inkscape:groupmode="layer"
     id="layer1"
     transform="translate(0,-32.41664)"
     style="display:inline">
    <path
       style="display:inline;fill:#000000;stroke-width:11.55315208"
       d="m 122.52958,56.999283 c -14.80042,0.949303 -23.56479,14.880939 -28.213274,27.006057 -19.96931,51.23064 -33.25341,118.35108 -38.58576,172.63348 -7.227422,81.02306 -12.203272,151.88189 -13.54255,233.14584 -0.591446,88.54105 -3.969143,181.41392 4.671175,269.58876 1.889338,16.53502 17.118765,28.85956 30.676151,40.63658 7.473139,6.92578 16.540854,13.65485 27.075888,14.8903 15.19211,-0.0566 25.52176,-13.1151 33.6139,-23.89644 14.32942,-20.12462 24.7818,-43.91373 25.15576,-68.60897 -0.14159,-11.07787 -4.04287,-25.04107 -16.34326,-28.62555 -8.69179,-2.70274 -17.9492,0.70628 -26.12809,2.2744 -2.59463,-5.18805 -2.8775,-11.32329 -4.4826,-16.88739 -5.63387,-33.27202 3.14031,-61.56313 1.46068,-95.23337 -3.32116,-90.84253 1.18668,-181.79793 5.89642,-272.55049 3.30304,-53.20586 7.60697,-110.10724 22.76829,-161.58702 5.81277,-23.389 1.00782,-49.72401 -2.2428,-73.867941 C 142.05567,66.124031 133.7673,56.363117 122.52958,56.999283 Z M 527.38031,190.81035 c -32.08439,3.19597 -59.27832,21.78601 -88.76879,32.62649 -27.90509,12.06172 -59.14176,21.29507 -89.62343,15.56092 -20.72949,-2.04565 -45.03776,0.0956 -59.53768,16.32485 -15.58599,18.49884 -4.61518,50.84883 19.77949,55.99568 20.55269,4.83808 41.98388,2.3328 62.86045,1.44716 15.28761,-0.7676 31.48996,-2.65066 46.22418,-2.53419 -0.19847,24.17279 4.66826,49.49765 -5.66926,72.33395 -8.03468,11.15762 -23.80039,11.1385 -36.45037,11.17199 -15.73111,0.6516 -34.27851,5.0129 -41.97105,19.74494 -8.71413,17.68402 1.9545,39.05339 18.15878,48.89331 15.8263,10.17488 36.52299,9.83694 53.93289,3.99206 4.51345,0.16673 1.66448,6.11659 2.72813,8.78622 0.50255,32.16653 -7.26053,63.97638 -15.31534,95.09321 -7.53411,26.41562 -17.17694,67.93421 -29.02875,92.85521 -4.41081,9.04515 -11.11944,6.4103 -21.61911,8.00625 -33.59485,8.30529 -68.85077,-23.66617 -107.02546,-0.6276 -12.23868,4.53853 -18.65515,21.1573 -19.77497,34.31142 -1.25679,16.59379 11.77297,30.0965 24.33409,39.65219 14.23827,11.29458 32.06469,17.66374 50.37312,19.01273 36.54247,2.82034 64.76368,-2.04841 92.84287,-7.83404 34.81827,-1.808 84.60478,-6.23057 116.43523,-18.32657 26.03594,-10.37606 51.32603,-24.61693 69.75829,-45.52982 6.71485,-8.3961 7.15725,-23.0939 -3.4629,-28.71802 -13.60072,-7.56322 -29.98151,-3.00361 -44.21637,0.12245 -29.52076,7.49418 -64.89423,23.05105 -95.66604,24.91201 5.97926,-5.90694 7.53412,-7.58802 15.43502,-27.45296 10.46661,-26.31567 15.52131,-32.83878 21.63125,-60.32513 17.77963,-61.56932 29.74158,-124.70356 36.43936,-188.27408 0.90442,-13.96778 2.22712,-28.48724 -1.62466,-42.11378 -3.04653,-5.25118 -9.23372,-9.17275 -8.22341,-15.97376 -2.71556,-22.50016 0.4383,-45.22301 4.99891,-67.39439 1.72011,-5.13812 7.44829,-6.34142 12.33274,-5.46361 17.83745,-0.21065 37.4782,-7.5711 45.33082,-24.09809 10.14836,-19.56085 5.96471,-45.56021 -10.39591,-60.78207 -4.24817,-3.37452 -9.67808,-5.4981 -15.22212,-5.39493 z m 178.86505,1.60629 c -26.5635,1.50481 -47.88673,20.01037 -63.76291,39.09652 -19.11696,22.73536 -19.14598,53.78883 -31.60047,79.5521 -6.486,16.79247 -16.04026,32.68276 -20.50308,50.09214 -0.21704,15.16201 7.06042,29.18942 12.51689,43.02325 5.47409,10.98129 14.51802,23.3068 28.26407,24.07105 17.32489,-0.0964 29.86578,-14.09469 40.0512,-25.94155 25.46919,-31.14589 40.38792,-68.81159 53.43902,-106.03788 8.05817,-25.87974 14.47534,-53.46447 9.71088,-80.50188 -3.35024,-12.19598 -14.2216,-23.75835 -28.1156,-23.35375 z"
       id="path703"
       inkscape:connector-curvature="0"
       sodipodi:nodetypes="cccccccccccccccccccccccccccccccccccccccccccsccccccccccccccccccc" />
  </g>
</svg>
