<?xml version="1.0" encoding="UTF-8" standalone="no"?>
<!-- Created with Inkscape (http://www.inkscape.org/) -->

<svg
   xmlns:dc="http://purl.org/dc/elements/1.1/"
   xmlns:cc="http://creativecommons.org/ns#"
   xmlns:rdf="http://www.w3.org/1999/02/22-rdf-syntax-ns#"
   xmlns:svg="http://www.w3.org/2000/svg"
   xmlns="http://www.w3.org/2000/svg"
   xmlns:sodipodi="http://sodipodi.sourceforge.net/DTD/sodipodi-0.dtd"
   xmlns:inkscape="http://www.inkscape.org/namespaces/inkscape"
   width="1000"
   height="1000"
   viewBox="0 0 1000 1000"
   version="1.1"
   id="svg756"
   inkscape:version="0.92.3 (2405546, 2018-03-11)"
   sodipodi:docname="u3072.svg">
  <defs
     id="defs750" />
  <sodipodi:namedview
     id="base"
     pagecolor="#ffffff"
     bordercolor="#666666"
     borderopacity="1.0"
     inkscape:pageopacity="0.0"
     inkscape:pageshadow="2"
     inkscape:zoom="0.35"
     inkscape:cx="551.42857"
     inkscape:cy="576.33663"
     inkscape:document-units="px"
     inkscape:current-layer="layer1"
     showgrid="true"
     units="px"
     inkscape:window-width="1118"
     inkscape:window-height="864"
     inkscape:window-x="652"
     inkscape:window-y="91"
     inkscape:window-maximized="0"
     showguides="true"
     inkscape:guide-bbox="true">
    <inkscape:grid
       type="xygrid"
       id="grid758" />
    <sodipodi:guide
       position="240,200"
       orientation="0,1"
       id="guide8"
       inkscape:locked="false" />
  </sodipodi:namedview>
  <metadata
     id="metadata753">
    <rdf:RDF>
      <cc:Work
         rdf:about="">
        <dc:format>image/svg+xml</dc:format>
        <dc:type
           rdf:resource="http://purl.org/dc/dcmitype/StillImage" />
        <dc:title />
      </cc:Work>
    </rdf:RDF>
  </metadata>
  <g
     inkscape:label="Layer 1"
     inkscape:groupmode="layer"
     id="layer1"
     transform="translate(0,-32.41664)"
     style="display:inline">
    <path
       style="display:inline;fill:#000000;stroke-width:20.12158966"
       d="m 299.26056,95.836848 c -28.85352,5.376452 -50.70267,26.668372 -73.04676,44.049172 -23.88853,18.77363 -45.74165,39.90477 -66.6184,61.97368 -22.93763,23.7404 -47.46658,45.87328 -73.186402,66.55029 -15.82191,13.68019 -33.393827,26.64587 -44.096873,45.00036 -3.425403,6.34816 -6.633573,17.27997 1.407832,21.41279 12.10456,5.65925 25.748579,0.2567 37.666069,-3.33508 39.492924,-14.4038 70.161414,-44.55013 99.335334,-73.82147 13.64685,-12.99993 27.41514,-26.57352 43.75026,-36.04912 9.36094,-2.236 16.86607,8.505 15.3466,17.07741 3.69189,87.24848 -15.04515,173.29709 -22.45449,259.77685 -3.48842,35.97829 -4.11308,72.14309 -3.91234,108.32514 -0.36,30.0971 -3.26401,60.86186 4.59509,90.28254 4.71191,16.21735 16.76772,31.06696 33.68131,35.18475 24.78457,7.43414 51.56797,1.95424 76.47662,-3.58157 38.90598,-10.77018 69.99311,-38.24708 97.73393,-66.39598 36.86555,-36.93938 70.74591,-76.83813 105.2482,-115.9025 16.65958,-20.27727 30.32302,-43.24893 49.68407,-61.17557 5.53006,-4.62215 13.66109,-4.0451 19.12939,0.40563 16.57754,10.66628 37.10279,28.00125 48.12783,43.84069 33.28341,51.93957 38.4382,102.82564 50.27658,162.65438 5.75975,23.99668 20.81283,46.59478 43.38829,57.82518 19.12486,11.69544 40.66428,25.14683 63.67216,20.88618 17.71486,-3.84662 30.47991,-18.93769 39.63577,-33.86527 14.99405,-22.79657 26.05417,-38.86034 28.44251,-66.13291 0.30427,-7.5025 -3.50444,-18.27315 -12.62268,-17.30499 -20.27584,0.79826 -37.1223,17.79388 -58.01244,14.41597 -13.79064,-2.50112 -27.24212,-15.95627 -29.46763,-28.93471 -7.76556,-31.96468 -10.30279,-65.45365 -23.93662,-95.78128 -25.92424,-59.37276 -69.70364,-108.33957 -128.81956,-134.73234 -16.2629,-6.84115 -32.98178,-13.18049 -50.53654,-15.24929 -10.773,-0.59261 -20.42812,5.28661 -27.72139,12.70349 -33.52856,29.75888 -56.18672,69.19165 -76.68952,108.57557 -25.01313,47.83365 -62.01333,89.62506 -107.43383,118.9487 -13.94895,8.67329 -34.6342,19.20463 -51.92316,15.847 -11.04758,-1.64743 -17.09972,-13.00606 -17.46103,-23.29424 -0.46711,-21.43617 1.41481,-42.88686 2.02637,-64.31794 5.66574,-127.95001 18.67048,-255.43404 27.79484,-383.13047 1.02766,-22.40792 3.72499,-44.84973 2.36015,-67.28784 -0.91432,-4.24394 -0.6653,-10.32594 -4.61046,-12.901043 -7.05235,-2.753743 -9.96023,-0.782016 -17.22908,-2.542159 z"
       id="path744"
       inkscape:connector-curvature="0"
       sodipodi:nodetypes="ccccccccccccccccccccccccccccccccccccccccc" />
  </g>
</svg>
