<?xml version="1.0" encoding="UTF-8" standalone="no"?>
<!-- Created with Inkscape (http://www.inkscape.org/) -->

<svg
   xmlns:dc="http://purl.org/dc/elements/1.1/"
   xmlns:cc="http://creativecommons.org/ns#"
   xmlns:rdf="http://www.w3.org/1999/02/22-rdf-syntax-ns#"
   xmlns:svg="http://www.w3.org/2000/svg"
   xmlns="http://www.w3.org/2000/svg"
   xmlns:sodipodi="http://sodipodi.sourceforge.net/DTD/sodipodi-0.dtd"
   xmlns:inkscape="http://www.inkscape.org/namespaces/inkscape"
   width="1000"
   height="1000"
   viewBox="0 0 1000 1000"
   version="1.1"
   id="svg756"
   inkscape:version="0.92.3 (2405546, 2018-03-11)"
   sodipodi:docname="u307b.svg">
  <defs
     id="defs750" />
  <sodipodi:namedview
     id="base"
     pagecolor="#ffffff"
     bordercolor="#666666"
     borderopacity="1.0"
     inkscape:pageopacity="0.0"
     inkscape:pageshadow="2"
     inkscape:zoom="0.35"
     inkscape:cx="551.42857"
     inkscape:cy="576.33663"
     inkscape:document-units="px"
     inkscape:current-layer="layer1"
     showgrid="true"
     units="px"
     inkscape:window-width="1118"
     inkscape:window-height="864"
     inkscape:window-x="550"
     inkscape:window-y="89"
     inkscape:window-maximized="0"
     showguides="true"
     inkscape:guide-bbox="true">
    <inkscape:grid
       type="xygrid"
       id="grid758" />
    <sodipodi:guide
       position="240,200"
       orientation="0,1"
       id="guide8"
       inkscape:locked="false" />
  </sodipodi:namedview>
  <metadata
     id="metadata753">
    <rdf:RDF>
      <cc:Work
         rdf:about="">
        <dc:format>image/svg+xml</dc:format>
        <dc:type
           rdf:resource="http://purl.org/dc/dcmitype/StillImage" />
        <dc:title />
      </cc:Work>
    </rdf:RDF>
  </metadata>
  <g
     inkscape:label="Layer 1"
     inkscape:groupmode="layer"
     id="layer1"
     transform="translate(0,-32.41664)"
     style="display:inline">
    <path
       style="display:inline;fill:#000000;stroke-width:10.3964119"
       d="M 100.29937,54.076596 C 84.351274,53.734766 72.444882,70.636319 74.554363,85.686424 65.232713,186.50179 69.387359,288.47083 51.383678,388.36603 c -5.12058,34.53694 -12.463698,69.1991 -11.104279,104.27458 3.656546,18.75743 25.194952,33.84776 43.782397,26.01229 17.555014,-7.13901 24.501454,-26.56271 31.566784,-42.54715 15.48783,-36.97241 29.39071,-75.20658 54.83365,-106.73087 5.70908,-10.3857 1.37373,-26.95535 -11.37827,-29.28673 -11.67178,-2.60212 -22.75973,4.44524 -30.95195,12.06979 10.6095,-86.13257 14.66863,-173.01159 14.26768,-259.758243 -1.2972,-16.065734 -11.21412,-33.239508 -28.02701,-36.637326 -4.57613,-1.243903 -9.33515,-1.779816 -14.07331,-1.685775 z M 494.69607,164.1699 c -61.33538,2.65506 -124.58383,-0.84334 -183.64463,19.01296 -42.73213,16.53705 -77.67333,49.17962 -102.14645,87.41903 -5.60578,8.12481 -12.57921,15.65063 -16.87864,24.48904 -0.45059,16.13971 23.0824,24.25863 33.41712,12.40992 17.06003,-14.73051 25.99783,-38.49046 47.89374,-47.31142 33.9846,-17.1596 73.48934,-23.16931 110.62071,-22.78784 -5.21891,8.48234 -6.18329,22.3289 3.58281,27.91112 13.04229,7.4551 28.36493,0.98139 41.08926,-3.84259 37.50172,-13.05521 77.7435,-24.69141 107.14035,-52.85625 11.89152,-13.93536 2.67889,-39.33175 -15.77034,-41.52466 -8.19803,-2.38846 -16.80038,-3.02164 -25.30393,-2.91931 z m -69.25084,111.23335 c -18.041,0.60744 -30.39815,19.22656 -29.71252,36.17582 -1.94098,17.74109 3.67663,36.59791 -4.38113,53.3738 -19.59892,10.59751 -42.64053,8.395 -64.08873,8.3244 -15.18636,-1.55029 -31.88156,-4.95793 -43.73191,-15.33299 -6.75251,-13.1002 -18.26517,-26.42511 -34.10678,-26.89255 -21.79853,-2.65975 -42.6767,19.13677 -38.29621,40.85472 1.56276,31.22068 28.1885,56.72289 57.78861,63.14193 41.0806,11.04504 84.04596,7.30108 126.06641,7.51894 -2.11833,17.20784 1.38848,36.19283 -8.37293,51.62456 -20.89293,17.6169 -50.51948,19.67951 -71.58364,37.23763 -45.62174,29.75511 -85.16273,69.17632 -114.16927,115.30846 -14.88979,32.79075 -9.69466,70.54501 0.63579,103.83508 9.02196,29.06888 24.63959,58.87626 52.36754,73.90489 25.56544,12.14169 60.07475,8.38464 78.56405,-14.40952 47.4583,-53.98631 76.91279,-120.89959 100.68888,-187.99967 8.12356,-23.91572 14.2779,-48.70199 21.41669,-72.72554 15.32258,-4.2831 31.19887,-7.46568 46.5624,-11.99935 58.03422,-14.40422 117.49858,-23.03049 177.24445,-25.23424 16.63806,-2.13245 35.55839,-8.02875 43.80664,-23.94331 3.70765,-14.743 -10.07909,-28.34235 -23.97132,-30.13521 -36.70384,-5.50371 -73.83544,-0.71609 -110.64611,0.62888 -43.01508,2.93932 -85.86841,8.22131 -128.31988,15.75263 4.71046,-32.08 9.79477,-66.58019 32.32375,-91.65225 14.176,-17.72528 13.21729,-45.63541 -2.51757,-62.10523 -15.16028,-21.26246 -36.23759,-42.46609 -63.56721,-45.25188 z m -49.81165,309.76801 c -18.04253,53.06697 -38.4443,105.98456 -71.06747,152.08898 -5.55256,6.47371 -12.72951,15.07823 -22.06126,13.77802 -9.45054,-6.18281 -10.30152,-18.63706 -13.97347,-28.36432 -4.90063,-18.81532 -10.22585,-39.40611 -2.97803,-58.17253 10.2922,-20.41518 30.84074,-32.4848 48.18755,-46.34475 19.9956,-14.41665 40.92091,-27.96505 63.53734,-37.8821 -0.54819,1.63223 -1.09643,3.26447 -1.64466,4.8967 z"
       id="path446"
       inkscape:connector-curvature="0" />
  </g>
</svg>
