<?xml version="1.0" encoding="UTF-8" standalone="no"?>
<!-- Created with Inkscape (http://www.inkscape.org/) -->

<svg
   xmlns:dc="http://purl.org/dc/elements/1.1/"
   xmlns:cc="http://creativecommons.org/ns#"
   xmlns:rdf="http://www.w3.org/1999/02/22-rdf-syntax-ns#"
   xmlns:svg="http://www.w3.org/2000/svg"
   xmlns="http://www.w3.org/2000/svg"
   xmlns:sodipodi="http://sodipodi.sourceforge.net/DTD/sodipodi-0.dtd"
   xmlns:inkscape="http://www.inkscape.org/namespaces/inkscape"
   width="1000"
   height="1000"
   viewBox="0 0 1000 1000"
   version="1.1"
   id="svg756"
   inkscape:version="0.92.3 (2405546, 2018-03-11)"
   sodipodi:docname="u3073.svg">
  <defs
     id="defs750" />
  <sodipodi:namedview
     id="base"
     pagecolor="#ffffff"
     bordercolor="#666666"
     borderopacity="1.0"
     inkscape:pageopacity="0.0"
     inkscape:pageshadow="2"
     inkscape:zoom="0.36302616"
     inkscape:cx="822.3989"
     inkscape:cy="563.50303"
     inkscape:document-units="px"
     inkscape:current-layer="layer1"
     showgrid="true"
     units="px"
     inkscape:window-width="1118"
     inkscape:window-height="864"
     inkscape:window-x="644"
     inkscape:window-y="90"
     inkscape:window-maximized="0"
     showguides="true"
     inkscape:guide-bbox="true">
    <inkscape:grid
       type="xygrid"
       id="grid758" />
    <sodipodi:guide
       position="240,200"
       orientation="0,1"
       id="guide8"
       inkscape:locked="false" />
  </sodipodi:namedview>
  <metadata
     id="metadata753">
    <rdf:RDF>
      <cc:Work
         rdf:about="">
        <dc:format>image/svg+xml</dc:format>
        <dc:type
           rdf:resource="http://purl.org/dc/dcmitype/StillImage" />
        <dc:title />
      </cc:Work>
    </rdf:RDF>
  </metadata>
  <g
     inkscape:label="Layer 1"
     inkscape:groupmode="layer"
     id="layer1"
     transform="translate(0,-32.41664)"
     style="display:inline">
    <path
       style="display:inline;fill:#000000;stroke-width:14.41159058"
       d="m 341.28086,114.82951 c -20.5415,-0.0162 -36.22699,17.6984 -43.618,35.44441 -12.78503,25.88372 -16.03001,55.00238 -25.00775,82.14272 -13.84602,28.11009 -40.44087,46.57555 -63.83279,66.14999 -52.29557,40.56749 -112.127579,72.85516 -155.132272,124.1021 -8.85148,11.23277 -17.340188,27.11799 -10.535571,41.35679 7.131091,13.16462 22.778379,20.57581 37.381005,20.47592 15.204064,-0.98128 27.591208,-12.16769 35.882578,-24.26439 33.92045,-37.17809 73.745,-68.27701 112.95675,-99.58019 9.33644,-7.04768 19.06284,-13.60789 29.3641,-19.17003 10.6401,50.34541 6.01418,102.17922 10.0588,153.09511 4.4057,79.90873 12.223,160.05236 32.27804,237.7055 4.39195,14.30929 8.86989,29.57933 19.23658,40.78614 14.74814,13.1528 37.58282,11.97332 53.56961,1.94599 31.61048,-17.14623 53.16719,-47.63586 73.67433,-76.37767 41.02408,-60.4364 68.89116,-128.40493 99.08319,-194.69621 5.63303,45.45272 12.75042,91.53462 31.56488,133.68478 20.93849,50.69588 49.95202,99.83741 91.73314,136.09247 13.84478,11.1737 31.37456,21.45816 49.55091,19.71472 17.20485,-2.88617 27.20456,-18.84588 32.86226,-34.0041 11.00649,-29.2257 10.70991,-61.80894 7.05001,-92.38536 -4.33866,-30.08053 -13.76128,-60.32829 -32.43458,-84.59603 -5.07044,-5.81468 -15.21187,-8.52126 -20.65697,-1.86572 -8.58646,9.43118 -8.81557,22.86017 -10.71656,34.81061 -1.83352,23.01492 1.70155,47.87906 -8.9068,69.44989 -19.92361,-17.98268 -28.16485,-44.48359 -38.41969,-68.42267 -17.82523,-45.13655 -29.40928,-92.92773 -31.77108,-141.48139 -3.03211,-28.411 -6.69905,-58.09609 -23.14604,-82.14019 -7.47617,-9.69154 -21.47089,-14.8456 -32.89213,-9.19228 -21.58484,8.67575 -34.89172,29.28029 -48.25243,47.0994 -34.17323,49.73271 -56.381,106.35429 -86.62222,158.48121 -17.12738,31.72423 -35.60966,62.8862 -56.98754,91.90961 -2.08059,2.18455 -6.41952,4.35322 -7.4087,0.16791 -9.44351,-17.32725 -8.21007,-37.7628 -11.22904,-56.54437 -9.13908,-96.06738 -8.82563,-192.71567 -7.9096,-289.11344 0.83741,-25.57833 2.54063,-53.55818 18.96186,-74.52412 14.90988,-19.68148 34.5406,-35.69212 45.83776,-57.83263 9.15933,-16.186 14.33767,-37.27223 3.4907,-53.9987 -11.27243,-17.09474 -31.76123,-25.27331 -50.46326,-31.78023 -6.03463,-1.72838 -12.30274,-2.77254 -18.59348,-2.64555 z m 301.09287,21.60472 c -18.36227,1.14946 -35.54947,19.09929 -31.11976,38.03215 4.16172,24.22657 22.06688,42.84277 37.49859,60.75441 18.48299,19.60967 40.23411,38.66373 67.29545,44.51536 17.41221,3.18531 35.46128,-4.69757 46.10128,-18.58411 7.91956,-9.81856 13.86404,-24.29485 7.82097,-36.36979 -4.39228,-6.94195 -12.99817,-8.52933 -20.47408,-9.08969 -14.97433,-5.247 -26.24058,-17.21097 -37.67541,-27.65173 -18.09226,-18.57254 -34.09933,-41.81425 -59.79769,-50.33788 -3.13297,-0.87778 -6.39154,-1.36574 -9.64935,-1.26872 z"
       id="path411"
       inkscape:connector-curvature="0" />
  </g>
</svg>
