<?xml version="1.0" encoding="UTF-8" standalone="no"?>
<!-- Created with Inkscape (http://www.inkscape.org/) -->

<svg
   xmlns:dc="http://purl.org/dc/elements/1.1/"
   xmlns:cc="http://creativecommons.org/ns#"
   xmlns:rdf="http://www.w3.org/1999/02/22-rdf-syntax-ns#"
   xmlns:svg="http://www.w3.org/2000/svg"
   xmlns="http://www.w3.org/2000/svg"
   xmlns:sodipodi="http://sodipodi.sourceforge.net/DTD/sodipodi-0.dtd"
   xmlns:inkscape="http://www.inkscape.org/namespaces/inkscape"
   width="1000"
   height="1000"
   viewBox="0 0 1000 1000"
   version="1.1"
   id="svg756"
   inkscape:version="0.92.3 (2405546, 2018-03-11)"
   sodipodi:docname="u3071.svg">
  <defs
     id="defs750" />
  <sodipodi:namedview
     id="base"
     pagecolor="#ffffff"
     bordercolor="#666666"
     borderopacity="1.0"
     inkscape:pageopacity="0.0"
     inkscape:pageshadow="2"
     inkscape:zoom="0.35"
     inkscape:cx="551.42857"
     inkscape:cy="576.33663"
     inkscape:document-units="px"
     inkscape:current-layer="layer1"
     showgrid="true"
     units="px"
     inkscape:window-width="1118"
     inkscape:window-height="864"
     inkscape:window-x="675"
     inkscape:window-y="92"
     inkscape:window-maximized="0"
     showguides="true"
     inkscape:guide-bbox="true">
    <inkscape:grid
       type="xygrid"
       id="grid758" />
    <sodipodi:guide
       position="240,200"
       orientation="0,1"
       id="guide8"
       inkscape:locked="false" />
  </sodipodi:namedview>
  <metadata
     id="metadata753">
    <rdf:RDF>
      <cc:Work
         rdf:about="">
        <dc:format>image/svg+xml</dc:format>
        <dc:type
           rdf:resource="http://purl.org/dc/dcmitype/StillImage" />
        <dc:title />
      </cc:Work>
    </rdf:RDF>
  </metadata>
  <g
     inkscape:label="Layer 1"
     inkscape:groupmode="layer"
     id="layer1"
     transform="translate(0,-32.41664)"
     style="display:inline">
    <path
       style="display:inline;fill:#000000;stroke-width:11.39405346"
       d="m 513.07124,33.108842 c -15.89867,0.08658 -27.39435,13.82068 -33.39976,27.228763 -10.6887,22.902121 -13.13871,49.150405 -27.47133,70.413365 -29.52876,51.70799 -67.77158,97.64249 -103.75657,144.90025 -60.46403,76.79938 -122.6064,152.61406 -191.558,221.97955 -16.04002,15.47508 -32.47787,31.18823 -52.11054,42.0292 -3.22722,1.31413 -1.46145,-3.90184 -2.16903,-5.45046 -0.23026,-44.47866 19.13742,-85.71752 33.3836,-127.00271 7.84409,-23.57128 16.10469,-48.73793 11.53853,-73.83918 -2.21879,-13.67504 -17.30298,-23.85202 -30.7327,-19.35284 -15.0407,4.25096 -21.801186,19.84915 -28.506492,32.43459 -16.538356,33.01419 -25.843881,69.03662 -34.779498,104.68098 -9.856525,44.1786 -14.942915,91.05087 -3.254754,135.39822 4.476666,15.36211 15.79682,31.06702 32.804916,33.04572 21.397708,2.7793 40.887408,-9.60996 57.915118,-20.93965 40.50601,-28.26178 73.69418,-65.24711 108.75077,-99.67824 38.10756,-38.55735 72.86008,-80.26323 105.45613,-123.54473 30.35119,-39.53005 60.13176,-79.54593 93.27531,-116.8032 -10.663,51.48923 -28.10251,101.1889 -44.06161,151.22441 -22.74931,67.73977 -47.06867,135.26377 -77.84478,199.77764 -19.28449,35.97721 -48.88011,65.34955 -82.08097,88.71582 -19.99339,16.06624 -37.31805,39.63242 -36.51575,66.39836 0.39859,15.1768 10.42979,31.39409 26.4003,33.57587 23.10544,4.21186 45.57775,-8.20668 62.35536,-23.04998 32.03935,-27.8919 60.33551,-59.72577 89.78985,-90.25286 35.41063,-37.6507 70.80731,-75.59169 101.82308,-116.98593 5.04562,-8.9555 2.29824,-23.78583 -8.87916,-26.26547 -12.40507,-2.01548 -22.23006,8.00024 -31.44782,14.54869 -7.96334,6.19903 -16.40133,14.34324 -23.86685,19.56272 -0.43781,-6.71745 -0.67972,-13.50829 1.62653,-19.93864 13.86399,-63.03303 38.0485,-123.19858 52.83724,-186.03551 25.19386,-97.8634 45.22176,-197.48171 52.31452,-298.427746 0.2523,-9.905054 1.47983,-20.732403 -3.06578,-29.890129 -3.04795,-5.082459 -8.74161,-8.698476 -14.76986,-8.456873 z M 680,148.22714 c -20.69891,-0.3265 -37.39862,16.38016 -45.3932,34.15092 -20.38891,41.96496 -25.87199,89.08126 -30.5541,134.93264 -2.67016,41.53977 2.71186,85.88225 27.04386,120.81582 15.71747,22.07156 39.14958,40.74957 66.62403,44.41089 17.40548,-0.99734 29.49175,-15.60574 40.99745,-26.95296 17.0498,-18.61113 33.16353,-40.03003 38.12077,-65.30155 1.33489,-10.57185 -3.26204,-24.20115 -14.86687,-26.56564 -13.0108,-2.07266 -23.46842,8.73448 -29.98899,18.67484 -8.32258,11.91082 -20.95979,24.29934 -36.71888,22.41805 -12.33254,-1.0333 -23.01424,-11.173 -24.45054,-23.37049 -10.62628,-38.33209 -5.89379,-79.07884 3.65642,-117.28636 8.54684,-29.61046 28.33306,-55.92274 30.30762,-87.34785 0.73896,-10.15903 -3.05047,-21.60385 -12.98,-26.00853 -3.63261,-1.8272 -7.72935,-2.7568 -11.79757,-2.56978 z"
       id="path857"
       inkscape:connector-curvature="0" />
  </g>
</svg>
