<?xml version="1.0" encoding="UTF-8" standalone="no"?>
<!-- Created with Inkscape (http://www.inkscape.org/) -->

<svg
   xmlns:dc="http://purl.org/dc/elements/1.1/"
   xmlns:cc="http://creativecommons.org/ns#"
   xmlns:rdf="http://www.w3.org/1999/02/22-rdf-syntax-ns#"
   xmlns:svg="http://www.w3.org/2000/svg"
   xmlns="http://www.w3.org/2000/svg"
   xmlns:sodipodi="http://sodipodi.sourceforge.net/DTD/sodipodi-0.dtd"
   xmlns:inkscape="http://www.inkscape.org/namespaces/inkscape"
   width="1000"
   height="1000"
   viewBox="0 0 1000 1000"
   version="1.1"
   id="svg756"
   inkscape:version="0.92.3 (2405546, 2018-03-11)"
   sodipodi:docname="u3076.svg">
  <defs
     id="defs750" />
  <sodipodi:namedview
     id="base"
     pagecolor="#ffffff"
     bordercolor="#666666"
     borderopacity="1.0"
     inkscape:pageopacity="0.0"
     inkscape:pageshadow="2"
     inkscape:zoom="0.35"
     inkscape:cx="551.42857"
     inkscape:cy="576.33663"
     inkscape:document-units="px"
     inkscape:current-layer="layer1"
     showgrid="true"
     units="px"
     inkscape:window-width="1118"
     inkscape:window-height="864"
     inkscape:window-x="595"
     inkscape:window-y="91"
     inkscape:window-maximized="0"
     showguides="true"
     inkscape:guide-bbox="true">
    <inkscape:grid
       type="xygrid"
       id="grid758" />
    <sodipodi:guide
       position="240,200"
       orientation="0,1"
       id="guide8"
       inkscape:locked="false" />
  </sodipodi:namedview>
  <metadata
     id="metadata753">
    <rdf:RDF>
      <cc:Work
         rdf:about="">
        <dc:format>image/svg+xml</dc:format>
        <dc:type
           rdf:resource="http://purl.org/dc/dcmitype/StillImage" />
        <dc:title />
      </cc:Work>
    </rdf:RDF>
  </metadata>
  <g
     inkscape:label="Layer 1"
     inkscape:groupmode="layer"
     id="layer1"
     transform="translate(0,-32.41664)"
     style="display:inline">
    <path
       style="display:inline;fill:#000000;stroke-width:20.15748215"
       d="m 259.49902,112.26976 c -31.33513,-0.37322 -63.37314,5.738 -90.88132,21.31724 -13.8307,9.17423 -26.91118,23.51349 -26.6177,40.95243 2.26541,9.26043 13.5776,9.35275 20.99043,7.14277 8.56254,-1.9758 19.69236,-5.39951 26.92062,1.50163 6.54425,8.0882 1.30132,19.0822 -1.79072,27.45941 -8.62147,20.28948 -20.30879,40.03926 -21.80758,62.53644 -7.20728,55.62447 4.40771,112.08525 21.05011,165.25147 9.76136,30.22536 23.6025,58.95066 37.27268,87.44333 6.00508,15.19773 14.2434,24.54429 24.32419,41.43196 -11.75072,6.46296 -24.66187,17.77499 -39.20231,28.42166 -12.37298,-20.32809 -23.80606,-34.11314 -28.75928,-43.46963 -12.93427,-17.13593 -36.32325,-21.10831 -56.33491,-20.60099 -18.98079,0.94683 -39.56881,5.85045 -53.211081,19.85866 -13.252685,19.25463 -17.120804,42.82558 -22.244908,65.11642 -7.901387,42.09468 -11.173546,85.36744 -6.169768,127.9747 1.788739,10.67534 4.972373,23.98897 15.781467,28.99803 13.750118,4.1845 27.04835,-4.92699 38.31632,-11.44565 30.84094,-19.39256 56.51364,-45.636 84.82234,-68.2648 l 17.04349,-13.81746 c 29.56911,31.69088 67.92578,67.54377 111.0084,84.93424 23.99339,10.13782 49.90353,19.45905 76.00075,16.35206 13.98506,-1.81619 27.87039,-11.20176 30.70893,-25.71348 5.60785,-22.86578 -3.9408,-45.81371 -13.69439,-66.1642 -16.23561,-32.4839 -29.24438,-44.8785 -50.29399,-77.45161 -3.85017,-5.95802 -12.38507,-16.95035 -20.53548,-32.35987 2.49965,-5.78666 17.52903,-10.00779 22.86243,-7.14611 18.14813,6.309 29.63676,23.01569 41.28385,37.2496 28.17621,37.64484 49.41102,80.36689 63.89569,125.03613 7.69305,27.92156 11.26338,57.7667 27.87599,82.14185 8.20787,13.13883 23.49886,19.33543 37.48521,24.62055 4.74074,1.84415 10.02987,2.67713 14.40769,-0.76251 27.22551,-19.37523 51.91767,-42.48833 74.69189,-66.89208 8.74165,-10.17057 18.48356,-19.78977 25.33589,-31.38716 3.38049,-6.86161 -5.24619,-10.51852 -10.0016,-13.24712 -18.05204,-8.01762 -38.39679,-10.18066 -57.85947,-8.57857 -11.80996,0.76656 -22.54412,5.89413 -32.51154,11.89426 -7.1639,3.90716 -18.18821,5.86427 -23.60575,-1.80021 -7.41047,-11.28714 -3.08918,-25.60861 -3.90777,-38.07789 0.0224,-25.42859 -12.11623,-49.11241 -25.95058,-69.82708 -20.22711,-28.68096 -47.46308,-52.62448 -78.55682,-69.06925 -18.75735,-9.79153 -65.55172,-24.20912 -96.27312,-10.68846 0,0 -11.38545,-22.93721 -22.31848,-42.96278 -15.06985,-35.67319 -24.05703,-68.02956 -36.0969,-102.57893 -8.56111,-27.30196 -17.42269,-56.07318 -13.1789,-84.97411 6.13956,-36.08944 28.76434,-66.11481 43.05349,-99.10802 10.72954,-23.40491 21.45743,-47.66597 25.65544,-73.10517 0.0391,-13.25337 -12.58601,-21.02664 -23.7683,-24.21167 -8.28953,-2.56324 -16.64927,-3.42802 -25.21463,-3.93003 z m 285.10245,19.69741 c -12.90446,0.2828 -20.46167,13.32949 -23.80511,24.32559 -10.00791,34.11709 -9.88474,70.89224 -2.76434,105.37692 1.64502,7.90837 6.43933,14.56006 12.3676,19.78653 11.34461,14.89068 16.52004,33.24424 23.18141,50.44769 15.76329,46.14811 20.5954,96.59709 45.88228,138.98103 1.65597,2.0298 3.66551,5.95277 6.38653,5.78078 6.7088,-16.03761 4.97247,-33.9525 4.27142,-50.84216 -1.98026,-43.7449 -12.3422,-86.58413 -22.51764,-129.03378 -1.37284,-7.26084 0.61461,-17.5303 9.10078,-19.12017 13.12666,-2.27005 22.2922,13.77437 35.5254,9.30004 9.39549,-4.50987 9.8685,-16.9598 9.71268,-25.91018 -1.53922,-32.78344 -19.59182,-61.98839 -39.92369,-86.74128 -12.64313,-14.49623 -25.92203,-29.67308 -43.28662,-38.68789 -4.41392,-2.0601 -9.15448,-3.46503 -14.1307,-3.66312 z m -398.0138,471.48118 c 17.4374,1.29907 15.33938,10.76281 23.83872,29.13983 -9.49592,13.01579 -34.2262,32.3142 -50.2679,25.81159 -11.71008,-5.61839 -13.38332,-21.88163 -7.11526,-32.19169 5.88353,-12.80034 18.68176,-24.08749 33.54444,-22.75973 z m 133.81588,12.44403 c 9.32283,10.46593 28.01643,30.90389 25.04109,46.21459 -0.92632,8.96856 -4.73757,9.27586 -15.06764,9.40685 -13.15203,-2.67219 -33.19016,-21.03474 -40.0814,-31.4357 4.65914,-6.51388 10.75137,-9.67252 19.3604,-16.50243 2.83705,-2.25075 4.37586,-4.08274 10.74755,-7.68331 z"
       id="path763"
       inkscape:connector-curvature="0"
       sodipodi:nodetypes="ccccccccccccccccccccccccsccccccccccccccccccccccccccccccccccccccccccccccccsc" />
  </g>
</svg>
