<?xml version="1.0" encoding="UTF-8" standalone="no"?>
<!-- Created with Inkscape (http://www.inkscape.org/) -->

<svg
   xmlns:dc="http://purl.org/dc/elements/1.1/"
   xmlns:cc="http://creativecommons.org/ns#"
   xmlns:rdf="http://www.w3.org/1999/02/22-rdf-syntax-ns#"
   xmlns:svg="http://www.w3.org/2000/svg"
   xmlns="http://www.w3.org/2000/svg"
   xmlns:sodipodi="http://sodipodi.sourceforge.net/DTD/sodipodi-0.dtd"
   xmlns:inkscape="http://www.inkscape.org/namespaces/inkscape"
   width="1000"
   height="1000"
   viewBox="0 0 1000 1000"
   version="1.1"
   id="svg756"
   inkscape:version="0.92.3 (2405546, 2018-03-11)"
   sodipodi:docname="u3074.svg">
  <defs
     id="defs750" />
  <sodipodi:namedview
     id="base"
     pagecolor="#ffffff"
     bordercolor="#666666"
     borderopacity="1.0"
     inkscape:pageopacity="0.0"
     inkscape:pageshadow="2"
     inkscape:zoom="0.35"
     inkscape:cx="551.42857"
     inkscape:cy="576.33663"
     inkscape:document-units="px"
     inkscape:current-layer="layer1"
     showgrid="true"
     units="px"
     inkscape:window-width="1118"
     inkscape:window-height="864"
     inkscape:window-x="648"
     inkscape:window-y="90"
     inkscape:window-maximized="0"
     showguides="true"
     inkscape:guide-bbox="true">
    <inkscape:grid
       type="xygrid"
       id="grid758" />
    <sodipodi:guide
       position="240,200"
       orientation="0,1"
       id="guide8"
       inkscape:locked="false" />
  </sodipodi:namedview>
  <metadata
     id="metadata753">
    <rdf:RDF>
      <cc:Work
         rdf:about="">
        <dc:format>image/svg+xml</dc:format>
        <dc:type
           rdf:resource="http://purl.org/dc/dcmitype/StillImage" />
        <dc:title />
      </cc:Work>
    </rdf:RDF>
  </metadata>
  <g
     inkscape:label="Layer 1"
     inkscape:groupmode="layer"
     id="layer1"
     transform="translate(0,-32.41664)"
     style="display:inline">
    <path
       style="display:inline;fill:#000000;stroke-width:15.90858746"
       d="m 280.73419,122.02977 c -23.92268,1.90194 -41.8346,20.02188 -59.55983,34.20717 C 165.47715,205.39181 120.3626,265.04219 77.3717,325.24365 63.452955,345.94007 49.268758,367.0491 40.998059,390.73244 c -3.618798,14.24004 -3.766754,31.74816 6.964699,43.02792 9.919308,7.94152 24.278258,3.46736 33.22651,-3.83885 23.695652,-17.34054 40.835562,-41.77907 57.890632,-65.27268 25.64258,-37.17176 49.03285,-75.91554 77.56534,-111.01418 11.60552,-15.06325 23.88106,-30.83435 39.69676,-41.14571 4.86304,21.0355 4.42262,42.92159 5.36558,64.3806 2.8269,114.86926 -2.36419,230.29338 11.5878,344.61987 5.54263,43.28719 12.88131,88.71399 38.86746,125.04569 14.65818,19.86537 34.58248,37.16437 58.54161,44.3816 20.29823,4.99449 42.07659,-4.09945 55.03775,-20.01339 26.05242,-28.74001 38.34091,-66.49971 51.56318,-102.18612 20.46723,-59.79811 33.82664,-121.6829 49.25977,-182.86013 9.02113,49.92795 23.65282,100.29282 53.83085,141.82159 8.42499,10.77489 18.15435,21.6646 31.0428,26.974 17.57019,6.10646 40.44767,-3.93571 44.14682,-23.07437 4.76896,-20.68622 -6.69982,-40.63523 -18.60215,-56.66367 -16.38207,-23.69625 -23.01673,-52.73245 -23.43626,-81.21639 -3.56699,-43.04282 -22.85608,-85.36323 -55.19672,-114.34301 -16.12934,-14.45885 -41.13629,-20.85179 -60.95452,-10.21937 -12.02268,5.88364 -19.32368,18.83432 -19.33271,32.07249 -1.68616,18.26025 -7.50381,35.79142 -12.04617,53.44828 -24.49,83.48045 -49.22946,167.22723 -83.29588,247.31386 -1.45221,3.24493 -5.73801,10.22575 -9.43307,5.49819 -7.13902,-8.98184 -9.32468,-20.79589 -12.66347,-31.526 -9.52965,-38.45347 -12.84535,-78.2641 -16.83298,-117.64718 -10.12301,-113.50932 -7.97138,-227.86601 -18.90359,-341.36851 -2.89128,-24.64027 -5.07489,-50.09883 -15.25237,-73.02724 -5.12637,-11.49099 -15.44781,-22.20149 -28.90154,-21.86996 z m 446.23623,96.08371 c -23.26139,0.66251 -41.99064,17.57201 -55.54666,34.984 -29.1228,35.43699 -32.51651,88.6373 -10.05973,128.31428 11.68561,22.70836 28.18798,44.46616 51.32385,56.31889 19.44991,8.41751 42.31005,3.05431 58.95079,-9.11338 20.9756,-13.57653 40.46534,-31.71453 50.15148,-55.19146 9.87726,-25.49619 7.90478,-54.06591 1.16727,-80.07251 -3.25445,-11.29145 -12.10308,-21.44716 -24.13008,-23.32344 -16.40574,-3.69915 -33.12379,0.40462 -49.6004,1.24906 10.36716,-6.86484 22.66868,-13.54903 27.80486,-25.47213 1.82303,-10.14884 -8.17825,-17.64023 -17.0318,-19.66015 -10.45837,-4.40466 -21.52729,-8.27721 -33.02958,-8.03316 z m 28.63012,103.00373 c 5.31611,-0.70214 9.59653,3.44669 9.69517,8.73979 2.01138,12.53969 -5.41186,27.85451 -18.94426,29.86805 -8.97785,2.31416 -17.58294,-4.3098 -20.00188,-12.79552 -2.82413,-5.8534 -4.53655,-15.45657 2.94609,-18.47957 8.21259,-3.66934 17.13818,-7.04555 26.30488,-7.33275 z"
       id="path804"
       inkscape:connector-curvature="0" />
  </g>
</svg>
