<?xml version="1.0" encoding="UTF-8" standalone="no"?>
<!-- Created with Inkscape (http://www.inkscape.org/) -->

<svg
   xmlns:dc="http://purl.org/dc/elements/1.1/"
   xmlns:cc="http://creativecommons.org/ns#"
   xmlns:rdf="http://www.w3.org/1999/02/22-rdf-syntax-ns#"
   xmlns:svg="http://www.w3.org/2000/svg"
   xmlns="http://www.w3.org/2000/svg"
   xmlns:sodipodi="http://sodipodi.sourceforge.net/DTD/sodipodi-0.dtd"
   xmlns:inkscape="http://www.inkscape.org/namespaces/inkscape"
   width="1000"
   height="1000"
   viewBox="0 0 1000 1000"
   version="1.1"
   id="svg756"
   inkscape:version="0.92.3 (2405546, 2018-03-11)"
   sodipodi:docname="u307a.svg">
  <defs
     id="defs750" />
  <sodipodi:namedview
     id="base"
     pagecolor="#ffffff"
     bordercolor="#666666"
     borderopacity="1.0"
     inkscape:pageopacity="0.0"
     inkscape:pageshadow="2"
     inkscape:zoom="0.35"
     inkscape:cx="551.42857"
     inkscape:cy="576.33663"
     inkscape:document-units="px"
     inkscape:current-layer="layer1"
     showgrid="true"
     units="px"
     inkscape:window-width="1118"
     inkscape:window-height="864"
     inkscape:window-x="586"
     inkscape:window-y="89"
     inkscape:window-maximized="0"
     showguides="true"
     inkscape:guide-bbox="true">
    <inkscape:grid
       type="xygrid"
       id="grid758" />
    <sodipodi:guide
       position="240,200"
       orientation="0,1"
       id="guide8"
       inkscape:locked="false" />
  </sodipodi:namedview>
  <metadata
     id="metadata753">
    <rdf:RDF>
      <cc:Work
         rdf:about="">
        <dc:format>image/svg+xml</dc:format>
        <dc:type
           rdf:resource="http://purl.org/dc/dcmitype/StillImage" />
        <dc:title />
      </cc:Work>
    </rdf:RDF>
  </metadata>
  <g
     inkscape:label="Layer 1"
     inkscape:groupmode="layer"
     id="layer1"
     transform="translate(0,-32.41664)"
     style="display:inline">
    <path
       sodipodi:type="inkscape:offset"
       inkscape:radius="-9.0236807"
       inkscape:original="M 715.36523 209.53125 C 700.20507 209.80826 687.50232 216.97178 669.69336 231.95703 C 643.91113 253.65135 639.63001 254.56706 611.52539 244.4043 C 574.91307 231.16512 563.20073 238.46331 536.16992 291.35938 C 520.97305 321.09782 517.30808 347.60995 514.24609 449.98242 C 510.02231 591.19668 519.24183 622.45195 573.25977 650.06641 C 667.26775 698.12413 798.01113 574.48312 838.88477 398.87109 C 856.99954 321.04156 824.28444 248.39245 758.75781 220.94141 C 740.43458 213.26526 727.15647 209.3158 715.36523 209.53125 z M 658.7168 310.91211 C 667.94857 310.75449 679.71492 311.40342 691.78711 312.89648 L 735.68555 318.32617 L 734.29297 359.66016 C 732.62984 409.06139 700.3801 482.99261 663.29492 522.41602 C 618.41712 570.12339 608.34045 561.7835 608.48242 477.05273 C 608.58326 416.86487 626.46993 326.64405 640.85352 313.76562 C 642.78815 312.03341 649.48502 311.06973 658.7168 310.91211 z M 249.75586 374.41016 L 170.83984 481.5332 C 127.0039 541.03752 82.409345 613.30987 64.3125 636.97461 C -11.442423 736.03711 -13.025718 786.36004 43.96875 810.17383 C 86.127183 827.78875 98.902091 821.90286 97.533203 785.49023 C 96.875161 767.98607 106.33567 737.67179 120.6875 711.30273 C 152.39974 653.03691 253.80392 527.04835 265.00391 528.25781 C 281.5099 530.04024 318.34616 606.5069 342.79492 689.74219 C 385.09271 833.74409 468.25705 950.01619 524.12891 972.60547 C 560.2882 987.22485 624.73469 982.36297 643.49805 963.59961 C 678.91762 928.18003 652.93978 877.61919 600.00391 886.08398 C 572.73526 890.44442 573.09051 881.28774 537.41016 853.13867 C 478.41906 806.5992 434.65719 724.70823 396.17969 565.2793 C 379.56515 496.43816 347.74753 425.33968 338.4082 407.2832 C 323.52675 378.51163 316.9982 379.41531 285.5918 377.07812 L 249.75586 374.41016 z "
       style="display:inline;fill:#000000;stroke-width:8.7797718"
       id="path812"
       d="m 715.5293,218.55273 c -12.41105,0.22678 -22.74988,5.77221 -40.02539,20.3086 -13.03153,10.96531 -21.41437,17.79587 -32.13477,20.08984 -10.7204,2.29397 -20.6405,-0.89987 -34.91211,-6.06055 -8.75907,-3.16731 -15.61617,-4.88795 -20.82422,-5.1621 -5.20805,-0.27415 -8.6866,0.56981 -12.60547,3.01171 -7.83774,4.88382 -17.47065,18.5971 -30.82226,44.72461 -7.23775,14.1634 -11.50758,26.76159 -14.60938,49.20313 -3.1018,22.44153 -4.8016,54.48202 -6.33008,105.58398 -2.10542,70.39113 -0.60743,113.00813 7.30079,139.82032 7.90821,26.81218 20.83512,38.6851 46.80078,51.95898 21.35086,10.91475 44.46642,12.1479 68.79297,5.08984 24.32655,-7.05806 49.66097,-22.65872 73.63672,-45.33203 47.95149,-45.34661 90.23757,-118.77047 110.29882,-204.96289 17.28995,-74.28569 -13.54356,-141.89022 -74.82422,-167.5625 -17.90767,-7.50206 -30.08863,-10.88733 -39.74218,-10.71094 z m -56.9668,83.33789 c 9.78531,-0.16707 21.86709,0.50915 34.33203,2.05079 l 43.89844,5.42968 a 9.0245831,9.0245831 0 0 1 7.91211,9.25977 l -1.39258,41.33398 c -1.78564,53.01904 -34.29178,127.0126 -73.44531,168.63477 -11.42483,12.14517 -20.66047,20.93521 -29.25391,26.38867 -4.29672,2.72673 -8.51368,4.73022 -13.28906,5.33399 -4.77538,0.60376 -10.24425,-0.80616 -14.07031,-3.97266 -7.65213,-6.33301 -9.78507,-15.78769 -11.51953,-28.53711 -1.73447,-12.74942 -2.31119,-29.41359 -2.2754,-50.77539 0.0519,-30.98026 4.61467,-68.90461 11.00196,-101.12305 3.19364,-16.10922 6.83639,-30.75338 10.71289,-42.49414 3.87649,-11.74076 6.85582,-20.28465 13.66015,-26.37695 4.20273,-3.76299 7.11797,-3.6343 10.82813,-4.21094 3.71016,-0.57664 8.00789,-0.85787 12.90039,-0.94141 z m -404.5,81.88868 -75.95703,103.10547 c -43.49983,59.04806 -87.488152,130.54754 -106.625001,155.57226 -37.448008,48.96967 -55.726015,85.6025 -58.140625,110.2168 -1.207305,12.30715 1.112428,21.39269 6.519531,29.17187 5.407103,7.77918 14.396126,14.49009 27.587891,20.00196 20.450165,8.54462 32.590052,9.55084 35.849609,8.04882 1.629778,-0.75101 2.588861,-1.60276 3.75,-5.36914 1.161139,-3.76638 1.790835,-10.12975 1.46875,-18.69726 -0.794706,-21.13948 9.302057,-51.38466 24.246095,-78.8418 16.48121,-30.28141 49.79905,-76.24779 80.71289,-115.12695 15.45692,-19.43958 30.26188,-37.009 42.08203,-49.82422 5.91008,-6.40761 11.04265,-11.61023 15.36524,-15.41992 2.16129,-1.90485 4.08847,-3.46124 6.11328,-4.75196 2.0248,-1.29071 3.71967,-3.14158 8.9375,-2.57812 5.30873,0.57327 8.85728,3.27266 12.2207,6.36719 3.36342,3.09452 6.5458,6.98172 9.86133,11.67773 6.63106,9.39202 13.69254,22.04582 20.99609,37.20703 14.60711,30.32242 30.04319,70.58366 42.40234,112.66016 20.8833,71.09671 51.92311,135.44851 84.44141,184.51953 32.5183,49.07102 67.22674,82.6603 91.61719,92.52148 16.03026,6.48112 40.29538,9.03135 62.14648,7.38282 21.8511,-1.64853 41.45438,-8.3997 47.45899,-14.4043 15.41176,-15.41176 16.57912,-32.09972 9.83593,-44.53125 -6.74318,-12.43153 -22.04893,-21.44708 -45.52343,-17.69336 -14.60079,2.33476 -25.37212,0.54243 -34.625,-5.7168 -9.25288,-6.25922 -17.52917,-15.28386 -34.98438,-29.05468 C 470.49179,811.83914 426.08645,727.65721 387.4082,567.39648 371.07764,499.73199 339.13338,428.32898 330.39258,411.42969 c -7.17564,-13.87327 -11.30134,-18.65586 -16.19141,-21.07031 -4.89007,-2.41446 -13.44411,-3.10479 -29.27929,-4.28321 z"
       transform="matrix(0.95082842,0,0,0.95082842,28.430156,-152.91881)" />
  </g>
</svg>
