<?xml version="1.0" encoding="UTF-8" standalone="no"?>
<!-- Created with Inkscape (http://www.inkscape.org/) -->

<svg
   xmlns:dc="http://purl.org/dc/elements/1.1/"
   xmlns:cc="http://creativecommons.org/ns#"
   xmlns:rdf="http://www.w3.org/1999/02/22-rdf-syntax-ns#"
   xmlns:svg="http://www.w3.org/2000/svg"
   xmlns="http://www.w3.org/2000/svg"
   xmlns:sodipodi="http://sodipodi.sourceforge.net/DTD/sodipodi-0.dtd"
   xmlns:inkscape="http://www.inkscape.org/namespaces/inkscape"
   width="1000"
   height="1000"
   viewBox="0 0 1000 1000"
   version="1.1"
   id="svg756"
   inkscape:version="0.92.3 (2405546, 2018-03-11)"
   sodipodi:docname="u307c.svg">
  <defs
     id="defs750" />
  <sodipodi:namedview
     id="base"
     pagecolor="#ffffff"
     bordercolor="#666666"
     borderopacity="1.0"
     inkscape:pageopacity="0.0"
     inkscape:pageshadow="2"
     inkscape:zoom="0.35"
     inkscape:cx="551.42857"
     inkscape:cy="576.33663"
     inkscape:document-units="px"
     inkscape:current-layer="layer1"
     showgrid="true"
     units="px"
     inkscape:window-width="1118"
     inkscape:window-height="864"
     inkscape:window-x="544"
     inkscape:window-y="90"
     inkscape:window-maximized="0"
     showguides="true"
     inkscape:guide-bbox="true">
    <inkscape:grid
       type="xygrid"
       id="grid758" />
    <sodipodi:guide
       position="240,200"
       orientation="0,1"
       id="guide8"
       inkscape:locked="false" />
  </sodipodi:namedview>
  <metadata
     id="metadata753">
    <rdf:RDF>
      <cc:Work
         rdf:about="">
        <dc:format>image/svg+xml</dc:format>
        <dc:type
           rdf:resource="http://purl.org/dc/dcmitype/StillImage" />
        <dc:title />
      </cc:Work>
    </rdf:RDF>
  </metadata>
  <g
     inkscape:label="Layer 1"
     inkscape:groupmode="layer"
     id="layer1"
     transform="translate(0,-32.41664)"
     style="display:inline">
    <path
       style="display:inline;fill:#000000;stroke-width:14.79348373"
       d="m 356.57263,108.12095 c -25.45103,0.54005 -50.24138,12.42414 -67.0803,32.08505 -27.11761,29.80225 -44.19211,67.3145 -61.41997,103.63262 -23.92009,52.72944 -45.94747,106.41462 -65.62717,160.97213 -3.50289,10.91026 -8.11447,22.77372 -5.563,34.37985 3.62032,8.6547 16.69574,10.81411 22.27683,3.00883 11.80085,-12.19829 20.34119,-27.25871 29.91945,-41.26827 37.96215,-58.98272 67.0919,-123.58762 106.74591,-181.41064 11.78739,-16.73461 26.77259,-34.9636 47.90313,-37.29924 20.46382,-2.09581 40.72984,4.43905 60.47844,9.31666 5.17131,1.69285 12.26916,3.31284 14.05725,9.20462 -1.05638,8.84462 -8.12652,15.67544 -14.56793,20.96396 -11.72058,8.78989 -26.95202,11.14068 -41.0029,8.46573 -13.20297,-0.47077 -24.24435,9.9536 -28.91094,22.02001 -10.80383,22.80073 -10.52609,51.08513 -28.64912,69.81144 -10.0886,9.44207 -24.37147,5.22722 -36.34792,9.19512 -20.87061,5.74635 -40.78489,20.27348 -48.88974,41.4511 -2.64236,6.3211 -3.11999,15.38694 3.80146,19.02279 9.77478,6.06031 21.68994,6.93277 32.81746,7.87687 12.41044,0.69124 26.22645,-1.6333 37.33054,5.39249 8.59502,8.29886 6.72591,21.81144 7.43003,32.74989 -0.056,41.95097 -2.42407,85.10671 -17.72455,124.46541 -4.99174,12.46602 -13.09508,25.22414 -26.32689,29.2055 -26.08009,14.33844 -47.9794,35.38828 -68.5674,56.94287 -25.82544,28.71222 -43.94521,67.91802 -39.02845,107.78471 3.64979,29.06428 22.21918,55.34756 47.84318,68.03937 12.4722,7.16183 28.04811,9.80139 41.32681,3.35621 24.65427,-10.57326 41.0803,-34.1651 54.07536,-57.19414 17.5124,-31.8517 27.20564,-67.53517 33.37823,-103.37172 5.9893,-18.46477 25.15006,-27.20268 41.5719,-33.39022 28.97464,-9.96588 58.9033,-17.09943 86.89158,-29.97729 26.45963,-11.44714 53.32652,-24.247 74.28174,-44.91678 6.19743,-5.95086 11.66245,-16.85455 5.44958,-24.69062 -8.31095,-9.9408 -22.71332,-7.7014 -33.53094,-4.15404 -20.15939,6.80481 -37.35778,20.73831 -58.07928,26.10568 -23.26121,7.99685 -47.88194,10.60357 -72.37934,9.40114 -4.94863,-0.66678 -13.18488,1.35551 -16.17709,-0.91152 14.50441,-63.95302 32.44079,-127.65461 37.51276,-193.39289 -0.12079,-25.60738 15.41206,-47.56973 29.57093,-67.42953 24.36664,-32.1775 58.4822,-57.69171 73.54937,-96.5971 5.75716,-14.41938 5.59875,-32.78554 -5.52707,-44.50541 -14.50719,-15.70222 -36.74729,-18.07478 -54.44621,-28.36789 -14.50702,-7.37502 -28.3847,-16.61552 -44.47911,-19.92651 -17.58177,-4.53679 -35.788,-6.28615 -53.88662,-6.04624 z m -171.59619,0.98579 c -13.08748,-0.01 -26.93862,3.71349 -35.85014,14.21719 -21.29548,21.94564 -32.61429,51.61176 -42.67101,80.27306 -15.047862,44.93558 -21.584054,92.38739 -23.631914,139.72462 -7.964811,83.43635 -24.700056,165.59868 -38.797392,248.15529 -3.839671,24.32467 -8.121324,49.05749 -6.039532,73.77558 1.125116,10.92464 8.442798,22.77125 20.07097,23.16911 15.548189,0.85549 28.189758,-11.00363 38.385065,-21.63247 23.666343,-26.21707 37.830043,-60.30223 45.455723,-94.88596 2.06527,-10.86837 3.87724,-23.34639 -1.6985,-33.41067 -2.50518,-3.7973 -7.27088,-4.34182 -10.98033,-5.66032 -7.7908,-8.05054 -7.91493,-20.70143 -8.16887,-31.36897 1.13011,-23.25068 6.63299,-45.98133 10.34258,-68.91801 16.89973,-90.16291 35.9097,-179.92607 58.771,-268.72223 3.35151,-13.41036 8.74986,-26.30843 11.44506,-39.85893 0.99566,-6.69753 -3.21183,-14.10084 -10.2226,-14.46409 -2.11447,-0.38215 -4.26869,-0.43507 -6.41011,-0.3932 z M 720,139.62861 c -32.33942,1.06129 -65.7226,7.46479 -93.36044,25.62135 -8.49076,5.5622 -16.38481,15.71063 -13.13294,26.66913 5.92077,29.14242 21.80578,55.02192 39.44076,78.13159 5.99123,6.81846 12.57982,14.38755 21.40022,17.03975 6.82591,1.39021 12.69952,-4.72653 13.10782,-11.51056 4.45066,-20.22777 -7.67042,-40.81903 -0.75589,-60.70177 6.58081,-12.62439 22.3099,-12.51196 33.33735,-18.54031 14.6898,-7.58118 27.75049,-23.96675 24.76659,-41.78353 C 742.09339,143.35716 730.27837,138.51982 720,139.62861 Z M 278.45856,670.79877 c 3.02814,24.03841 -1.21613,51.12633 -18.31961,68.93955 -3.74002,3.0291 -7.9229,7.80548 -12.90686,7.49132 -4.28389,-3.32198 -1.45269,-9.90164 -1.38271,-14.52673 4.30981,-22.55057 17.69112,-41.73241 30.54066,-59.97248 0.54037,-0.30549 1.87577,-2.95432 2.06852,-1.93166 z"
       id="path496"
       inkscape:connector-curvature="0" />
  </g>
</svg>
