<?xml version="1.0" encoding="UTF-8" standalone="no"?>
<!-- Created with Inkscape (http://www.inkscape.org/) -->

<svg
   xmlns:dc="http://purl.org/dc/elements/1.1/"
   xmlns:cc="http://creativecommons.org/ns#"
   xmlns:rdf="http://www.w3.org/1999/02/22-rdf-syntax-ns#"
   xmlns:svg="http://www.w3.org/2000/svg"
   xmlns="http://www.w3.org/2000/svg"
   xmlns:sodipodi="http://sodipodi.sourceforge.net/DTD/sodipodi-0.dtd"
   xmlns:inkscape="http://www.inkscape.org/namespaces/inkscape"
   width="1000"
   height="1000"
   viewBox="0 0 1000 1000"
   version="1.1"
   id="svg756"
   inkscape:version="0.92.3 (2405546, 2018-03-11)"
   sodipodi:docname="u307e.svg">
  <defs
     id="defs750" />
  <sodipodi:namedview
     id="base"
     pagecolor="#ffffff"
     bordercolor="#666666"
     borderopacity="1.0"
     inkscape:pageopacity="0.0"
     inkscape:pageshadow="2"
     inkscape:zoom="0.35"
     inkscape:cx="551.42857"
     inkscape:cy="576.33663"
     inkscape:document-units="px"
     inkscape:current-layer="layer1"
     showgrid="true"
     units="px"
     inkscape:window-width="1118"
     inkscape:window-height="864"
     inkscape:window-x="553"
     inkscape:window-y="92"
     inkscape:window-maximized="0"
     showguides="true"
     inkscape:guide-bbox="true">
    <inkscape:grid
       type="xygrid"
       id="grid758" />
    <sodipodi:guide
       position="240,200"
       orientation="0,1"
       id="guide8"
       inkscape:locked="false" />
  </sodipodi:namedview>
  <metadata
     id="metadata753">
    <rdf:RDF>
      <cc:Work
         rdf:about="">
        <dc:format>image/svg+xml</dc:format>
        <dc:type
           rdf:resource="http://purl.org/dc/dcmitype/StillImage" />
        <dc:title />
      </cc:Work>
    </rdf:RDF>
  </metadata>
  <g
     inkscape:label="Layer 1"
     inkscape:groupmode="layer"
     id="layer1"
     transform="translate(0,-32.41664)"
     style="display:inline">
    <path
       style="display:inline;fill:#000000;stroke-width:16.3291893"
       d="m 353.02735,31.32028 c -9.9159,0.866554 -13.30208,12.210897 -13.21734,20.649053 -2.4067,39.632083 8.29181,73.112287 19.21443,110.702267 2.52186,8.67884 6.30779,20.09684 6.30779,20.09684 -27.87893,10.2747 -70.20251,14.10083 -99.59082,15.54689 -40.37537,1.30828 -80.87615,0.44549 -121.18627,-2.42576 -27.03152,-1.19596 -54.642661,-1.96559 -81.11691,4.45717 -11.147901,3.25907 -20.611719,12.50458 -22.115316,24.30609 -2.809324,12.12862 2.543936,26.6267 14.67028,31.39178 21.127707,10.55809 45.536956,9.08122 68.450116,10.66318 70.69835,1.72982 141.31587,-3.54233 211.94146,-5.26779 18.19375,-0.66494 37.09111,-2.40748 55.28486,-4.83165 20.84099,44.45781 42.86683,91.73411 50.86002,140.60188 3.84709,21.65673 6.74662,30.1219 1.74096,55.90837 -8.39966,7.45792 -20.17009,11.45085 -27.01537,11.00743 -57.28993,-3.71058 -92.91064,-6.16802 -147.74463,-24.71585 -21.43888,-6.8253 -41.63535,-17.22882 -61.51755,-27.73471 -14.55137,-6.58253 -32.14056,-12.48973 -47.62215,-5.62184 -15.75044,8.04407 -21.55339,31.28751 -9.4325,44.85815 15.18854,20.93861 40.73023,30.31256 63.95002,39.31926 55.16952,19.64386 114.4144,23.36579 172.51336,22.59451 12.43901,0.74334 32.77359,-0.89257 44.78019,-1.40731 0.0344,9.67688 -4.9268,25.04478 -5.5331,33.30989 -2.91241,15.35946 -14.40237,48.88222 -20.58436,63.29488 -12.25016,-5.13952 -25.56642,-12.34042 -33.58946,-13.60334 -30.93971,-4.87056 -38.04258,-7.69535 -67.34155,-5.81804 -26.16666,0.63505 -54.67106,9.3525 -70.2813,31.73898 -17.80211,25.23457 -18.84609,57.85836 -16.44396,87.53296 2.34138,24.79396 10.33336,51.48968 30.67914,67.5038 17.59624,13.44421 41.59404,15.38003 62.45354,9.52483 41.10572,-9.99959 74.83423,-37.39121 106.90484,-63.56715 8.41276,-6.96569 16.79075,-13.97437 25.31722,-20.80132 55.59372,33.45883 112.71544,65.08914 162.08032,107.58842 26.14425,21.68273 48.93999,46.95563 71.58623,72.18029 11.42154,11.78541 22.82109,24.4595 37.54751,32.1142 8.57025,3.14131 20.89583,-2.34383 20.3197,-12.46558 -0.23285,-15.44494 -11.42698,-27.6041 -19.0464,-40.02796 C 684.251,815.02187 644.64599,776.22501 604.61554,738.55417 570.27738,707.07891 532.36408,679.45122 491.28724,657.3928 c -8.11563,-4.71832 -16.23485,-9.43052 -24.31743,-14.20511 22.2339,-72.88268 45.78603,-145.36881 69.21362,-217.86424 8.36937,-34.85759 6.12646,-71.41018 -1.82887,-106.10796 -1.97192,-13.30371 -5.44515,-26.44189 -11.25356,-38.61182 -12.03046,32.18871 -11.61009,67.21144 -21.16352,99.92916 -11.57181,-23.67105 -17.21777,-50.0457 -24.98526,-75.26658 -4.83713,-18.13488 -15.56862,-47.9556 -21.65151,-67.18118 10.16709,-3.48998 18.20246,-6.93572 26.17537,-13.12619 13.94465,-11.82834 30.38819,-25.15432 32.1831,-44.72708 1.1235,-11.15859 -5.75246,-22.39021 -16.51985,-25.94306 -15.34027,-6.35236 -48.38629,6.66823 -63.6229,10.24647 -3.34237,-7.21244 -5.22369,-15.83658 -9.05962,-24.10384 -8.55434,-18.43628 -11.6484,-33.62307 -21.82939,-52.041451 -9.74314,-20.061689 -21.1683,-40.628054 -39.60873,-53.955529 -3.02283,-1.783098 -6.44885,-3.066721 -9.99134,-3.11411 z m -7.42451,640.67535 c 4.01141,-0.0747 14.27648,1.93572 25.82425,7.09096 -21.14254,21.82633 -37.78964,25.36255 -52.38069,29.76717 -8.22614,2.48326 -19.49858,-0.88364 -23.74373,-9.42644 -4.72732,-9.513 5.54933,-19.89546 14.3201,-22.76169 12.20128,-3.98721 24.1044,-4.45023 35.98007,-4.67 z"
       id="path644"
       inkscape:connector-curvature="0"
       sodipodi:nodetypes="ccscccccccccccscccccccccscccccccccccccccccccccccccscccscssss" />
  </g>
</svg>
