<?xml version="1.0" encoding="UTF-8" standalone="no"?>
<!-- Created with Inkscape (http://www.inkscape.org/) -->

<svg
   xmlns:dc="http://purl.org/dc/elements/1.1/"
   xmlns:cc="http://creativecommons.org/ns#"
   xmlns:rdf="http://www.w3.org/1999/02/22-rdf-syntax-ns#"
   xmlns:svg="http://www.w3.org/2000/svg"
   xmlns="http://www.w3.org/2000/svg"
   xmlns:sodipodi="http://sodipodi.sourceforge.net/DTD/sodipodi-0.dtd"
   xmlns:inkscape="http://www.inkscape.org/namespaces/inkscape"
   width="1000"
   height="1000"
   viewBox="0 0 1000 1000"
   version="1.1"
   id="svg756"
   inkscape:version="0.92.3 (2405546, 2018-03-11)"
   sodipodi:docname="u3084.svg">
  <defs
     id="defs750" />
  <sodipodi:namedview
     id="base"
     pagecolor="#ffffff"
     bordercolor="#666666"
     borderopacity="1.0"
     inkscape:pageopacity="0.0"
     inkscape:pageshadow="2"
     inkscape:zoom="0.35"
     inkscape:cx="551.42857"
     inkscape:cy="576.33663"
     inkscape:document-units="px"
     inkscape:current-layer="layer1"
     showgrid="true"
     units="px"
     inkscape:window-width="1118"
     inkscape:window-height="864"
     inkscape:window-x="624"
     inkscape:window-y="97"
     inkscape:window-maximized="0"
     showguides="true"
     inkscape:guide-bbox="true">
    <inkscape:grid
       type="xygrid"
       id="grid758" />
    <sodipodi:guide
       position="240,200"
       orientation="0,1"
       id="guide8"
       inkscape:locked="false" />
  </sodipodi:namedview>
  <metadata
     id="metadata753">
    <rdf:RDF>
      <cc:Work
         rdf:about="">
        <dc:format>image/svg+xml</dc:format>
        <dc:type
           rdf:resource="http://purl.org/dc/dcmitype/StillImage" />
        <dc:title />
      </cc:Work>
    </rdf:RDF>
  </metadata>
  <g
     inkscape:label="Layer 1"
     inkscape:groupmode="layer"
     id="layer1"
     transform="translate(0,-32.41664)"
     style="display:inline">
    <path
       style="display:inline;fill:#000000;stroke-width:19.64721298"
       d="m 475.89098,32.41664 c -9.22828,3.435882 -9.47081,15.365451 -10.21528,23.665466 -3.60041,31.964395 -4.42346,64.499974 -12.20057,95.810464 -1.38717,3.80057 -7.4258,5.04267 -9.02086,0.71739 -7.04134,-9.69279 -11.51926,-22.74358 -23.73537,-27.13248 -13.65384,-5.53165 -29.67259,0.57586 -36.62112,13.67906 -5.68598,8.88418 -4.36991,20.49008 -11.23276,28.6773 -11.84339,16.40605 -28.7989,27.95599 -44.41553,40.34982 -40.92708,30.16965 -87.64439,51.04501 -128.85138,80.79494 -49.60314,34.7082 -96.25552,74.81292 -133.942547,122.59287 -10.820445,14.48609 -21.286862,30.34808 -24.730264,48.43846 -0.976672,10.2038 1.658114,23.17864 11.568703,28.04689 11.929364,3.96605 23.387619,-3.79048 33.402918,-9.21056 42.04497,-25.87871 76.04803,-62.49621 113.99579,-93.79573 32.68973,-27.15164 67.19177,-52.18883 103.67151,-73.9015 14.51559,-7.91766 29.08534,-16.51631 45.12968,-20.82728 4.83329,-1.20287 12.04113,-0.0544 12.28063,6.16106 0.65253,8.15561 -1.40895,16.28959 -1.59181,24.44788 -9.40019,93.41363 -23.19127,186.30005 -35.96221,279.28422 -6.4183,45.63625 -13.90702,91.24368 -20.03236,136.83323 -1.92726,28.70824 1.07257,58.83052 15.86143,84.06005 6.25177,7.19934 16.49851,11.28872 25.78409,9.94711 3.65087,-4.11662 3.83995,-10.26522 6.03312,-15.20596 10.02985,-36.59444 15.42558,-74.21229 22.28103,-111.50131 16.47266,-97.11227 30.69594,-194.64994 44.95443,-292.14343 4.91777,-35.19209 9.56157,-70.49759 16.46443,-105.33961 0.3145,-3.1237 4.83926,-4.11415 5.5093,-0.68692 2.00252,9.74346 0.76512,19.88584 2.14225,29.74992 2.93831,33.86943 9.08696,67.74487 22.11633,99.21468 9.99376,21.51966 19.23594,45.10121 38.37545,60.20997 17.74179,11.50691 39.68453,9.13351 59.49989,6.6941 25.89307,-4.1055 50.22424,-19.78467 62.48952,-43.76603 15.31649,-27.66976 18.01119,-60.90328 16.60369,-92.25308 -2.24856,-39.77035 -9.44075,-79.80423 -24.26868,-116.91535 -10.72896,-24.84428 -29.1501,-46.2249 -53.55093,-57.9646 -18.46325,-10.18393 -37.00012,-23.47992 -46.09655,-43.27907 -4.24338,-8.81833 -1.70456,-18.63484 1.24611,-27.36678 4.57573,-14.48569 8.03751,-30.799527 1.32225,-45.198306 -6.23576,-14.501898 -16.07486,-27.948526 -28.41691,-37.86063 -4.55328,-3.285092 -10.09445,-6.092381 -15.84742,-5.026254 z m 41.67964,229.96512 c 14.4429,-1.22572 25.33353,10.86165 33.37953,21.38613 18.72658,24.6607 24.26327,57.48829 20.53126,87.77346 -2.2572,14.34292 -10.68443,27.07468 -22.17265,35.61687 -5.60515,5.00359 -13.33167,11.50484 -21.23229,8.52159 -8.73138,-5.25648 -9.18699,-16.8887 -11.86058,-25.69642 -7.25423,-33.2796 -13.28214,-67.23881 -12.54977,-101.42169 0.71055,-9.21938 2.48033,-20.71594 11.40399,-25.43886 0.80101,-0.3355 1.64108,-0.61746 2.50051,-0.74108 z"
       id="path565"
       inkscape:connector-curvature="0" />
  </g>
</svg>
