<?xml version="1.0" encoding="UTF-8" standalone="no"?>
<!-- Created with Inkscape (http://www.inkscape.org/) -->

<svg
   xmlns:dc="http://purl.org/dc/elements/1.1/"
   xmlns:cc="http://creativecommons.org/ns#"
   xmlns:rdf="http://www.w3.org/1999/02/22-rdf-syntax-ns#"
   xmlns:svg="http://www.w3.org/2000/svg"
   xmlns="http://www.w3.org/2000/svg"
   xmlns:sodipodi="http://sodipodi.sourceforge.net/DTD/sodipodi-0.dtd"
   xmlns:inkscape="http://www.inkscape.org/namespaces/inkscape"
   width="1000"
   height="1000"
   viewBox="0 0 1000 1000"
   version="1.1"
   id="svg756"
   inkscape:version="0.92.3 (2405546, 2018-03-11)"
   sodipodi:docname="u3088.svg">
  <defs
     id="defs750" />
  <sodipodi:namedview
     id="base"
     pagecolor="#ffffff"
     bordercolor="#666666"
     borderopacity="1.0"
     inkscape:pageopacity="0.0"
     inkscape:pageshadow="2"
     inkscape:zoom="0.35"
     inkscape:cx="551.42857"
     inkscape:cy="576.33663"
     inkscape:document-units="px"
     inkscape:current-layer="layer1"
     showgrid="true"
     units="px"
     inkscape:window-width="1118"
     inkscape:window-height="864"
     inkscape:window-x="681"
     inkscape:window-y="95"
     inkscape:window-maximized="0"
     showguides="true"
     inkscape:guide-bbox="true">
    <inkscape:grid
       type="xygrid"
       id="grid758" />
    <sodipodi:guide
       position="240,200"
       orientation="0,1"
       id="guide8"
       inkscape:locked="false" />
  </sodipodi:namedview>
  <metadata
     id="metadata753">
    <rdf:RDF>
      <cc:Work
         rdf:about="">
        <dc:format>image/svg+xml</dc:format>
        <dc:type
           rdf:resource="http://purl.org/dc/dcmitype/StillImage" />
        <dc:title />
      </cc:Work>
    </rdf:RDF>
  </metadata>
  <g
     inkscape:label="Layer 1"
     inkscape:groupmode="layer"
     id="layer1"
     transform="translate(0,-32.41664)"
     style="display:inline">
    <path
       style="display:inline;fill:#000000;stroke-width:16.50634384"
       d="M 55.071408,53.957093 C 45.87386,53.849719 37.248113,63.184557 40.674936,72.41664 c 3.611379,19.718694 14.91802,36.80487 21.267619,55.6276 32.153163,78.32661 58.555825,105.19984 81.128855,186.95972 8.87345,37.56698 14.57287,73.52856 16.14726,85.26158 -24.53085,8.31103 -49.78829,18.3974 -67.33627,38.31658 -11.096144,11.72764 -19.367712,26.65755 -20.29102,43.04972 -4.734597,30.46134 4.173592,60.78884 11.908782,89.98114 16.228888,55.86936 38.585398,109.84287 64.008628,162.1145 11.92487,23.4746 29.08755,44.14884 50.14687,59.97454 12.7308,10.04763 29.14204,19.39025 45.90374,15.54463 10.37521,-2.58095 20.26686,-11.74394 19.36745,-23.13376 1.62873,-31.02072 2.35501,-66.26393 0.68535,-97.19526 -5.5784,-77.7417 -14.77983,-159.69647 -22.61291,-228.83125 30.01594,2.71078 58.53912,15.66589 87.02587,25.21751 70.94476,25.92084 138.66697,54.19543 204.6256,90.85321 35.542,18.78565 71.4243,43.20521 109.78724,55.58359 10.10489,2.77169 21.79321,7.07517 31.87832,2.07492 6.36297,-3.85796 6.73162,-12.55333 3.25606,-18.50466 -7.15658,-16.17629 -20.86869,-28.13537 -32.57243,-40.97123 -42.34062,-42.62354 -90.26432,-79.15936 -132.84881,-121.52357 -28.86484,-27.71861 -58.39543,-55.53643 -80.13906,-89.37502 -1.42227,-2.49849 -4.03834,-7.42392 0.39201,-8.30085 13.89185,-5.96016 29.30233,-5.66661 44.08081,-7.51852 53.62416,-3.8749 108.62824,1.43061 161.33212,-11.88855 10.42996,-2.90837 20.2405,-11.22636 22.10467,-22.22729 0.73195,-9.43525 -9.89988,-13.81011 -17.64167,-15.04458 -47.75747,-8.02879 -96.33342,-9.43072 -144.53232,-12.95931 -36.9694,-1.78038 -74.94967,-3.51386 -110.93709,6.69252 -15.8279,5.37367 -32.02289,13.04844 -42.57998,26.40182 -7.57951,13.18548 -1.02622,28.8097 4.73282,41.34359 15.21409,34.61899 35.64653,68.44439 66.10693,91.68018 5.28178,2.93321 -2.3887,-0.15033 -4.32424,-0.60261 -59.58729,-19.01945 -114.89279,-47.23456 -177.05115,-57.27645 -4.69168,-0.75793 -2.94394,-8.17458 -4.97123,-11.64803 -7.65245,-31.99958 -14.1844,-64.60229 -22.50309,-96.43507 C 184.57435,215.90948 157.05821,147.17909 114.68128,87.323919 105.03545,74.41407 90.434453,61.672839 74.93368,55.840964 68.476082,54.059114 61.702611,54.159413 55.071408,53.957093 Z M 169.47215,467.90238 c 4.2012,43.05705 26.68369,154.9283 24.78551,198.19871 -12.0478,-18.52273 -44.45411,-108.59817 -52.0191,-129.20385 -4.61173,-18.06837 -8.33256,-36.09461 -6.25664,-55.0536 1.56323,-12.21365 20.28541,-15.0955 30.39893,-16.58799 2.60496,-0.75112 3.20344,-0.17486 3.0913,2.64673 z"
       id="path610"
       inkscape:connector-curvature="0"
       sodipodi:nodetypes="cccccccccccccccccccccccccccccccccsccccccccccc" />
  </g>
</svg>
