<?xml version="1.0" encoding="UTF-8" standalone="no"?>
<!-- Created with Inkscape (http://www.inkscape.org/) -->

<svg
   xmlns:dc="http://purl.org/dc/elements/1.1/"
   xmlns:cc="http://creativecommons.org/ns#"
   xmlns:rdf="http://www.w3.org/1999/02/22-rdf-syntax-ns#"
   xmlns:svg="http://www.w3.org/2000/svg"
   xmlns="http://www.w3.org/2000/svg"
   xmlns:sodipodi="http://sodipodi.sourceforge.net/DTD/sodipodi-0.dtd"
   xmlns:inkscape="http://www.inkscape.org/namespaces/inkscape"
   width="1000"
   height="1000"
   viewBox="0 0 1000 1000"
   version="1.1"
   id="svg756"
   inkscape:version="0.92.3 (2405546, 2018-03-11)"
   sodipodi:docname="u3083.svg">
  <defs
     id="defs750" />
  <sodipodi:namedview
     id="base"
     pagecolor="#ffffff"
     bordercolor="#666666"
     borderopacity="1.0"
     inkscape:pageopacity="0.0"
     inkscape:pageshadow="2"
     inkscape:zoom="0.35"
     inkscape:cx="551.42857"
     inkscape:cy="576.33663"
     inkscape:document-units="px"
     inkscape:current-layer="layer1"
     showgrid="true"
     units="px"
     inkscape:window-width="1118"
     inkscape:window-height="864"
     inkscape:window-x="668"
     inkscape:window-y="96"
     inkscape:window-maximized="0"
     showguides="true"
     inkscape:guide-bbox="true">
    <inkscape:grid
       type="xygrid"
       id="grid758" />
    <sodipodi:guide
       position="240,200"
       orientation="0,1"
       id="guide8"
       inkscape:locked="false" />
  </sodipodi:namedview>
  <metadata
     id="metadata753">
    <rdf:RDF>
      <cc:Work
         rdf:about="">
        <dc:format>image/svg+xml</dc:format>
        <dc:type
           rdf:resource="http://purl.org/dc/dcmitype/StillImage" />
        <dc:title />
      </cc:Work>
    </rdf:RDF>
  </metadata>
  <g
     inkscape:label="Layer 1"
     inkscape:groupmode="layer"
     id="layer1"
     transform="translate(0,-32.41664)"
     style="display:inline">
    <path
       style="display:inline;fill:#000000;stroke-width:18.87526703"
       d="m 420.2422,346.62624 c -12.4736,0.2125 -19.2214,13.82827 -20.8836,25.26776 -2.7638,21.14477 -1.2729,42.65288 -3.1675,63.85464 -1.4877,12.579 -0.622,26.4601 -7.9018,37.2837 -4.4317,4.1322 -11.6906,4.1015 -17.0446,2.367 -3.6581,-7.6442 -1.0285,-17.0917 -1.7211,-25.383 0.1621,-29.48497 1.7097,-61.71647 -14.0285,-87.63874 -6.3611,-11.01844 -19.7427,-19.81542 -31.9329,-13.8258 -15.5671,7.98125 -21.7639,26.93791 -25.458,43.49545 -6.5343,26.99728 -0.436,55.68449 -9.015,82.09919 -7.9789,22.9098 -31.0891,33.0669 -50.872,41.8347 -34.2742,13.7456 -69.33879,25.8677 -102.41311,42.8485 -29.66851,15.3258 -59.95962,31.4694 -83.74068,56.1057 -6.72914,7.5873 -14.97204,18.3668 -10.42581,29.2787 6.18015,11.8051 20.94625,12.5468 32.0948,9.9031 31.47202,-7.3463 60.73332,-22.2832 90.91462,-33.8021 37.43458,-14.9689 74.91538,-29.81 112.36768,-44.7297 -1.2149,39.4548 -2.0606,79.8383 -15.6437,117.2008 -5.3533,12.0344 -13.5188,22.7445 -16.3065,35.9964 -2.8105,10.8509 -4.5436,25.6282 5.433,33.1809 14.8323,11.0084 34.1642,10.6801 51.5556,10.414 47.0079,-2.7744 93.1908,-16.3158 136.0591,-36.489 28.5746,-14.0069 57.697,-32.3766 72.9167,-62.6291 23.2203,-44.4489 20.7187,-104.5125 -11.2532,-143.6248 -11.4918,-15.1242 -29.6981,-22.678 -40.7539,-38.1223 -5.959,-12.38 -0.6205,-26.5797 0.1456,-39.568 3.2316,-22.39537 5.9024,-46.08473 -2.0086,-67.80639 -5.6027,-15.8296 -15.7868,-32.57838 -32.2543,-37.05755 -1.5314,-0.33452 -3.0983,-0.4922 -4.6623,-0.45406 z m -34.0612,203.3487 c 28.2195,2.0952 55.0921,23.5372 63.1004,52.2593 5.8911,22.7296 -7.7932,44.5746 -23.1967,59.1715 -16.2576,15.1601 -34.5529,28.4757 -54.7441,37.1045 -6.778,3.0117 -17.434,3.855 -20.4119,-5.0683 -5.5014,-17.3989 -0.7547,-36.0988 1.4095,-53.7049 3.8805,-25.0049 6.8172,-50.1969 9.6618,-75.3204 2.6368,-11.1222 14.4471,-15.1048 24.181,-14.4417 z"
       id="path550"
       inkscape:connector-curvature="0" />
  </g>
</svg>
