<?xml version="1.0" encoding="UTF-8" standalone="no"?>
<!-- Created with Inkscape (http://www.inkscape.org/) -->

<svg
   xmlns:dc="http://purl.org/dc/elements/1.1/"
   xmlns:cc="http://creativecommons.org/ns#"
   xmlns:rdf="http://www.w3.org/1999/02/22-rdf-syntax-ns#"
   xmlns:svg="http://www.w3.org/2000/svg"
   xmlns="http://www.w3.org/2000/svg"
   xmlns:sodipodi="http://sodipodi.sourceforge.net/DTD/sodipodi-0.dtd"
   xmlns:inkscape="http://www.inkscape.org/namespaces/inkscape"
   width="1000"
   height="1000"
   viewBox="0 0 1000 1000"
   version="1.1"
   id="svg756"
   inkscape:version="0.92.3 (2405546, 2018-03-11)"
   sodipodi:docname="u308c.svg">
  <defs
     id="defs750" />
  <sodipodi:namedview
     id="base"
     pagecolor="#ffffff"
     bordercolor="#666666"
     borderopacity="1.0"
     inkscape:pageopacity="0.0"
     inkscape:pageshadow="2"
     inkscape:zoom="0.35"
     inkscape:cx="551.42857"
     inkscape:cy="576.33663"
     inkscape:document-units="px"
     inkscape:current-layer="layer1"
     showgrid="true"
     units="px"
     inkscape:window-width="1118"
     inkscape:window-height="864"
     inkscape:window-x="624"
     inkscape:window-y="94"
     inkscape:window-maximized="0"
     showguides="true"
     inkscape:guide-bbox="true">
    <inkscape:grid
       type="xygrid"
       id="grid758" />
    <sodipodi:guide
       position="240,200"
       orientation="0,1"
       id="guide8"
       inkscape:locked="false" />
  </sodipodi:namedview>
  <metadata
     id="metadata753">
    <rdf:RDF>
      <cc:Work
         rdf:about="">
        <dc:format>image/svg+xml</dc:format>
        <dc:type
           rdf:resource="http://purl.org/dc/dcmitype/StillImage" />
        <dc:title />
      </cc:Work>
    </rdf:RDF>
  </metadata>
  <g
     inkscape:label="Layer 1"
     inkscape:groupmode="layer"
     id="layer1"
     transform="translate(0,-32.41664)"
     style="display:inline">
    <path
       style="display:inline;fill:#000000;stroke-width:13.89411545"
       d="m 365.22531,37.875955 c -14.91513,1.352958 -32.58245,5.230565 -40.32924,19.542525 -8.48773,17.704447 -2.61354,37.805729 -0.7461,56.28643 6.3753,45.64866 16.03652,90.94965 19.418,136.82524 0.4268,9.90658 0.4336,19.89501 0.11586,29.83952 -34.90386,27.65611 -73.55404,50.69208 -105.35792,82.21429 -53.25191,49.72103 -101.99853,104.18633 -147.167991,161.32139 -17.952918,23.42177 -35.834228,47.47494 -47.601131,74.71571 -4.641453,12.09016 -3.591534,26.52682 4.70076,36.81858 5.318283,8.65422 16.470017,16.59083 26.683068,11.33053 14.648614,-6.92501 23.270375,-21.59562 33.307104,-33.60602 27.12758,-36.45841 49.7664,-76.44504 81.81107,-109.0372 48.81354,-53.52622 103.78162,-100.95688 159.59635,-146.92488 -1.68745,32.09534 4.18627,65.02199 -4.64621,96.41072 -9.23553,35.7321 -28.62449,69.61494 -45.92165,102.04933 -18.40484,31.41505 -41.81752,60.88724 -52.04059,96.35525 -2.32032,11.36612 3.49604,22.53102 11.96563,29.80787 26.67106,26.47073 64.20512,37.24627 100.06799,44.34927 3.62446,1.21189 11.52021,-0.48734 14.05564,1.79639 7.64685,24.28358 13.80235,50.76563 31.49886,70.02477 15.25423,13.96883 38.71121,16.65049 57.77184,9.95267 12.06393,-5.04361 18.6426,-18.49104 17.38115,-31.20691 -0.50501,-16.44129 -8.85948,-31.72235 -17.15888,-45.07477 43.5427,-3.34023 86.57428,-11.15347 129.88401,-16.29721 60.86996,-8.33799 122.18416,-15.39931 181.79221,-30.74993 12.57779,-3.81542 26.72581,-8.88022 33.76457,-20.77106 4.25304,-8.19332 1.24244,-20.14288 -8.06971,-23.14089 -18.82527,-8.22474 -39.95202,-5.19041 -59.86737,-5.17875 -73.11957,3.43655 -145.74622,13.08189 -218.69177,18.52533 -28.4948,2.39518 -57.02103,4.62973 -85.5506,6.73139 -5.33106,-31.50208 -5.74795,-63.51722 -5.24645,-95.36663 2.06768,-52.22933 9.837,-104.16647 26.05889,-153.98086 7.9296,-26.51694 12.92506,-56.13429 1.8406,-82.5451 -8.4961,-21.5047 -23.44897,-39.53538 -38.11592,-57.07492 -15.34854,-70.84441 -20.08671,-143.64918 -35.43305,-214.524274 -1.75927,-7.016527 -2.79768,-17.18843 -11.54409,-18.834369 -2.69063,-0.632561 -5.47921,-0.605056 -8.2249,-0.583432 z M 355.4616,612.42949 c 0.25688,9.1005 2.83962,28.47657 3.91156,37.5155 -4.70075,-1.12185 -20.9047,-2.36433 -23.43529,-9.53271 0.60646,-9.71667 15.59572,-21.16327 19.52373,-27.98279 z"
       id="path340"
       inkscape:connector-curvature="0"
       sodipodi:nodetypes="ccccccccccccccccccccccccccccccccccccccccc" />
  </g>
</svg>
