<?xml version="1.0" encoding="UTF-8" standalone="no"?>
<!-- Created with Inkscape (http://www.inkscape.org/) -->

<svg
   xmlns:dc="http://purl.org/dc/elements/1.1/"
   xmlns:cc="http://creativecommons.org/ns#"
   xmlns:rdf="http://www.w3.org/1999/02/22-rdf-syntax-ns#"
   xmlns:svg="http://www.w3.org/2000/svg"
   xmlns="http://www.w3.org/2000/svg"
   xmlns:sodipodi="http://sodipodi.sourceforge.net/DTD/sodipodi-0.dtd"
   xmlns:inkscape="http://www.inkscape.org/namespaces/inkscape"
   width="1000"
   height="1000"
   viewBox="0 0 1000 1000"
   version="1.1"
   id="svg756"
   inkscape:version="0.92.3 (2405546, 2018-03-11)"
   sodipodi:docname="u3089.svg">
  <defs
     id="defs750" />
  <sodipodi:namedview
     id="base"
     pagecolor="#ffffff"
     bordercolor="#666666"
     borderopacity="1.0"
     inkscape:pageopacity="0.0"
     inkscape:pageshadow="2"
     inkscape:zoom="0.35"
     inkscape:cx="551.42857"
     inkscape:cy="576.33663"
     inkscape:document-units="px"
     inkscape:current-layer="layer1"
     showgrid="true"
     units="px"
     inkscape:window-width="1118"
     inkscape:window-height="864"
     inkscape:window-x="655"
     inkscape:window-y="94"
     inkscape:window-maximized="0"
     showguides="true"
     inkscape:guide-bbox="true">
    <inkscape:grid
       type="xygrid"
       id="grid758" />
    <sodipodi:guide
       position="240,200"
       orientation="0,1"
       id="guide8"
       inkscape:locked="false" />
  </sodipodi:namedview>
  <metadata
     id="metadata753">
    <rdf:RDF>
      <cc:Work
         rdf:about="">
        <dc:format>image/svg+xml</dc:format>
        <dc:type
           rdf:resource="http://purl.org/dc/dcmitype/StillImage" />
        <dc:title />
      </cc:Work>
    </rdf:RDF>
  </metadata>
  <g
     inkscape:label="Layer 1"
     inkscape:groupmode="layer"
     id="layer1"
     transform="translate(0,-32.41664)"
     style="display:inline">
    <path
       style="display:inline;fill:#000000;stroke-width:12.85710812"
       d="m 128.1052,152.41664 c -14.30012,1.30796 -22.27968,15.28299 -28.201774,26.73715 -18.858388,36.75607 -35.622987,75.93237 -38.838888,117.55183 1.484888,17.87098 16.581483,30.08527 27.819723,42.42998 39.274859,38.39115 89.151329,64.09598 127.460719,103.51867 38.0276,36.79219 71.27193,81.44603 84.03913,133.56758 8.89345,37.53245 1.60866,78.91352 -22.0969,109.88349 -17.0215,23.74672 -44.0446,43.88642 -74.65525,42.33824 -18.27872,-0.95867 -34.82361,-11.46712 -46.78296,-24.95361 -13.3223,-12.9159 -29.95797,-26.08668 -49.54723,-25.21996 -12.63498,1.01055 -23.788482,12.93583 -21.874308,25.8876 1.638275,24.29497 18.725868,43.66218 34.150008,61.00447 22.83776,24.77328 53.34013,46.06605 88.13905,47.03551 32.39868,0.6795 62.09947,-16.30275 86.07398,-36.70443 40.3105,-33.05811 70.86469,-79.25012 80.34056,-130.95171 C 385.14263,589.22213 373.2282,531.13798 347.08722,481.7042 317.14843,424.18917 271.66512,375.87141 219.93226,337.30439 195.93544,318.80013 171.05075,300.78696 147.86413,281.6183 c -11.40677,-9.83101 -19.32272,-24.52081 -16.31009,-39.78593 2.48234,-17.01877 14.30836,-30.29007 21.22167,-45.47022 4.61428,-11.28701 2.82345,-25.11954 -6.03119,-33.85976 -4.68598,-5.44709 -11.26552,-9.84784 -18.63932,-10.08575 z m 589.26333,18.91498 c -56.59852,7.32936 -109.60015,31.74938 -166.68257,36.3792 -21.17248,2.00646 -43.94905,0.17871 -63.06879,11.22515 -18.5278,9.60892 -32.58985,27.5916 -36.14747,48.31484 -2.04197,9.47171 -3.13099,22.09092 5.66518,28.50213 11.57921,7.9932 26.60156,5.48013 39.7959,5.16617 63.31432,-4.98378 123.67829,-26.4629 184.18346,-44.16463 15.29653,-4.84839 30.98274,-8.9125 45.92559,-14.61644 15.93693,-11.36325 18.45746,-33.99088 13.39949,-51.60638 -3.2545,-9.94605 -11.84782,-19.53964 -23.07079,-19.20004 z"
       id="path444"
       inkscape:connector-curvature="0" />
  </g>
</svg>
