<?xml version="1.0" encoding="UTF-8" standalone="no"?>
<!-- Created with Inkscape (http://www.inkscape.org/) -->

<svg
   xmlns:dc="http://purl.org/dc/elements/1.1/"
   xmlns:cc="http://creativecommons.org/ns#"
   xmlns:rdf="http://www.w3.org/1999/02/22-rdf-syntax-ns#"
   xmlns:svg="http://www.w3.org/2000/svg"
   xmlns="http://www.w3.org/2000/svg"
   xmlns:sodipodi="http://sodipodi.sourceforge.net/DTD/sodipodi-0.dtd"
   xmlns:inkscape="http://www.inkscape.org/namespaces/inkscape"
   width="1000"
   height="1000"
   viewBox="0 0 1000 1000"
   version="1.1"
   id="svg756"
   inkscape:version="0.92.3 (2405546, 2018-03-11)"
   sodipodi:docname="u308b.svg">
  <defs
     id="defs750" />
  <sodipodi:namedview
     id="base"
     pagecolor="#ffffff"
     bordercolor="#666666"
     borderopacity="1.0"
     inkscape:pageopacity="0.0"
     inkscape:pageshadow="2"
     inkscape:zoom="0.35"
     inkscape:cx="523.43918"
     inkscape:cy="566.73304"
     inkscape:document-units="px"
     inkscape:current-layer="layer1"
     showgrid="true"
     units="px"
     inkscape:window-width="1118"
     inkscape:window-height="864"
     inkscape:window-x="662"
     inkscape:window-y="97"
     inkscape:window-maximized="0"
     showguides="true"
     inkscape:guide-bbox="true">
    <inkscape:grid
       type="xygrid"
       id="grid758" />
    <sodipodi:guide
       position="240,200"
       orientation="0,1"
       id="guide8"
       inkscape:locked="false" />
  </sodipodi:namedview>
  <metadata
     id="metadata753">
    <rdf:RDF>
      <cc:Work
         rdf:about="">
        <dc:format>image/svg+xml</dc:format>
        <dc:type
           rdf:resource="http://purl.org/dc/dcmitype/StillImage" />
        <dc:title />
      </cc:Work>
    </rdf:RDF>
  </metadata>
  <g
     inkscape:label="Layer 1"
     inkscape:groupmode="layer"
     id="layer1"
     transform="translate(0,-32.41664)"
     style="display:inline">
    <path
       style="display:inline;fill:#000000;stroke-width:17.77147675"
       d="m 349.05959,48.133861 c -40.23253,1.16199 -82.02383,13.937127 -111.20775,43.11234 -14.02983,14.992839 -23.13137,36.862379 -16.46679,57.170439 5.8776,9.22354 18.48391,6.37519 27.44136,5.03796 29.57261,-5.32393 57.33764,-17.34793 86.05939,-25.74215 13.71781,-3.32392 29.95013,-5.41099 42.37182,2.89421 13.48101,9.36734 17.20352,26.67395 17.77563,42.09961 2.07565,38.65819 -9.62827,76.19559 -16.87193,113.72386 -9.56037,44.05698 -17.44703,88.45083 -27.10466,132.48441 -5.30111,22.06496 -13.70579,44.02708 -11.98778,66.89657 1.2482,10.45745 4.07787,20.3945 6.78573,30.49696 -26.31281,7.31541 -53.59754,10.34387 -80.82066,11.15781 -54.87485,6.52205 -104.94286,35.53385 -145.77341,71.85852 -29.70834,27.39775 -54.049322,60.44124 -73.059705,96.01119 -6.840148,14.26113 -8.164582,32.01863 0.776839,45.70816 8.651906,14.972 19.843077,28.64574 32.407018,40.60283 27.674618,23.37238 65.510658,29.7549 100.490948,27.94132 58.19077,-2.85353 114.56655,-27.71551 157.95488,-66.46783 31.14531,-27.24253 59.36268,-58.14061 83.92202,-91.31199 9.42287,-13.61502 19.02581,-27.87953 23.58405,-44.02583 0.51668,-4.43551 1.32469,-10.00312 6.75189,-10.65064 15.7758,-5.56269 32.81295,-3.93175 49.21262,-4.93697 51.26436,-0.46194 102.12487,9.43939 153.32332,6.65785 8.95716,-0.74472 19.55115,-5.46614 20.6549,-15.53438 2.96044,-15.18706 1.10927,-31.23455 -2.04234,-46.40102 -1.48444,-6.09944 -5.30765,-13.37004 -12.67103,-12.43963 -19.93779,-1.13713 -39.73725,-3.73585 -59.70651,-4.80038 -54.62042,-4.15647 -109.72649,-7.037 -163.30524,-19.10344 -6.53363,-1.68836 -11.89394,-6.98573 -12.76047,-13.82455 -4.71773,-18.64776 -2.17407,-38.14145 -1.26731,-57.094 3.94425,-49.94629 16.52431,-98.61695 28.98784,-146.96303 11.62888,-55.93436 14.20568,-114.86093 -1.49321,-170.2314 C 444.72042,91.346165 431.57628,71.119759 411.3422,61.329868 392.16083,51.089684 370.40409,47.883506 349.05959,48.133861 Z m 18.46566,549.133609 c -8.40564,25.78638 -26.92899,46.6268 -45.5427,65.65267 -39.09156,36.67098 -87.95072,61.19675 -138.46347,78.01848 -19.0623,6.45217 -38.56037,13.33385 -58.84266,14.07292 -9.09528,0.18601 -19.78575,-4.51172 -21.40431,-14.37727 -4.14075,-17.26534 4.07608,-34.95507 16.12765,-47.09275 23.56235,-23.63307 52.69404,-40.90996 82.16079,-56.14391 29.96994,-14.67068 61.27773,-27.26701 93.92979,-34.47155 24.05699,-4.82843 48.61475,-6.1327 72.99547,-8.40991 -0.32018,0.91715 -0.64038,1.83423 -0.96056,2.75132 z"
       id="path638"
       inkscape:connector-curvature="0" />
  </g>
</svg>
