<?xml version="1.0" encoding="UTF-8" standalone="no"?>
<!-- Created with Inkscape (http://www.inkscape.org/) -->

<svg
   xmlns:dc="http://purl.org/dc/elements/1.1/"
   xmlns:cc="http://creativecommons.org/ns#"
   xmlns:rdf="http://www.w3.org/1999/02/22-rdf-syntax-ns#"
   xmlns:svg="http://www.w3.org/2000/svg"
   xmlns="http://www.w3.org/2000/svg"
   xmlns:sodipodi="http://sodipodi.sourceforge.net/DTD/sodipodi-0.dtd"
   xmlns:inkscape="http://www.inkscape.org/namespaces/inkscape"
   width="1000"
   height="1000"
   viewBox="0 0 1000 1000"
   version="1.1"
   id="svg756"
   inkscape:version="0.92.3 (2405546, 2018-03-11)"
   sodipodi:docname="u3082.svg">
  <defs
     id="defs750" />
  <sodipodi:namedview
     id="base"
     pagecolor="#ffffff"
     bordercolor="#666666"
     borderopacity="1.0"
     inkscape:pageopacity="0.0"
     inkscape:pageshadow="2"
     inkscape:zoom="0.35"
     inkscape:cx="551.42857"
     inkscape:cy="576.33663"
     inkscape:document-units="px"
     inkscape:current-layer="layer1"
     showgrid="true"
     units="px"
     inkscape:window-width="1118"
     inkscape:window-height="864"
     inkscape:window-x="527"
     inkscape:window-y="90"
     inkscape:window-maximized="0"
     showguides="true"
     inkscape:guide-bbox="true">
    <inkscape:grid
       type="xygrid"
       id="grid758" />
    <sodipodi:guide
       position="240,200"
       orientation="0,1"
       id="guide8"
       inkscape:locked="false" />
  </sodipodi:namedview>
  <metadata
     id="metadata753">
    <rdf:RDF>
      <cc:Work
         rdf:about="">
        <dc:format>image/svg+xml</dc:format>
        <dc:type
           rdf:resource="http://purl.org/dc/dcmitype/StillImage" />
        <dc:title />
      </cc:Work>
    </rdf:RDF>
  </metadata>
  <g
     inkscape:label="Layer 1"
     inkscape:groupmode="layer"
     id="layer1"
     transform="translate(0,-32.41664)"
     style="display:inline">
    <path
       style="display:inline;fill:#000000;stroke-width:18.0712471"
       d="m 207.09469,803.95351 c -47.8343,-17.58871 -73.1306,-63.4473 -73.74439,-133.68835 -0.57322,-65.59815 68.26979,-209.19698 82.55049,-238.63186 -28.85313,3.11261 -29.50306,2.17832 -85.36669,6.76807 C 44.711563,445.45238 39.849554,431.69186 39.552257,390.8382 39.370656,365.88527 73.775768,327.90838 123.47443,286.84744 224.4067,203.45736 218.0999,176.93849 117.89219,231.80461 57.895516,264.65422 28.038524,256.35842 45.930644,212.2691 69.615304,153.90586 279.93745,86.705972 307.40187,128.72661 c 18.07707,27.65792 -63.02936,153.429 -119.16179,184.7832 -30.87498,17.246 -56.65506,43.1125 -51.22641,51.41828 10.84202,16.58835 95.06651,-4.00497 122.61812,-10.39715 66.19304,-121.26267 118.44555,-232.45043 151.86481,-236.96216 34.70759,-4.68567 49.15134,6.36509 62.85731,94.67379 18.3024,117.92385 -79.91478,196.67619 -168.37335,209.31087 -19.61017,46.32725 -94.92282,149.72863 -94.92282,247.29406 0,49.65503 28.18147,82.30366 109.25657,82.30366 24.63998,0 131.10552,-40.02683 232.34628,-88.34245 199.80343,-95.35294 211.94982,-103.05619 211.94982,-69.14166 0,21.63229 -141.87304,106.78442 -310.53927,186.38553 -74.50569,35.16256 -186.79555,46.02931 -246.97645,23.90093 z M 400,292.71128 c 18.91497,-46.60976 6.38445,-77.28712 -14.44931,-42.41112 -12.00912,24.23893 -45.2691,84.91067 -45.2691,84.91067 C 365.57446,335.12223 394.24612,306.89 400,292.71128 Z"
       id="path270"
       inkscape:connector-curvature="0"
       sodipodi:nodetypes="sscsssssssccsscsssssscccc" />
  </g>
</svg>
