<?xml version="1.0" encoding="UTF-8" standalone="no"?>
<!-- Created with Inkscape (http://www.inkscape.org/) -->

<svg
   xmlns:dc="http://purl.org/dc/elements/1.1/"
   xmlns:cc="http://creativecommons.org/ns#"
   xmlns:rdf="http://www.w3.org/1999/02/22-rdf-syntax-ns#"
   xmlns:svg="http://www.w3.org/2000/svg"
   xmlns="http://www.w3.org/2000/svg"
   xmlns:sodipodi="http://sodipodi.sourceforge.net/DTD/sodipodi-0.dtd"
   xmlns:inkscape="http://www.inkscape.org/namespaces/inkscape"
   width="1000"
   height="1000"
   viewBox="0 0 1000 1000"
   version="1.1"
   id="svg756"
   inkscape:version="0.92.3 (2405546, 2018-03-11)"
   sodipodi:docname="u3081.svg">
  <defs
     id="defs750" />
  <sodipodi:namedview
     id="base"
     pagecolor="#ffffff"
     bordercolor="#666666"
     borderopacity="1.0"
     inkscape:pageopacity="0.0"
     inkscape:pageshadow="2"
     inkscape:zoom="0.35"
     inkscape:cx="551.42857"
     inkscape:cy="576.33663"
     inkscape:document-units="px"
     inkscape:current-layer="layer1"
     showgrid="true"
     units="px"
     inkscape:window-width="1118"
     inkscape:window-height="864"
     inkscape:window-x="551"
     inkscape:window-y="89"
     inkscape:window-maximized="0"
     showguides="true"
     inkscape:guide-bbox="true">
    <inkscape:grid
       type="xygrid"
       id="grid758" />
    <sodipodi:guide
       position="240,200"
       orientation="0,1"
       id="guide8"
       inkscape:locked="false" />
  </sodipodi:namedview>
  <metadata
     id="metadata753">
    <rdf:RDF>
      <cc:Work
         rdf:about="">
        <dc:format>image/svg+xml</dc:format>
        <dc:type
           rdf:resource="http://purl.org/dc/dcmitype/StillImage" />
        <dc:title />
      </cc:Work>
    </rdf:RDF>
  </metadata>
  <g
     inkscape:label="Layer 1"
     inkscape:groupmode="layer"
     id="layer1"
     transform="translate(0,-32.41664)"
     style="display:inline">
    <path
       style="display:inline;fill:#000000;stroke-width:14.0199728"
       d="m 228.25677,91.697309 c -11.64711,1.152158 -28.41191,22.650111 -28.59427,33.043281 -3.13077,53.26907 13.8299,95.7445 22.18408,147.9731 6.1451,31.69955 22.16606,64.32101 28.54312,95.86568 -2.40509,4.59435 -7.85519,6.61747 -10.83073,10.87975 -72.73366,70.85581 -142.297492,146.51026 -183.216025,239.81355 -12.008039,29.19005 -15.764968,66.90357 -16.467914,98.78079 -0.16122,19.27194 7.121157,39.48869 23.132872,51.12695 21.343453,16.80305 49.978867,30.72631 74.921497,21.52348 40.03075,-13.06497 76.06908,-39.21882 105.50972,-68.30686 69.03803,-70.31829 125.93738,-158.71317 169.46232,-246.28376 12.11416,-24.12543 20.5492,-47.27154 29.39696,-77.62535 57.99431,16.08414 104.40384,39.51633 155.71167,70.59723 21.01281,9.54156 49.03113,9.88524 71.49947,10.17537 34.8866,-1.31098 69.39273,-9.07162 102.84236,-19.49834 12.14258,-4.16912 21.49642,-8.57911 27.11532,-20.98668 3.47286,-7.69388 4.05004,-19.09392 -4.29243,-21.49336 -11.34465,-3.99254 -23.5255,-0.5298 -35.17479,-0.3345 -35.73597,3.54728 -73.18437,10.73566 -107.6072,-3.11726 -44.41031,-16.32081 -82.41587,-45.48634 -124.97593,-65.75999 -22.92429,-11.78345 -46.57479,-22.33166 -71.23357,-29.94087 -1.1221,-49.36492 4.15142,-99.555 -6.42925,-148.22417 -4.64218,-16.14263 -19.768,-31.21519 -37.59126,-29.25066 -11.56371,1.26849 -20.62412,11.75393 -21.18924,23.21805 -2.97992,17.30695 -0.52784,35.43071 -6.84727,52.14863 -9.11903,34.24172 -23.98498,66.61474 -39.05775,98.64716 -7.85244,3.56454 -16.14364,6.12104 -23.58669,10.61909 -3.22319,1.67301 -6.41014,3.41525 -9.57124,5.2025 -18.9513,-64.43255 -29.24163,-131.2159 -50.37939,-195.06793 -5.39942,-14.49419 -11.48042,-29.66971 -22.88969,-40.496361 -3.02737,-2.082385 -6.67888,-3.390843 -10.38475,-3.22852 z m 51.3354,342.935851 c 10.09304,14.49362 22.29224,28.22293 41.07382,27.61112 5.9837,-0.66295 23.26744,-13.15886 28.12898,-16.63191 -30.95092,60.69161 -74.45109,129.6192 -114.10748,185.03087 -23.30372,31.64857 -48.25983,63.18985 -80.83627,85.88638 -7.55403,4.54664 -15.7031,10.40804 -24.85965,10.50652 -8.67193,-1.34234 -8.45091,-11.79312 -9.46419,-18.50221 -0.66007,-19.51061 4.26052,-38.71655 9.6465,-57.56087 12.43979,-39.76762 31.31004,-77.54681 55.04603,-111.75907 25.9054,-35.87218 56.89574,-67.87161 88.16984,-99.16244 2.19664,-1.17126 3.90516,-3.43897 7.20242,-5.41839 z"
       id="path678"
       inkscape:connector-curvature="0"
       sodipodi:nodetypes="cccccccccccccccccccccccccccccccccccccccccc" />
  </g>
</svg>
