<?xml version="1.0" encoding="UTF-8" standalone="no"?>
<!-- Created with Inkscape (http://www.inkscape.org/) -->

<svg
   xmlns:dc="http://purl.org/dc/elements/1.1/"
   xmlns:cc="http://creativecommons.org/ns#"
   xmlns:rdf="http://www.w3.org/1999/02/22-rdf-syntax-ns#"
   xmlns:svg="http://www.w3.org/2000/svg"
   xmlns="http://www.w3.org/2000/svg"
   xmlns:sodipodi="http://sodipodi.sourceforge.net/DTD/sodipodi-0.dtd"
   xmlns:inkscape="http://www.inkscape.org/namespaces/inkscape"
   width="1000"
   height="1000"
   viewBox="0 0 1000 1000"
   version="1.1"
   id="svg756"
   inkscape:version="0.92.3 (2405546, 2018-03-11)"
   sodipodi:docname="u308f.svg">
  <defs
     id="defs750" />
  <sodipodi:namedview
     id="base"
     pagecolor="#ffffff"
     bordercolor="#666666"
     borderopacity="1.0"
     inkscape:pageopacity="0.0"
     inkscape:pageshadow="2"
     inkscape:zoom="0.35"
     inkscape:cx="551.42857"
     inkscape:cy="576.33663"
     inkscape:document-units="px"
     inkscape:current-layer="layer1"
     showgrid="true"
     units="px"
     inkscape:window-width="1118"
     inkscape:window-height="864"
     inkscape:window-x="662"
     inkscape:window-y="88"
     inkscape:window-maximized="0"
     showguides="true"
     inkscape:guide-bbox="true">
    <inkscape:grid
       type="xygrid"
       id="grid758" />
    <sodipodi:guide
       position="240,200"
       orientation="0,1"
       id="guide8"
       inkscape:locked="false" />
  </sodipodi:namedview>
  <metadata
     id="metadata753">
    <rdf:RDF>
      <cc:Work
         rdf:about="">
        <dc:format>image/svg+xml</dc:format>
        <dc:type
           rdf:resource="http://purl.org/dc/dcmitype/StillImage" />
        <dc:title />
      </cc:Work>
    </rdf:RDF>
  </metadata>
  <g
     inkscape:label="Layer 1"
     inkscape:groupmode="layer"
     id="layer1"
     transform="translate(0,-32.41664)"
     style="display:inline">
    <path
       style="display:inline;fill:#000000;stroke-width:13.65359592"
       d="m 219.72245,25.911518 c -9.65236,-0.48524 -20.28586,10.598985 -14.85452,20.000467 8.59764,12.072971 25.92856,13.777727 33.99416,26.504655 30.94073,34.52632 59.96093,104.83487 72.07149,148.62643 12.65711,50.58781 8.49969,78.2054 8.36226,130.05182 0.17109,10.76022 0.34073,21.52043 0.51279,32.28065 -22.35733,7.58335 -108.98699,56.02723 -131.57045,62.88843 18.65298,-20.30973 81.55602,-77.3158 94.23572,-102.40318 4.03703,-11.57292 7.56236,-29.04395 -2.15073,-35.51606 -20.53252,-17.38331 -46.57917,-13.86681 -70.04509,-1.86144 -7.26453,3.87306 -11.98149,11.08487 -13.76661,18.95108 -5.98801,11.07091 -15.37393,19.80448 -23.04216,29.67684 -36.19408,41.59188 -80.167796,77.62656 -105.241955,127.66872 -4.128936,8.85231 -2.663945,20.35109 5.672487,26.24344 14.67581,12.18029 35.272628,12.08413 53.285948,11.96467 35.52786,-1.41258 70.9232,-14.3056 98.79276,-36.76207 23.11026,-16.12181 48.64722,-28.59121 75.13459,-37.99803 2.93138,-2.39812 7.40198,0.46993 5.7752,4.08558 -6.57372,36.78761 -13.93715,73.56341 -24.11453,109.58284 -12.71381,44.02538 -26.79942,87.71741 -43.43432,130.43018 -3.97544,9.62891 -7.5574,19.46192 -12.5081,28.64687 -1.49927,-16.63057 0.20683,-36.24547 -12.67504,-48.9996 -5.93156,-6.99203 -18.72173,-4.14988 -20.47912,4.99357 -5.6308,15.7691 -5.86472,32.7167 -8.11856,49.16452 -4.19755,48.41007 -4.12685,97.29726 -0.52547,145.80922 1.58625,11.68045 2.04236,24.3469 9.16672,34.1459 9.86223,11.00058 28.71266,11.52704 38.99011,0.68059 20.71127,-16.93329 34.97154,-39.90931 51.42009,-60.68753 41.80577,-57.09752 84.42953,-108.72797 131.34829,-161.76913 34.70288,-39.86717 68.11429,-85.8518 97.97399,-129.48169 27.90595,-40.12615 54.52242,-81.40188 76.09426,-125.31212 5.53622,-13.97685 4.71086,-31.16171 -5.76971,-42.76195 -11.72709,-17.84473 -27.66233,-35.99152 -49.72756,-39.38163 -24.28945,-4.63671 -49.03211,-1.27688 -73.55819,-0.45252 -23.13415,2.27743 -45.78568,8.37764 -68.34975,13.93737 0.41963,-58.38967 -0.67433,-117.99195 -20.46384,-173.63806 C 354.85914,132.97519 325.00703,82.796793 278.9195,51.20525 261.21101,39.238016 241.38175,28.092315 219.72245,25.911518 Z M 456.71399,404.84735 c 13.28852,0.99474 32.65251,-1.58383 44.98979,4.91295 5.37489,2.19566 7.1545,8.05724 6.47237,13.43458 -1.6078,11.45928 -18.03678,46.37602 -23.65083,56.224 -24.64887,43.23901 -34.61797,63.34656 -68.55405,103.60619 -25.51847,36.62241 -82.85435,96.56542 -114.8606,127.62572 -4.30276,0.77833 13.08416,-33.50444 14.43503,-35.50116 28.48681,-70.88389 49.09337,-147.11599 68.51384,-220.83857 2.63739,-11.97825 4.90439,-24.05001 8.22619,-35.86587 20.94262,-6.50311 42.22297,-13.77958 64.42826,-13.59784 z"
       id="path222"
       inkscape:connector-curvature="0"
       sodipodi:nodetypes="cccccccccccccccccccccccccccccccccccccccccscccccc" />
  </g>
</svg>
