<?xml version="1.0" encoding="UTF-8" standalone="no"?>
<!-- Created with Inkscape (http://www.inkscape.org/) -->

<svg
   xmlns:dc="http://purl.org/dc/elements/1.1/"
   xmlns:cc="http://creativecommons.org/ns#"
   xmlns:rdf="http://www.w3.org/1999/02/22-rdf-syntax-ns#"
   xmlns:svg="http://www.w3.org/2000/svg"
   xmlns="http://www.w3.org/2000/svg"
   xmlns:sodipodi="http://sodipodi.sourceforge.net/DTD/sodipodi-0.dtd"
   xmlns:inkscape="http://www.inkscape.org/namespaces/inkscape"
   width="1000"
   height="1000"
   viewBox="0 0 1000 1000"
   version="1.1"
   id="svg756"
   inkscape:version="0.92.3 (2405546, 2018-03-11)"
   sodipodi:docname="u3080.svg">
  <defs
     id="defs750" />
  <sodipodi:namedview
     id="base"
     pagecolor="#ffffff"
     bordercolor="#666666"
     borderopacity="1.0"
     inkscape:pageopacity="0.0"
     inkscape:pageshadow="2"
     inkscape:zoom="0.35"
     inkscape:cx="551.42857"
     inkscape:cy="576.33663"
     inkscape:document-units="px"
     inkscape:current-layer="layer1"
     showgrid="true"
     units="px"
     inkscape:window-width="1118"
     inkscape:window-height="864"
     inkscape:window-x="602"
     inkscape:window-y="89"
     inkscape:window-maximized="0"
     showguides="true"
     inkscape:guide-bbox="true">
    <inkscape:grid
       type="xygrid"
       id="grid758" />
    <sodipodi:guide
       position="240,200"
       orientation="0,1"
       id="guide8"
       inkscape:locked="false" />
  </sodipodi:namedview>
  <metadata
     id="metadata753">
    <rdf:RDF>
      <cc:Work
         rdf:about="">
        <dc:format>image/svg+xml</dc:format>
        <dc:type
           rdf:resource="http://purl.org/dc/dcmitype/StillImage" />
        <dc:title />
      </cc:Work>
    </rdf:RDF>
  </metadata>
  <g
     inkscape:label="Layer 1"
     inkscape:groupmode="layer"
     id="layer1"
     transform="translate(0,-32.41664)"
     style="display:inline">
    <path
       style="display:inline;fill:#000000;stroke-width:11.3991642"
       d="m 236.40342,94.749341 c -18.17027,0.09265 -30.82984,23.146569 -21.32552,38.578199 7.67405,21.22301 26.00517,37.44021 29.64395,60.24016 3.16673,10.68249 6.38636,22.22842 3.10993,33.32779 -14.00292,9.65454 -31.47742,11.25441 -47.30652,16.36602 -30.549,6.5578 -61.91239,3.1159 -92.83966,1.48021 -22.581647,0.93228 -47.242528,7.88125 -61.352991,26.79115 -11.473927,17.9479 3.558525,44.51232 24.426136,45.44398 42.960355,8.61776 87.083175,1.93383 129.688245,-5.47839 19.50802,-4.30012 38.68162,-9.95319 57.77535,-15.78706 0.41892,28.44113 -0.91229,57.08917 -7.51574,84.73586 -10.26034,16.34945 -30.99403,19.35087 -47.68039,25.62869 -74.13918,26.20452 -137.437283,85.86439 -162.193852,161.18498 -4.247614,18.52814 6.599502,36.3747 18.776576,49.42753 20.092287,24.35186 50.450256,40.41096 82.143246,41.26373 34.9442,1.77086 70.6768,-13.66981 91.91266,-41.7666 30.05963,-34.9298 44.86386,-79.74681 70.27638,-117.54939 20.36896,32.14467 31.58897,68.77356 45.37801,103.97171 18.82343,51.25501 40.52366,102.53318 75.18732,145.31422 25.89779,34.3968 56.3744,67.91856 96.6717,85.28414 36.76268,14.62425 81.66196,13.8262 114.57669,-9.80063 27.97021,-19.80844 48.11238,-51.47662 50.71483,-86.01032 9.07109,-59.22494 4.22534,-119.59569 -4.23919,-178.58379 -3.72067,-23.13483 -10.38258,-46.106 -23.03812,-66.02694 -1.94918,-3.05975 -3.42001,-5.92867 1.43648,-5.69155 15.74915,-3.30162 30.28425,-13.36046 37.18545,-28.12984 4.50522,-7.53308 8.07572,-15.56869 11.71233,-23.54259 -25.09426,-5.23146 -53.55006,-4.99488 -73.40998,-23.40366 -21.02477,-17.78269 -42.48485,-38.96731 -70.96398,-43.12357 -13.62396,-1.75553 -30.58384,4.26599 -34.41779,18.74734 -3.79908,15.70728 7.38254,29.59436 15.30697,41.94564 33.42564,52.3853 65.92009,107.82899 76.71816,169.82014 8.42084,49.49124 8.16978,102.33606 -12.52917,149.00209 -7.35186,14.52169 -23.78952,26.20605 -40.3934,21.53676 -25.63443,-4.93575 -45.66634,-23.4675 -64.61349,-40.14799 -39.38031,-38.03218 -60.63231,-89.54916 -82.62679,-138.66879 -21.16435,-47.5336 -39.39114,-96.7007 -65.70363,-141.77256 -7.07098,-11.75398 -15.37341,-23.10265 -26.4853,-31.28459 -5.42159,-5.19031 -2.1334,-13.1497 -3.19879,-19.66663 -0.16662,-36.43818 4.37515,-72.76628 10.79282,-108.59963 4.71124,-16.30773 16.25468,-29.67605 30.49076,-38.46718 21.83737,-16.73447 46.48594,-29.11159 71.50689,-40.2077 14.26268,-9.69569 18.62353,-32.40375 6.28678,-45.362 -15.83321,-20.28047 -48.73534,-21.5739 -67.57114,-4.80286 -18.43072,13.46117 -36.58715,27.18834 -56.9573,37.51742 -4.08252,4.03845 -3.36127,-3.41675 -4.62053,-6.0913 -2.52829,-10.48202 -5.18493,-20.93857 -7.3231,-31.50997 21.39938,-1.0878 43.66274,-1.34366 63.71076,-9.76605 5.19396,-3.16697 5.32447,-11.76046 -0.44014,-14.43516 -26.71157,-22.15577 -62.47247,-26.36513 -94.46862,-36.36914 -13.77701,-3.530882 -27.97097,-5.642983 -42.21329,-5.561879 z M 225.78891,475.46082 c -10.53436,35.7012 -26.94224,70.19749 -49.54593,99.66354 -11.5096,11.72876 -29.94487,20.18471 -45.99016,12.732 -10.46864,-7.09088 -10.03979,-22.51021 -4.12929,-32.46077 15.75311,-37.36654 50.9714,-63.15406 88.19879,-76.87969 3.88329,-1.48807 7.81046,-2.86049 11.77247,-4.1238 l -0.25651,0.89619 z"
       id="path530"
       inkscape:connector-curvature="0" />
  </g>
</svg>
