<?xml version="1.0" encoding="UTF-8" standalone="no"?>
<!-- Created with Inkscape (http://www.inkscape.org/) -->

<svg
   xmlns:dc="http://purl.org/dc/elements/1.1/"
   xmlns:cc="http://creativecommons.org/ns#"
   xmlns:rdf="http://www.w3.org/1999/02/22-rdf-syntax-ns#"
   xmlns:svg="http://www.w3.org/2000/svg"
   xmlns="http://www.w3.org/2000/svg"
   xmlns:sodipodi="http://sodipodi.sourceforge.net/DTD/sodipodi-0.dtd"
   xmlns:inkscape="http://www.inkscape.org/namespaces/inkscape"
   width="1000"
   height="1000"
   viewBox="0 0 1000 1000"
   version="1.1"
   id="svg756"
   inkscape:version="0.92.3 (2405546, 2018-03-11)"
   sodipodi:docname="u3092.svg">
  <defs
     id="defs750" />
  <sodipodi:namedview
     id="base"
     pagecolor="#ffffff"
     bordercolor="#666666"
     borderopacity="1.0"
     inkscape:pageopacity="0.0"
     inkscape:pageshadow="2"
     inkscape:zoom="0.35"
     inkscape:cx="551.42857"
     inkscape:cy="576.33663"
     inkscape:document-units="px"
     inkscape:current-layer="layer1"
     showgrid="true"
     units="px"
     inkscape:window-width="1118"
     inkscape:window-height="864"
     inkscape:window-x="576"
     inkscape:window-y="98"
     inkscape:window-maximized="0"
     showguides="true"
     inkscape:guide-bbox="true">
    <inkscape:grid
       type="xygrid"
       id="grid758" />
    <sodipodi:guide
       position="240,200"
       orientation="0,1"
       id="guide8"
       inkscape:locked="false" />
  </sodipodi:namedview>
  <metadata
     id="metadata753">
    <rdf:RDF>
      <cc:Work
         rdf:about="">
        <dc:format>image/svg+xml</dc:format>
        <dc:type
           rdf:resource="http://purl.org/dc/dcmitype/StillImage" />
        <dc:title />
      </cc:Work>
    </rdf:RDF>
  </metadata>
  <g
     inkscape:label="Layer 1"
     inkscape:groupmode="layer"
     id="layer1"
     transform="translate(0,-32.41664)"
     style="display:inline">
    <path
       style="display:inline;fill:#000000;stroke-width:14.34523487"
       d="M 363.29013,47.359172 C 336.71173,47.559075 313.13355,63.811528 296.73411,83.281591 241.08482,128.61302 171.14782,150.36915 108.34862,183.71624 93.39039,192.16177 77.88963,200.6643 66,213.15793 c -8.743773,10.87249 -9.253867,28.2122 1.384611,38.07686 13.680076,14.55115 35.983639,15.38803 54.563479,12.1033 24.62172,-4.09969 46.63365,-16.87477 66.79192,-30.80646 0.89595,25.87215 -0.32763,52.71212 9.44002,77.31538 14.75506,42.29313 45.97761,80.68895 88.71004,97.84982 15.45784,6.10023 32.28724,6.02123 48.56659,7.73672 2.24304,0.43992 6.09231,1.13353 7.00533,2.41488 -6.21275,1.19032 -12.39891,2.68733 -17.58493,6.50543 -19.78872,12.23186 -35.18568,29.92814 -51.4979,46.10798 -34.15737,36.05975 -65.62592,75.08295 -89.56758,118.50803 -10.14777,22.58815 -4.01589,48.1648 4.07942,70.3741 17.40891,45.05007 54.53068,79.88662 95.77876,104.37843 42.17257,25.62908 90.49899,41.59169 140.04582,44.74949 51.44814,4.52149 103.30818,5.84125 154.86093,2.31417 24.77179,-2.22027 50.72196,-5.18179 72.42956,-18.06027 6.61158,-3.7621 12.25918,-11.04821 9.94275,-18.89852 -1.69565,-8.03158 -9.13523,-13.56453 -17.1019,-14.7041 -23.41858,-6.94286 -48.20302,-5.72266 -72.31068,-7.20711 -59.70636,-1.33544 -120.28513,-0.53811 -178.66841,-13.63635 -25.86224,-6.14503 -49.97251,-18.24664 -70.77825,-34.48446 -25.44038,-19.02697 -48.82919,-42.82792 -60.83828,-72.44326 -2.83683,-9.31175 2.30842,-18.2672 8.01112,-25.32555 18.82992,-26.31324 42.00079,-49.4909 65.4501,-71.92976 40.49179,-38.15873 85.04122,-73.12011 117.99814,-118.21882 11.99885,-18.75067 15.06182,-44.96434 1.3429,-63.67337 -7.63082,-10.44651 -20.88333,-14.9066 -33.51367,-15.3151 -39.39265,-4.12561 -79.07478,11.1686 -117.89169,0.65499 -13.41538,-3.75169 -23.42568,-15.20807 -26.51687,-28.42778 -5.15204,-18.0274 -6.12079,-37.19549 -4.77459,-55.82776 1.83655,-17.03533 10.55527,-32.69955 23.35414,-44.39923 20.24987,-20.05169 43.87601,-36.40868 64.33238,-56.2572 17.86517,-16.34582 36.11732,-33.33312 47.65812,-54.75582 5.78778,-14.220708 0.25569,-31.5719 -12.52231,-40.236516 -8.68442,-6.790618 -19.81103,-10.429821 -30.88894,-10.280902 z"
       id="path250"
       inkscape:connector-curvature="0" />
  </g>
</svg>
