<?xml version="1.0" encoding="UTF-8" standalone="no"?>
<!-- Created with Inkscape (http://www.inkscape.org/) -->

<svg
   xmlns:dc="http://purl.org/dc/elements/1.1/"
   xmlns:cc="http://creativecommons.org/ns#"
   xmlns:rdf="http://www.w3.org/1999/02/22-rdf-syntax-ns#"
   xmlns:svg="http://www.w3.org/2000/svg"
   xmlns="http://www.w3.org/2000/svg"
   xmlns:sodipodi="http://sodipodi.sourceforge.net/DTD/sodipodi-0.dtd"
   xmlns:inkscape="http://www.inkscape.org/namespaces/inkscape"
   width="1000"
   height="1000"
   viewBox="0 0 1000 1000"
   version="1.1"
   id="svg756"
   inkscape:version="0.92.3 (2405546, 2018-03-11)"
   sodipodi:docname="u0021.svg">
  <defs
     id="defs750" />
  <sodipodi:namedview
     id="base"
     pagecolor="#ffffff"
     bordercolor="#666666"
     borderopacity="1.0"
     inkscape:pageopacity="0.0"
     inkscape:pageshadow="2"
     inkscape:zoom="0.35"
     inkscape:cx="-117.22946"
     inkscape:cy="576.33663"
     inkscape:document-units="px"
     inkscape:current-layer="layer1"
     showgrid="true"
     units="px"
     inkscape:window-width="1211"
     inkscape:window-height="911"
     inkscape:window-x="550"
     inkscape:window-y="101"
     inkscape:window-maximized="0"
     showguides="true"
     inkscape:guide-bbox="true">
    <inkscape:grid
       type="xygrid"
       id="grid758" />
    <sodipodi:guide
       position="240,200"
       orientation="0,1"
       id="guide8"
       inkscape:locked="false" />
  </sodipodi:namedview>
  <metadata
     id="metadata753">
    <rdf:RDF>
      <cc:Work
         rdf:about="">
        <dc:format>image/svg+xml</dc:format>
        <dc:type
           rdf:resource="http://purl.org/dc/dcmitype/StillImage" />
        <dc:title />
      </cc:Work>
    </rdf:RDF>
  </metadata>
  <g
     inkscape:label="Layer 1"
     inkscape:groupmode="layer"
     id="layer1"
     transform="translate(0,-32.41664)">
    <path
       style="display:inline;fill:#000000;stroke-width:13.73260307"
       d="m 296.12251,112.41772 c -22.99948,-0.29368 -42.51946,13.71056 -54.58512,29.73403 -31.34786,39.67143 -46.64309,86.88494 -58.87246,133.32634 -14.8971,59.4354 -22.93481,120.87657 -15.78317,181.63488 4.0661,36.75478 18.16091,71.78869 30.07889,106.98684 3.4362,6.83867 3.04737,17.12946 12.49045,20.16579 7.16257,2.95783 14.96157,-2.00685 16.51505,-8.2812 2.28261,-8.05811 0.84179,-16.50356 2.5413,-24.65767 8.15185,-91.52911 9.27927,-184.13623 32.53532,-273.95812 10.0093,-36.11142 27.19437,-70.13429 45.5996,-103.53162 7.18859,-14.26533 14.76595,-29.27458 14.59181,-45.11797 -2.10737,-10.05536 -13.81499,-16.65979 -25.11167,-16.3013 z M 155.89217,629.23395 c -20.45596,1.42729 -34.74401,16.44401 -45.53899,30.21256 -10.472551,14.08795 -23.326778,29.36258 -21.778016,47.05409 3.362622,15.2059 20.377056,23.45661 34.472866,30.52072 30.97895,16.19569 68.60151,27.18376 104.74014,19.35853 28.25884,-6.3423 54.95101,-21.53217 69.54135,-43.96321 5.94613,-10.87143 1.98113,-26.24549 -11.47815,-31.19266 -18.45413,-8.00649 -39.51808,-1.50796 -57.69918,3.77847 -16.99775,4.68907 -36.67244,9.79101 -53.54169,2.02885 -7.92319,-5.33462 -3.16647,-14.49622 -0.88898,-21.16536 3.96229,-10.24063 5.62917,-23.34935 -4.09619,-31.6024 -3.61182,-3.12735 -8.58946,-5.15933 -13.73316,-5.02959 z"
       id="path391"
       inkscape:connector-curvature="0" />
  </g>
</svg>
