<?xml version="1.0" encoding="UTF-8" standalone="no"?>
<!-- Created with Inkscape (http://www.inkscape.org/) -->

<svg
   xmlns:dc="http://purl.org/dc/elements/1.1/"
   xmlns:cc="http://creativecommons.org/ns#"
   xmlns:rdf="http://www.w3.org/1999/02/22-rdf-syntax-ns#"
   xmlns:svg="http://www.w3.org/2000/svg"
   xmlns="http://www.w3.org/2000/svg"
   xmlns:sodipodi="http://sodipodi.sourceforge.net/DTD/sodipodi-0.dtd"
   xmlns:inkscape="http://www.inkscape.org/namespaces/inkscape"
   width="1000"
   height="1000"
   viewBox="0 0 1000 1000"
   version="1.1"
   id="svg756"
   inkscape:version="0.92.3 (2405546, 2018-03-11)"
   sodipodi:docname="u0023.svg">
  <defs
     id="defs750" />
  <sodipodi:namedview
     id="base"
     pagecolor="#ffffff"
     bordercolor="#666666"
     borderopacity="1.0"
     inkscape:pageopacity="0.0"
     inkscape:pageshadow="2"
     inkscape:zoom="0.35"
     inkscape:cx="551.42857"
     inkscape:cy="576.33663"
     inkscape:document-units="px"
     inkscape:current-layer="layer1"
     showgrid="true"
     units="px"
     inkscape:window-width="1118"
     inkscape:window-height="864"
     inkscape:window-x="764"
     inkscape:window-y="115"
     inkscape:window-maximized="0"
     showguides="true"
     inkscape:guide-bbox="true">
    <inkscape:grid
       type="xygrid"
       id="grid758" />
    <sodipodi:guide
       position="240,200"
       orientation="0,1"
       id="guide8"
       inkscape:locked="false" />
  </sodipodi:namedview>
  <metadata
     id="metadata753">
    <rdf:RDF>
      <cc:Work
         rdf:about="">
        <dc:format>image/svg+xml</dc:format>
        <dc:type
           rdf:resource="http://purl.org/dc/dcmitype/StillImage" />
        <dc:title />
      </cc:Work>
    </rdf:RDF>
  </metadata>
  <g
     inkscape:label="Layer 1"
     inkscape:groupmode="layer"
     id="layer1"
     transform="translate(0,-32.41664)"
     style="display:inline">
    <path
       style="display:inline;fill:#000000;stroke-width:11.98612213"
       d="m 371.01208,42.677983 c -18.42212,0.547253 -31.5202,17.963455 -35.34625,34.812604 -11.45439,48.659233 -29.28604,95.396643 -47.06284,141.973593 -51.54356,7.41003 -104.54899,8.4437 -154.58468,24.29177 -11.39621,4.48898 -22.29728,16.05472 -19.4785,29.26696 2.32158,12.85411 15.39347,21.06229 27.79558,20.7222 32.05186,4.01309 64.25322,-1.2663 96.28555,-1.7522 8.51,-0.45527 17.02001,-0.91054 25.53,-1.36581 -6.53966,35.22879 -11.65591,72.96606 -35.52533,101.13779 -18.63661,20.47121 -46.70567,26.39716 -72.27551,33.28366 -36.71944,10.87422 -74.858943,23.3637 -103.584322,50.03722 -10.429325,11.23328 -14.180572,31.3248 -2.593931,43.10668 9.515936,8.89588 23.79115,5.28609 34.788856,1.72704 27.699067,-8.19292 55.566997,-17.3038 84.483987,-19.8759 4.9972,-0.26316 10.02466,-0.15654 14.98717,0.52229 -7.09957,20.76201 -14.82872,41.26952 -23.6701,61.34537 -28.24883,66.42521 -62.184485,131.12504 -79.338754,201.73339 -3.818285,17.68245 -4.950523,37.90999 4.986294,53.83767 10.91749,14.42286 33.34778,15.07746 47.14528,4.55343 21.93204,-16.37233 35.49608,-42.0858 42.44332,-68.27889 3.96468,-13.73381 3.96873,-28.08542 2.93016,-42.22243 0.13119,-16.10082 6.77005,-31.95569 12.13332,-46.99448 25.45681,-66.14845 59.22787,-128.63544 89.68777,-192.53774 46.60336,2.45598 93.55209,1.53812 139.65479,9.03251 -7.08362,34.91366 -24.72936,66.24991 -36.38121,99.63432 -16.91324,42.9851 -35.48492,85.89328 -44.39094,131.48472 -1.46738,11.71526 2.80641,26.0152 14.79316,30.29661 12.98302,5.42829 28.44577,-1.44419 35.36972,-13.30412 19.64808,-25.52178 31.65049,-55.84705 45.37331,-84.77475 35.23769,-80.58224 63.322,-164.14193 89.0869,-248.22692 17.94869,-60.86318 34.37891,-122.60215 41.40763,-185.85232 1.80356,-19.87642 2.74351,-40.24884 -1.38213,-59.87561 -4.56524,-12.39595 -18.53293,-18.41718 -30.95536,-17.03332 -13.56659,-0.20624 -27.851,8.61096 -30.44788,22.71096 -7.55347,24.72683 -3.171,51.12801 -9.29353,76.12604 -9.3311,55.799 -25.4953,110.2855 -46.10223,162.83046 -4.24528,8.27531 -13.17457,14.39688 -22.65995,12.59549 -31.98306,-0.5057 -63.2134,-9.73857 -95.06037,-13.65998 -6.91982,-1.15927 -13.83966,-2.31853 -20.75946,-3.4778 12.66241,-36.02786 20.33056,-74.7491 42.3232,-106.58579 15.05492,-16.62806 38.85851,-17.85445 59.1454,-22.94297 13.94438,-3.47903 29.22704,-7.68959 38.97879,-18.99403 7.59577,-12.34934 0.36119,-28.70218 -10.83946,-36.06653 -16.37888,-13.29381 -38.94782,-18.09009 -59.33528,-13.2241 9.36121,-40.32803 15.96151,-81.50773 17.23375,-122.949554 -0.15207,-11.27587 -6.35835,-23.742457 -18.08916,-26.239281 -2.40969,-0.644803 -4.9162,-0.916316 -7.40676,-0.828252 z"
       id="path418"
       inkscape:connector-curvature="0" />
  </g>
</svg>
