<?xml version="1.0" encoding="UTF-8" standalone="no"?>
<!-- Created with Inkscape (http://www.inkscape.org/) -->

<svg
   xmlns:dc="http://purl.org/dc/elements/1.1/"
   xmlns:cc="http://creativecommons.org/ns#"
   xmlns:rdf="http://www.w3.org/1999/02/22-rdf-syntax-ns#"
   xmlns:svg="http://www.w3.org/2000/svg"
   xmlns="http://www.w3.org/2000/svg"
   xmlns:sodipodi="http://sodipodi.sourceforge.net/DTD/sodipodi-0.dtd"
   xmlns:inkscape="http://www.inkscape.org/namespaces/inkscape"
   width="1000"
   height="1000"
   viewBox="0 0 1000 1000"
   version="1.1"
   id="svg756"
   inkscape:version="0.92.3 (2405546, 2018-03-11)"
   sodipodi:docname="u2026.svg">
  <defs
     id="defs750" />
  <sodipodi:namedview
     id="base"
     pagecolor="#ffffff"
     bordercolor="#666666"
     borderopacity="1.0"
     inkscape:pageopacity="0.0"
     inkscape:pageshadow="2"
     inkscape:zoom="0.35"
     inkscape:cx="551.42857"
     inkscape:cy="576.33663"
     inkscape:document-units="px"
     inkscape:current-layer="layer1"
     showgrid="true"
     units="px"
     inkscape:window-width="1118"
     inkscape:window-height="864"
     inkscape:window-x="710"
     inkscape:window-y="126"
     inkscape:window-maximized="0"
     showguides="true"
     inkscape:guide-bbox="true">
    <inkscape:grid
       type="xygrid"
       id="grid758" />
    <sodipodi:guide
       position="240,200"
       orientation="0,1"
       id="guide8"
       inkscape:locked="false" />
  </sodipodi:namedview>
  <metadata
     id="metadata753">
    <rdf:RDF>
      <cc:Work
         rdf:about="">
        <dc:format>image/svg+xml</dc:format>
        <dc:type
           rdf:resource="http://purl.org/dc/dcmitype/StillImage" />
        <dc:title />
      </cc:Work>
    </rdf:RDF>
  </metadata>
  <g
     inkscape:label="Layer 1"
     inkscape:groupmode="layer"
     id="layer1"
     transform="translate(0,-32.41664)"
     style="display:inline">
    <path
       style="display:inline;fill:#000000;stroke-width:15.31799412"
       d="m 88,750.90219 c -24.159662,-38.30102 7.579688,-93.88463 60.26106,-105.53243 48.642,-10.75469 76.35333,9.37081 94.09439,68.33625 9.95254,33.07904 7.36484,35.63965 -27.23935,26.95456 -24.91345,-6.2529 -44.83807,-1.64233 -57.18283,13.23216 C 133.05958,783.86371 108.11887,782.79725 88,750.90219 Z m 248.76608,-30.34652 c -19.86228,-19.86226 -9.78557,-54.16395 24.25351,-82.56046 39.21434,-32.71391 111.58875,-62.47254 80.38227,-31.26607 -10.1099,10.10988 6.46361,57.55845 6.46361,81.14815 0,31.37869 -42.32072,52.82848 -62.86631,52.82848 -15.44566,0 -42.61645,-14.53349 -48.23308,-20.1501 z m 239.8613,-18.75237 c -24.43967,-27.00555 -8.86004,-54.75732 27.31214,-78.45819 36.02212,-23.60263 44.1364,-13.3989 59.07148,14.50758 38.40586,71.762 -32.06155,123.97578 -86.38362,63.95061 z"
       id="path841"
       inkscape:connector-curvature="0"
       sodipodi:nodetypes="sssscscsssscssss" />
  </g>
</svg>
