<?xml version="1.0" encoding="UTF-8" standalone="no"?>
<!-- Created with Inkscape (http://www.inkscape.org/) -->

<svg
   xmlns:dc="http://purl.org/dc/elements/1.1/"
   xmlns:cc="http://creativecommons.org/ns#"
   xmlns:rdf="http://www.w3.org/1999/02/22-rdf-syntax-ns#"
   xmlns:svg="http://www.w3.org/2000/svg"
   xmlns="http://www.w3.org/2000/svg"
   xmlns:sodipodi="http://sodipodi.sourceforge.net/DTD/sodipodi-0.dtd"
   xmlns:inkscape="http://www.inkscape.org/namespaces/inkscape"
   width="1000"
   height="1000"
   viewBox="0 0 1000 1000"
   version="1.1"
   id="svg756"
   inkscape:version="0.92.3 (2405546, 2018-03-11)"
   sodipodi:docname="u2606.svg">
  <defs
     id="defs750" />
  <sodipodi:namedview
     id="base"
     pagecolor="#ffffff"
     bordercolor="#666666"
     borderopacity="1.0"
     inkscape:pageopacity="0.0"
     inkscape:pageshadow="2"
     inkscape:zoom="0.35"
     inkscape:cx="551.42857"
     inkscape:cy="576.33663"
     inkscape:document-units="px"
     inkscape:current-layer="layer1"
     showgrid="true"
     units="px"
     inkscape:window-width="1118"
     inkscape:window-height="864"
     inkscape:window-x="628"
     inkscape:window-y="127"
     inkscape:window-maximized="0"
     showguides="true"
     inkscape:guide-bbox="true">
    <inkscape:grid
       type="xygrid"
       id="grid758" />
    <sodipodi:guide
       position="240,200"
       orientation="0,1"
       id="guide8"
       inkscape:locked="false" />
  </sodipodi:namedview>
  <metadata
     id="metadata753">
    <rdf:RDF>
      <cc:Work
         rdf:about="">
        <dc:format>image/svg+xml</dc:format>
        <dc:type
           rdf:resource="http://purl.org/dc/dcmitype/StillImage" />
        <dc:title />
      </cc:Work>
    </rdf:RDF>
  </metadata>
  <g
     inkscape:label="Layer 1"
     inkscape:groupmode="layer"
     id="layer1"
     transform="translate(0,-32.41664)"
     style="display:inline">
    <path
       style="display:inline;fill:#000000;stroke-width:12.47849751"
       d="m 281.81047,33.621006 c -20.75281,1.497975 -35.50385,18.116989 -46.20951,33.69848 -31.04649,47.042684 -44.00763,102.618514 -51.50139,157.189994 -2.44028,19.98244 -3.78404,40.07364 -4.618,60.17315 -20.27966,10.71322 -39.76155,22.95543 -61.35043,31.02692 -13.03786,-0.5114 -17.06386,-15.96944 -29.3249,-18.60414 -15.360394,-3.7722 -29.581825,6.55993 -39.147001,17.01902 -10.594009,11.96592 -19.326554,26.36145 -21.794937,42.07053 -2.126555,15.76649 6.218901,32.23244 20.979044,39.65429 19.194579,10.27903 42.731204,6.4313 62.150414,-1.24022 5.31104,-1.65163 9.8001,3.64021 14.64826,5.13761 17.86901,9.15033 34.9695,19.59073 52.27554,29.67016 2.32657,103.63574 2.42699,207.3048 3.139,310.95334 0.98938,20.5673 1.21228,41.68346 7.74483,61.46444 4.87851,11.81818 16.82955,18.62426 27.99349,24.2018 8.65526,4.08309 19.29701,3.84334 27.32969,-1.48217 23.61028,-12.76049 35.02643,-37.88069 49.42833,-58.58034 35.5687,-55.13971 67.70782,-112.23114 101.77856,-168.22125 26.47544,21.82479 50.14308,46.59607 74.77565,70.28614 7.33447,6.21849 17.76873,12.76832 27.78774,8.88971 10.8078,-5.23435 12.09512,-18.40766 12.05071,-28.72827 1.54934,-40.41066 -0.69993,-80.94574 -5.54309,-121.09249 -4.44664,-31.73274 -12.77972,-62.83911 -19.9181,-94.0283 1.26247,-8.72716 7.08098,-16.22848 10.10236,-24.50956 13.86356,-30.99222 29.09856,-61.49652 40.92579,-93.28062 12.50196,-36.65279 19.38816,-76.23583 12.37645,-114.60082 -4.72191,-19.6215 -13.60189,-41.31331 -33.49719,-50.77413 -21.86734,-9.86911 -47.21382,-3.69685 -68.12473,5.48854 -15.62511,6.60588 -30.28268,15.08869 -45.40385,22.60321 -20.28731,-38.36223 -39.62128,-77.9874 -69.73066,-110.375599 -10.8723,-11.734048 -22.11983,-24.023308 -36.7683,-31.423351 -3.93572,-1.682169 -8.22812,-2.704272 -12.55377,-2.586074 z m 1.45243,82.845804 c 12.70291,8.11626 18.28506,22.57696 27.00864,34.09441 11.14821,17.43775 21.45728,35.47885 30.84306,53.89256 -31.07297,16.35947 -63.51518,30.2379 -94.10595,47.45422 1.2845,-44.17001 6.15842,-90.26159 29.75231,-129.1798 1.73681,-2.16981 3.6562,-5.76612 6.50194,-6.26139 z m 197.04193,100.79166 c 7.44142,2.58817 5.02374,11.99707 5.04005,17.85304 -1.42711,32.06337 -12.85871,62.628 -26.41435,91.65867 C 449.89128,296.91629 438.42439,267.82167 428,238.40499 c 16.00364,-9.59783 32.91692,-20.36301 52.30483,-21.14652 z m -110.61044,52.69542 c 19.34367,44.90434 33.39766,91.62635 45.75183,138.66554 -12.59939,24.71622 -25.54943,50.30405 -39.00782,73.95471 -22.5721,-17.7342 -42.8233,-38.58343 -67.67313,-53.70502 -20.14,-13.89752 -40.61382,-27.34484 -60.72212,-41.28714 -0.87735,-21.04806 -1.79507,-42.04739 -1.77963,-63.1159 28.69568,-15.51415 59.35428,-27.49911 88.20921,-42.80779 11.15341,-5.2358 22.40463,-10.27376 33.61226,-15.39795 0.53646,1.23116 1.07294,2.46233 1.6094,3.69355 z m -190.89743,84.12604 c 0.47097,3.44096 -2.43136,0.68043 -4.50104,-0.0185 1.9235,-0.36467 5.5598,-4.59885 4.50104,0.0185 z m 71.38702,117.32987 c 32.09533,24.23126 62.28145,50.69102 92.47764,77.03176 -28.48794,51.93286 -56.14347,104.34117 -89.5053,153.59103 -3.90315,8.24859 -2.65554,-1.22087 -2.82682,-5.847 -0.30709,-75.12104 -0.30787,-150.24359 -0.92848,-225.3632 l 0.76343,0.57276 z m 193.22549,43.4207 c 1.90043,10.73536 3.68584,21.46812 4.39136,32.29987 -5.81087,-5.08164 -11.3326,-10.45874 -16.77681,-15.89992 3.86253,-6.95213 7.72232,-13.90493 11.59115,-20.85377 0.26476,1.4846 0.52952,2.96913 0.7943,4.45382 z"
       id="path768"
       inkscape:connector-curvature="0" />
  </g>
</svg>
