<?xml version="1.0" encoding="UTF-8" standalone="no"?>
<!-- Created with Inkscape (http://www.inkscape.org/) -->

<svg
   xmlns:dc="http://purl.org/dc/elements/1.1/"
   xmlns:cc="http://creativecommons.org/ns#"
   xmlns:rdf="http://www.w3.org/1999/02/22-rdf-syntax-ns#"
   xmlns:svg="http://www.w3.org/2000/svg"
   xmlns="http://www.w3.org/2000/svg"
   xmlns:sodipodi="http://sodipodi.sourceforge.net/DTD/sodipodi-0.dtd"
   xmlns:inkscape="http://www.inkscape.org/namespaces/inkscape"
   width="1000"
   height="1000"
   viewBox="0 0 1000 1000"
   version="1.1"
   id="svg756"
   inkscape:version="0.92.3 (2405546, 2018-03-11)"
   sodipodi:docname="u30fc.vert.svg">
  <defs
     id="defs750" />
  <sodipodi:namedview
     id="base"
     pagecolor="#ffffff"
     bordercolor="#666666"
     borderopacity="1.0"
     inkscape:pageopacity="0.0"
     inkscape:pageshadow="2"
     inkscape:zoom="0.35"
     inkscape:cx="645.71429"
     inkscape:cy="576.33663"
     inkscape:document-units="px"
     inkscape:current-layer="layer1"
     showgrid="true"
     units="px"
     inkscape:window-width="1211"
     inkscape:window-height="837"
     inkscape:window-x="632"
     inkscape:window-y="150"
     inkscape:window-maximized="0"
     showguides="true"
     inkscape:guide-bbox="true">
    <inkscape:grid
       type="xygrid"
       id="grid758" />
    <sodipodi:guide
       position="240,200"
       orientation="0,1"
       id="guide8"
       inkscape:locked="false" />
  </sodipodi:namedview>
  <metadata
     id="metadata753">
    <rdf:RDF>
      <cc:Work
         rdf:about="">
        <dc:format>image/svg+xml</dc:format>
        <dc:type
           rdf:resource="http://purl.org/dc/dcmitype/StillImage" />
        <dc:title />
      </cc:Work>
    </rdf:RDF>
  </metadata>
  <g
     inkscape:label="Layer 1"
     inkscape:groupmode="layer"
     id="layer1"
     transform="translate(0,-32.41664)">
    <path
       style="display:inline;fill:#000000;stroke-width:18.7361145"
       d="m 389.20931,710.81128 c 16.67129,-137.61891 17.61102,-277.20455 2.74872,-415.40916 -5.22933,-41.48138 -11.61401,-83.6383 -28.84124,-122.50554 -10.59096,-22.00358 -31.25395,-41.33777 -57.29467,-44.35595 -20.4313,-3.28943 -42.02509,-1.31615 -60.96985,6.32374 -10.65144,6.84677 -10.2301,21.87467 -3.07575,31.1398 12.31047,22.44144 33.09297,40.98868 38.22348,66.41247 23.74332,73.38823 30.46813,150.18279 36.77042,226.15189 4.70572,67.6961 2.89666,135.54923 -6.24794,202.5737 -4.67237,53.94144 -7.11113,109.26904 6.42586,162.5074 2.95367,9.98386 11.02584,22.42177 23.56032,20.56707 14.78461,-3.04762 20.06886,-18.81868 25.53588,-30.35099 13.49517,-32.8418 17.57308,-68.35946 23.16477,-103.05443 z"
       id="path265"
       inkscape:connector-curvature="0" />
  </g>
</svg>
