<?xml version="1.0" encoding="UTF-8" standalone="no"?>
<!-- Created with Inkscape (http://www.inkscape.org/) -->

<svg
   xmlns:dc="http://purl.org/dc/elements/1.1/"
   xmlns:cc="http://creativecommons.org/ns#"
   xmlns:rdf="http://www.w3.org/1999/02/22-rdf-syntax-ns#"
   xmlns:svg="http://www.w3.org/2000/svg"
   xmlns="http://www.w3.org/2000/svg"
   xmlns:sodipodi="http://sodipodi.sourceforge.net/DTD/sodipodi-0.dtd"
   xmlns:inkscape="http://www.inkscape.org/namespaces/inkscape"
   width="1000"
   height="1000"
   viewBox="0 0 1000 1000"
   version="1.1"
   id="svg756"
   inkscape:version="0.92.3 (2405546, 2018-03-11)"
   sodipodi:docname="u30fc.svg">
  <defs
     id="defs750" />
  <sodipodi:namedview
     id="base"
     pagecolor="#ffffff"
     bordercolor="#666666"
     borderopacity="1.0"
     inkscape:pageopacity="0.0"
     inkscape:pageshadow="2"
     inkscape:zoom="0.35"
     inkscape:cx="645.71429"
     inkscape:cy="576.33663"
     inkscape:document-units="px"
     inkscape:current-layer="layer1"
     showgrid="true"
     units="px"
     inkscape:window-width="1211"
     inkscape:window-height="837"
     inkscape:window-x="632"
     inkscape:window-y="150"
     inkscape:window-maximized="0"
     showguides="true"
     inkscape:guide-bbox="true">
    <inkscape:grid
       type="xygrid"
       id="grid758" />
    <sodipodi:guide
       position="240,200"
       orientation="0,1"
       id="guide8"
       inkscape:locked="false" />
  </sodipodi:namedview>
  <metadata
     id="metadata753">
    <rdf:RDF>
      <cc:Work
         rdf:about="">
        <dc:format>image/svg+xml</dc:format>
        <dc:type
           rdf:resource="http://purl.org/dc/dcmitype/StillImage" />
        <dc:title />
      </cc:Work>
    </rdf:RDF>
  </metadata>
  <g
     inkscape:label="Layer 1"
     inkscape:groupmode="layer"
     id="layer1"
     transform="translate(0,-32.41664)">
    <path
       style="display:inline;fill:#000000;stroke-width:18.7361145"
       d="m 660.60337,291.63763 c -137.86589,-14.48768 -277.44889,-13.21461 -415.40054,3.83662 -41.39327,5.88622 -83.44368,12.93836 -122.03296,30.77955 -21.83293,10.93842 -40.837144,31.9053 -43.442154,57.99059 -2.96514,20.48087 -0.64981,42.04067 7.289434,60.86194 7.01475,10.54157 22.03408,9.88207 31.18464,2.58175 22.24348,-12.66466 40.45895,-33.73856 65.79821,-39.27144 73.00264,-24.90367 149.68095,-32.84497 225.5406,-40.35071 67.613,-5.77824 135.48628,-5.045 202.64729,3.03599 54.00873,3.81672 109.36803,5.37813 162.38512,-9.00109 9.93578,-3.11156 22.24417,-11.37988 20.19101,-23.88338 -3.2816,-14.73444 -19.13444,-19.76803 -30.75197,-25.05156 -33.05159,-12.97287 -68.62943,-16.48725 -103.40868,-21.52826 z"
       id="path265"
       inkscape:connector-curvature="0" />
  </g>
</svg>
