<?xml version="1.0" encoding="UTF-8" standalone="no"?>
<!-- Created with Inkscape (http://www.inkscape.org/) -->

<svg
   xmlns:dc="http://purl.org/dc/elements/1.1/"
   xmlns:cc="http://creativecommons.org/ns#"
   xmlns:rdf="http://www.w3.org/1999/02/22-rdf-syntax-ns#"
   xmlns:svg="http://www.w3.org/2000/svg"
   xmlns="http://www.w3.org/2000/svg"
   xmlns:sodipodi="http://sodipodi.sourceforge.net/DTD/sodipodi-0.dtd"
   xmlns:inkscape="http://www.inkscape.org/namespaces/inkscape"
   width="1000"
   height="1000"
   viewBox="0 0 1000 1000"
   version="1.1"
   id="svg756"
   inkscape:version="0.92.3 (2405546, 2018-03-11)"
   sodipodi:docname="u0031.svg">
  <defs
     id="defs750" />
  <sodipodi:namedview
     id="base"
     pagecolor="#ffffff"
     bordercolor="#666666"
     borderopacity="1.0"
     inkscape:pageopacity="0.0"
     inkscape:pageshadow="2"
     inkscape:zoom="0.35"
     inkscape:cx="-209.4421"
     inkscape:cy="487.06524"
     inkscape:document-units="px"
     inkscape:current-layer="layer1"
     showgrid="true"
     units="px"
     inkscape:window-width="1211"
     inkscape:window-height="657"
     inkscape:window-x="570"
     inkscape:window-y="186"
     inkscape:window-maximized="0"
     showguides="true"
     inkscape:guide-bbox="true">
    <inkscape:grid
       type="xygrid"
       id="grid758" />
    <sodipodi:guide
       position="240,200"
       orientation="0,1"
       id="guide8"
       inkscape:locked="false" />
  </sodipodi:namedview>
  <metadata
     id="metadata753">
    <rdf:RDF>
      <cc:Work
         rdf:about="">
        <dc:format>image/svg+xml</dc:format>
        <dc:type
           rdf:resource="http://purl.org/dc/dcmitype/StillImage" />
        <dc:title />
      </cc:Work>
    </rdf:RDF>
  </metadata>
  <g
     inkscape:label="Layer 1"
     inkscape:groupmode="layer"
     id="layer1"
     transform="translate(0,-32.41664)">
    <path
       style="display:inline;fill:#000000;stroke-width:12.69304943"
       d="m 363.97542,112.41664 c -24.42664,0.97364 -49.94371,10.37473 -67.68826,24.19075 -48.2063,39.30882 -88.43284,85.79365 -134.08068,127.39683 -33.88516,32.44981 -69.29905,63.62718 -106.149399,93.18786 -8.011471,6.8929 -11.84314,20.43156 -12.586021,31.09203 0.767315,10.29931 11.577384,16.34807 19.568375,22.12843 12.124669,7.54265 28.686688,7.41487 41.114685,0.51717 24.06848,-11.29211 42.51827,-29.89505 61.91927,-46.63849 55.34451,-50.4182 103.6251,-107.25864 163.76867,-153.19359 2.86114,-2.44709 8.70306,-2.86545 9.45666,1.56418 3.13711,9.94659 0.44995,20.42874 0.24914,30.57457 -4.35803,43.79506 -13.35264,87.13919 -20.60372,130.64757 -18.15295,102.21127 -39.50646,203.98312 -55.09371,306.57248 -4.72507,33.81584 -9.04341,68.10288 -5.4708,102.18604 1.58939,13.74924 7.44803,28.49483 21.20852,35.80202 8.59034,4.73595 17.59887,9.90384 27.69466,11.21927 8.74602,0.87183 22.49067,-3.83915 26.87651,-10.53423 10.99132,-12.87787 24.32109,-29.85587 22.98981,-45.6427 -1.55135,-27.82182 -13.52611,-54.48739 -12.276,-82.42486 0.46557,-38.21903 10.75136,-75.72009 18.87987,-113.1426 24.03999,-103.86462 48.95906,-207.75948 63.62177,-313.14984 4.36505,-34.82911 8.85846,-70.07817 5.10975,-105.12466 -1.70438,-13.65492 -21.75141,-29.40182 -35.39643,-37.45901 -9.67041,-5.85071 -21.39967,-9.9273 -33.11267,-9.76922 z"
       id="path3812"
       inkscape:connector-curvature="0"
       sodipodi:nodetypes="cccccccccccccccccccccccc" />
  </g>
</svg>
