<?xml version="1.0" encoding="UTF-8" standalone="no"?>
<!-- Created with Inkscape (http://www.inkscape.org/) -->

<svg
   xmlns:dc="http://purl.org/dc/elements/1.1/"
   xmlns:cc="http://creativecommons.org/ns#"
   xmlns:rdf="http://www.w3.org/1999/02/22-rdf-syntax-ns#"
   xmlns:svg="http://www.w3.org/2000/svg"
   xmlns="http://www.w3.org/2000/svg"
   xmlns:sodipodi="http://sodipodi.sourceforge.net/DTD/sodipodi-0.dtd"
   xmlns:inkscape="http://www.inkscape.org/namespaces/inkscape"
   width="1000"
   height="1000"
   viewBox="0 0 1000 1000"
   version="1.1"
   id="svg756"
   inkscape:version="0.92.3 (2405546, 2018-03-11)"
   sodipodi:docname="u0033.svg">
  <defs
     id="defs750" />
  <sodipodi:namedview
     id="base"
     pagecolor="#ffffff"
     bordercolor="#666666"
     borderopacity="1.0"
     inkscape:pageopacity="0.0"
     inkscape:pageshadow="2"
     inkscape:zoom="0.35"
     inkscape:cx="-117.22946"
     inkscape:cy="462.05092"
     inkscape:document-units="px"
     inkscape:current-layer="layer1"
     showgrid="true"
     units="px"
     inkscape:window-width="1211"
     inkscape:window-height="706"
     inkscape:window-x="577"
     inkscape:window-y="103"
     inkscape:window-maximized="0"
     showguides="true"
     inkscape:guide-bbox="true">
    <inkscape:grid
       type="xygrid"
       id="grid758" />
    <sodipodi:guide
       position="240,200"
       orientation="0,1"
       id="guide8"
       inkscape:locked="false" />
  </sodipodi:namedview>
  <metadata
     id="metadata753">
    <rdf:RDF>
      <cc:Work
         rdf:about="">
        <dc:format>image/svg+xml</dc:format>
        <dc:type
           rdf:resource="http://purl.org/dc/dcmitype/StillImage" />
        <dc:title />
      </cc:Work>
    </rdf:RDF>
  </metadata>
  <g
     inkscape:label="Layer 1"
     inkscape:groupmode="layer"
     id="layer1"
     transform="translate(0,-32.41664)">
    <path
       style="display:inline;fill:#000000;stroke-width:14.87339401"
       d="m 144.29645,112.41664 c -28.46853,1.0765 -58.81127,9.19371 -84.34212,24.29288 -22.12882,14.61327 -35.929679,38.73883 -50.16391,60.87341 -4.10191,7.45085 -9.540101,16.05163 -7.586059,25.04994 3.453287,9.53187 14.95239,11.5359 23.55839,9.59088 17.304039,-2.33152 31.572299,-14.18929 43.134149,-26.90697 20.3236,-14.30491 45.98763,-15.40169 69.70686,-16.79386 38.28483,-0.94479 77.66256,3.91276 112.63263,20.90204 29.78516,16.50949 53.37052,42.21721 77.3186,66.34837 25.60212,27.09905 50.71557,55.52995 68.39029,88.97062 2.8035,5.73319 1.70161,12.94781 -3.05211,17.20545 -16.05524,21.09083 -37.00274,37.3654 -56.60031,54.69346 -20.67102,17.20875 -42.02269,34.11006 -66.00127,46.0717 -6.96653,2.10622 -16.57132,1.04083 -20.16046,9.05484 -5.40208,10.70991 0.0965,22.87132 4.62749,32.77697 10.55546,20.66433 29.65268,35.14584 50.54029,43.37324 24.11991,12.29652 46.98075,28.34798 64.62308,49.5365 7.1384,8.61564 12.77066,19.59459 11.22703,31.28352 -1.79667,18.14585 -9.97227,34.6925 -15.31684,51.86805 -6.41432,17.77161 -12.64757,36.58495 -25.28637,50.75239 -12.5569,10.79389 -30.31205,8.84278 -45.32762,6.47865 -30.99248,-6.15596 -56.82719,-27.52674 -76.84626,-51.83409 -9.06619,-9.25319 -19.90628,-19.78713 -33.46823,-19.57244 -8.55541,0.99101 -15.28854,10.50405 -12.19184,19.14712 4.39389,21.48479 19.08577,38.39392 32.00982,55.08633 20.12003,23.98587 43.33586,46.49368 71.44756,59.7261 18.85767,6.72213 38.92739,8.21193 58.50949,10.98193 17.91651,1.8 49.10553,-0.30186 62.16392,-14.73119 16.91843,-17.63151 25.52232,-41.26017 35.95981,-63.20266 20.21388,-48.08733 31.24021,-102.61942 18.22087,-154.37108 -6.26127,-24.15991 -20.37994,-45.40193 -38.06833,-62.17052 -6.36015,-6.91498 -27.48284,-13.82862 -33.84209,-20.74445 28.0052,-31.92171 71.28949,-60.04665 89.21335,-99.86962 9.11791,-21.71728 8.37585,-46.84185 -1.3167,-68.16968 C 453.71747,313.23909 429.18604,273.55683 406.13922,244.6537 362.08487,192.12473 302.11259,146.09609 236.97918,125.78693 206.99027,116.30734 175.52487,112.20496 144.29645,112.41664 Z"
       id="path3869"
       inkscape:connector-curvature="0"
       sodipodi:nodetypes="ccccccccccccccccccccccccccccccccccccc" />
  </g>
</svg>
