<?xml version="1.0" encoding="UTF-8" standalone="no"?>
<!-- Created with Inkscape (http://www.inkscape.org/) -->

<svg
   xmlns:dc="http://purl.org/dc/elements/1.1/"
   xmlns:cc="http://creativecommons.org/ns#"
   xmlns:rdf="http://www.w3.org/1999/02/22-rdf-syntax-ns#"
   xmlns:svg="http://www.w3.org/2000/svg"
   xmlns="http://www.w3.org/2000/svg"
   xmlns:sodipodi="http://sodipodi.sourceforge.net/DTD/sodipodi-0.dtd"
   xmlns:inkscape="http://www.inkscape.org/namespaces/inkscape"
   width="1000"
   height="1000"
   viewBox="0 0 1000 1000"
   version="1.1"
   id="svg756"
   inkscape:version="0.92.3 (2405546, 2018-03-11)"
   sodipodi:docname="u0032.svg">
  <defs
     id="defs750" />
  <sodipodi:namedview
     id="base"
     pagecolor="#ffffff"
     bordercolor="#666666"
     borderopacity="1.0"
     inkscape:pageopacity="0.0"
     inkscape:pageshadow="2"
     inkscape:zoom="0.35"
     inkscape:cx="102.6414"
     inkscape:cy="535.33931"
     inkscape:document-units="px"
     inkscape:current-layer="layer1"
     showgrid="true"
     units="px"
     inkscape:window-width="1211"
     inkscape:window-height="514"
     inkscape:window-x="499"
     inkscape:window-y="363"
     inkscape:window-maximized="0"
     showguides="true"
     inkscape:guide-bbox="true">
    <inkscape:grid
       type="xygrid"
       id="grid758" />
    <sodipodi:guide
       position="240,200"
       orientation="0,1"
       id="guide8"
       inkscape:locked="false" />
  </sodipodi:namedview>
  <metadata
     id="metadata753">
    <rdf:RDF>
      <cc:Work
         rdf:about="">
        <dc:format>image/svg+xml</dc:format>
        <dc:type
           rdf:resource="http://purl.org/dc/dcmitype/StillImage" />
        <dc:title />
      </cc:Work>
    </rdf:RDF>
  </metadata>
  <g
     inkscape:label="Layer 1"
     inkscape:groupmode="layer"
     id="layer1"
     transform="translate(0,-32.41664)">
    <path
       style="display:inline;fill:#000000;stroke-width:15.05436516"
       d="m 206.30447,112.41664 c -28.51462,-0.51952 -59.0064,11.83136 -80.01235,32.55829 -26.651386,23.48221 -49.500074,51.21661 -69.671889,80.46441 -10.184881,16.11795 -19.147332,37.21663 -10.415075,55.92076 2.952354,6.39857 9.134444,13.77533 16.833722,11.18662 11.272086,-2.94711 20.045492,-11.38623 29.468265,-17.88889 30.920287,-24.86265 56.043487,-59.03873 93.561167,-74.5879 26.17699,-11.50402 56.74503,-7.75605 81.73054,5.15828 32.06993,14.70903 58.05716,40.55821 77.35535,70.1673 20.68892,30.60652 37.97089,63.99545 48.60566,99.63391 5.56851,19.9786 5.79686,41.88393 -2.16018,61.23902 -13.35747,37.49078 -36.09309,70.54448 -59.5076,102.13917 -38.35352,49.97809 -83.1725,94.86905 -132.8746,133.05878 -22.55884,17.00495 -47.00663,31.16813 -71.46866,45.02867 -21.38287,15.62974 -35.578589,44.88226 -27.22235,71.38509 6.65955,19.56744 26.95773,31.64291 46.38167,31.81086 37.32838,3.76745 75.0125,12.48418 112.46293,10.7886 47.20497,-3.20201 94.23373,-13.91549 137.11972,-34.71545 50.2127,-22.98332 98.15301,-50.98827 144.31624,-81.5832 18.04272,-12.64681 35.97346,-25.97426 50.09388,-43.19202 6.27559,-10.16474 1.18303,-36.5987 -10.98622,-38.9295 -15.37483,-3.55334 -30.69659,2.98456 -45.23325,7.71848 -64.35664,23.74698 -121.68704,63.21732 -184.3096,91.05211 -27.12829,12.23044 -56.23292,21.42741 -86.19218,20.71859 -16.66937,-0.41763 -33.17693,-3.1648 -49.82067,-4.14647 C 279.35536,691.98747 365.32556,639.99642 415.56225,569.34484 450.9391,520.38866 475.5006,460.86516 473.0562,399.27714 471.16077,337.4181 444.86764,279.21962 411.69791,228.16366 395.78279,203.99465 379.04039,179.9207 358.20693,159.90281 c -22.79287,-21.35242 -68.09927,-41.14869 -98.8646,-44.6086 -17.57187,-2.60493 -35.2862,-2.97888 -53.03786,-2.87757 z"
       id="path3835"
       inkscape:connector-curvature="0"
       sodipodi:nodetypes="ccccccccccccccccccccccccccccccc" />
  </g>
</svg>
