<?xml version="1.0" encoding="UTF-8" standalone="no"?>
<!-- Created with Inkscape (http://www.inkscape.org/) -->

<svg
   xmlns:dc="http://purl.org/dc/elements/1.1/"
   xmlns:cc="http://creativecommons.org/ns#"
   xmlns:rdf="http://www.w3.org/1999/02/22-rdf-syntax-ns#"
   xmlns:svg="http://www.w3.org/2000/svg"
   xmlns="http://www.w3.org/2000/svg"
   xmlns:sodipodi="http://sodipodi.sourceforge.net/DTD/sodipodi-0.dtd"
   xmlns:inkscape="http://www.inkscape.org/namespaces/inkscape"
   width="1000"
   height="1000"
   viewBox="0 0 1000 1000"
   version="1.1"
   id="svg756"
   inkscape:version="0.92.3 (2405546, 2018-03-11)"
   sodipodi:docname="u0035.svg">
  <defs
     id="defs750" />
  <sodipodi:namedview
     id="base"
     pagecolor="#ffffff"
     bordercolor="#666666"
     borderopacity="1.0"
     inkscape:pageopacity="0.0"
     inkscape:pageshadow="2"
     inkscape:zoom="0.35"
     inkscape:cx="858.26891"
     inkscape:cy="462.05092"
     inkscape:document-units="px"
     inkscape:current-layer="layer1"
     showgrid="true"
     units="px"
     inkscape:window-width="984"
     inkscape:window-height="1008"
     inkscape:window-x="722"
     inkscape:window-y="0"
     inkscape:window-maximized="0"
     showguides="true"
     inkscape:guide-bbox="true">
    <inkscape:grid
       type="xygrid"
       id="grid758" />
    <sodipodi:guide
       position="240,200"
       orientation="0,1"
       id="guide8"
       inkscape:locked="false" />
  </sodipodi:namedview>
  <metadata
     id="metadata753">
    <rdf:RDF>
      <cc:Work
         rdf:about="">
        <dc:format>image/svg+xml</dc:format>
        <dc:type
           rdf:resource="http://purl.org/dc/dcmitype/StillImage" />
        <dc:title />
      </cc:Work>
    </rdf:RDF>
  </metadata>
  <g
     inkscape:label="Layer 1"
     inkscape:groupmode="layer"
     id="layer1"
     transform="translate(0,-32.41664)">
    <path
       style="display:inline;fill:#000000;stroke-width:17.9112606"
       d="m 199.05515,120.69439 c -21.31097,2.54816 -36.61742,20.91933 -49.19678,37.71421 -13.35213,16.33711 -8.86275,13.05236 -21.18757,32.51353 -21.73519,2.7851 -69.19398,32.45142 -78.090602,52.62941 -13.450754,29.7715 -14.863046,67.04192 2.017407,95.81831 2.518119,6.54792 14.844011,10.8077 21.349341,8.54687 9.011827,-2.16092 11.707637,-12.72183 14.338537,-20.77603 5.119966,-17.33159 6.615819,-47.7403 25.024287,-53.86197 -3.92163,27.58092 1.12591,70.02884 4.7634,84.40372 15.40734,81.66655 53.08718,162.15427 98.89717,228.93652 34.48986,48.43524 83.54003,83.04342 120.91067,128.73081 2.03377,4.56557 -4.10168,5.62885 -6.61459,7.23651 -41.63602,21.50835 -86.47211,34.70489 -130.99702,47.46534 -20.89133,4.8187 -43.58187,2.56491 -62.22609,-9.04297 -17.73545,-9.71631 -31.25512,-25.93005 -47.853934,-37.33528 -6.840351,-3.67363 -16.806221,-0.58527 -18.21683,8.07656 -3.20887,13.53695 4.829712,26.33307 10.95038,37.4653 19.647824,31.13066 53.218604,48.50578 86.484074,56.98101 62.4667,15.54345 128.07411,1.93822 185.40839,-26.46326 27.3265,-13.66565 53.72976,-30.17612 76.63153,-51.11446 6.2735,-7.72446 15.87087,-19.58984 9.21903,-26.51619 -11.37952,-15.1242 -24.94088,-28.2106 -37.81025,-41.8582 -42.88019,-42.94024 -89.17653,-83.12025 -123.58987,-134.53824 -50.12072,-70.1658 -79.96149,-129.0624 -91.01158,-221.66478 -2.88422,-24.17041 -3.43428,-45.58764 1.97972,-69.39646 66.19643,-2.35058 123.34798,-2.57013 175.09286,-8.05863 65.27942,-6.92411 130.638,-17.25676 193.18029,-38.81489 14.11454,-5.55269 29.39396,-16.22715 40.30165,-27.77755 6.7482,-6.93165 10.98887,-20.24739 2.33898,-27.57694 -6.65438,-6.5158 -15.78638,-3.81916 -23.54494,-1.83931 -20.89387,4.97207 -41.70535,10.92186 -63.16853,12.29387 -88.22992,11.41944 -177.07344,17.44654 -265.93298,18.87402 -10.95373,-0.26532 -20.69192,0.29969 -32.9558,-0.71083 0,0 7.65312,-11.69858 7.85235,-16.31623 4.14872,-13.92204 -1.39477,-32.74411 -14.27459,-41.43958 -3.05631,-1.80539 -6.57594,-2.69792 -10.06811,-2.58419 z"
       id="path3927"
       inkscape:connector-curvature="0"
       sodipodi:nodetypes="cccccccccccccccccccccccscscccccccccc" />
  </g>
</svg>
