<?xml version="1.0" encoding="UTF-8" standalone="no"?>
<!-- Created with Inkscape (http://www.inkscape.org/) -->

<svg
   xmlns:dc="http://purl.org/dc/elements/1.1/"
   xmlns:cc="http://creativecommons.org/ns#"
   xmlns:rdf="http://www.w3.org/1999/02/22-rdf-syntax-ns#"
   xmlns:svg="http://www.w3.org/2000/svg"
   xmlns="http://www.w3.org/2000/svg"
   xmlns:sodipodi="http://sodipodi.sourceforge.net/DTD/sodipodi-0.dtd"
   xmlns:inkscape="http://www.inkscape.org/namespaces/inkscape"
   width="1000"
   height="1000"
   viewBox="0 0 1000 1000"
   version="1.1"
   id="svg756"
   inkscape:version="0.92.3 (2405546, 2018-03-11)"
   sodipodi:docname="u0039.svg">
  <defs
     id="defs750" />
  <sodipodi:namedview
     id="base"
     pagecolor="#ffffff"
     bordercolor="#666666"
     borderopacity="1.0"
     inkscape:pageopacity="0.0"
     inkscape:pageshadow="2"
     inkscape:zoom="0.35"
     inkscape:cx="-117.22946"
     inkscape:cy="576.33663"
     inkscape:document-units="px"
     inkscape:current-layer="layer1"
     showgrid="true"
     units="px"
     inkscape:window-width="1211"
     inkscape:window-height="886"
     inkscape:window-x="214"
     inkscape:window-y="92"
     inkscape:window-maximized="0"
     showguides="true"
     inkscape:guide-bbox="true">
    <inkscape:grid
       type="xygrid"
       id="grid758" />
    <sodipodi:guide
       position="240,200"
       orientation="0,1"
       id="guide8"
       inkscape:locked="false" />
  </sodipodi:namedview>
  <metadata
     id="metadata753">
    <rdf:RDF>
      <cc:Work
         rdf:about="">
        <dc:format>image/svg+xml</dc:format>
        <dc:type
           rdf:resource="http://purl.org/dc/dcmitype/StillImage" />
        <dc:title />
      </cc:Work>
    </rdf:RDF>
  </metadata>
  <g
     inkscape:label="Layer 1"
     inkscape:groupmode="layer"
     id="layer1"
     transform="translate(0,-32.41664)">
    <path
       style="display:inline;fill:#000000;stroke-width:19.54976463"
       d="m 480.43965,112.41789 c -16.13046,2.95795 -25.4855,17.56064 -34.38463,29.29402 -19.68939,29.31707 -28.29214,63.68801 -44.99061,94.49922 -37.17795,73.84235 -85.14324,142.92228 -143.04652,203.45806 -26.10308,26.71274 -54.40073,52.8639 -89.15165,69.03123 -11.03592,4.80005 -23.75123,9.11897 -35.88499,5.91029 -9.63576,-4.38454 -8.96679,-16.65484 -5.91284,-24.83449 9.194,-28.83688 29.14076,-53.01064 47.84555,-76.74845 11.03866,-13.11443 21.68465,-26.92707 35.26126,-37.7691 4.24265,-3.43266 12.20111,-3.51123 14.11183,2.38589 5.60516,12.65483 0.97499,26.99963 4.99914,39.92271 8.4446,-6.26087 12.79754,-16.99007 18.70673,-25.57534 18.39048,-30.75466 35.82562,-62.69008 61.11935,-88.92787 6.20809,-4.72124 12.31748,-10.21137 13.07401,-18.24555 4.25046,-22.04003 -3.90077,-45.15559 -16.59353,-63.50145 -7.79192,-11.32875 -21.207,-21.63593 -36.30048,-18.21862 -22.28284,4.40515 -40.18396,19.26088 -56.91738,33.03781 -41.35342,35.94552 -74.1696,79.90696 -103.03062,125.36364 -28.87909,46.4356 -53.165965,96.04752 -65.688117,148.97401 -3.191764,14.54228 -1.337657,31.5421 10.937274,41.94274 16.048432,15.90434 36.381457,28.98312 58.789903,34.64158 24.01078,5.43403 49.68228,-0.77356 70.5118,-12.86716 42.7522,-23.53463 75.89019,-59.88556 108.82846,-94.45658 29.23967,-30.98014 58.25437,-62.1536 87.49307,-93.13492 -1.57022,63.90383 -5.72252,127.7521 -5.26609,191.68481 1.35925,55.08453 7.32479,111.75372 33.12127,161.87781 15.93609,30.13647 41.58554,55.82514 73.67525,70.2672 19.0589,9.6189 40.03369,20.33245 62.08493,18.35389 17.60994,-3.0274 28.16928,-18.87804 35.36764,-33.10043 4.77937,-9.33467 10.75032,-19.2966 10.83519,-29.99203 -3.00392,-6.61842 -12.20917,-11.70334 -18.55071,-12.65002 -24.52375,-2.01932 -46.14109,2.75404 -68.4264,-9.99369 -21.51451,-13.17491 -30.19528,-37.67168 -39.58302,-59.06883 -13.55466,-32.20803 -17.474,-66.72247 -15.23316,-101.69042 1.84667,-53.51589 1.68257,-100.68207 9.97106,-153.49799 14.18999,-84.72642 30.22776,-169.20502 40.79018,-254.40395 1.89536,-18.19531 4.84885,-36.7677 0.13229,-54.79609 -3.07207,-7.36114 -11.64634,-7.48177 -18.69544,-7.17193 z"
       id="path230"
       inkscape:connector-curvature="0"
       sodipodi:nodetypes="cccccccccccccccccccccccccccccccccccccc" />
  </g>
</svg>
