<?xml version="1.0" encoding="UTF-8" standalone="no"?>
<!-- Created with Inkscape (http://www.inkscape.org/) -->

<svg
   xmlns:dc="http://purl.org/dc/elements/1.1/"
   xmlns:cc="http://creativecommons.org/ns#"
   xmlns:rdf="http://www.w3.org/1999/02/22-rdf-syntax-ns#"
   xmlns:svg="http://www.w3.org/2000/svg"
   xmlns="http://www.w3.org/2000/svg"
   xmlns:sodipodi="http://sodipodi.sourceforge.net/DTD/sodipodi-0.dtd"
   xmlns:inkscape="http://www.inkscape.org/namespaces/inkscape"
   width="1000"
   height="1000"
   viewBox="0 0 1000 1000"
   version="1.1"
   id="svg756"
   inkscape:version="0.92.3 (2405546, 2018-03-11)"
   sodipodi:docname="u0038.svg">
  <defs
     id="defs750" />
  <sodipodi:namedview
     id="base"
     pagecolor="#ffffff"
     bordercolor="#666666"
     borderopacity="1.0"
     inkscape:pageopacity="0.0"
     inkscape:pageshadow="2"
     inkscape:zoom="0.35"
     inkscape:cx="-117.22946"
     inkscape:cy="576.33663"
     inkscape:document-units="px"
     inkscape:current-layer="layer1"
     showgrid="true"
     units="px"
     inkscape:window-width="1211"
     inkscape:window-height="888"
     inkscape:window-x="214"
     inkscape:window-y="92"
     inkscape:window-maximized="0"
     showguides="true"
     inkscape:guide-bbox="true">
    <inkscape:grid
       type="xygrid"
       id="grid758" />
    <sodipodi:guide
       position="240,200"
       orientation="0,1"
       id="guide8"
       inkscape:locked="false" />
  </sodipodi:namedview>
  <metadata
     id="metadata753">
    <rdf:RDF>
      <cc:Work
         rdf:about="">
        <dc:format>image/svg+xml</dc:format>
        <dc:type
           rdf:resource="http://purl.org/dc/dcmitype/StillImage" />
        <dc:title />
      </cc:Work>
    </rdf:RDF>
  </metadata>
  <g
     inkscape:label="Layer 1"
     inkscape:groupmode="layer"
     id="layer1"
     transform="translate(0,-32.41664)">
    <path
       style="display:inline;fill:#000000;stroke-width:16.06103325"
       d="m 263.45301,116.13319 c -45.5488,2.25794 -88.02161,22.7631 -127.28014,45.7161 -28.91767,17.64413 -67.83482,44.2925 -87.184721,73.47248 -8.393359,13.98634 -9.787713,31.89374 -4.293683,47.32369 8.613995,28.22461 29.022877,50.28067 50.234247,68.77004 38.634637,18.81184 82.742577,49.55505 114.582387,63.53317 -30.12557,42.4726 -61.03656,75.31706 -81.67306,124.15282 -15.05185,33.12156 -24.91954,69.41729 -24.42763,106.36757 -0.39485,34.81555 8.84211,70.85509 31.06097,97.35324 26.3797,32.18645 69.52853,56.09485 106.87621,70.031 46.08124,16.80708 95.13952,23.50128 144.1733,18.30346 32.69076,-3.38859 65.25874,-16.31213 88.99056,-40.81529 26.26295,-26.06849 39.31321,-63.536 43.75567,-100.54121 3.07589,-25.62167 3.13803,-51.81263 -0.71866,-77.32488 -3.53881,-23.40946 -14.9082,-44.69627 -29.23278,-62.8183 -24.27796,-30.71412 -41.35255,-52.39515 -68.11334,-80.5511 -19.42709,-19.64657 -57.57758,-58.2109 -91.90693,-81.31566 0,0 19.39777,-23.45852 21.61416,-39.30512 1.60107,-21.54118 -2.24919,-31.12539 -4.86664,-52.89581 -2.49692,-7.32065 -13.42481,-8.51383 -17.19845,-1.78555 -31.97027,30.59451 -43.58585,44.24547 -64.39147,65.48843 -21.61412,-13.04622 -45.98213,-23.93594 -68.24379,-31.83916 -25.40138,-9.95809 -50.79089,-22.065 -71.28002,-41.08766 -3.4277,-3.64244 -3.50411,-9.51331 0.004,-13.14787 11.5477,-17.72119 27.33868,-31.70752 42.94951,-45.29973 21.60751,-17.81664 45.24209,-33.87741 71.18128,-43.64328 17.26619,-6.0537 38.05803,-6.69693 53.14431,5.52471 17.99358,13.39254 25.85815,36.2115 35.59016,56.09363 6.9939,13.7816 15.63175,28.12065 29.29842,35.32912 7.32571,3.21541 16.98395,-0.41887 19.29988,-8.80539 5.56913,-14.72085 4.27603,-30.3936 0.15573,-44.4899 -9.05726,-28.12883 -18.40101,-56.61978 -33.62616,-81.81108 -10.30638,-14.85254 -32.93756,-28.45214 -50.17963,-28.99798 -9.82632,-0.89999 -19.85259,-0.93923 -28.29378,-0.98449 z m 16.21062,335.14455 c 27.73522,18.24661 40.82815,29.13667 59.54616,42.84604 46.41319,37.03572 65.89223,65.53086 99.07436,115.94044 9.91289,15.05946 11.11328,31.41315 11.06454,49.80056 -0.0819,30.89766 -7.73844,76.22705 -27.28294,92.34449 -17.91437,14.77315 -37.05272,14.96655 -59.0012,15.21265 -38.79024,0.43499 -78.31861,-9.56961 -114.85999,-23.70569 -29.48803,-11.40747 -47.36425,-25.32476 -62.60597,-55.20923 -12.45528,-24.42111 -14.07894,-53.6291 -5.53117,-79.87715 12.887,-39.57275 28.71941,-78.5207 53.27691,-111.40652 12.65944,-16.95271 22.38253,-22.29545 46.3193,-45.94559 z"
       id="path4011"
       inkscape:connector-curvature="0"
       sodipodi:nodetypes="ccccccccccccssscccccccccccccccccccccssssssssc" />
  </g>
</svg>
