<?xml version="1.0" encoding="UTF-8" standalone="no"?>
<!-- Created with Inkscape (http://www.inkscape.org/) -->

<svg
   xmlns:dc="http://purl.org/dc/elements/1.1/"
   xmlns:cc="http://creativecommons.org/ns#"
   xmlns:rdf="http://www.w3.org/1999/02/22-rdf-syntax-ns#"
   xmlns:svg="http://www.w3.org/2000/svg"
   xmlns="http://www.w3.org/2000/svg"
   xmlns:sodipodi="http://sodipodi.sourceforge.net/DTD/sodipodi-0.dtd"
   xmlns:inkscape="http://www.inkscape.org/namespaces/inkscape"
   width="1000"
   height="1000"
   viewBox="0 0 1000 1000"
   version="1.1"
   id="svg756"
   inkscape:version="0.92.3 (2405546, 2018-03-11)"
   sodipodi:docname="u0034.svg">
  <defs
     id="defs750" />
  <sodipodi:namedview
     id="base"
     pagecolor="#ffffff"
     bordercolor="#666666"
     borderopacity="1.0"
     inkscape:pageopacity="0.0"
     inkscape:pageshadow="2"
     inkscape:zoom="0.35"
     inkscape:cx="-117.22946"
     inkscape:cy="580.59627"
     inkscape:document-units="px"
     inkscape:current-layer="layer1"
     showgrid="true"
     units="px"
     inkscape:window-width="1211"
     inkscape:window-height="514"
     inkscape:window-x="214"
     inkscape:window-y="92"
     inkscape:window-maximized="0"
     showguides="true"
     inkscape:guide-bbox="true">
    <inkscape:grid
       type="xygrid"
       id="grid758" />
    <sodipodi:guide
       position="240,200"
       orientation="0,1"
       id="guide8"
       inkscape:locked="false" />
  </sodipodi:namedview>
  <metadata
     id="metadata753">
    <rdf:RDF>
      <cc:Work
         rdf:about="">
        <dc:format>image/svg+xml</dc:format>
        <dc:type
           rdf:resource="http://purl.org/dc/dcmitype/StillImage" />
        <dc:title />
      </cc:Work>
    </rdf:RDF>
  </metadata>
  <g
     inkscape:label="Layer 1"
     inkscape:groupmode="layer"
     id="layer1"
     transform="translate(0,-32.41664)">
    <path
       style="display:inline;fill:#000000;stroke-width:13.35855389"
       d="m 178.83332,108.23823 c -22.54859,0.47947 -46.28393,13.26559 -54.38782,35.44168 -5.76717,17.3899 4.01961,36.44657 18.4174,46.16717 9.80968,11.29326 7.68104,27.54337 6.1233,41.27699 -8.53101,53.08802 -31.36548,102.20741 -51.086541,151.79587 -23.182754,57.10506 -45.719711,115.56138 -53.041446,177.26367 -3.301574,31.99968 -1.706865,66.76178 15.963775,94.61167 7.804677,12.5369 20.344633,27.84592 34.994724,30.27735 21.311068,4.45686 43.245868,2.41691 64.835178,2.42641 56.01195,-1.54227 101.02145,-6.09971 156.78788,-8.63903 -1.48223,48.04569 -4.83567,95.37706 -1.93505,138.34306 4.05437,13.96239 39.08738,19.99119 51.02301,12.38858 13.8299,-6.75188 20.97872,-23.06214 19.82085,-38.09365 2.84486,-37.73602 4.44498,-80.47339 7.38328,-120.16195 17.50707,-3.50723 24.84704,-8.85565 35.35837,-13.01056 22.93974,-11.25616 35.5846,-19.75889 51.20456,-41.15479 17.16207,-22.09662 23.10417,-56.65578 21.61726,-84.26085 -0.85835,-31.66003 -12.36016,-63.12914 -21.699,-93.30003 -2.99458,-7.88944 -8.42636,-17.29707 -17.76235,-17.708 -9.25773,0.23441 -14.70483,9.68534 -15.69251,18.04799 -6.7138,27.24684 -1.8906,55.69957 -6.22003,83.0799 -2.82402,22.81028 -8.3733,41.63374 -24.68286,58.69195 -3.65952,3.35327 -8.12684,10.67564 -18.84969,12.01936 1.74105,-18.58763 4.16582,-41.29934 6.12169,-59.40881 4.3165,-39.96575 8.06984,-62.07855 18.32926,-100.95854 4.79743,-16.37965 9.63501,-32.96581 18.54344,-47.64321 6.18698,-8.63295 17.67834,-13.27862 20.17478,-24.46597 3.30641,-10.6043 -3.74302,-20.46962 -9.60526,-28.58106 -8.77022,-10.27499 -16.84146,-21.66906 -28.24931,-29.15519 -9.1116,-6.44593 -27.83346,-7.86267 -36.9357,-0.62383 -13.05615,10.12766 -22.9465,27.24737 -27.62048,42.37616 -8.03148,30.38054 -17.88176,63.31749 -21.8068,94.46382 -7.28902,57.83978 -13.10258,105.51466 -15.42703,165.78756 -60.53212,4.4811 -92.45536,8.33102 -146.80061,9.21475 -13.10214,0.21296 -32.89293,2.42233 -44.31016,-4.22301 -10.58143,-6.15894 -9.36331,-21.70913 -8.94227,-32.78439 1.24839,-32.83704 12.94031,-64.05146 23.99421,-94.65437 24.02371,-66.51002 50.19966,-129.96523 72.2023,-197.3131 13.40623,-41.03513 27.12968,-83.2068 26.65807,-126.8172 -0.17356,-16.05012 -13.01453,-33.37226 -27.65884,-41.34761 -11.29925,-6.15362 -24.02926,-9.67956 -36.83958,-9.36879 z"
       id="path3891"
       inkscape:connector-curvature="0"
       sodipodi:nodetypes="cccccccccccccccccccccccscccccccscsssssssc" />
  </g>
</svg>
